<?xml version="1.0" ?><svg height="256" viewBox="0 0 256 256" width="256" xmlns="http://www.w3.org/2000/svg"><title/><g id="man-young-bussiness"><g><path d="M108,146h4c0-5.181,3.945-10.56,6.079-13.093l4.972,4.971a7,7,0,0,0,9.9,0l4.974-4.974C140.057,135.431,144,140.8,144,146h4c0-7.9-6.737-15.466-8.271-17.087l-2.856-7.615-3.746,1.4,2.548,6.794-5.554,5.554a3.073,3.073,0,0,1-4.242,0l-5.554-5.554,2.548-6.794-3.746-1.4-2.856,7.615C114.737,130.534,108,138.1,108,146Z"/><path d="M108,112v-5.347a9.267,9.267,0,0,1,4.5,2.672l3-2.642a13.517,13.517,0,0,0-8.638-4.216c-3.5-.214-6.934,1.14-10.2,4.039l2.658,2.989A12.069,12.069,0,0,1,104,106.766V112Z"/><path d="M149.133,102.467a13.517,13.517,0,0,0-8.638,4.216l3.01,2.634a9.947,9.947,0,0,1,4.5-2.637V112h4v-5.245a12.123,12.123,0,0,1,4.671,2.74l2.658-2.989C156.067,103.606,152.642,102.253,149.133,102.467Z"/><path d="M128.011,156a10.051,10.051,0,0,1-8.263-4.971l-3.5,1.942C120.111,159.92,127.68,160,128,160s7.889-.08,11.748-7.029l-3.5-1.942A10.048,10.048,0,0,1,128.011,156Z"/><path d="M183.857,217.257a2,2,0,0,0-1.664-1.248C167.617,214.592,155.34,207.5,150,197.478V178.789c4.542-5.059,18.256-24.723,26.256-42.931,8.358-2,21.744-21.35,21.744-29.858,0-9.131-12.57-15.521-13.105-15.789a1.972,1.972,0,0,0-.895-.187V65.5c12.439-11.537,13.922-24.611,13.99-25.3a2,2,0,0,0-1.272-2.066C185.965,34,178.268,28.5,170.823,23.185c-10.112-7.221-19.662-14.041-34.672-15.179C136.1,8,136.051,8,136,8h-4.809c-10.465,0-19.041,3.345-25.489,9.941a35.532,35.532,0,0,0-3.421,4.085c-12.665.292-22.275,4.035-28.557,11.154-9.3,10.537-7.78,24.464-7.711,25.052a2.005,2.005,0,0,0,.271.8L72,68.554V90.023a1.969,1.969,0,0,0-.895.188C70.57,90.479,58,96.869,58,106c0,8.509,13.386,27.863,21.744,29.858,8,18.208,21.714,37.872,26.256,42.931v18.688c-5.34,10.026-17.617,17.114-32.193,18.531a2,2,0,0,0-1.664,1.248l-8,20A2,2,0,0,0,66,240H190a2,2,0,0,0,1.857-2.743ZM158,211.769v5.524l-5.4,5.277a2,2,0,0,0,.289,3.094l4.886,3.257L156.361,236H143.447a98.812,98.812,0,0,0,6.467-31.5A37.746,37.746,0,0,0,158,211.769ZM84.1,87.184c.129-4.07.25-7.914,1.8-12.553,1.795-5.4,4.536-12.263,9.941-18.191l31.587,9.475a2,2,0,0,0,1.148,0l31.587-9.475c5.405,5.928,8.146,12.8,9.941,18.192,1.546,4.638,1.667,8.482,1.8,12.552.193,6.14.394,12.489,5.337,21.757,7.215,13.527-23.892,60.887-30.649,67.645C140.142,183.03,137.71,184,128,184s-12.142-.97-18.586-7.414c-6.758-6.758-37.864-54.118-30.649-67.645C83.708,99.673,83.908,93.324,84.1,87.184ZM129.764,220h-3.527l-3.321-6.643,3.823-3.345c.419.024.839.039,1.262.039s.843-.015,1.262-.039l3.823,3.345ZM110,200.5v-.008a21.677,21.677,0,0,0,11.691,8.621L111.6,217.939A95.476,95.476,0,0,1,110,200.5Zm24.309,8.613A21.677,21.677,0,0,0,146,200.492v.008a95.476,95.476,0,0,1-1.6,17.439ZM128,188c8.585,0,12.5-.725,18-5.407v10.679l-3.222,4.852a17.738,17.738,0,0,1-29.557,0L110,193.272V182.593C115.5,187.275,119.415,188,128,188Zm-8.2,28.08,3.106,6.213L120.34,236h-3.49a95.5,95.5,0,0,1-4.3-13.572ZM126.66,224h2.693l2.344,12H124.41Zm6.434-1.714,3.1-6.206,7.255,6.348A95.5,95.5,0,0,1,139.15,236h-3.377ZM184.339,94.459C187.858,96.506,194,101.1,194,106c0,5.988-9.234,19.664-15.507,24.389,3.569-9.469,5.082-18.061,2.272-23.331a43.758,43.758,0,0,1-2.817-6.39ZM180,93.1l-3.257,3.164a53.169,53.169,0,0,1-.846-9.2,44.516,44.516,0,0,0-2-13.689c-.047-.141-.1-.291-.148-.436A56.694,56.694,0,0,0,180,68.853ZM108.577,20.723C114.242,14.935,121.852,12,131.191,12h4.732c13.853,1.07,22.529,7.267,32.574,14.439,6.961,4.971,14.809,10.575,25.273,14.83-.9,4.516-4.924,18.266-21.41,27.855A48.977,48.977,0,0,0,162.2,52.775a2,2,0,0,0-2.008-.521L128,61.912,97.018,52.618C97.168,47.813,98.429,31.09,108.577,20.723ZM69.951,57.365c-.16-2.227-.536-13.253,6.773-21.538,5.075-5.752,12.793-9,22.96-9.684-6.4,11.63-6.694,24.924-6.688,27.49-6.055,6.6-9.11,14.373-10.894,19.733a44.526,44.526,0,0,0-2,13.69,53.169,53.169,0,0,1-.846,9.2L76,93.1V68a2,2,0,0,0-.285-1.029ZM62,106c0-4.886,6.144-9.485,9.663-11.539l6.39,6.207a43.755,43.755,0,0,1-2.817,6.39c-2.811,5.27-1.3,13.861,2.272,23.331C71.234,125.664,62,111.988,62,106Zm44.086,98.5a98.812,98.812,0,0,0,6.467,31.5H99.639l-1.416-7.079,4.886-3.257a2,2,0,0,0,.289-3.094L98,217.293v-5.524A37.746,37.746,0,0,0,106.086,204.5ZM75.41,219.859A52.99,52.99,0,0,0,94,214.183v3.952a2,2,0,0,0,.6,1.43l4.235,4.14-3.946,2.631a2,2,0,0,0-.852,2.056L95.561,236H68.954ZM160.439,236l1.522-7.608a2,2,0,0,0-.852-2.056l-3.946-2.631,4.235-4.14a2,2,0,0,0,.6-1.43v-3.952a52.99,52.99,0,0,0,18.59,5.676L187.046,236Z"/><path d="M104,91a136.932,136.932,0,0,1,13.752.984l.5-3.969A138.2,138.2,0,0,0,104,87c-10.705,0-15.227,4.4-15.414,4.586L91.4,94.431C91.434,94.4,95.1,91,104,91Z"/><path d="M152,91c8.9,0,12.566,3.4,12.586,3.414l2.828-2.828C167.227,91.4,162.705,87,152,87a138.2,138.2,0,0,0-14.248,1.016l.5,3.969A136.932,136.932,0,0,1,152,91Z"/></g></g></svg>