<?xml version="1.0" ?><svg height="256" viewBox="0 0 256 256" width="256" xmlns="http://www.w3.org/2000/svg"><title/><g id="man-programmer-glasses"><g><path d="M106.867,102.467c-3.506-.217-6.934,1.14-10.2,4.039l2.658,2.989A12.069,12.069,0,0,1,104,106.766V112h4v-5.347a9.262,9.262,0,0,1,4.5,2.672l3-2.642A13.517,13.517,0,0,0,106.867,102.467Z"/><path d="M181.7,220.94a2,2,0,0,0-.5-.54L150,197v-18.21c4.542-5.059,18.257-24.723,26.256-42.931,8.358-2,21.744-21.35,21.744-29.858,0-7.652-8.826-13.378-12-15.189V75c0-5.331-2.3-10.453-6.142-15.1-.376-2.407-1.638-9.46-4.113-13.875C170.2,36.134,156.133,20.186,136,16.7V14a6.007,6.007,0,0,0-6-6h-4a6.007,6.007,0,0,0-6,6v2.7C99.867,20.186,85.8,36.134,80.256,46.022,77.78,50.437,76.518,57.491,76.142,59.9,72.3,64.547,70,69.669,70,75V90.811C66.826,92.622,58,98.348,58,106c0,8.509,13.386,27.862,21.744,29.858,8,18.208,21.714,37.872,26.256,42.931V197L74.8,220.4a2,2,0,0,0-.5.54l-10,16A2,2,0,0,0,66,240H190a2,2,0,0,0,1.7-3.06ZM84.08,87.819a4.6,4.6,0,0,1,2.466-4.082A90.171,90.171,0,0,1,128,74a90.171,90.171,0,0,1,41.454,9.738,4.626,4.626,0,0,1,2.467,4.146,43.528,43.528,0,0,0,3,16.116h-5.5l.105-.7a6,6,0,0,0-3.753-6.484,45.7,45.7,0,0,0-27.189-1.645h0A5.982,5.982,0,0,0,134,101v2.7a11.439,11.439,0,0,0-12,0V101a5.982,5.982,0,0,0-4.584-5.833h0a45.684,45.684,0,0,0-27.189,1.645,6,6,0,0,0-3.753,6.484l.105.7h-5.5C83.525,97.91,83.912,93.016,84.08,87.819Zm81.492,14.886-1.527,10.185A5.965,5.965,0,0,1,158.11,118H148a10,10,0,0,1-10-10v-7a1.993,1.993,0,0,1,1.524-1.945A41.654,41.654,0,0,1,164.3,100.53,2.022,2.022,0,0,1,165.572,102.705ZM118,101v7a10,10,0,0,1-10,10H97.89a5.965,5.965,0,0,1-5.935-5.11l-1.527-10.185A2.022,2.022,0,0,1,91.7,100.53a39.03,39.03,0,0,1,14.469-2.7,44.353,44.353,0,0,1,10.3,1.222A1.993,1.993,0,0,1,118,101Zm-39.235,7.94c.17-.32.324-.629.484-.941h7.929L88,113.483A9.939,9.939,0,0,0,97.89,122H108a13.978,13.978,0,0,0,13.968-13.213,7.921,7.921,0,0,1,12.065,0A13.977,13.977,0,0,0,148,122h10.11a9.939,9.939,0,0,0,9.89-8.517l.822-5.483h7.93c.159.313.313.622.484.941,4.848,9.089-7.606,33.453-18.349,50.512l-1.822-9.568a22.023,22.023,0,0,0-18.481-17.641l.83-.83a2,2,0,0,0,.459-2.116l-3-8-3.746,1.4,2.548,6.794-5.554,5.554a3.073,3.073,0,0,1-4.242,0l-5.554-5.554,2.548-6.794-3.746-1.4-3,8a2,2,0,0,0,.459,2.116l.83.83a22.023,22.023,0,0,0-18.481,17.642l-1.822,9.567C86.37,142.395,73.917,118.031,78.765,108.941Zm24.1,41.693A18.023,18.023,0,0,1,120.55,136h.622l1.879,1.878a7,7,0,0,0,9.9,0L134.828,136h.622a18.023,18.023,0,0,1,17.685,14.634l2.605,13.683a98.68,98.68,0,0,1-9.154,12.269C140.142,183.03,137.71,184,128,184s-12.142-.97-18.586-7.414a98.68,98.68,0,0,1-9.154-12.269ZM128,188c8.585,0,12.5-.725,18-5.407v24.561c-6.052,5.865-12.1,8.846-18,8.846s-11.948-2.982-18-8.846V182.593C115.5,187.275,119.415,188,128,188Zm-18,24.534c5.935,4.951,11.974,7.466,18,7.466s12.065-2.515,18-7.466V236H110ZM194,106c0,5.988-9.234,19.663-15.507,24.389,3.568-9.469,5.082-18.061,2.271-23.331a43.779,43.779,0,0,1-2.814-6.394l6.388-6.205C187.858,96.506,194,101.1,194,106ZM124,16V14a2,2,0,0,1,2-2h4a2,2,0,0,1,2,2v2Zm4,4c22.557,0,38.432,17.586,44.256,27.978a29.348,29.348,0,0,1,2.45,6.712C163.08,44.74,144.4,38,128,38S92.918,44.741,81.292,54.692a29.321,29.321,0,0,1,2.453-6.714C89.568,37.586,105.443,20,128,20Zm0,22c23.8,0,54,15.538,54,33V91.155l-5.26,5.109a47.918,47.918,0,0,1-.821-8.445,8.584,8.584,0,0,0-4.608-7.624A94.235,94.235,0,0,0,128,70,94.243,94.243,0,0,0,84.688,80.2a8.558,8.558,0,0,0-4.606,7.559,48.332,48.332,0,0,1-.823,8.508L74,91.155V75C74,57.538,104.2,42,128,42ZM62,106c0-4.886,6.144-9.485,9.663-11.539l6.385,6.2a43.738,43.738,0,0,1-2.813,6.394c-2.811,5.27-1.3,13.861,2.272,23.331C71.234,125.663,62,111.988,62,106ZM77.5,223.376,106,202v34H69.608ZM150,236V202l28.5,21.376L186.392,236Z"/><path d="M149.133,102.467a13.517,13.517,0,0,0-8.638,4.216l3.01,2.634a9.947,9.947,0,0,1,4.5-2.637V112h4v-5.243a12.129,12.129,0,0,1,4.671,2.738l2.658-2.989C156.067,103.606,152.645,102.25,149.133,102.467Z"/><path d="M128,160c.32,0,7.889-.08,11.748-7.029l-3.5-1.942a9.335,9.335,0,0,1-16.5,0l-3.5,1.942C120.111,159.92,127.68,160,128,160Z"/><path d="M104,91a136.932,136.932,0,0,1,13.752.984l.5-3.969A138.2,138.2,0,0,0,104,87c-10.705,0-15.227,4.4-15.414,4.586L91.4,94.431C91.434,94.4,95.1,91,104,91Z"/><path d="M152,91c8.9,0,12.566,3.4,12.586,3.414l2.828-2.828C167.227,91.4,162.705,87,152,87a138.2,138.2,0,0,0-14.248,1.016l.5,3.969A136.932,136.932,0,0,1,152,91Z"/></g></g></svg>