<?xml version="1.0" ?><svg height="256" viewBox="0 0 256 256" width="256" xmlns="http://www.w3.org/2000/svg"><title/><g id="boy-soccer-player"><g><path d="M108,146h4c0-5.181,3.945-10.56,6.079-13.093l4.972,4.972a7.008,7.008,0,0,0,9.9,0l4.974-4.974C140.057,135.431,144,140.8,144,146h4c0-7.907-6.739-15.469-8.272-17.088l-2.855-7.614-3.745,1.4,2.548,6.794-5.554,5.555a3,3,0,0,1-4.243,0l-5.554-5.555,2.548-6.794-3.745-1.4-2.855,7.614C114.739,130.531,108,138.093,108,146Z"/><path d="M108,112v-5.348a9.268,9.268,0,0,1,4.5,2.673l3-2.643a13.524,13.524,0,0,0-8.638-4.216c-3.5-.208-6.934,1.139-10.2,4.038l2.657,2.99A12.075,12.075,0,0,1,104,106.766V112Z"/><path d="M181.7,220.94a2,2,0,0,0-.5-.54l-29.6-22.2A4.018,4.018,0,0,1,150,195V178.79c4.542-5.06,18.257-24.723,26.256-42.931,8.358-2,21.744-21.35,21.744-29.858,0-9.131-12.57-15.521-13.105-15.789a2,2,0,0,0-1.814.02C184.278,83.161,186,71.362,186,62c0-13.081-8.019-18.227-10.53-19.517-8.625-16.454-30.79-28.581-40-33.067A14.086,14.086,0,0,0,129.33,8h-2.66a14.086,14.086,0,0,0-6.135,1.416c-9.215,4.486-31.38,16.613-40,33.067C78.019,43.773,70,48.919,70,62c0,9.362,1.722,21.16,2.919,28.23a2,2,0,0,0-1.814-.019C70.57,90.479,58,96.869,58,106c0,8.509,13.386,27.862,21.744,29.858,8,18.208,21.714,37.872,26.256,42.931V195a4.021,4.021,0,0,1-1.6,3.2L74.8,220.4a2,2,0,0,0-.5.54l-10,16A2,2,0,0,0,66,240H190a2,2,0,0,0,1.7-3.06Zm-72.92-11.522c6.344,5.809,12.785,8.749,19.225,8.749s12.88-2.94,19.225-8.749l21.149,15.862L172.992,236H83.008l4.618-10.72ZM128,214.167c-6.961,0-14.123-4.268-21.307-12.686l.107-.08A8.039,8.039,0,0,0,110,195V182.593c5.5,4.682,9.415,5.407,18,5.407s12.5-.725,18-5.407V195a8.036,8.036,0,0,0,3.2,6.4l.108.081C142.123,209.9,134.961,214.167,128,214.167ZM84.1,87.186l.01-.316a17.846,17.846,0,0,1,3.724-10.375h0L98.555,62.559c19.547,10.113,39.344,10.113,58.891,0l10.72,13.936a17.846,17.846,0,0,1,3.724,10.375l.01.316c.193,6.139.393,12.486,5.336,21.756,7.214,13.526-23.892,60.887-30.649,67.645C140.142,183.03,137.71,184,128,184s-12.142-.97-18.586-7.414c-6.758-6.758-37.864-54.118-30.649-67.645C83.708,99.672,83.907,93.324,84.1,87.186Zm100.238,7.273C187.858,96.506,194,101.1,194,106c0,5.988-9.234,19.664-15.507,24.39,3.569-9.469,5.082-18.061,2.272-23.331a43.777,43.777,0,0,1-2.817-6.391Zm-101.6-48.6a2,2,0,0,0,1.046-.963c8.057-16.114,31.5-28.478,38.5-31.883A9.944,9.944,0,0,1,126.67,12h2.66a9.944,9.944,0,0,1,4.384,1.012c6.994,3.405,30.439,15.769,38.5,31.883a2.035,2.035,0,0,0,1.036.958C173.6,46,182,49.618,182,62c0,12.146-3.108,29.147-3.817,32.862l-1.44,1.4a53.153,53.153,0,0,1-.845-9.2l-.01-.317a21.823,21.823,0,0,0-4.552-12.687L159.585,58.78a2,2,0,0,0-2.542-.537c-19.271,10.492-38.815,10.492-58.087,0a2,2,0,0,0-2.542.537L84.664,74.055h0a21.826,21.826,0,0,0-4.551,12.688l-.01.317a53.153,53.153,0,0,1-.845,9.2l-1.44-1.4C77.108,91.148,74,74.152,74,62,74,49.618,82.4,46,82.743,45.857ZM62,106c0-4.886,6.143-9.485,9.663-11.539l6.39,6.207a43.777,43.777,0,0,1-2.817,6.391c-2.811,5.27-1.3,13.862,2.272,23.331C71.234,125.664,62,111.988,62,106ZM77.5,223.376l25.992-19.494q1.2,1.417,2.41,2.692L84.8,222.4a2,2,0,0,0-.637.809L78.653,236H69.608ZM177.347,236l-5.51-12.791a2,2,0,0,0-.637-.809l-21.1-15.826q1.208-1.278,2.41-2.693L178.5,223.376,186.392,236Z"/><path d="M149.133,102.467a13.524,13.524,0,0,0-8.638,4.216l3.011,2.635A9.941,9.941,0,0,1,148,106.68V112h4v-5.239a12.157,12.157,0,0,1,4.671,2.734l2.657-2.99C156.067,103.606,152.645,102.261,149.133,102.467Z"/><path d="M128,156a10.085,10.085,0,0,1-8.252-4.972l-3.5,1.943C120.112,159.92,127.68,160,128,160s7.888-.08,11.748-7.028l-3.5-1.943A10.049,10.049,0,0,1,128,156Z"/><path d="M104,91a136.918,136.918,0,0,1,13.752.984l.5-3.969A138.041,138.041,0,0,0,104,87c-10.706,0-15.227,4.4-15.414,4.586L91.4,94.431C91.433,94.4,95.1,91,104,91Z"/><path d="M152,91c8.9,0,12.567,3.4,12.586,3.414l2.828-2.828C167.227,91.4,162.706,87,152,87a138.041,138.041,0,0,0-14.248,1.016l.5,3.969A136.918,136.918,0,0,1,152,91Z"/></g></g></svg>