<?xml version="1.0" ?><svg height="256" viewBox="0 0 256 256" width="256" xmlns="http://www.w3.org/2000/svg"><title/><g id="man-young-cool"><g><path d="M118.079,132.907l4.972,4.972a7.007,7.007,0,0,0,9.9,0l4.974-4.974C140.057,135.431,144,140.8,144,146h4c0-7.906-6.739-15.469-8.272-17.088l-2.855-7.614-3.745,1.4,2.548,6.794-5.554,5.554a3,3,0,0,1-4.243,0l-5.554-5.554,2.548-6.794-3.745-1.4-2.855,7.614C114.739,130.531,108,138.094,108,146h4C112,140.819,115.945,135.44,118.079,132.907Z"/><path d="M117.752,91.984l.5-3.969A138.19,138.19,0,0,0,104,87c-10.706,0-15.227,4.4-15.414,4.586L91.4,94.431C91.433,94.4,95.1,91,104,91A136.918,136.918,0,0,1,117.752,91.984Z"/><path d="M152,91c8.9,0,12.567,3.4,12.586,3.414l2.828-2.828C167.227,91.4,162.706,87,152,87a138.19,138.19,0,0,0-14.248,1.016l.5,3.969A136.918,136.918,0,0,1,152,91Z"/><path d="M108,112v-5.348a9.264,9.264,0,0,1,4.5,2.672l3-2.642a13.521,13.521,0,0,0-8.638-4.216c-3.5-.215-6.934,1.139-10.2,4.039l2.657,2.989A12.077,12.077,0,0,1,104,106.766V112Z"/><path d="M149.133,102.467a13.521,13.521,0,0,0-8.638,4.216l3.011,2.634A9.939,9.939,0,0,1,148,106.68V112h4v-5.24a12.161,12.161,0,0,1,4.671,2.734l2.657-2.989C156.067,103.606,152.641,102.253,149.133,102.467Z"/><path d="M128,156a10.085,10.085,0,0,1-8.252-4.971l-3.5,1.942C120.112,159.92,127.68,160,128,160s7.888-.08,11.748-7.029l-3.5-1.942A10.05,10.05,0,0,1,128,156Z"/><path d="M210,96c0-13.793-6.043-23.212-12.441-33.185-4.5-7.016-9.155-14.27-11.629-23.342C179.6,16.269,149.305,16,149,16h-5a2,2,0,0,0-.485.06L128,19.938,112.485,16.06A2,2,0,0,0,112,16h-5c-.305,0-30.6.269-36.93,23.474C67.6,48.546,62.942,55.8,58.441,62.815,52.043,72.788,46,82.207,46,96c0,9.674,4.006,22.111,8.247,35.278C60.339,150.2,66.64,169.756,62.1,183.368a2,2,0,0,0,1,2.421c.655.327,15.989,7.833,42.895,8.194V197L74.8,220.4a2,2,0,0,0-.5.54l-10,16A2,2,0,0,0,66,240H190a2,2,0,0,0,1.7-3.06l-10-16a2,2,0,0,0-.5-.54L150,197v-3.017c26.905-.36,42.24-7.867,42.895-8.194a2,2,0,0,0,1-2.421c-4.537-13.611,1.763-33.172,7.856-52.089C205.994,118.111,210,105.674,210,96ZM71.143,122.257l-.425,1.062q-.692-.888-1.366-1.815l1.5-3.762-3.714-1.485-.492,1.229C63.943,113.11,62,108.746,62,106c0-4.886,6.143-9.485,9.663-11.539l6.39,6.207a43.776,43.776,0,0,1-2.817,6.39c-2.811,5.27-1.3,13.861,2.272,23.331a30.114,30.114,0,0,1-3.866-3.606l1.216-3.041Zm7.622-13.316c4.943-9.269,5.144-15.618,5.337-21.757.128-4.07.25-7.914,1.795-12.551,2.727-8.171,7.208-18.289,17.779-24.669C111.848,53.732,122.351,58,128,58s16.152-4.268,24.324-8.036c10.571,6.381,15.052,16.5,17.779,24.668,1.546,4.638,1.667,8.482,1.8,12.552.194,6.14.394,12.489,5.337,21.757,7.214,13.527-23.892,60.887-30.649,67.645C140.142,183.03,137.71,184,128,184s-12.142-.97-18.586-7.414C102.656,169.828,71.55,122.468,78.765,108.941Zm110.092,7.316-3.714,1.485,1.5,3.762q-.672.926-1.366,1.815l-.425-1.062-3.714,1.485,1.216,3.041a30.114,30.114,0,0,1-3.866,3.606c3.569-9.469,5.082-18.061,2.272-23.331a43.776,43.776,0,0,1-2.817-6.39l6.391-6.209C187.858,96.506,194,101.1,194,106c0,2.746-1.943,7.11-4.651,11.487ZM146,201.039c-12.1,9.612-23.9,9.612-36,0V182.593c5.5,4.682,9.415,5.407,18,5.407s12.5-.725,18-5.407Zm-40,26.655-9.6-1.371,4.375-20.408L106,202ZM69.608,236l7.89-12.624,18.407-13.805-3.861,18.009a2,2,0,0,0,1.673,2.4L106,231.735V236ZM110,236V206.023q8.97,6.245,18,6.254t18-6.254V236Zm76.392,0H150v-4.265l12.283-1.755a2,2,0,0,0,1.673-2.4l-3.861-18.009L178.5,223.376ZM155.22,205.915l4.375,20.408-9.6,1.371V202Zm34.358-23.033c-4.441,1.835-18.376,6.8-39.578,7.1v-11.2c4.542-5.059,18.257-24.723,26.256-42.931,2.316-.553,5.016-2.43,7.713-5.051l1.174,2.935,3.714-1.485-1.873-4.683q.712-.834,1.407-1.713l.752,1.881,3.714-1.485-1.68-4.2C195.109,116.248,198,109.953,198,106c0-9.131-12.57-15.521-13.105-15.789a2.005,2.005,0,0,0-2.288.354l-5.864,5.7a53.163,53.163,0,0,1-.846-9.2,44.521,44.521,0,0,0-2-13.691c-2.792-8.365-7.953-20.306-20.482-27.4a2,2,0,0,0-1.831-.072C140.547,51.047,131.951,54,128,54s-12.547-2.953-23.584-8.1a2,2,0,0,0-1.831.072C90.056,53.061,84.9,65,82.1,73.368a44.524,44.524,0,0,0-2,13.69,53.163,53.163,0,0,1-.846,9.2l-5.864-5.7a2,2,0,0,0-2.288-.354C70.57,90.479,58,96.869,58,106c0,3.953,2.891,10.248,6.823,16.057l-1.68,4.2,3.714,1.485.752-1.881q.694.878,1.407,1.713l-1.873,4.683,3.714,1.485,1.174-2.935c2.7,2.621,5.4,4.5,7.713,5.051,8,18.208,21.714,37.872,26.256,42.931v11.2c-21.2-.3-35.14-5.269-39.578-7.1,3.924-14.668-2.321-34.056-8.368-52.831C53.912,117.192,50,105.046,50,96c0-12.62,5.735-21.56,11.808-31.024,4.664-7.27,9.486-14.786,12.122-24.449C79.451,20.28,106.727,20,107,20h4.754l15.761,3.94a2.011,2.011,0,0,0,.97,0L144.246,20H149c.274,0,27.55.28,33.072,20.526,2.636,9.663,7.458,17.18,12.122,24.449C200.265,74.44,206,83.38,206,96c0,9.046-3.912,21.192-8.054,34.052C191.9,148.826,185.655,168.215,189.578,182.883Z"/></g></g></svg>