<?xml version="1.0" standalone="no"?>
<!DOCTYPE svg PUBLIC "-//W3C//DTD SVG 20010904//EN"
 "http://www.w3.org/TR/2001/REC-SVG-20010904/DTD/svg10.dtd">
<svg version="1.0" xmlns="http://www.w3.org/2000/svg"
 width="512.000000pt" height="512.000000pt" viewBox="0 0 512.000000 512.000000"
 preserveAspectRatio="xMidYMid meet">

<g transform="translate(0.000000,512.000000) scale(0.100000,-0.100000)"
fill="#000000" stroke="none">
<path d="M730 4089 c-148 -18 -336 -79 -384 -124 -26 -24 -33 -60 -27 -145 5
-71 28 -74 171 -22 119 43 223 62 338 62 129 0 181 -18 248 -85 70 -70 88
-125 85 -269 0 -60 -3 -111 -5 -114 -3 -2 -39 3 -82 12 -109 23 -298 38 -374
30 -210 -21 -389 -142 -452 -307 -26 -67 -36 -223 -18 -298 35 -149 144 -255
315 -304 87 -26 266 -17 357 17 92 35 169 83 231 145 l51 52 34 -62 c44 -81
98 -137 132 -137 24 0 111 51 158 93 28 26 28 46 -4 109 -59 117 -57 101 -64
553 -5 400 -6 423 -27 478 -49 129 -111 200 -228 258 -130 64 -269 82 -455 58z
m335 -879 c106 -20 98 -9 93 -124 -5 -119 -26 -174 -86 -234 -86 -86 -198
-126 -337 -120 -69 2 -88 7 -123 30 -80 54 -119 169 -93 275 23 88 88 149 191
178 62 17 248 14 355 -5z"/>
<path d="M4255 4090 c-188 -28 -338 -127 -408 -269 -30 -61 -32 -72 -32 -171
0 -99 2 -110 33 -172 40 -81 125 -164 214 -207 35 -17 137 -54 228 -82 231
-72 289 -103 321 -173 35 -77 13 -169 -52 -219 -121 -91 -398 -91 -637 1 -120
45 -126 43 -130 -63 -4 -113 11 -130 162 -182 151 -51 396 -68 541 -38 111 23
222 83 293 159 65 70 93 129 112 239 30 173 -64 346 -234 426 -33 16 -137 52
-230 80 -93 28 -193 62 -222 76 -119 58 -164 174 -105 271 27 44 107 83 200
96 110 16 238 0 376 -47 132 -46 135 -44 135 66 0 65 -3 82 -20 99 -47 47
-179 91 -330 110 -94 11 -141 11 -215 0z"/>
<path d="M1612 4037 c-15 -18 -15 -19 213 -773 142 -471 211 -684 225 -699 18
-17 36 -20 129 -23 131 -4 164 8 181 66 6 20 69 278 140 572 70 294 131 528
134 520 3 -8 64 -258 136 -555 71 -297 135 -550 141 -561 18 -34 53 -44 160
-44 149 0 149 0 203 173 180 568 396 1275 396 1292 0 39 -19 45 -137 45 -99 0
-115 -2 -132 -19 -25 -25 -20 -7 -187 -654 -91 -353 -141 -532 -146 -520 -4
10 -62 252 -128 538 -144 619 -144 620 -172 640 -27 18 -227 22 -260 4 -11 -6
-26 -25 -33 -42 -7 -18 -70 -277 -140 -577 -70 -300 -130 -548 -134 -552 -3
-4 -71 250 -151 565 -115 452 -150 577 -167 595 -20 20 -31 22 -141 22 -85 0
-123 -4 -130 -13z"/>
<path d="M4589 2166 c-196 -29 -429 -132 -429 -192 0 -25 29 -28 158 -15 331
33 480 24 534 -29 24 -24 28 -37 28 -83 0 -76 -42 -234 -112 -424 -33 -89 -58
-169 -55 -178 29 -75 225 145 311 350 61 146 88 263 90 388 1 106 0 109 -26
132 -59 51 -315 77 -499 51z"/>
<path d="M16 2064 c-29 -28 -17 -51 57 -116 432 -383 992 -673 1578 -817 484
-119 1023 -137 1538 -50 481 81 986 272 1336 507 142 95 162 121 134 170 -29
53 -61 51 -230 -16 -845 -330 -1757 -427 -2639 -281 -581 96 -1117 282 -1656
575 -91 49 -96 50 -118 28z"/>
</g>
</svg>
