<?xml version="1.0" standalone="no"?>
<!DOCTYPE svg PUBLIC "-//W3C//DTD SVG 20010904//EN"
 "http://www.w3.org/TR/2001/REC-SVG-20010904/DTD/svg10.dtd">
<svg version="1.0" xmlns="http://www.w3.org/2000/svg"
 width="512.000000pt" height="512.000000pt" viewBox="0 0 512.000000 512.000000"
 preserveAspectRatio="xMidYMid meet">
<metadata>
Created by potrace 1.16, written by Peter Selinger 2001-2019
</metadata>
<g transform="translate(0.000000,512.000000) scale(0.100000,-0.100000)"
fill="#000000" stroke="none">
<path d="M2477 4690 c-54 -14 -42 -7 -888 -496 -555 -320 -787 -459 -821 -491
-26 -26 -59 -72 -75 -107 l-28 -61 0 -980 0 -980 28 -58 c16 -31 47 -76 70
-98 28 -27 300 -190 812 -486 424 -245 799 -459 835 -476 57 -28 75 -32 150
-32 75 0 93 4 150 31 36 18 412 232 835 477 512 296 784 459 812 486 23 22 54
67 70 98 l28 58 0 985 0 985 -28 58 c-16 31 -47 76 -70 98 -28 27 -300 190
-812 486 -423 245 -798 459 -832 475 -68 32 -170 44 -236 28z m321 -895 c152
-29 340 -105 461 -187 83 -57 205 -165 261 -233 59 -72 119 -155 120 -167 0
-5 -37 -32 -82 -61 -98 -63 -423 -257 -431 -257 -3 0 -19 23 -37 50 -46 72
-148 161 -232 204 -101 50 -185 70 -298 70 -57 0 -121 -7 -160 -17 -206 -54
-376 -209 -448 -409 -21 -59 -27 -96 -30 -193 -5 -144 6 -201 60 -314 32 -66
57 -101 117 -161 233 -232 606 -252 859 -45 52 43 132 132 132 147 0 5 5 8 11
8 12 0 507 -286 528 -306 11 -10 8 -21 -22 -66 -179 -269 -471 -461 -812 -534
-119 -26 -351 -24 -475 4 -225 49 -420 146 -581 289 -675 597 -532 1667 276
2071 99 49 246 97 345 111 41 6 86 13 100 15 48 9 255 -3 338 -19z m892 -1095
l0 -70 71 0 72 0 -7 -31 c-3 -17 -6 -49 -6 -70 l0 -39 -70 0 -70 0 0 -70 0
-70 -65 0 -65 0 0 70 0 70 -65 0 -65 0 0 65 0 65 70 0 70 0 0 75 0 75 65 0 65
0 0 -70z m510 0 l0 -70 70 0 70 0 0 -70 0 -70 -70 0 -70 0 0 -70 0 -70 -65 0
-65 0 0 70 0 70 -70 0 -70 0 0 65 0 65 70 0 70 0 0 75 0 75 65 0 65 0 0 -70z"/>
</g>
</svg>
