<?xml version="1.0" standalone="no"?>
<!DOCTYPE svg PUBLIC "-//W3C//DTD SVG 20010904//EN"
 "http://www.w3.org/TR/2001/REC-SVG-20010904/DTD/svg10.dtd">
<svg version="1.0" xmlns="http://www.w3.org/2000/svg"
 width="512.000000pt" height="512.000000pt" viewBox="0 0 512.000000 512.000000"
 preserveAspectRatio="xMidYMid meet">

<g transform="translate(0.000000,512.000000) scale(0.100000,-0.100000)"
fill="#86C0BB" stroke="none">
<path d="M320 2560 l0 -2240 2240 0 2240 0 0 2240 0 2240 -2240 0 -2240 0 0
-2240z m3593 171 c43 -12 102 -33 130 -48 67 -37 159 -123 208 -194 l39 -57
-163 -105 -162 -106 -20 27 c-81 106 -134 141 -224 149 -139 13 -231 -60 -231
-183 0 -58 22 -105 68 -145 36 -32 89 -59 330 -167 184 -83 264 -134 354 -223
126 -124 175 -259 165 -454 -8 -158 -50 -256 -152 -357 -162 -161 -468 -225
-772 -162 -158 32 -327 124 -420 229 -57 64 -122 167 -108 172 6 2 82 46 170
98 l160 93 20 -26 c119 -157 228 -215 404 -214 186 1 284 83 268 224 -13 105
-68 150 -329 265 -226 100 -327 160 -408 242 -116 118 -163 240 -162 421 0
127 23 210 83 299 85 128 228 211 414 242 77 12 251 2 338 -20z m-1195 -788
c-4 -866 -1 -821 -74 -972 -67 -136 -194 -233 -364 -278 -89 -23 -289 -23
-385 1 -158 39 -292 134 -385 272 -27 42 -50 79 -50 84 0 9 339 215 343 209 2
-2 16 -26 31 -52 65 -113 128 -156 231 -157 111 0 182 55 204 161 7 33 11 297
11 779 l0 730 220 0 221 0 -3 -777z"/>
</g>
</svg>
