<?xml version="1.0" standalone="no"?>
<!DOCTYPE svg PUBLIC "-//W3C//DTD SVG 20010904//EN" "http://www.w3.org/TR/2001/REC-SVG-20010904/DTD/svg10.dtd">
<svg version="1.0" xmlns="http://www.w3.org/2000/svg" width="512.000000pt" height="512.000000pt" viewBox="0 0 512.000000 512.000000" preserveAspectRatio="xMidYMid meet">
<metadata>
Created by potrace 1.16, written by Peter Selinger 2001-2019
</metadata>
<g transform="translate(0.000000,512.000000) scale(0.100000,-0.100000)" fill="#86C0BB" stroke="#86C0BB">
  <path fill="#40C0BB" d="M3074 5088 c54 -267 10 -467 -151 -683 -85 -114 -215 -235 -473 -440 -339 -269 -494 -434 -545 -580 -11 -32 -18 -81 -18 -135 0 -184 107 -375 360 -640 123 -129 312 -305 319 -297 10 10 -49 111 -173 294 -125 185 -200 326 -222 415 -39 162 12 327 155 506 59 74 105 116 356 329 266 226 453 487 509 712 30 119 24 286 -14 383 -27 71 -85 168 -101 168 -4 0 -6 -15 -2 -32z"/>
  <path  d="M3580 4041 c-365 -122 -645 -275 -815 -446 -135 -137 -194 -262 -195 -415 0 -170 57 -305 206 -490 102 -127 130 -219 99 -326 -20 -71 -52 -126 -106 -188 -22 -25 -36 -46 -31 -46 26 0 177 113 252 189 112 113 152 191 158 306 5 105 -16 162 -113 299 -82 115 -140 216 -156 268 -15 51 -12 140 7 189 65 167 301 370 722 623 153 92 150 96 -28 37z"/>
  <path d="M3944 2350 c-83 -12 -149 -38 -179 -70 -33 -35 -32 -35 49 -14 258 67 476 -139 396 -375 -28 -84 -72 -150 -157 -233 -87 -87 -161 -141 -301 -224 -112 -67 -129 -80 -118 -91 11 -11 282 85 386 137 200 99 323 207 388 338 35 71 37 82 37 166 0 132 -38 206 -147 288 -83 63 -236 97 -354 78z"/>
  <path d="M1805 2299 c-128 -13 -241 -38 -381 -84 -395 -129 -448 -223 -168 -294 376 -95 1268 -96 1849 -1 226 37 304 59 388 107 43 24 99 53 124 64 25 11 44 22 41 24 -2 3 -76 -6 -164 -20 -795 -124 -1765 -148 -1998 -51 -104 44 40 130 366 220 65 18 121 35 124 39 9 9 -77 7 -181 -4z"/>
  <path d="M1693 1700 c-146 -56 -203 -104 -203 -169 0 -67 87 -123 257 -166 177 -44 324 -58 608 -59 299 0 522 20 775 70 127 25 330 77 330 84 0 4 -23 17 -52 31 -29 13 -75 41 -102 62 -28 20 -58 37 -68 37 -9 0 -81 -11 -160 -25 -336 -58 -665 -77 -963 -56 -279 20 -357 35 -398 75 -26 26 -21 52 19 96 20 22 35 42 33 44 -2 3 -36 -8 -76 -24z"/>
  <path d="M1835 1150 c-133 -46 -195 -96 -195 -156 0 -161 493 -290 980 -255 185 13 380 47 525 90 117 35 211 73 214 84 1 5 -60 39 -136 77 l-138 68 -110 -19 c-320 -55 -573 -65 -853 -35 -260 28 -329 64 -255 132 14 13 24 26 22 28 -2 2 -26 -4 -54 -14z"/>
  <path d="M1145 765 c-186 -43 -362 -122 -437 -197 -71 -71 -47 -134 66 -177 135 -50 665 -116 1141 -141 964 -51 2022 97 2265 316 66 60 61 119 -13 164 -43 27 -53 25 -33 -5 79 -120 -141 -212 -657 -275 -359 -43 -670 -60 -1108 -60 -510 0 -866 27 -1119 84 -191 44 -264 81 -241 125 26 47 300 149 410 152 20 1 47 4 61 8 25 7 25 7 -9 19 -56 20 -214 13 -326 -13z"/>
  <path d="M4411 456 c-145 -149 -707 -291 -1370 -346 -505 -42 -1181 -27 -1596 34 -133 20 -130 5 8 -39 208 -67 491 -95 1019 -102 537 -7 859 12 1218 73 425 72 701 200 750 350 20 59 9 70 -29 30z"/>
</g>
</svg>
