<?xml version="1.0" standalone="no"?>
<!DOCTYPE svg PUBLIC "-//W3C//DTD SVG 20010904//EN"
 "http://www.w3.org/TR/2001/REC-SVG-20010904/DTD/svg10.dtd">
<svg version="1.0" xmlns="http://www.w3.org/2000/svg"
 width="512.000000pt" height="512.000000pt" viewBox="0 0 512.000000 512.000000"
 preserveAspectRatio="xMidYMid meet">

<g transform="translate(0.000000,512.000000) scale(0.100000,-0.100000)"
fill="#86C0BB" stroke="none">
<path d="M2455 4783 c-69 -21 -1656 -974 -1707 -1025 -22 -22 -54 -70 -71
-106 l-32 -67 0 -1025 0 -1025 31 -65 c17 -36 51 -85 75 -108 25 -25 135 -98
259 -172 359 -213 409 -233 585 -234 97 -1 133 3 190 21 161 51 262 156 321
333 18 52 19 117 22 1037 l3 981 -25 29 -24 28 -145 0 c-140 0 -146 -1 -171
-24 l-26 -24 0 -926 c0 -598 -4 -939 -10 -963 -13 -45 -68 -95 -115 -104 -72
-13 -141 15 -369 151 l-216 130 2 924 3 924 140 87 c77 47 226 138 330 202
105 64 385 236 622 381 l433 265 762 -467 763 -466 3 -926 2 -925 -765 -457
-766 -456 -183 109 c-265 157 -242 149 -313 111 -63 -35 -132 -68 -205 -99
-59 -26 -79 -59 -55 -95 16 -25 534 -348 622 -389 75 -34 199 -33 277 4 120
56 1625 967 1666 1009 23 22 56 71 74 107 l33 67 0 1025 0 1025 -32 67 c-17
37 -51 86 -75 110 -60 60 -1619 994 -1701 1020 -70 22 -144 22 -212 1z"/>
<path d="M2835 3453 c-208 -29 -389 -128 -474 -261 -123 -192 -100 -478 49
-621 111 -106 293 -164 630 -201 224 -24 385 -67 430 -114 20 -22 22 -33 18
-95 -3 -60 -8 -75 -34 -108 -67 -83 -210 -119 -434 -110 -270 11 -379 75 -411
238 -8 38 -20 66 -36 81 -23 22 -32 23 -155 23 l-130 0 -25 -30 c-24 -27 -25
-34 -20 -105 16 -200 127 -370 306 -464 264 -138 739 -143 1010 -9 96 48 206
149 250 232 41 77 71 196 71 281 0 212 -78 345 -253 429 -109 53 -226 82 -508
126 -402 63 -459 84 -459 175 0 122 116 180 365 180 222 0 332 -34 385 -117
16 -25 32 -58 35 -73 3 -15 17 -38 31 -51 22 -21 37 -24 129 -27 117 -5 167 7
192 44 24 37 4 166 -42 262 -104 219 -345 324 -735 320 -85 0 -168 -3 -185 -5z"/>
</g>
</svg>
