<?xml version="1.0" standalone="no"?>
<!DOCTYPE svg PUBLIC "-//W3C//DTD SVG 20010904//EN"
 "http://www.w3.org/TR/2001/REC-SVG-20010904/DTD/svg10.dtd">
<svg version="1.0" xmlns="http://www.w3.org/2000/svg"
 width="512.000000pt" height="512.000000pt" viewBox="0 0 512.000000 512.000000"
 preserveAspectRatio="xMidYMid meet">

<g transform="translate(0.000000,512.000000) scale(0.100000,-0.100000)"
fill="#86C0BB" stroke="none">
<path d="M2325 3904 c-1006 -54 -1850 -402 -2181 -899 -218 -329 -186 -684 91
-1005 292 -338 873 -608 1550 -720 292 -48 392 -55 785 -55 390 0 495 8 800
61 647 111 1211 374 1503 701 347 388 326 828 -57 1208 -364 361 -1019 614
-1786 690 -152 15 -567 26 -705 19z m600 -144 c963 -82 1737 -433 1979 -900
112 -215 105 -420 -20 -635 -64 -108 -243 -287 -379 -377 -1000 -664 -2899
-664 -3890 0 -114 77 -278 229 -340 317 -196 276 -184 567 35 838 305 380
1007 674 1780 746 63 6 131 13 150 14 84 9 576 6 685 -3z"/>
<path d="M2265 3508 c-3 -7 -62 -311 -133 -675 l-128 -663 146 0 146 0 75 385
74 385 145 0 c224 0 257 -17 252 -124 -1 -33 -29 -193 -60 -353 l-59 -293 149
0 c81 0 148 1 148 3 0 2 23 116 50 253 85 419 94 501 64 572 -50 121 -176 162
-496 162 -82 0 -148 3 -148 8 0 4 13 75 30 157 43 218 56 195 -110 195 -103 0
-142 -3 -145 -12z"/>
<path d="M1031 3108 c-6 -29 -63 -323 -126 -653 -64 -330 -119 -610 -122 -623
l-5 -23 148 3 149 3 30 160 c17 88 34 168 38 178 6 15 25 17 199 17 280 0 387
30 510 140 141 126 217 309 205 496 -12 196 -129 313 -345 344 -37 5 -203 10
-369 10 l-302 0 -10 -52z m499 -167 c172 -13 223 -54 222 -178 -1 -81 -17
-152 -50 -221 -58 -120 -160 -162 -394 -162 -93 0 -118 3 -118 14 0 7 23 129
50 270 28 141 50 261 50 266 0 8 38 14 110 18 14 0 72 -3 130 -7z"/>
<path d="M3335 3148 c-2 -7 -62 -311 -133 -675 l-128 -663 148 0 c81 0 148 2
148 5 0 10 61 319 66 338 5 15 23 17 197 17 130 0 215 5 262 15 202 42 358
188 431 400 37 109 39 251 4 339 -40 105 -136 184 -261 217 -28 7 -172 13
-386 16 -281 4 -344 2 -348 -9z m600 -224 c106 -28 137 -114 100 -272 -30
-127 -91 -207 -185 -244 -46 -18 -81 -22 -214 -26 l-159 -4 6 23 c3 13 26 132
52 264 25 132 48 248 51 257 3 11 18 18 42 21 66 7 255 -4 307 -19z"/>
</g>
</svg>
