<?xml version="1.0" standalone="no"?>
<!DOCTYPE svg PUBLIC "-//W3C//DTD SVG 20010904//EN"
 "http://www.w3.org/TR/2001/REC-SVG-20010904/DTD/svg10.dtd">
<svg version="1.0" xmlns="http://www.w3.org/2000/svg"
 width="512.000000pt" height="512.000000pt" viewBox="0 0 512.000000 512.000000"
 preserveAspectRatio="xMidYMid meet">

<g transform="translate(0.000000,512.000000) scale(0.100000,-0.100000)"
 stroke="none">
<path fill="#7  9C0BB" d="M2236 5110 c-507 -36 -809 -160 -886 -366 -19 -51 -20 -77 -20 -414
l0 -360 623 -2 622 -3 3 -87 3 -88 -929 0 c-898 0 -931 -1 -1008 -20 -338 -87
-545 -373 -620 -860 -24 -159 -24 -546 0 -715 30 -207 75 -364 141 -495 72
-144 205 -285 327 -344 112 -56 179 -66 441 -66 l227 0 0 318 c0 409 14 510
93 672 80 163 223 277 417 332 72 20 104 21 835 28 854 7 800 2 973 86 166 80
279 226 316 406 23 115 25 1388 2 1463 -83 268 -370 436 -851 500 -146 19
-533 27 -709 15z m-249 -424 c103 -69 130 -200 62 -307 -42 -66 -96 -94 -185
-94 -60 0 -76 4 -112 28 -81 53 -118 142 -99 238 9 43 20 62 58 101 26 26 62
52 80 57 56 17 153 6 196 -23z"/>
<path fill="#96C0BB" d="M3987 3823 c-4 -3 -7 -157 -7 -342 0 -185 -5 -364 -10 -399 -40 -242
-168 -433 -351 -520 -161 -77 -142 -75 -984 -82 -651 -5 -757 -8 -805 -22
-259 -76 -402 -209 -471 -438 -23 -74 -23 -84 -27 -738 -2 -456 0 -679 8 -715
20 -99 65 -175 153 -262 124 -121 267 -191 497 -244 372 -85 1008 -78 1365 14
265 69 420 187 454 347 12 54 15 418 4 606 l-6 122 -619 0 -618 0 0 90 0 89
953 3 952 3 80 28 c260 92 434 305 528 647 l32 115 0 440 0 440 -28 115 c-103
414 -316 657 -612 700 -78 11 -478 14 -488 3z m-588 -3020 c21 -15 51 -45 67
-67 26 -37 29 -49 29 -116 -1 -65 -4 -80 -29 -117 -15 -23 -46 -54 -68 -70
-37 -25 -50 -28 -118 -28 -67 0 -82 4 -118 28 -23 15 -54 46 -69 69 -24 36
-28 51 -28 117 0 67 4 81 28 118 30 44 88 88 128 96 55 12 140 -2 178 -30z"/>
</g>
</svg>
