<?xml version="1.0" standalone="no"?>
<!DOCTYPE svg PUBLIC "-//W3C//DTD SVG 20010904//EN"
 "http://www.w3.org/TR/2001/REC-SVG-20010904/DTD/svg10.dtd">
<svg version="1.0" xmlns="http://www.w3.org/2000/svg"
 width="512.000000pt" height="512.000000pt" viewBox="0 0 512.000000 512.000000"
 preserveAspectRatio="xMidYMid meet">

<g transform="translate(0.000000,512.000000) scale(0.100000,-0.100000)"
fill="#86C0BB" stroke="none">
<path d="M1470 4788 c-161 -16 -278 -103 -355 -262 -77 -161 -100 -307 -92
-566 6 -177 20 -287 58 -458 12 -51 19 -95 17 -97 -1 -2 -59 -22 -128 -45
-353 -118 -611 -260 -786 -435 -234 -233 -243 -463 -26 -706 157 -176 476
-360 822 -474 63 -21 116 -38 117 -39 0 0 -7 -39 -18 -86 -78 -352 -80 -718
-5 -938 123 -360 419 -452 855 -264 164 70 389 221 554 371 43 39 81 71 85 71
4 0 45 -34 92 -76 378 -335 766 -508 1022 -455 310 65 469 440 418 984 -10
102 -52 356 -65 390 -5 11 11 20 67 37 122 37 313 116 447 185 297 154 496
344 553 529 73 239 -98 485 -489 705 -117 66 -293 141 -456 196 -71 24 -130
45 -132 47 -2 2 5 42 15 88 51 232 72 517 51 699 -49 418 -239 630 -546 608
-256 -19 -582 -190 -880 -460 -44 -40 -86 -77 -92 -81 -8 -4 -44 21 -97 68
-363 323 -731 493 -1006 464z m2189 -214 c81 -15 160 -124 196 -268 46 -186
29 -575 -35 -817 l-10 -35 -109 23 c-96 20 -354 59 -511 78 l-55 6 -82 112
c-44 62 -130 170 -190 241 -59 70 -117 139 -128 153 l-20 25 70 65 c218 201
509 378 681 413 96 19 116 19 193 4z m-1994 -14 c199 -51 452 -204 690 -417
l58 -52 -77 -86 c-83 -93 -235 -283 -306 -382 -40 -55 -50 -63 -85 -67 -251
-32 -381 -51 -494 -73 -105 -20 -135 -23 -141 -13 -8 14 -42 180 -61 305 -18
116 -16 413 3 500 25 111 56 181 101 230 70 77 163 93 312 55z m967 -702 c72
-81 218 -262 218 -270 0 -3 -130 -6 -290 -6 -159 0 -290 2 -290 4 0 14 279
344 291 344 4 0 36 -33 71 -72z m375 -506 c39 -21 253 -368 400 -649 l75 -143
-97 -181 c-107 -201 -194 -351 -297 -510 l-68 -106 -137 -6 c-173 -9 -491 -9
-654 -1 l-126 7 -85 131 c-143 220 -368 624 -368 661 0 57 401 758 453 793 23
14 197 20 538 17 226 -2 353 -6 366 -13z m-1203 -59 c-41 -62 -182 -305 -224
-386 -25 -48 -47 -87 -50 -87 -9 0 -160 402 -160 426 0 8 361 72 414 73 l38 1
-18 -27z m1671 7 c161 -27 275 -51 275 -59 0 -38 -150 -425 -160 -414 -5 4
-41 66 -81 138 -66 119 -155 269 -195 330 -16 25 -16 25 12 25 16 0 83 -9 149
-20z m-2260 -265 c28 -82 75 -206 104 -275 95 -228 90 -189 37 -311 -52 -120
-129 -323 -170 -446 -16 -47 -33 -83 -40 -83 -8 0 -80 23 -162 50 -291 99
-591 272 -680 393 -51 68 -84 152 -84 209 0 181 341 426 815 584 55 18 106 32
114 31 8 -1 35 -65 66 -152z m2891 111 c314 -108 545 -235 685 -376 153 -155
148 -273 -19 -432 -154 -146 -380 -270 -685 -374 -54 -19 -102 -34 -107 -34
-5 0 -14 17 -21 38 -27 85 -149 394 -194 490 l-47 104 60 141 c59 137 130 325
166 435 10 28 21 52 26 52 4 0 65 -20 136 -44z m-402 -1105 c31 -83 56 -155
56 -160 0 -5 -8 -12 -17 -15 -64 -18 -434 -78 -441 -72 -1 2 39 72 89 157 51
85 117 201 147 258 l56 105 27 -62 c15 -34 53 -129 83 -211z m-2114 151 c29
-53 93 -164 142 -246 49 -81 87 -150 84 -153 -10 -11 -429 56 -443 71 -11 11
146 438 158 430 4 -2 31 -48 59 -102z m2252 -612 c63 -271 64 -675 2 -830 -44
-111 -124 -192 -207 -210 -190 -39 -543 136 -854 424 l-63 58 36 42 c125 144
256 309 353 447 l32 45 122 13 c116 12 423 61 497 80 59 15 63 12 82 -69z
m-2322 36 c80 -14 217 -34 306 -43 l160 -18 99 -130 c102 -136 154 -199 268
-327 l68 -76 -94 -84 c-137 -122 -265 -209 -417 -286 -191 -96 -258 -116 -370
-110 -61 4 -101 12 -127 25 -124 64 -195 303 -179 603 7 149 44 386 72 469 3
9 14 12 37 8 17 -3 97 -17 177 -31z m1317 -110 c-51 -73 -261 -326 -270 -326
-9 0 -269 311 -290 346 -4 7 82 11 288 11 l294 0 -22 -31z"/>
<path d="M2471 3009 c-232 -45 -401 -286 -363 -516 41 -249 279 -425 519 -385
248 41 425 279 385 518 -43 259 -288 433 -541 383z"/>
</g>
</svg>
