<?xml version="1.0" encoding="UTF-8"?>
<!DOCTYPE svg PUBLIC "-//W3C//DTD SVG 1.0//EN" "http://www.w3.org/TR/2001/REC-SVG-20010904/DTD/svg10.dtd">
<!-- Creator: CorelDRAW -->
<svg xmlns="http://www.w3.org/2000/svg" xml:space="preserve" width="2.2848in" height="2.88083in" version="1.0" style="shape-rendering:geometricPrecision; text-rendering:geometricPrecision; image-rendering:optimizeQuality; fill-rule:evenodd; clip-rule:evenodd"
viewBox="0 0 2279.2 2873.77"
 xmlns:xlink="http://www.w3.org/1999/xlink"
>
 <defs>
  <style type="text/css">
   <![CDATA[
    .fil0 {fill:#005D5B;fill-rule:nonzero}
   ]]>
  </style>
 </defs>
 <g id="Layer_x0020_1">
  <metadata id="CorelCorpID_0Corel-Layer"/>
  <path class="fil0" d="M1214.46 558.45c108.46,0 211.13,32.81 285.23,99.27 68.19,61.13 111.1,148.89 111.45,263.49l0.02 9.48c2.09,43.74 20.66,83.17 49.69,112.16 30.78,30.78 73.37,49.88 120.38,49.88l335.15 0c25.62,-1.67 50.25,-9.19 71.69,-20.31 22.36,-11.64 40.08,-26.51 50.36,-42 12.34,-18.58 22.82,-38.27 30.05,-58.52 6.84,-19.21 10.83,-38.88 10.73,-58.45 -1.77,-281.12 -103.7,-504.85 -283.28,-658.37 -366.86,-313.65 -1068.67,-334.85 -1444.12,-81.14 -235.04,158.82 -459.7,527.67 -197.79,927.43 -125.71,-54.53 -203.57,-169.55 -254.04,-335.24 0.93,548.07 197.76,730.12 873.83,898.1l11.42 2.89c126.01,30.52 240.89,58.39 332.15,98.88 58.07,25.77 106.14,56.49 140.72,95.73 38.57,43.74 60.16,95.99 60.16,160.33 0,95.15 -44.8,170.26 -114.21,222.76 -71.31,53.92 -169.19,82.58 -268.32,82.58 -108.85,0 -211.81,-32.91 -285.92,-99.62 -68.06,-61.25 -110.78,-149.26 -110.78,-264.29l0 -7.94c-1.99,-43.9 -20.6,-83.49 -49.69,-112.57 -30.78,-30.78 -73.37,-49.88 -120.38,-49.88l-568.96 0c19.77,20.08 35.81,43.19 47.6,68.25 14.59,31.04 22.81,65.3 23.55,100.74l0.26 1.29c0,283.69 101.13,509.39 280.61,664.09 185.14,159.58 455.23,246.28 785.98,246.28 210.17,0 399.76,-33.97 558.26,-100.97 151.23,-63.91 274.69,-158.3 360.88,-282.21 45.37,-65.23 80.56,-138.53 104.13,-219.72 23.01,-79.34 35.16,-167.26 35.16,-263.71 0,-589.72 -545.76,-771.58 -902.24,-822.48 -615.85,-87.96 -540.94,-626.17 -79.73,-626.17l0.01 -0.06z"/>
 </g>
</svg>
