<svg width="659" height="507" viewBox="0 0 659 467" fill="none" xmlns="http://www.w3.org/2000/svg">
    <g clip-path="">
        <path fill-rule="evenodd" clip-rule="evenodd"
            d="M0.0481863 212.411C10.1764 307.907 98.2921 396.524 312.502 401.707C385.18 403.465 609.095 350.647 607.33 221.905C603.577 -52.0261 -6.23265 -21.5265 0.0481863 212.411Z"
            fill="#D2E3E9" />
        <path
            d="M327.175 203.856H217.9C210.614 203.856 204.708 209.503 204.708 216.468V286.884C204.708 293.849 210.614 299.496 217.9 299.496H327.175C334.461 299.496 340.367 293.849 340.367 286.884V216.468C340.367 209.503 334.461 203.856 327.175 203.856Z"
            fill="#373435" stroke="black" stroke-width="0.666929" stroke-miterlimit="2.61313" />
        <path d="M330.473 210.831H214.602V284.151H330.473V210.831Z" fill="#FEFEFE" />
        <path
            d="M171.607 231.533H80.716C74.6559 231.533 69.7432 236.23 69.7432 242.023V300.593C69.7432 306.387 74.6559 311.083 80.716 311.083H171.607C177.667 311.083 182.58 306.387 182.58 300.593V242.023C182.58 236.23 177.667 231.533 171.607 231.533Z"
            fill="#373435" stroke="black" stroke-width="0.666929" stroke-miterlimit="2.61313" />
        <path d="M174.351 237.335H77.9736V298.32H174.351V237.335Z" fill="#FEFEFE" />
        <path
            d="M459.622 225.827H368.73C362.67 225.827 357.757 230.523 357.757 236.317V294.887C357.757 300.68 362.67 305.377 368.73 305.377H459.622C465.682 305.377 470.594 300.68 470.594 294.887V236.317C470.594 230.523 465.682 225.827 459.622 225.827Z"
            fill="#373435" stroke="black" stroke-width="0.666929" stroke-miterlimit="2.61313" />
        <path d="M462.365 231.628H365.988V292.613H462.365V231.628Z" fill="#FEFEFE" />
        <path
            d="M100.338 273.875C109.546 273.875 117.01 266.739 117.01 257.936C117.01 249.133 109.546 241.997 100.338 241.997C91.1296 241.997 83.665 249.133 83.665 257.936C83.665 266.739 91.1296 273.875 100.338 273.875Z"
            fill="#85BBB6" />
        <path
            d="M106.559 276.413H90.1351C89.4022 276.413 88.8081 276.981 88.8081 277.681C88.8081 278.382 89.4022 278.95 90.1351 278.95H106.559C107.292 278.95 107.886 278.382 107.886 277.681C107.886 276.981 107.292 276.413 106.559 276.413Z"
            fill="#85BBB6" />
        <path
            d="M106.559 280.854H90.1351C89.4022 280.854 88.8081 281.421 88.8081 282.122C88.8081 282.823 89.4022 283.391 90.1351 283.391H106.559C107.292 283.391 107.886 282.823 107.886 282.122C107.886 281.421 107.292 280.854 106.559 280.854Z"
            fill="#85BBB6" />
        <path fill-rule="evenodd" clip-rule="evenodd"
            d="M112.394 246.926C115.254 249.787 117.011 253.666 117.011 257.936C117.011 262.763 114.766 267.09 111.219 270.013L100.339 257.936L112.395 246.926H112.394Z"
            fill="#2A5B5A" />
        <path fill-rule="evenodd" clip-rule="evenodd"
            d="M112.569 268.766C110.606 270.791 108.101 272.328 105.274 273.164L100.338 257.936L112.569 268.767V268.766Z"
            fill="#FEFEFE" />
        <path
            d="M292.367 272.821H255.245C253.049 272.821 251.26 271.112 251.26 269.011V219.866C251.26 217.767 253.048 216.057 255.245 216.057H294.474C296.671 216.057 298.459 217.766 298.459 219.866V265.504C298.459 266.094 297.956 266.572 297.342 266.572C296.728 266.572 296.225 266.091 296.225 265.504L296.224 219.866C296.224 218.945 295.442 218.194 294.478 218.194H255.246C254.282 218.194 253.497 218.945 253.497 219.866V269.011C253.497 269.932 254.282 270.681 255.246 270.681H292.368C292.986 270.681 293.486 271.161 293.486 271.749C293.486 272.337 292.986 272.821 292.368 272.821H292.367Z"
            fill="#85BBB6" />
        <path
            d="M294.474 272.821H290.85C290.232 272.821 289.732 272.34 289.732 271.753C289.732 271.166 290.236 270.685 290.85 270.685L294.474 270.684C295.438 270.684 296.221 269.936 296.221 269.014V263.61C296.221 263.019 296.724 262.542 297.339 262.542C297.953 262.542 298.456 263.022 298.456 263.61V269.014C298.459 271.112 296.671 272.822 294.474 272.822V272.821Z"
            fill="#85BBB6" />
        <path
            d="M272.604 224.926H258.994C258.377 224.926 257.877 224.447 257.877 223.858C257.877 223.268 258.378 222.79 258.994 222.79H272.604C273.222 222.79 273.722 223.268 273.722 223.858C273.722 224.447 273.218 224.926 272.604 224.926Z"
            fill="#85BBB6" />
        <path
            d="M272.604 230.413H258.994C258.377 230.413 257.877 229.934 257.877 229.345C257.877 228.755 258.378 228.276 258.994 228.276L272.604 228.275C273.222 228.275 273.722 228.753 273.722 229.343C273.722 229.933 273.218 230.412 272.604 230.412V230.413Z"
            fill="#85BBB6" />
        <path
            d="M272.604 235.901H258.994C258.377 235.901 257.877 235.423 257.877 234.833C257.877 234.244 258.378 233.765 258.994 233.765L272.604 233.764C273.222 233.764 273.722 234.243 273.722 234.832C273.722 235.422 273.218 235.901 272.604 235.901Z"
            fill="#85BBB6" />
        <path
            d="M290.722 253.916H277.115C276.497 253.916 275.998 253.435 275.998 252.847C275.998 252.26 276.498 251.779 277.115 251.779H290.722C291.339 251.779 291.839 252.26 291.839 252.847C291.839 253.435 291.338 253.916 290.722 253.916Z"
            fill="#85BBB6" />
        <path
            d="M290.722 260.946H277.115C276.497 260.946 275.998 260.465 275.998 259.878C275.998 259.291 276.498 258.81 277.115 258.81H290.722C291.339 258.81 291.839 259.291 291.839 259.878C291.839 260.465 291.338 260.946 290.722 260.946Z"
            fill="#85BBB6" />
        <path
            d="M289.824 241.391H258.993C258.376 241.391 257.876 240.912 257.876 240.322C257.876 239.733 258.377 239.254 258.993 239.254H289.824C290.441 239.254 290.941 239.733 290.941 240.322C290.941 240.912 290.441 241.391 289.824 241.391Z"
            fill="#85BBB6" />
        <path
            d="M289.824 246.878H258.993C258.376 246.878 257.876 246.399 257.876 245.81C257.876 245.22 258.377 244.742 258.993 244.742L289.824 244.741C290.441 244.741 290.941 245.219 290.941 245.809C290.941 246.398 290.441 246.878 289.824 246.878Z"
            fill="#85BBB6" />
        <path
            d="M289.824 266.087H258.993C258.376 266.087 257.876 265.606 257.876 265.018C257.876 264.43 258.377 263.95 258.993 263.95L289.824 263.949C290.441 263.949 290.941 264.43 290.941 265.017C290.941 265.604 290.441 266.086 289.824 266.086V266.087Z"
            fill="#85BBB6" />
        <path
            d="M290.722 235.901H281.733C281.116 235.901 280.616 235.423 280.616 234.833V223.857C280.616 223.266 281.116 222.789 281.733 222.789H290.722C291.339 222.789 291.839 223.267 291.839 223.857V234.833C291.842 235.423 291.338 235.901 290.722 235.901ZM282.853 233.764H289.603V224.926H282.853V233.764Z"
            fill="#85BBB6" />
        <path
            d="M267.984 261.201H258.994C258.377 261.201 257.877 260.72 257.877 260.133V251.73C257.877 251.139 258.378 250.661 258.994 250.661L267.984 250.661C268.601 250.661 269.101 251.142 269.101 251.729V260.133C269.101 260.723 268.601 261.202 267.984 261.202V261.201ZM260.113 259.061H266.866V252.794H260.113V259.061Z"
            fill="#85BBB6" />
        <path
            d="M319.599 272.426H305.026C302.83 272.426 301.042 270.717 301.042 268.616V219.472C301.042 217.372 302.829 215.662 305.026 215.662H321.706C323.902 215.662 325.691 217.371 325.691 219.472V265.109C325.691 265.7 325.188 266.178 324.574 266.178C323.959 266.178 323.456 265.697 323.456 265.109L323.455 219.472C323.455 218.55 322.673 217.8 321.709 217.8H305.027C304.063 217.8 303.279 218.55 303.279 219.472V268.616C303.279 269.538 304.063 270.287 305.027 270.287H319.6C320.217 270.287 320.717 270.767 320.717 271.355C320.717 271.942 320.217 272.426 319.6 272.426H319.599Z"
            fill="#85BBB6" />
        <path
            d="M321.706 272.426H318.081C317.464 272.426 316.964 271.945 316.964 271.358C316.964 270.771 317.467 270.29 318.081 270.29L321.706 270.289C322.669 270.289 323.453 269.541 323.453 268.62V263.215C323.453 262.625 323.955 262.147 324.57 262.147C325.184 262.147 325.687 262.628 325.687 263.215V268.62C325.691 270.717 323.903 272.427 321.706 272.427V272.426Z"
            fill="#85BBB6" />
        <path
            d="M319.69 253.521H307.042C306.468 253.521 306.004 253.04 306.004 252.453C306.004 251.866 306.469 251.385 307.042 251.385H319.69C320.265 251.385 320.729 251.866 320.729 252.453C320.729 253.041 320.264 253.521 319.69 253.521Z"
            fill="#85BBB6" />
        <path
            d="M319.69 260.552H307.042C306.468 260.552 306.004 260.071 306.004 259.484C306.004 258.896 306.469 258.416 307.042 258.416H319.69C320.265 258.416 320.729 258.896 320.729 259.484C320.729 260.071 320.264 260.552 319.69 260.552Z"
            fill="#85BBB6" />
        <path
            d="M319.425 240.996H306.474C306.215 240.996 306.005 240.517 306.005 239.928C306.005 239.338 306.215 238.86 306.474 238.86H319.425C319.685 238.86 319.895 239.338 319.895 239.928C319.895 240.517 319.685 240.996 319.425 240.996Z"
            fill="#85BBB6" />
        <path
            d="M319.425 246.483H306.474C306.215 246.483 306.005 246.005 306.005 245.415C306.005 244.826 306.215 244.347 306.474 244.347L319.425 244.346C319.685 244.346 319.895 244.825 319.895 245.414C319.895 246.004 319.685 246.483 319.425 246.483Z"
            fill="#85BBB6" />
        <path
            d="M317.861 235.507H308.872C308.255 235.507 307.755 235.028 307.755 234.439V223.462C307.755 222.872 308.255 222.394 308.872 222.394H317.861C318.478 222.394 318.978 222.873 318.978 223.462V234.439C318.981 235.028 318.477 235.507 317.861 235.507ZM309.992 233.37H316.743V224.531H309.992V233.37Z"
            fill="#85BBB6" />
        <path
            d="M242.583 272.426H223.368C221.172 272.426 219.384 270.717 219.384 268.616V219.472C219.384 217.372 221.172 215.662 223.368 215.662H244.69C246.886 215.662 248.675 217.371 248.675 219.472V265.109C248.675 265.7 248.172 266.178 247.558 266.178C246.944 266.178 246.44 265.697 246.44 265.109L246.44 219.472C246.44 218.55 245.657 217.8 244.693 217.8H223.369C222.405 217.8 221.62 218.55 221.62 219.472V268.616C221.62 269.538 222.405 270.287 223.369 270.287H242.584C243.201 270.287 243.701 270.767 243.701 271.355C243.701 271.942 243.201 272.426 242.584 272.426H242.583Z"
            fill="#85BBB6" />
        <path
            d="M244.689 272.426H241.065C240.447 272.426 239.947 271.945 239.947 271.358C239.947 270.771 240.45 270.29 241.065 270.29L244.689 270.289C245.653 270.289 246.436 269.541 246.436 268.62V263.215C246.436 262.625 246.938 262.147 247.553 262.147C248.168 262.147 248.671 262.628 248.671 263.215V268.62C248.674 270.717 246.886 272.427 244.689 272.427V272.426Z"
            fill="#85BBB6" />
        <path
            d="M240.937 253.521H227.33C226.713 253.521 226.213 253.04 226.213 252.453C226.213 251.866 226.713 251.385 227.33 251.385H240.937C241.554 251.385 242.054 251.866 242.054 252.453C242.054 253.041 241.554 253.521 240.937 253.521Z"
            fill="#85BBB6" />
        <path
            d="M240.937 260.552H227.33C226.713 260.552 226.213 260.071 226.213 259.484C226.213 258.896 226.713 258.416 227.33 258.416H240.937C241.554 258.416 242.054 258.896 242.054 259.484C242.054 260.071 241.554 260.552 240.937 260.552Z"
            fill="#85BBB6" />
        <path
            d="M240.652 240.996H226.718C226.438 240.996 226.213 240.517 226.213 239.928C226.213 239.338 226.439 238.86 226.718 238.86H240.652C240.931 238.86 241.157 239.338 241.157 239.928C241.157 240.517 240.931 240.996 240.652 240.996Z"
            fill="#85BBB6" />
        <path
            d="M240.652 246.483H226.718C226.438 246.483 226.213 246.005 226.213 245.415C226.213 244.826 226.439 244.347 226.718 244.347L240.652 244.346C240.931 244.346 241.157 244.825 241.157 245.414C241.157 246.004 240.931 246.483 240.652 246.483Z"
            fill="#85BBB6" />
        <path
            d="M240.937 235.507H231.948C231.331 235.507 230.831 235.028 230.831 234.439V223.462C230.831 222.872 231.332 222.394 231.948 222.394H240.937C241.554 222.394 242.054 222.873 242.054 223.462V234.439C242.057 235.028 241.554 235.507 240.937 235.507ZM233.068 233.37H239.819V224.531H233.068V233.37Z"
            fill="#85BBB6" />
        <path
            d="M402.416 289.47H372.4C370.624 289.47 369.178 287.827 369.178 285.807V278.788C369.178 276.768 370.624 275.125 372.4 275.125H404.12C405.896 275.125 407.341 276.768 407.341 278.788V282.434C407.341 283.002 406.934 283.461 406.438 283.461C405.942 283.461 405.535 282.999 405.535 282.434L405.534 278.788C405.534 277.901 404.901 277.18 404.121 277.18H372.4C371.62 277.18 370.986 277.902 370.986 278.788V285.807C370.986 286.693 371.621 287.412 372.4 287.412H402.416C402.915 287.412 403.319 287.874 403.319 288.439C403.319 289.004 402.915 289.469 402.416 289.469V289.47Z"
            fill="#85BBB6" />
        <path
            d="M404.119 289.47H401.188C400.688 289.47 400.285 289.008 400.285 288.443C400.285 287.878 400.692 287.415 401.188 287.415L404.119 287.415C404.899 287.415 405.531 286.695 405.531 285.809V280.612C405.531 280.044 405.938 279.584 406.435 279.584C406.931 279.584 407.338 280.046 407.338 280.612V285.809C407.34 287.827 405.895 289.471 404.119 289.471V289.47Z"
            fill="#85BBB6" />
        <path
            d="M397.87 261.471H382.415C381.336 261.471 380.461 262.307 380.461 263.339V274.038C380.461 275.07 381.336 275.907 382.415 275.907H397.87C398.95 275.907 399.825 275.07 399.825 274.038V263.339C399.825 262.307 398.95 261.471 397.87 261.471Z"
            stroke="#85BBB6" stroke-width="1.33386" stroke-miterlimit="2.61313" />
        <path
            d="M454.238 259.518H414.607C411.839 259.518 409.596 261.191 409.596 263.254V284.653C409.596 286.717 411.839 288.39 414.607 288.39H454.238C457.005 288.39 459.249 286.717 459.249 284.653V263.254C459.249 261.191 457.005 259.518 454.238 259.518Z"
            stroke="#85BBB6" stroke-width="1.33386" stroke-miterlimit="2.61313" />
        <path
            d="M382.681 241.6H381.705C381.018 241.6 380.461 242.133 380.461 242.789V255.527C380.461 256.183 381.018 256.716 381.705 256.716H382.681C383.368 256.716 383.925 256.183 383.925 255.527V242.789C383.925 242.133 383.368 241.6 382.681 241.6Z"
            fill="#85BBB6" />
        <path
            d="M398.049 243.808H397.072C396.385 243.808 395.828 244.262 395.828 244.823V255.7C395.828 256.261 396.385 256.715 397.072 256.715H398.049C398.736 256.715 399.293 256.261 399.293 255.7V244.823C399.293 244.262 398.736 243.808 398.049 243.808Z"
            fill="#85BBB6" />
        <path
            d="M387.922 245.676H386.946C386.259 245.676 385.702 246.065 385.702 246.544V255.847C385.702 256.326 386.259 256.715 386.946 256.715H387.922C388.609 256.715 389.166 256.326 389.166 255.847V246.544C389.166 246.065 388.609 245.676 387.922 245.676Z"
            fill="#85BBB6" />
        <path
            d="M392.986 248.054H392.009C391.322 248.054 390.765 248.359 390.765 248.735V256.034C390.765 256.411 391.322 256.716 392.009 256.716H392.986C393.673 256.716 394.23 256.411 394.23 256.034V248.735C394.23 248.359 393.673 248.054 392.986 248.054Z"
            fill="#85BBB6" />
        <path
            d="M372.585 242.874H371.282C370.367 242.874 369.624 243.134 369.624 243.454V249.681C369.624 250.001 370.367 250.262 371.282 250.262H372.585C373.501 250.262 374.243 250.001 374.243 249.681V243.454C374.243 243.134 373.501 242.874 372.585 242.874Z"
            fill="#85BBB6" />
        <path
            d="M372.585 252.427H371.282C370.367 252.427 369.624 252.687 369.624 253.008V259.234C369.624 259.555 370.367 259.815 371.282 259.815H372.585C373.501 259.815 374.243 259.555 374.243 259.234V253.008C374.243 252.687 373.501 252.427 372.585 252.427Z"
            fill="#85BBB6" />
        <path
            d="M372.585 262.958H371.282C370.367 262.958 369.624 263.218 369.624 263.538V269.765C369.624 270.085 370.367 270.345 371.282 270.345H372.585C373.501 270.345 374.243 270.085 374.243 269.765V263.538C374.243 263.218 373.501 262.958 372.585 262.958Z"
            fill="#85BBB6" />
        <path
            d="M562.135 263.341H508.069C504.465 263.341 501.542 266.134 501.542 269.581V304.421C501.542 307.867 504.465 310.661 508.069 310.661H562.135C565.74 310.661 568.662 307.867 568.662 304.421V269.581C568.662 266.134 565.74 263.341 562.135 263.341Z"
            fill="#373435" stroke="black" stroke-width="0.666929" stroke-miterlimit="2.61313" />
        <path d="M563.767 266.792H506.438V303.069H563.767V266.792Z" fill="#FEFEFE" />
        <path
            d="M559.659 268.957H558.357C557.441 268.957 556.698 269.217 556.698 269.538V275.764C556.698 276.085 557.441 276.345 558.357 276.345H559.659C560.575 276.345 561.317 276.085 561.317 275.764V269.538C561.317 269.217 560.575 268.957 559.659 268.957Z"
            fill="#85BBB6" />
        <path
            d="M559.659 277.656H558.357C557.441 277.656 556.698 277.916 556.698 278.237V284.463C556.698 284.784 557.441 285.044 558.357 285.044H559.659C560.575 285.044 561.317 284.784 561.317 284.463V278.237C561.317 277.916 560.575 277.656 559.659 277.656Z"
            fill="#85BBB6" />
        <path
            d="M559.659 286.224H558.357C557.441 286.224 556.698 286.484 556.698 286.805V293.031C556.698 293.352 557.441 293.612 558.357 293.612H559.659C560.575 293.612 561.317 293.352 561.317 293.031V286.805C561.317 286.484 560.575 286.224 559.659 286.224Z"
            fill="#85BBB6" />
        <path
            d="M553.893 268.957H552.591C551.675 268.957 550.932 269.217 550.932 269.538V275.764C550.932 276.085 551.675 276.345 552.591 276.345H553.893C554.809 276.345 555.551 276.085 555.551 275.764V269.538C555.551 269.217 554.809 268.957 553.893 268.957Z"
            fill="#85BBB6" />
        <path fill-rule="evenodd" clip-rule="evenodd"
            d="M508.731 367.192C502.036 367.004 495.342 366.816 488.647 366.627C487.947 373.706 488.85 381.348 488.149 388.425C486.825 401.811 483.897 414.633 482.571 428.019C486.791 428.1 491.01 428.18 495.229 428.261C497.755 416.837 502.222 405.816 504.747 394.393C506.722 385.46 503.887 376.205 508.731 367.192Z"
            fill="#85BBB6" stroke="#373435" stroke-width="1.33386" stroke-miterlimit="2.61313" />
        <path d="M100.106 334.584H93.4053L73.6805 454.27H80.3815L100.106 334.584Z" fill="#85BBB6"
            stroke="#373435" stroke-width="1.34206" stroke-miterlimit="2.61313" />
        <path d="M532.683 334.584H539.384L559.109 454.27H552.408L532.683 334.584Z" fill="#85BBB6"
            stroke="#373435" stroke-width="1.34206" stroke-miterlimit="2.61313" />
        <path d="M564.689 332.549H68.1006V340.068H564.689V332.549Z" fill="#85BBB6" stroke="#373435"
            stroke-width="1.33386" stroke-miterlimit="2.61313" />
        <g id='top'>
            <g>
                <path
                    d="M231.303 154.884H222.359C221.199 154.884 220.259 155.605 220.259 156.495V157.228C220.259 158.118 221.199 158.839 222.359 158.839H231.303C232.463 158.839 233.403 158.118 233.403 157.228V156.495C233.403 155.605 232.463 154.884 231.303 154.884Z"
                    fill="#FEFEFE" stroke="black" stroke-width="1.99984" stroke-miterlimit="2.61313" />
                <path
                    d="M230.094 158.839H223.568C222.722 158.839 222.036 159.258 222.036 159.775V160.201C222.036 160.717 222.722 161.136 223.568 161.136H230.094C230.941 161.136 231.627 160.717 231.627 160.201V159.775C231.627 159.258 230.941 158.839 230.094 158.839Z"
                    fill="#FEFEFE" stroke="black" stroke-width="1.99984" stroke-miterlimit="2.61313" />
                <path
                    d="M229.357 161.136H224.306C223.651 161.136 223.12 161.555 223.12 162.072V162.498C223.12 163.014 223.651 163.433 224.306 163.433H229.357C230.012 163.433 230.543 163.014 230.543 162.498V162.072C230.543 161.555 230.012 161.136 229.357 161.136Z"
                    fill="#FEFEFE" stroke="black" stroke-width="1.99984" stroke-miterlimit="2.61313" />
                <path fill-rule="evenodd" clip-rule="evenodd"
                    d="M230.598 151.256C230.598 149.58 231.431 145.219 232.922 144.445C238.343 141.631 242.393 136.417 242.393 127.779C242.393 119.142 234.544 113.995 226.75 113.995C218.956 113.995 211.107 119.141 211.107 127.779C211.107 136.417 215.157 141.631 220.578 144.445C222.069 145.219 222.902 149.58 222.902 151.256H230.599H230.598Z"
                    fill="#FEFEFE" stroke="black" stroke-width="2.66677" stroke-miterlimit="2.61313" />
                <path
                    d="M230.851 150.929H222.812C221.769 150.929 220.924 151.651 220.924 152.541V153.273C220.924 154.163 221.769 154.885 222.812 154.885H230.851C231.893 154.885 232.738 154.163 232.738 153.273V152.541C232.738 151.651 231.893 150.929 230.851 150.929Z"
                    fill="#FEFEFE" stroke="black" stroke-width="1.99984" stroke-miterlimit="2.61313" />
                <path
                    d="M222.147 154.45H231.517C232.175 154.45 232.774 154.679 233.208 155.05C233.644 155.423 233.913 155.934 233.913 156.496V157.228C233.913 157.79 233.644 158.301 233.209 158.671C232.772 159.043 232.174 159.274 231.516 159.274H222.146C221.489 159.274 220.889 159.043 220.455 158.673C220.019 158.301 219.75 157.789 219.75 157.228V156.496C219.75 155.934 220.019 155.423 220.454 155.052C220.89 154.679 221.489 154.45 222.147 154.45ZM231.517 155.319H222.147C221.767 155.319 221.423 155.451 221.173 155.664C220.924 155.877 220.769 156.172 220.769 156.496V157.228C220.769 157.552 220.924 157.847 221.173 158.059C221.423 158.271 221.767 158.404 222.147 158.404H231.517C231.896 158.404 232.241 158.272 232.491 158.059C232.739 157.846 232.894 157.551 232.894 157.228V156.496C232.894 156.172 232.739 155.877 232.491 155.664C232.241 155.451 231.896 155.319 231.517 155.319Z"
                    fill="black" />
                <path
                    d="M223.131 158.405H230.531C230.971 158.405 231.372 158.559 231.663 158.807C231.956 159.057 232.136 159.399 232.136 159.775V160.201C232.136 160.576 231.956 160.919 231.665 161.167C231.372 161.417 230.971 161.571 230.531 161.571H223.131C222.691 161.571 222.29 161.417 221.999 161.169C221.707 160.919 221.526 160.576 221.526 160.201V159.775C221.526 159.399 221.707 159.057 221.997 158.809C222.289 158.559 222.69 158.405 223.13 158.405H223.131ZM230.531 159.274H223.131C222.969 159.274 222.822 159.331 222.716 159.421C222.611 159.511 222.545 159.637 222.545 159.775V160.201C222.545 160.339 222.611 160.465 222.716 160.555C222.821 160.645 222.969 160.702 223.131 160.702H230.531C230.693 160.702 230.84 160.645 230.946 160.555C231.052 160.465 231.118 160.339 231.118 160.201V159.775C231.118 159.637 231.052 159.511 230.946 159.421C230.841 159.331 230.693 159.274 230.531 159.274Z"
                    fill="black" />
                <path
                    d="M224.216 160.701H229.448C229.888 160.701 230.289 160.856 230.58 161.103C230.872 161.353 231.053 161.696 231.053 162.071V162.497C231.053 162.872 230.873 163.215 230.583 163.463C230.29 163.713 229.889 163.867 229.449 163.867H224.217C223.777 163.867 223.376 163.714 223.085 163.466C222.792 163.215 222.612 162.873 222.612 162.497V162.072C222.612 161.696 222.792 161.353 223.083 161.105C223.376 160.856 223.777 160.701 224.217 160.701H224.216ZM229.448 161.57H224.216C224.054 161.57 223.907 161.627 223.801 161.716C223.695 161.807 223.63 161.933 223.63 162.071V162.497C223.63 162.635 223.696 162.761 223.801 162.851C223.906 162.941 224.054 162.997 224.216 162.997H229.448C229.61 162.997 229.757 162.941 229.863 162.851C229.968 162.761 230.034 162.635 230.034 162.497V162.071C230.034 161.933 229.968 161.807 229.862 161.717C229.757 161.627 229.609 161.57 229.447 161.57H229.448Z"
                    fill="black" />
                <path
                    d="M230.104 150.821C230.169 149.754 230.452 148.1 230.927 146.706C231.339 145.499 231.915 144.461 232.658 144.075C235.456 142.623 237.88 140.512 239.537 137.594C241.011 135.002 241.884 131.765 241.884 127.779C241.884 123.826 240.194 120.631 237.619 118.361C234.733 115.82 230.734 114.43 226.749 114.43C222.764 114.43 218.765 115.82 215.88 118.361C213.304 120.631 211.615 123.826 211.615 127.779C211.615 131.765 212.488 135.002 213.961 137.594C215.619 140.512 218.043 142.623 220.841 144.075C221.584 144.461 222.16 145.499 222.571 146.706C223.047 148.1 223.33 149.754 223.395 150.821H230.104H230.104ZM231.902 146.947C231.384 148.463 231.108 150.305 231.108 151.256V151.691H222.392V151.256C222.392 150.305 222.116 148.463 221.598 146.947C221.25 145.926 220.811 145.074 220.313 144.815C217.357 143.281 214.798 141.052 213.047 137.972C211.509 135.263 210.597 131.901 210.597 127.779C210.597 123.583 212.402 120.182 215.153 117.758C218.233 115.044 222.5 113.561 226.75 113.561C231 113.561 235.267 115.044 238.347 117.758C241.098 120.182 242.903 123.584 242.903 127.779C242.903 131.9 241.991 135.263 240.453 137.972C238.703 141.052 236.143 143.281 233.188 144.815C232.689 145.074 232.25 145.927 231.902 146.947Z"
                    fill="black" />
                <path
                    d="M224.724 150.987L221.368 130.034L221.957 130.041C223.481 130.059 224.825 129.655 225.94 129.008C224.997 128.256 224.255 127.349 223.75 126.409C223.353 125.671 223.099 124.911 223.006 124.192C222.912 123.452 222.984 122.749 223.24 122.143C223.734 120.976 224.869 120.185 226.751 120.185C228.631 120.185 229.768 120.976 230.262 122.143C230.519 122.749 230.59 123.453 230.496 124.192C230.403 124.911 230.149 125.671 229.752 126.409C229.246 127.348 228.506 128.256 227.561 129.008C228.677 129.655 230.021 130.058 231.545 130.041L232.133 130.034L228.777 150.987L227.771 150.871L230.971 130.896C229.352 130.814 227.93 130.317 226.752 129.58C225.573 130.317 224.152 130.814 222.532 130.896L225.732 150.871L224.726 150.987H224.724ZM226.751 128.466C227.65 127.779 228.355 126.931 228.828 126.05C229.179 125.398 229.402 124.728 229.484 124.096C229.564 123.484 229.508 122.913 229.307 122.436C228.959 121.612 228.133 121.055 226.751 121.055C225.368 121.055 224.542 121.612 224.194 122.435C223.993 122.912 223.938 123.484 224.017 124.096C224.099 124.727 224.322 125.397 224.673 126.049C225.147 126.929 225.852 127.779 226.751 128.466V128.466Z"
                    fill="black" />
                <path
                    d="M222.812 150.494H230.851C231.509 150.494 232.109 150.724 232.542 151.095C232.978 151.467 233.247 151.979 233.247 152.54V153.272C233.247 153.834 232.978 154.345 232.544 154.716C232.107 155.088 231.509 155.318 230.85 155.318H222.812C222.154 155.318 221.555 155.088 221.121 154.717C220.685 154.345 220.416 153.834 220.416 153.272V152.54C220.416 151.978 220.685 151.467 221.119 151.096C221.556 150.724 222.154 150.494 222.812 150.494ZM230.851 151.363H222.812C222.433 151.363 222.088 151.496 221.839 151.709C221.589 151.922 221.434 152.217 221.434 152.54V153.272C221.434 153.596 221.589 153.891 221.839 154.103C222.088 154.316 222.433 154.449 222.812 154.449H230.851C231.231 154.449 231.576 154.316 231.825 154.103C232.074 153.89 232.229 153.595 232.229 153.272V152.54C232.229 152.216 232.074 151.921 231.825 151.709C231.576 151.496 231.23 151.363 230.851 151.363Z"
                    fill="black" />


            </g>
            <path
                d="M569.578 138.884C562.279 141.079 557.413 147.225 557.413 154.03C557.413 162.59 565.441 169.614 574.931 169.614H626.514C636.247 169.614 644.033 162.591 644.033 154.03C644.033 145.908 637.463 139.104 628.461 138.226C627.488 132.738 623.595 128.348 617.999 126.373C612.646 124.398 606.564 124.837 601.94 127.69C597.561 120.446 588.558 118.251 580.529 120.885C572.256 123.738 567.389 130.982 569.579 138.884H569.578Z"
                fill="#EAF7F8" stroke="#85BBB6" stroke-width="2.66677" stroke-miterlimit="2.61313" />
                <path
                d="M115.634 72.8618C117.176 76.3046 119.372 79.4408 122.085 82.1213C123.392 83.3542 124.802 84.5198 126.301 85.5617C128.2 85.6766 130.307 86.1299 131.275 86.3945L135.662 87.2526L141.375 85.4294L140.991 82.5611C132.749 81.2394 126.199 75.7468 123.43 68.6377L118.738 70.3809C118.429 70.514 118.131 70.6218 117.847 70.7089C117.672 71.8943 116.916 72.7421 115.634 72.861V72.8618Z"
                fill="#85BBB6" stroke="black" stroke-width="1.99984" stroke-miterlimit="7.6613"
                stroke-linecap="round" stroke-linejoin="round" />
            <path
                d="M190.256 86.2836L180.515 76.0186V82.1776H153.012C149.791 85.3304 145.803 88.4832 141.355 90.3896H180.515V96.5486L190.256 86.2836Z"
                fill="#85BBB6" stroke="black" stroke-width="1.99984" stroke-miterlimit="7.6613"
                stroke-linecap="round" stroke-linejoin="round" />
            <path
                d="M161.27 34.4404C156.55 31.7788 151.041 30.252 145.159 30.252C135.266 30.252 126.522 34.5775 120.694 41.3228C118.7 43.7427 117.012 46.3821 115.862 49.0943C115.785 49.3146 115.709 49.4612 115.632 49.6814C115.478 50.1212 115.325 50.4881 115.172 50.9278C114.097 53.9341 113.561 57.1598 113.561 60.5328C113.561 64.272 114.328 67.8646 115.632 71.2376L109.727 73.6575L123.839 79.0099L129.361 65.5192L123.686 67.8654C122.765 65.5192 122.305 63.0264 122.305 60.5336C122.305 48.5088 132.582 38.758 145.16 38.758C149.376 38.758 153.332 39.8609 156.73 41.7808L161.27 34.4412V34.4404Z"
                fill="#2A5B5A" stroke="black" stroke-width="1.99984" stroke-miterlimit="7.6613"
                stroke-linecap="round" stroke-linejoin="round" />
            <path
                d="M145.829 90.516C150.847 90.4019 155.912 89.1428 160.596 86.6279C169.223 81.9965 174.631 74.1315 176.258 65.5217C176.744 62.5543 176.888 59.4689 176.49 56.4841C176.444 56.2566 176.436 56.0926 176.389 55.8644C176.298 55.4088 176.244 55.0182 176.152 54.5626C175.549 51.4383 174.365 48.375 172.637 45.4338C170.722 42.1732 168.213 39.4 165.349 37.0696L169.258 32.1958L154.213 34.1347L156.307 48.4828L160.054 43.7801C162.058 45.395 163.737 47.3529 165.013 49.5271C171.172 60.0117 167.205 73.3241 156.239 79.2122C152.996 80.953 149.488 81.8507 145.997 81.9807L99.9553 82.4727L99.8633 90.7117L145.828 90.5152L145.829 90.516Z"
                fill="#EAF7F8" stroke="black" stroke-width="1.99984" stroke-miterlimit="7.6613"
                stroke-linecap="round" stroke-linejoin="round" />
                <animateTransform attributeName="transform" attributeType="XML" type="translate"  values="0 0; 0 3; 0 0; 0 -3; 0 0" dur="5s" repeatCount="indefinite" />
                <path
                d="M414.406 175.479C437.187 175.479 455.655 157.824 455.655 136.045C455.655 114.266 437.187 96.6104 414.406 96.6104C391.624 96.6104 373.157 114.266 373.157 136.045C373.157 157.824 391.624 175.479 414.406 175.479Z"
                fill="#85BBB6" />
            <path d="M445.004 117.517H383.918V154.949H445.004V117.517Z" fill="#FEFEFE" />
            <path
                d="M384.192 115.614C382.993 115.614 381.981 116.581 381.981 117.727V154.362C381.981 155.508 382.993 156.475 384.192 156.475H444.621C445.82 156.475 446.831 155.508 446.831 154.362V117.727C446.831 116.58 445.819 115.614 444.621 115.614H384.192ZM386.587 118.431H442.225L414.407 141.218L386.587 118.431ZM384.93 120.787L413.439 144.146C413.708 144.369 414.052 144.491 414.407 144.491C414.762 144.491 415.105 144.369 415.374 144.146L443.884 120.787V153.657H384.93V120.787Z"
                fill="black" />
                   <path
                d="M28.1422 154.931H89.273C90.3613 154.933 91.3476 154.525 92.0612 153.866C92.7748 153.21 93.2157 152.301 93.2157 151.297L93.2182 120.184C93.2182 119.181 92.7756 118.271 92.062 117.613C91.3501 116.955 90.3638 116.548 89.2755 116.548L58.4673 116.661L51.8682 107.591C51.501 107.091 51.0095 106.69 50.4467 106.413C49.8815 106.138 49.2458 105.985 48.5927 105.984L28.1439 105.985C27.0548 105.985 26.0685 106.393 25.3557 107.05C24.6429 107.708 24.2012 108.618 24.2012 109.622V151.293C24.2012 152.297 24.6429 153.207 25.3557 153.865C26.0685 154.522 27.0548 154.93 28.1431 154.93L28.1422 154.931Z"
                fill="#FEFEFE" stroke="black" stroke-width="2.66677" stroke-miterlimit="2.61313" />
           
        </g>

<g>
    <path
    d="M253.294 70.9706C272.21 70.9706 287.545 56.3105 287.545 38.2263C287.545 20.1421 272.21 5.48193 253.294 5.48193C234.377 5.48193 219.042 20.1421 219.042 38.2263C219.042 56.3105 234.377 70.9706 253.294 70.9706Z"
    fill="#85BBB6" stroke="#FEFEFE" stroke-width="2.66677" stroke-miterlimit="2.61313" />
<path
    d="M264.787 33.8645H263.646V27.9931C263.646 22.5409 258.996 18.0957 253.294 18.0957C247.59 18.0957 242.941 22.5416 242.941 27.9931V33.8645H241.8C240.308 33.8645 239.168 34.9548 239.168 36.381V55.8406C239.168 57.2669 240.308 58.3572 241.8 58.3572H264.788C266.28 58.3572 267.42 57.2669 267.42 55.8406V36.381C267.42 35.0388 266.192 33.8645 264.788 33.8645H264.787ZM254.61 46.1944V49.9692C254.61 50.6404 253.996 51.2275 253.294 51.2275C252.592 51.2275 251.977 50.6404 251.977 49.9692V46.1944C251.1 45.6913 250.486 44.8522 250.486 43.7619C250.486 42.2516 251.802 40.9942 253.381 40.9942C254.96 40.9942 256.276 42.2524 256.276 43.7619C256.188 44.7682 255.574 45.6913 254.609 46.1944H254.61ZM246.888 33.8645V27.9931C246.888 24.6382 249.784 21.8697 253.294 21.8697C256.803 21.8697 259.699 24.6374 259.699 27.9931V33.8645H246.888Z"
    fill="#2A5B5A" />

    <animateTransform 
    attributeName="transform" 
    attributeType="XML" 
    type="translate"  
    values="0 0; 0 -7; 0 0; 0 7; 0 0" 
    dur="7s" 
    repeatCount="indefinite" />
    <path fill-rule="evenodd" clip-rule="evenodd"
    d="M337.326 145.015L349.043 151.482L360.762 157.95V170.885V183.821L349.043 190.288L337.326 196.756L325.608 190.288L313.89 183.821V170.885V157.95L325.608 151.482L337.326 145.015Z"
    fill="#85BBB6" stroke="black" stroke-width="1.99984" stroke-miterlimit="2.61313" />
<path
    d="M340.329 185.752C337.343 185.752 334.661 185.149 332.286 183.941C329.91 182.735 328.044 181.054 326.686 178.9C325.329 176.745 324.65 174.305 324.65 171.581C324.65 168.855 325.329 166.415 326.686 164.262C328.044 162.107 329.91 160.427 332.286 159.22C334.661 158.013 337.343 157.409 340.329 157.409C342.935 157.409 345.284 157.851 347.374 158.733C349.464 159.616 351.202 160.888 352.586 162.548L347.455 166.986C345.608 164.858 343.369 163.794 340.735 163.794C339.187 163.794 337.809 164.118 336.602 164.767C335.393 165.416 334.457 166.331 333.792 167.512C333.126 168.693 332.794 170.049 332.794 171.581C332.794 173.111 333.126 174.468 333.792 175.649C334.457 176.83 335.394 177.744 336.602 178.393C337.81 179.042 339.187 179.367 340.735 179.367C343.369 179.367 345.608 178.303 347.455 176.175L352.586 180.613C351.202 182.274 349.464 183.546 347.374 184.429C345.284 185.311 342.935 185.752 340.329 185.752Z"
    fill="#FEFEFE" />
<path
    d="M337.744 184.361C334.758 184.361 332.076 183.758 329.701 182.551C327.325 181.344 325.459 179.663 324.101 177.509C322.744 175.355 322.065 172.915 322.065 170.19C322.065 167.464 322.744 165.025 324.101 162.871C325.459 160.716 327.325 159.036 329.701 157.829C332.076 156.622 334.758 156.019 337.744 156.019C340.35 156.019 342.699 156.46 344.789 157.343C346.879 158.225 348.617 159.497 350.001 161.158L344.87 165.596C343.023 163.468 340.784 162.403 338.15 162.403C336.603 162.403 335.224 162.727 334.017 163.376C332.808 164.025 331.872 164.941 331.207 166.121C330.541 167.303 330.209 168.658 330.209 170.19C330.209 171.721 330.541 173.077 331.207 174.258C331.872 175.439 332.809 176.354 334.017 177.003C335.225 177.652 336.603 177.976 338.15 177.976C340.784 177.976 343.023 176.912 344.87 174.784L350.001 179.223C348.617 180.884 346.879 182.155 344.789 183.038C342.699 183.92 340.35 184.361 337.744 184.361Z"
    fill="#2A5B5A" />
    <path
    d="M48.7921 224.076C62.2169 224.076 73.0999 213.672 73.0999 200.838C73.0999 188.003 62.2169 177.599 48.7921 177.599C35.3673 177.599 24.4844 188.003 24.4844 200.838C24.4844 213.672 35.3673 224.076 48.7921 224.076Z"
    fill="#FEFEFE" stroke="black" stroke-width="1.99984" stroke-miterlimit="2.61313" />
<path fill-rule="evenodd" clip-rule="evenodd"
    d="M41.0217 193.67H31.3096V209.755H39.6218L43.7792 202.87V209.919H52.3327L56.6244 202.812V209.782H66.2727C66.2727 205.24 66.2727 200.697 66.2727 196.155C64.3946 191.529 55.8113 191.04 53.5038 198.64C53.2568 190.377 41.9641 190.728 41.0209 198.476C41.0209 196.874 41.0209 195.272 41.0209 193.67H41.0217Z"
    fill="#2A5B5A" stroke="#373435" stroke-width="1.33386" stroke-miterlimit="2.61313"
    stroke-linecap="round" stroke-linejoin="round" />

<path
    d="M535.839 100.173L547.212 98.6008C548.379 95.4694 549.184 92.2674 549.636 89.0473L540.288 82.6791C540.286 80.7069 540.121 78.7458 539.809 76.8045L548.036 69.1455C547.067 66.0007 545.757 62.9493 544.128 60.0397L532.648 60.1324C531.451 58.5525 530.116 57.0557 528.653 55.6484L530.595 44.8303C529.246 43.8415 527.83 42.9081 526.35 42.0357C524.868 41.1633 523.361 40.3749 521.827 39.6697L512.595 46.1956C510.623 45.5807 508.622 45.1156 506.608 44.805L501.527 34.9662C498.077 34.8807 494.639 35.1382 491.264 35.7253L487.81 46.1972C485.86 46.8025 483.951 47.5489 482.109 48.434L471.951 43.3217C469.148 45.1592 466.52 47.2843 464.12 49.6875L467.773 60.1079C467.174 60.8986 466.594 61.7061 466.049 62.5483C465.504 63.3906 465.011 64.2543 464.544 65.1203L453.172 66.69C452.006 69.8238 451.202 73.0249 450.746 76.2435L460.097 82.6117C460.097 84.5839 460.261 86.5466 460.576 88.4871L452.348 96.146C453.318 99.2909 454.627 102.345 456.258 105.249L467.737 105.158C468.933 106.738 470.269 108.238 471.731 109.644L469.793 120.46C471.143 121.451 472.555 122.381 474.036 123.254C475.516 124.125 477.025 124.914 478.557 125.621L487.788 119.095C489.76 119.709 491.762 120.175 493.774 120.486L498.855 130.326C502.304 130.408 505.746 130.152 509.119 129.563L512.571 119.093C514.525 118.489 516.43 117.745 518.273 116.858L528.431 121.972C531.234 120.135 533.863 118.006 536.263 115.602L532.612 105.184C533.211 104.393 533.791 103.586 534.334 102.743C534.876 101.9 535.37 101.038 535.839 100.172V100.173Z"
    fill="#2A5B5A" />
<path fill-rule="evenodd" clip-rule="evenodd"
    d="M500.191 54.4424C516.485 54.4424 529.693 67.0695 529.693 82.6465C529.693 98.2235 516.485 110.851 500.191 110.851C483.897 110.851 470.689 98.2235 470.689 82.6465C470.689 67.0695 483.897 54.4424 500.191 54.4424ZM500.191 64.5949C510.619 64.5949 519.073 72.677 519.073 82.6465C519.073 92.616 510.619 100.698 500.191 100.698C489.763 100.698 481.309 92.616 481.309 82.6465C481.309 72.677 489.763 64.5949 500.191 64.5949Z"
    fill="#FEFEFE" />
<path
    d="M569.863 90.1867L561.801 89.6455C561.053 88.4752 560.204 87.354 559.257 86.2906L561.245 78.8004C560.353 78.0342 559.416 77.3053 558.427 76.6167C557.438 75.9265 556.426 75.2919 555.392 74.7174L548.536 78.8107C547.19 78.2759 545.81 77.8433 544.418 77.5192L541.419 70.3444C539.004 70.1035 536.575 70.1035 534.174 70.3356L531.146 77.5033C529.741 77.825 528.361 78.2458 527.016 78.7703L520.182 74.6453C518.109 75.7871 516.144 77.1404 514.32 78.7014L516.281 86.2058C515.816 86.7288 515.36 87.2645 514.93 87.827C514.499 88.3904 514.103 88.9688 513.727 89.5504L505.653 90.0544C504.655 92.1882 503.905 94.3925 503.401 96.6302L509.592 101.592C509.479 102.977 509.48 104.362 509.59 105.739L503.375 110.678C503.874 112.935 504.615 115.148 505.594 117.274L513.652 117.814C514.403 118.986 515.252 120.109 516.198 121.173L514.211 128.66C515.101 129.426 516.04 130.155 517.029 130.847C518.018 131.535 519.03 132.168 520.064 132.744L526.92 128.651C528.268 129.188 529.645 129.62 531.04 129.943L534.037 137.113C536.453 137.358 538.881 137.359 541.282 137.121L544.309 129.956C545.715 129.634 547.096 129.215 548.438 128.689L555.27 132.814C557.346 131.672 559.311 130.318 561.135 128.757L559.173 121.253C559.638 120.73 560.093 120.196 560.523 119.632C560.955 119.069 561.35 118.491 561.726 117.909L569.801 117.405C570.799 115.269 571.547 113.065 572.053 110.832L565.862 105.868C565.974 104.484 565.974 103.097 565.865 101.719L572.08 96.7791C571.58 94.5225 570.839 92.3102 569.864 90.1859L569.863 90.1867ZM549.299 111.802C544.636 117.911 535.675 119.25 529.286 114.79C522.895 110.332 521.496 101.765 526.16 95.6556C530.823 89.5464 539.784 88.2074 546.174 92.6676C552.563 97.1262 553.962 105.694 549.299 111.802Z"
    fill="#85BBB6" stroke="#FEFEFE" stroke-width="1.33386" stroke-miterlimit="2.61313" />


</g>
        
        <g>
        

            <animateTransform 
            attributeName="transform" 
            attributeType="XML" 
            type="translate"  
            values="0 0; 0 -3; 0 0; 0 3; 0 0" 
            dur="5s" 
            repeatCount="indefinite" />
        
            <g>
     
       
                <path
                    d="M619.144 252.539C640.671 252.539 658.123 235.856 658.123 215.275C658.123 194.695 640.671 178.011 619.144 178.011C597.616 178.011 580.165 194.695 580.165 215.275C580.165 235.856 597.616 252.539 619.144 252.539Z"
                    fill="#FEFEFE" stroke="#373435" stroke-width="1.99984"
                    stroke-miterlimit="2.61313" />
                <path fill-rule="evenodd" clip-rule="evenodd"
                    d="M604.178 214.924L610.221 211.967C609.354 215.894 608.837 220.223 608.681 224.971L602.608 226.552L597.882 231.358L604.178 214.924Z"
                    fill="#7BA8A3" />
                <path fill-rule="evenodd" clip-rule="evenodd"
                    d="M632.289 225.709L630.06 219.578C627.846 222.988 625.09 226.457 621.77 229.992L625.015 235.149L624.955 241.744L632.289 225.709Z"
                    fill="#7BA8A3" />
                <path fill-rule="evenodd" clip-rule="evenodd"
                    d="M609.345 216.915C608.997 219.454 608.775 222.137 608.682 224.971L602.609 226.553L597.883 231.358L601.987 220.645L609.345 216.915H609.345Z"
                    fill="#29584E" />
                <path fill-rule="evenodd" clip-rule="evenodd"
                    d="M627.116 223.732C625.532 225.796 623.751 227.883 621.77 229.991L625.015 235.148L624.955 241.743L629.736 231.29L627.116 223.731V223.732Z"
                    fill="#29584E" />
                <path fill-rule="evenodd" clip-rule="evenodd"
                    d="M609.386 228.075C613.289 229.216 615.332 229.992 618.974 231.753C636.108 214.619 640.079 198.997 633.277 184.418C617.821 190.459 609.393 204.372 609.387 228.075H609.386Z"
                    fill="#7BA8A3" />
                <path fill-rule="evenodd" clip-rule="evenodd"
                    d="M609.386 228.075C613.289 229.216 615.332 229.992 618.974 231.753C621.942 228.785 624.515 225.862 626.706 222.982L610.141 216.627C609.642 220.156 609.387 223.968 609.386 228.075Z"
                    fill="#29584E" />
                <path fill-rule="evenodd" clip-rule="evenodd"
                    d="M613.657 231.161L610.966 233.16L611.386 231.311L609.646 232.824L609.871 229.913L608.636 230.563L608.521 229.225L600.665 237.077L606.149 235.468L605.671 240.257L608.118 237.994L606.712 247.707L612.719 239.759L612.85 243.011L615.968 239.234L618.767 244.021L618.768 233.156L617.717 234.047L617.295 232.761L615.352 235.013L615.189 232.771L614.156 234.384L613.657 231.161Z"
                    fill="#E6E7E8" />
                <path fill-rule="evenodd" clip-rule="evenodd"
                    d="M618.768 237.183L617.95 235.562L614.406 238.394L613.304 235.581L611.01 237.474L610.722 234.591L607.892 235.895L607.379 231.506L605.602 232.143L600.665 237.077L606.149 235.467L605.671 240.257L608.118 237.994L606.712 247.707L612.719 239.76L612.85 243.011L615.968 239.234L618.767 244.021L618.768 237.183Z"
                    fill="#7BA8A3" />
                <path
                    d="M625.668 202.544C627.702 203.324 630.012 202.38 630.828 200.436C631.645 198.492 630.657 196.283 628.624 195.503C626.59 194.722 624.279 195.666 623.463 197.61C622.647 199.555 623.634 201.764 625.668 202.544Z"
                    fill="#D2E3E9" stroke="#29584E" stroke-width="1.08956"
                    stroke-miterlimit="2.61313" />
                <path
                    d="M620.959 213.763C622.993 214.543 625.303 213.6 626.119 211.655C626.936 209.711 625.948 207.502 623.915 206.722C621.881 205.942 619.57 206.885 618.754 208.83C617.938 210.774 618.925 212.983 620.959 213.763Z"
                    fill="#D2E3E9" stroke="#29584E" stroke-width="1.08956"
                    stroke-miterlimit="2.61313" />

            </g>
      
            <path
                d="M292.602 143.495C309.291 143.495 322.82 130.561 322.82 114.606C322.82 98.6517 309.291 85.7178 292.602 85.7178C275.913 85.7178 262.384 98.6517 262.384 114.606C262.384 130.561 275.913 143.495 292.602 143.495Z"
                fill="#FEFEFE" />
            <path
                d="M292.602 97.2734C279.544 97.2734 268.192 103.918 262.863 113.704L262.385 114.606L262.863 115.489C268.19 125.283 279.539 131.939 292.602 131.939C305.665 131.939 317.015 125.283 322.341 115.489L322.82 114.606L322.341 113.704C317.012 103.917 305.66 97.2734 292.602 97.2734ZM286.837 101.627C281.614 103.79 277.95 108.796 277.95 114.606C277.95 120.417 281.613 125.423 286.837 127.586C278.147 126.055 270.932 121.139 266.983 114.606C270.932 108.071 278.147 103.158 286.837 101.627ZM298.367 101.627C307.056 103.158 314.272 108.072 318.22 114.606C314.272 121.139 307.056 126.054 298.367 127.586C303.589 125.423 307.253 120.417 307.253 114.606C307.253 108.796 303.59 103.79 298.367 101.627Z"
                fill="#85BBB6" />
         
            <path
                d="M382.258 84.4271C406.322 84.4271 425.83 65.7777 425.83 42.7726C425.83 19.7675 406.322 1.11816 382.258 1.11816C358.195 1.11816 338.687 19.7675 338.687 42.7726C338.687 65.7777 358.195 84.4271 382.258 84.4271Z"
                fill="#FEFEFE" stroke="black" stroke-width="2.66677" stroke-miterlimit="2.61313" />
            <path d="M390.978 14.5068H372.77V29.5459H390.978V14.5068Z" fill="#2A5B5A" />
            <path d="M379.933 58.9136H371.386V72.7688H379.933V58.9136Z" fill="#2A5B5A" />
            <path d="M392.363 58.9136H383.816V72.7688H392.363V58.9136Z" fill="#2A5B5A" />
            <path d="M367.303 35.0827L361.794 33.9736L356.42 58.373L361.929 59.482L367.303 35.0827Z"
                fill="#2A5B5A" />
            <path d="M396.8 35.0827L402.309 33.9736L407.683 58.373L402.174 59.482L396.8 35.0827Z"
                fill="#2A5B5A" />
            <path
                d="M385.492 32.1281H378.159L376.796 35.3491H371.792L379.447 18.7705H384.277L391.957 35.3491H386.854L385.492 32.1281ZM384.054 28.6703L381.825 23.3646L379.595 28.6703H384.054Z"
                fill="#FEFEFE" />
            <path d="M394.695 32.8618H369.053V55.4806H394.695V32.8618Z" fill="#2A5B5A" />
            <path
                d="M381.466 51.3918H378.79V55.7973H373.885V39.2188H381.813C383.382 39.2188 384.745 39.4676 385.901 39.9644C387.057 40.462 387.949 41.1719 388.576 42.0958C389.204 43.0197 389.518 44.1052 389.518 45.3524C389.518 46.5521 389.224 47.5988 388.638 48.491C388.052 49.3832 387.214 50.082 386.124 50.5868L389.864 55.7973H384.612L381.466 51.3918ZM384.562 45.3524C384.562 44.5791 384.306 43.9785 383.794 43.5522C383.282 43.1259 382.522 42.9127 381.515 42.9127H378.789V47.7675H381.515C382.522 47.7675 383.282 47.5584 383.794 47.14C384.306 46.7216 384.562 46.1258 384.562 45.3516V45.3524Z"
                fill="#FEFEFE" />
                
            <g>
                <path
                    d="M144.881 180.064C164.902 180.064 181.132 164.547 181.132 145.407C181.132 126.267 164.902 110.751 144.881 110.751C124.86 110.751 108.63 126.267 108.63 145.407C108.63 164.547 124.86 180.064 144.881 180.064Z"
                    fill="#FEFEFE" stroke="#373435" stroke-width="1.33386"
                    stroke-miterlimit="2.61313" />
                <path
                    d="M159.191 143.917C159.06 142.764 158.05 141.884 156.838 141.883H156.662C155.228 141.883 154.177 143.09 154.327 144.454C154.617 147.088 153.712 149.82 151.604 151.835C149.496 153.85 146.638 154.716 143.883 154.439C142.458 154.295 141.194 155.3 141.194 156.671V156.839C141.194 157.998 142.115 158.963 143.321 159.088C147.514 159.525 151.867 158.218 155.074 155.152C158.282 152.085 159.647 147.925 159.191 143.917Z"
                    fill="#85BBB6" stroke="#FEFEFE" stroke-width="1.00039"
                    stroke-miterlimit="2.61313" />
                <path
                    d="M175.186 144.013C175.126 142.818 174.077 141.883 172.825 141.883H172.648C171.281 141.883 170.235 142.987 170.297 144.292C170.611 150.89 168.139 157.588 162.881 162.615C157.622 167.642 150.616 170.005 143.714 169.706C142.349 169.646 141.194 170.647 141.194 171.954V172.122C141.194 173.318 142.172 174.322 143.423 174.379C151.676 174.756 160.061 171.944 166.351 165.932C172.641 159.919 175.581 151.903 175.186 144.013V144.013Z"
                    fill="#85BBB6" stroke="#FEFEFE" stroke-width="1.00039"
                    stroke-miterlimit="2.61313" />
                <path
                    d="M160.8 160.625C165.578 156.058 167.75 149.932 167.325 143.944C167.242 142.777 166.195 141.884 164.972 141.883H164.772C163.416 141.883 162.333 142.974 162.426 144.267C162.759 148.949 161.066 153.737 157.33 157.307C153.595 160.878 148.587 162.497 143.69 162.178C142.338 162.09 141.196 163.126 141.196 164.422V164.612C141.196 165.782 142.13 166.783 143.352 166.863C149.614 167.268 156.023 165.193 160.8 160.625L160.8 160.625Z"
                    fill="#85BBB6" stroke="#FEFEFE" stroke-width="1.00039"
                    stroke-miterlimit="2.61313" />
                <path
                    d="M147.675 150.795C148.275 150.511 148.849 150.156 149.349 149.678C151.816 147.319 151.817 143.495 149.349 141.135C147.498 139.366 144.785 138.924 142.503 139.809C142.359 139.864 142.227 139.952 142.086 140.018C141.486 140.303 140.913 140.657 140.413 141.135C137.946 143.494 137.946 147.318 140.413 149.678C142.264 151.447 144.977 151.889 147.258 151.004C147.403 150.949 147.534 150.862 147.675 150.794V150.795Z"
                    fill="#85BBB6" stroke="#FEFEFE" stroke-width="1.00039"
                    stroke-miterlimit="2.61313" />
                <path
                    d="M135.434 146.36C135.145 143.726 136.051 140.994 138.158 138.979C140.265 136.964 143.123 136.098 145.878 136.375C147.305 136.519 148.568 135.514 148.568 134.143V133.976C148.569 132.815 147.647 131.851 146.441 131.726C142.25 131.289 137.896 132.597 134.688 135.663C131.481 138.729 130.114 142.89 130.571 146.899C130.702 148.051 131.711 148.932 132.924 148.932H133.099C134.535 148.931 135.584 147.724 135.434 146.36Z"
                    fill="#85BBB6" stroke="#FEFEFE" stroke-width="1.00039"
                    stroke-miterlimit="2.61313" />
                <path
                    d="M126.882 128.199C132.14 123.172 139.147 120.809 146.049 121.109C147.413 121.168 148.569 120.167 148.569 118.861V118.693C148.569 117.496 147.591 116.492 146.34 116.435C138.086 116.059 129.701 118.87 123.412 124.883C117.123 130.895 114.181 138.911 114.576 146.802C114.636 147.997 115.685 148.932 116.937 148.932H117.114C118.481 148.932 119.527 147.828 119.465 146.524C119.151 139.926 121.623 133.228 126.882 128.2V128.199Z"
                    fill="#85BBB6" stroke="#FEFEFE" stroke-width="1.00039"
                    stroke-miterlimit="2.61313" />
                <path
                    d="M132.433 133.506C136.169 129.935 141.177 128.317 146.073 128.635C147.426 128.723 148.568 127.688 148.567 126.391V126.201C148.566 125.031 147.633 124.031 146.411 123.951C140.149 123.545 133.74 125.622 128.962 130.189C124.184 134.757 122.012 140.883 122.437 146.871C122.52 148.038 123.566 148.931 124.79 148.932H124.989C126.345 148.932 127.428 147.841 127.335 146.547C127.003 141.865 128.696 137.078 132.432 133.506H132.433Z"
                    fill="#85BBB6" stroke="#FEFEFE" stroke-width="1.00039"
                    stroke-miterlimit="2.61313" />
            </g>

           

        </g>


        <path fill-rule="evenodd" clip-rule="evenodd"
            d="M441.624 253.012C435.139 253.012 428.652 253.012 422.166 253.012C423.998 256.678 424.148 260.099 422.917 263.316C428.696 263.316 434.476 263.316 440.255 263.316C439.28 259.943 440.009 256.497 441.624 253.012Z"
            fill="#FEFEFE" stroke="#373435" stroke-width="1.33386" stroke-miterlimit="2.61313" />

        <path fill-rule="evenodd" clip-rule="evenodd"
            d="M389.871 316.325C387.741 314.832 386.566 310.988 383.136 312.714C380.737 313.92 381.97 313.649 378.491 312.825C376.936 312.456 376.348 315.542 373.778 314.648C373.336 314.494 370.528 314.492 371.262 316.331C371.938 318.022 370.935 321.403 372.586 323.543C373.485 324.708 372.972 324.149 374.009 325.135C374.728 325.819 383.714 325.822 385.344 325.12C388.851 323.609 389.304 321.133 389.726 317.873C389.803 317.277 390.018 317.271 389.87 316.326L389.871 316.325Z"
            fill="#FEFEFE" stroke="#373435" stroke-width="1.33386" stroke-miterlimit="2.61313" />
        <path d="M375.985 325.531C374.687 323.597 373.938 321.437 373.719 319.061" stroke="#373435"
            stroke-width="1.33386" stroke-miterlimit="2.61313" />

        <path fill-rule="evenodd" clip-rule="evenodd"
            d="M421.37 262.64C428.894 260.431 436.418 260.457 443.942 262.64C445.721 263.156 447.062 264.111 447.322 265.871C447.524 267.24 448.648 271.067 448.648 272.397C448.648 274.175 447.128 275.628 445.269 275.628C437.745 275.628 427.567 275.628 420.044 275.628C418.185 275.628 416.665 274.175 416.665 272.397C416.665 271.067 417.329 267.201 417.991 265.871C418.79 264.266 419.593 263.162 421.37 262.64Z"
            fill="#D2E3E9" stroke="#373435" stroke-width="1.33386" stroke-miterlimit="2.61313" />

        <path d="M287.216 326.723H216.448V332.55H287.216V326.723Z" stroke="black"
            stroke-width="1.33386" stroke-miterlimit="2.61313" />
        <path d="M440.043 326.723H369.274V332.55H440.043V326.723Z" stroke="black"
            stroke-width="1.33386" stroke-miterlimit="2.61313" />
        <path
            d="M361.937 296.183H350.963C349.207 296.183 348.027 297.679 348.328 299.525L351.896 321.422C352.197 323.268 353.865 324.764 355.621 324.764H366.595C368.351 324.764 369.531 323.268 369.23 321.422L365.662 299.525C365.361 297.679 363.693 296.183 361.937 296.183Z"
            fill="#FEFEFE" stroke="black" stroke-width="2.1095" stroke-miterlimit="2.61313" />
        <path fill-rule="evenodd" clip-rule="evenodd"
            d="M361.9 312.016H364.285L364.756 314.905H362.37L361.9 312.016ZM351.829 300.068H354.214L354.685 302.957H352.299L351.829 300.068ZM352.802 306.042H355.187L355.658 308.931H353.272L352.802 306.042ZM353.775 312.016H356.16L356.631 314.905H354.245L353.775 312.016ZM354.748 317.989H357.133L357.604 320.878H355.218L354.748 317.989ZM358.727 317.989H361.112L361.583 320.878H359.198L358.727 317.989ZM362.872 317.989H365.257L365.728 320.878H363.343L362.872 317.989ZM357.754 312.016H360.139L360.61 314.905H358.225L357.754 312.016ZM356.781 306.042H359.166L359.637 308.931H357.252L356.781 306.042ZM355.808 300.068H358.193L358.664 302.957H356.279L355.808 300.068ZM359.953 300.068H362.338L362.809 302.957H360.423L359.953 300.068ZM360.926 306.042H363.311L363.782 308.931H361.397L360.926 306.042Z"
            fill="#85BBB6" />
        <path fill-rule="evenodd" clip-rule="evenodd"
            d="M445.196 270.418C439.822 269.816 430.342 268.787 416.183 271.904C402.238 274.975 399.313 297.51 389.173 313.838C389.017 314.089 386.294 318.971 386.134 319.22C378.876 317.667 376.29 322.705 378.338 329.002C382.493 334.079 388.312 332.382 394.17 332.398C399.926 330.307 402.601 318.608 406.278 313.785C406.587 322.222 409.278 335.856 407.888 343.165C430.407 359.775 442.433 357.898 458.675 343.285C455.893 335.364 455.734 328.531 455.027 320.61C457.927 323.205 465.224 329.954 468.124 332.549C476.21 330.422 475.677 326.451 476.414 322.059C477.073 315.992 470.956 308.219 467.402 299.7C464.182 291.982 463.471 284.559 460.419 276.939C458.004 272.537 450.571 271.019 445.197 270.418H445.196Z"
            fill="#85BBB6" stroke="#373435" stroke-width="1.33386" stroke-miterlimit="2.61313" />
        <path fill-rule="evenodd" clip-rule="evenodd"
            d="M444.578 433.782C443.926 438.22 442.351 442.657 441.699 447.094C441.324 449.644 441.363 452.194 441.496 454.743C448.169 455.365 454.746 455.194 461.165 453.709C461.665 446.675 459.99 439.884 457.606 433.174C453.342 433.984 449.011 434.267 444.578 433.782L444.578 433.782Z"
            fill="#FEFEFE" stroke="#373435" stroke-width="1.33386" stroke-miterlimit="2.61313" />
        <path fill-rule="evenodd" clip-rule="evenodd"
            d="M445.344 449.894C449.463 449.683 453.708 449.464 457.952 449.246C458.657 445.596 455.501 441.017 450.934 441.316C446.325 441.618 445 446.441 445.344 449.893V449.894Z"
            fill="#85BBB6" stroke="#373435" stroke-width="1.33386" stroke-miterlimit="2.61313" />
        <path d="M441.431 450.095L461.194 449.08" stroke="#373435" stroke-width="1.33386"
            stroke-miterlimit="2.61313" />
        <path d="M448.774 434.015L449.25 441.559" stroke="#373435" stroke-width="1.33386"
            stroke-miterlimit="2.61313" />
        <path d="M452.873 433.959L453.348 441.503" stroke="#373435" stroke-width="1.33386"
            stroke-miterlimit="2.61313" />
        <path d="M410.903 289.516L411.754 302.596M455.618 288.463L454.18 301.497" stroke="#373435"
            stroke-width="1.33386" stroke-miterlimit="2.61313" />
        <path fill-rule="evenodd" clip-rule="evenodd"
            d="M456.909 344.475C438.616 344.627 425.878 343.39 407.585 343.542C401.007 347.475 386.929 348.782 378.334 356.561C374.891 366.593 370.791 382.405 372.007 390.995C373.415 400.943 370.225 427.382 371.633 437.331C375.65 438.01 383.631 440.193 388.431 438.933C387.301 428.802 392.426 413.248 394.782 398.936C396.47 388.685 396.521 380.438 397.725 374.411C403.341 373.746 428.826 370.868 438.566 370.018C438.563 386.659 444.038 420.356 441.897 432.821C442.398 433.288 442.899 433.754 443.4 434.22C447.511 434.433 453.061 433.075 457.173 433.289C457.505 432.747 457.837 432.205 458.169 431.663C459.348 425.899 456.868 416.064 455.931 407.032C455.239 400.359 456.537 373.196 458.584 370.017C463.788 361.938 458.617 352.061 456.909 344.474V344.475Z"
            fill="#373435" stroke="#373435" stroke-width="1.33386" stroke-miterlimit="2.61313" />
        <path d="M360.133 324.765V332.55" stroke="#373435" stroke-width="2.66677"
            stroke-miterlimit="2.61313" />
        <path fill-rule="evenodd" clip-rule="evenodd"
            d="M447.589 184.288L468.173 176.299C469.33 175.851 470.897 176.355 471.668 177.424L492.987 207.013C493.934 208.329 493.714 209.898 492.485 210.494L470.478 221.172C469.118 221.832 467.27 221.179 466.384 219.729L446.573 187.295C445.861 186.129 446.323 184.779 447.588 184.288L447.589 184.288Z"
            fill="#EAF7F8" stroke="black" stroke-width="1.33386" stroke-miterlimit="2.61313" />
        <path fill-rule="evenodd" clip-rule="evenodd"
            d="M449.772 185.167L467.882 178.075C468.904 177.675 470.289 178.122 470.967 179.072L488.53 203.675C489.337 204.804 489.124 206.148 488.047 206.656L468.892 215.698C467.717 216.252 466.126 215.696 465.366 214.467L448.905 187.815C448.272 186.789 448.666 185.599 449.773 185.166L449.772 185.167Z"
            fill="#FEFEFE" stroke="black" stroke-width="1.33386" stroke-miterlimit="2.61313" />
        <path fill-rule="evenodd" clip-rule="evenodd"
            d="M465.525 206.985L469.244 205.31L471.468 208.74L467.726 210.461L465.525 206.985ZM465.5 183.576L468.914 182.206L470.951 185.12L467.516 186.524L465.5 183.576ZM459.675 185.913L463.173 184.509L465.176 187.482L461.656 188.922L459.675 185.913ZM453.706 188.307L457.291 186.869L459.258 189.904L455.65 191.38L453.706 188.308V188.307ZM469.421 189.308L472.875 187.869L474.992 190.898L471.519 192.374L469.421 189.307V189.308ZM463.528 191.764L467.068 190.289L469.152 193.382L465.59 194.895L463.528 191.763V191.764ZM457.486 194.282L461.115 192.769L463.162 195.927L459.51 197.48L457.486 194.282ZM473.5 195.272L476.991 193.76L479.195 196.913L475.683 198.465L473.5 195.272ZM467.538 197.854L471.119 196.303L473.289 199.523L469.686 201.115L467.538 197.853V197.854ZM461.422 200.502L465.096 198.911L467.229 202.201L463.531 203.834L461.422 200.502ZM477.746 201.481L481.277 199.891L483.572 203.175L480.021 204.808L477.746 201.481ZM471.715 204.197L475.338 202.565L477.599 205.921L473.954 207.596L471.715 204.196V204.197Z"
            fill="#85BBB6" />
        <path d="M363.958 330.722H356.309V332.065H363.958V330.722Z" fill="#373435" />
        <path fill-rule="evenodd" clip-rule="evenodd"
            d="M108.81 294.655C105.972 304.855 103.083 315.236 100.194 325.618C95.2884 325.169 91.1427 326.248 87.9227 329.186C86.1299 330.746 85.1643 328.541 82.5461 328.46C80.7691 328.405 79.7273 331.186 80.4583 332.549C91.1277 332.549 101.796 332.549 112.466 332.549C111.578 331.37 110.122 330.19 110.436 328.044C111.03 323.987 114.598 317.994 115.193 313.937C116.772 308.075 118.35 302.211 119.929 296.349C115.09 297.238 111.52 296.543 108.809 294.655H108.81Z"
            fill="#FEFEFE" stroke="#373435" stroke-width="1.33386" stroke-miterlimit="7.6613" />
        <path fill-rule="evenodd" clip-rule="evenodd"
            d="M215.589 258.766C218.101 261.43 220.612 264.095 223.125 266.761C226.28 263.391 229.435 260.022 232.591 256.653C234.202 254.255 238.409 253.978 240.315 251.787C243.728 247.865 240.512 243.726 242.055 241.429C242.546 240.508 243.037 240.724 243.529 239.804C244.093 239.354 251.484 233.787 248.178 233.019C247.365 232.829 246.604 233.576 245.628 233.905C244.791 234.188 243.748 234.008 242.888 234.455C241.242 235.31 239.631 236.281 238.372 236.661C236.193 236.912 234.156 236.827 231.979 237.079C231.342 237.152 230.409 237.293 229.928 237.636C226.993 239.583 226.568 243.471 226.811 247.876C226.538 249.565 225.639 251.416 224.402 252.617C221.9 255.045 218.093 256.338 215.591 258.766L215.589 258.766Z"
            fill="#FEFEFE" stroke="#373435" stroke-width="1.33386" stroke-miterlimit="7.6613" />
        <path fill-rule="evenodd" clip-rule="evenodd"
            d="M212.132 276.698C210.187 272.148 208.241 267.596 206.296 263.046C206.277 262.631 206.257 262.215 206.239 261.799C208.128 260.752 210.017 259.704 211.907 258.657C213.915 257.841 215.397 257.378 216.95 258.44C220.148 260.626 223.007 264.1 223.637 269.275C223.945 271.811 222.42 273.708 221.03 275.072C219.757 276.323 218.363 277.765 215.59 277.402C214.27 277.229 213.38 277.149 212.133 276.697L212.132 276.698Z"
            fill="#FEFEFE" stroke="#373435" stroke-width="1.33386" stroke-miterlimit="7.6613" />
        <path fill-rule="evenodd" clip-rule="evenodd"
            d="M147.798 224.027C160.187 224.844 171.639 224.867 181.761 223.772C171.093 217.322 156.401 210.113 147.798 224.027Z"
            fill="#FEFEFE" stroke="#373435" stroke-width="1.33386" stroke-miterlimit="7.6613" />
        <path fill-rule="evenodd" clip-rule="evenodd"
            d="M121.954 278.63C120.429 284.754 118.905 290.877 117.38 297C113.109 296.969 109.462 295.877 106.71 293.265C105.927 288.179 107.389 284.012 108.986 279.9C110.399 278.011 112.338 277.194 114.932 277.724C117.273 278.026 119.614 278.328 121.954 278.631V278.63Z"
            fill="#EAF7F8" stroke="#373435" stroke-width="1.33386" stroke-miterlimit="7.6613" />
        <path fill-rule="evenodd" clip-rule="evenodd"
            d="M120.607 283.151C117.668 293.378 116.081 303.498 115.166 313.564C117.435 314.606 119.703 315.649 121.971 316.69C135.235 318.429 148.5 320.167 161.763 321.905C165.293 321.22 168.823 320.536 172.352 319.851C170.24 302.594 176.621 283.066 185.44 262.886C188.27 271.188 190.703 276.17 192.878 279.003C197.177 285.68 211.001 279.523 214.944 274.973C215.507 270.497 212.299 263.262 207.897 262.885C205.666 263.517 205.089 263.979 202.919 264.781C200.008 255.54 198.534 245.422 197.225 237.043C195.915 228.664 192.87 223.979 183.456 223.658C169.919 224.641 156.715 223.784 147.476 223.466C138.238 223.148 134.347 226.544 131.018 230.531C122.209 241.085 117.477 261.258 113.043 281.729C115.192 283.161 117.829 283.336 120.606 283.151H120.607Z"
            fill="#85BBB6" stroke="#373435" stroke-width="1.33386" stroke-miterlimit="7.6613" />
        <path fill-rule="evenodd" clip-rule="evenodd"
            d="M172.353 319.851C153.136 321.75 134.093 319.171 115.166 313.563C115.972 324.498 114.634 336.664 115.44 347.598C116.605 363.413 120.099 379.234 121.763 394.763C122.898 405.35 121.047 418.253 122.07 428.904C122.754 436.021 124.528 440.575 125.058 447.781C132.469 447.712 139.878 447.642 147.289 447.573C151.201 442.766 153.831 436.514 157.988 431.899C168.055 420.727 177.632 410.285 186.936 398.852C191.578 393.773 193.35 388.211 191.511 382.04C187.104 362.592 180.248 344.196 172.925 326.002C172.183 323.952 171.931 321.901 172.353 319.852V319.851ZM163.863 377.771C157.9 368.699 151.938 359.628 145.976 350.556C145.699 356.429 146.622 362.928 146.346 368.801C145.82 379.978 144.743 390.869 143.862 401.861C143.441 407.106 143.064 412.373 142.813 417.705C150.361 409.52 157.043 398.643 163.427 386.841C165.409 384.296 165.081 381.149 163.863 377.769V377.771Z"
            fill="#373435" stroke="#373435" stroke-width="0.666929" stroke-miterlimit="2.61313" />
        <path fill-rule="evenodd" clip-rule="evenodd"
            d="M145.829 449.118C138.607 449.44 131.747 448.238 125.079 446.22C125.017 450.795 124.954 455.369 124.893 459.943C125.181 462.215 124.548 463.411 126.936 464.132C132.255 464.486 142.294 466.139 149.437 466.154C156.479 466.169 167.345 463.158 168.512 461.724C168.671 460.091 167.829 458.754 166.091 457.68C160.993 455.73 156.064 456.197 150.159 456.32C148.445 454.611 146.612 451.28 145.829 449.119V449.118Z"
            fill="#FEFEFE" stroke="#373435" stroke-width="1.33386" stroke-miterlimit="2.61313" />
        <path fill-rule="evenodd" clip-rule="evenodd"
            d="M133.771 460.751C135.285 453.833 132.93 449.542 125.044 448.785L124.898 459.548L133.771 460.751V460.751Z"
            fill="#EAF7F8" stroke="#373435" stroke-width="1.33386" stroke-miterlimit="2.61313" />
        <path fill-rule="evenodd" clip-rule="evenodd"
            d="M154.499 456.204L145.251 455.615L140.999 461.789L151.11 461.982L154.499 456.204Z"
            fill="#85BBB6" />
        <path d="M124.899 459.548C142.55 462.813 157.71 463.607 166.092 457.679" stroke="#373435"
            stroke-width="1.33386" stroke-miterlimit="2.61313" />
        <path fill-rule="evenodd" clip-rule="evenodd"
            d="M145.829 449.118C138.607 449.44 131.747 448.238 125.079 446.22C125.017 450.795 124.954 455.369 124.893 459.943C125.181 462.215 124.548 463.411 126.936 464.132C132.255 464.486 143.208 466.426 150.35 466.44C157.392 466.455 167.345 463.157 168.512 461.724C168.671 460.091 167.829 458.753 166.091 457.679C160.993 455.729 156.064 456.196 150.159 456.319C148.445 454.61 146.612 451.279 145.829 449.118Z"
            stroke="#373435" stroke-width="1.33386" stroke-miterlimit="2.61313" />
        <path
            d="M150.16 456.319C147.352 456.465 144.834 455.626 142.419 454.442C141.31 452.68 141.068 450.907 141.348 449.126"
            stroke="#373435" stroke-width="1.33386" stroke-miterlimit="2.61313" />
        <path d="M145.135 455.784L141.178 461.529" stroke="black" stroke-width="1.33386"
            stroke-miterlimit="2.61313" />
        <path d="M154.392 456.388L150.464 461.969" stroke="black" stroke-width="1.33386"
            stroke-miterlimit="2.61313" />
        <path fill-rule="evenodd" clip-rule="evenodd"
            d="M147.358 445.659C140.743 443.592 135.094 440.248 129.962 436.22C127.982 440.388 126.002 444.556 124.021 448.724C123.324 450.897 122.253 451.786 124.092 453.227C128.714 455.291 136.775 461.098 143.177 463.447C149.488 465.763 160.752 465.55 162.402 464.618C163.232 463.176 163.04 461.676 161.932 460.123C158.18 456.671 153.562 455.486 148.213 453.667C147.395 451.542 147.15 447.893 147.358 445.659H147.358Z"
            fill="#FEFEFE" stroke="#373435" stroke-width="1.33386" stroke-miterlimit="2.61313" />
        <path fill-rule="evenodd" clip-rule="evenodd"
            d="M131.646 452.366C135.915 446.527 135.608 441.828 128.852 438.557L124.193 448.363L131.646 452.366Z"
            fill="#EAF7F8" stroke="#373435" stroke-width="1.33386" stroke-miterlimit="2.61313" />
        <path fill-rule="evenodd" clip-rule="evenodd"
            d="M152.154 454.981L144.105 451.418L137.692 455.679L146.683 459.163L152.154 454.981Z"
            fill="#85BBB6" />
        <path d="M124.192 448.363C138.652 457.124 151.919 462.809 161.932 460.124" stroke="#373435"
            stroke-width="1.33386" stroke-miterlimit="2.61313" />
        <path fill-rule="evenodd" clip-rule="evenodd"
            d="M147.358 445.659C140.743 443.592 135.094 440.248 129.962 436.22C127.982 440.388 126.002 444.556 124.021 448.724C123.324 450.897 122.253 451.786 124.092 453.227C128.714 455.291 136.775 461.098 143.177 463.447C149.488 465.763 160.752 465.55 162.402 464.618C163.232 463.176 163.04 461.676 161.932 460.123C158.18 456.671 153.562 455.486 148.213 453.667C147.395 451.542 147.15 447.893 147.358 445.659H147.358Z"
            stroke="#373435" stroke-width="1.33386" stroke-miterlimit="2.61313" />
        <path
            d="M148.212 453.667C145.631 452.882 143.726 451.292 142.057 449.418C141.804 447.442 142.332 445.74 143.334 444.202"
            stroke="#373435" stroke-width="1.33386" stroke-miterlimit="2.61313" />
        <path d="M143.93 451.534L137.963 455.5" stroke="black" stroke-width="1.33386"
            stroke-miterlimit="2.61313" />
        <path d="M151.98 455.115L146.108 458.94" stroke="black" stroke-width="1.33386"
            stroke-miterlimit="2.61313" />
        <path
            d="M120.036 283.036C121.991 274.298 133.63 236.774 140.155 233.187C132.298 247.153 124.653 267.737 121.179 283.268L120.036 283.036L120.036 283.036Z"
            fill="#373435" />
        <path
            d="M132.576 233.792C131.557 237.149 131.026 240.655 130.731 243.707C130.438 246.753 130.478 249.663 130.794 252.458L129.634 252.576C129.31 249.716 129.27 246.734 129.571 243.607C129.758 241.664 130.71 235.999 132.576 233.793V233.792Z"
            fill="#373435" />
        <path
            d="M185.108 263.678C184.613 260.619 183.194 257.759 181.775 254.898C180.323 251.97 178.87 249.04 178.347 245.812C178.106 244.324 178.434 237.526 181.487 234.414C180.432 237.739 178.937 242.17 179.499 245.642C179.994 248.701 181.412 251.562 182.831 254.422C184.283 257.351 185.737 260.28 186.259 263.508L185.108 263.678Z"
            fill="#373435" />
        <path d="M202.798 264.393C203.63 267.009 204.492 269.029 205.378 270.585" stroke="#373435"
            stroke-width="1.33386" stroke-miterlimit="7.6613" />
        <path d="M100.194 325.618L99.562 327.553" stroke="#373435" stroke-width="1.33386"
            stroke-miterlimit="7.6613" />
        <path fill-rule="evenodd" clip-rule="evenodd"
            d="M161.606 215.944C162.221 215.145 162.964 212.056 169.113 213.974C183.515 218.466 180.355 208.786 192.082 206.092C192.963 205.889 195.236 204.701 195.278 203.95C195.304 203.939 196.303 201.461 197.526 199.499C198.717 197.589 200.134 196.189 200.125 196.397C200.049 198.127 199.81 201.215 198.834 204.18C197.784 207.374 195.902 208.946 196.03 210.005C196.504 213.892 192.74 221.053 190.227 222.8C188.285 224.15 190.778 224.713 187.012 224.166C183.923 223.718 183.423 225.282 180.804 223.8C180.379 223.56 178.525 222.445 178.032 222.444C176.951 221.028 163.742 216.278 161.606 215.944Z"
            fill="#FEFEFE" stroke="#373435" stroke-width="1.33386" stroke-miterlimit="7.6613" />
        <path fill-rule="evenodd" clip-rule="evenodd"
            d="M162.583 214.833C161.581 212.614 163.569 212.115 160.582 207.01C153.764 195.36 158.452 178.304 174.426 175.857C186.234 174.048 200.399 180.421 200.678 192.412C200.801 197.667 200.667 195.541 199.786 196.917C199.696 197.058 199.574 197.666 199.432 197.763C199.429 197.799 195.458 205.048 194.335 205.187C194.169 205.546 191.625 207.205 191.339 207.191C191.143 207.512 184.687 210.114 183.906 211.687C183.598 212.308 178.765 215.083 176.853 215.083C172.805 215.083 166.705 213.559 163.256 214.833C163.253 214.834 162.467 214.886 162.582 214.834L162.583 214.833Z"
            fill="#373435" />
        <path fill-rule="evenodd" clip-rule="evenodd"
            d="M185.345 213.215C184.624 210.614 185.146 207.324 187.19 205.254C187.981 204.451 189.408 205.115 189.064 205.862C187.642 208.946 186.844 210.825 187.729 212.304C187.194 213.599 185.735 214.62 185.345 213.216V213.215Z"
            fill="#FEFEFE" stroke="#373435" stroke-width="0.666929" stroke-miterlimit="2.61313" />
        <path fill-rule="evenodd" clip-rule="evenodd"
            d="M187.321 215.896C186.186 211.802 187.006 206.624 190.223 203.365C191.469 202.102 193.716 203.147 193.174 204.321C190.936 209.176 189.679 212.134 191.073 214.461C190.23 216.5 187.934 218.107 187.321 215.896Z"
            fill="#FEFEFE" stroke="#373435" stroke-width="0.666929" stroke-miterlimit="2.61313" />
        <path
            d="M239.81 236.696C237.914 237.713 235.737 238.434 233.84 239.452C234.282 238.146 237.674 236.561 239.238 235.721C239.429 236.046 239.619 236.371 239.81 236.696Z"
            fill="#373435" />
        <path fill-rule="evenodd" clip-rule="evenodd"
            d="M327.345 348.528C309.052 348.68 290.759 348.833 272.466 348.986C255.97 350.671 242.914 355.008 234.32 362.787C233.433 371.744 234.65 380.518 235.866 389.108C237.274 399.057 240.786 408.458 242.195 418.407C246.995 417.148 251.795 415.889 256.595 414.629C256.761 399.59 257.576 383.838 252.485 374.578C258.438 369.896 267.335 370.441 276.865 372.111C272.973 388.533 273.071 402.914 276.318 415.681C276.819 416.148 277.32 416.614 277.821 417.079C281.932 417.293 286.043 417.506 290.155 417.719C290.487 417.177 290.819 416.636 291.151 416.094C293.083 406.641 292.176 397.777 291.029 387.922C297.248 381.527 315.407 374.674 321.626 368.279C328.058 361.666 327.989 356.057 327.347 348.529L327.345 348.528Z"
            fill="#85BBB6" stroke="#373435" stroke-width="1.33386" stroke-miterlimit="2.61313" />
        <path fill-rule="evenodd" clip-rule="evenodd"
            d="M317.306 271.843C300.289 275.56 283.27 279.277 266.252 282.994C263.089 294.754 258.708 306.514 251.72 318.274C249.585 317.817 247.45 317.361 245.314 316.904C241.683 318.859 239.218 321.675 241.203 327.78C245.815 330.813 251.092 332.576 256.978 333.173C262.735 331.082 266.303 326.114 269.981 321.291C270.221 327.843 274.966 334.389 275.206 340.94C275.316 343.954 272.026 346.52 271.116 349.13C293.635 365.739 312.864 365.999 327.795 347.997C325.013 340.076 323.94 332.685 323.234 324.764C326.134 327.359 329.034 329.954 331.934 332.55C340.129 333.575 341.906 330.709 342.642 326.318C343.3 320.251 339.163 312.373 335.608 303.854C332.387 296.136 329.918 287.872 326.867 280.252C324.451 275.851 321.25 273.076 317.306 271.843Z"
            fill="#373435" />
        <path fill-rule="evenodd" clip-rule="evenodd"
            d="M242.049 417.431C247.055 416.948 251.893 415.98 256.594 414.628C256.851 424.544 257.865 433.831 260.09 442.115C260.842 445.403 260.123 449.003 258.776 452.417C257.901 454.634 258.534 456.896 258.286 459.254C256.595 459.685 254.904 460.117 253.212 460.548C252.498 460.188 251.784 459.829 251.07 459.469C250.994 458.607 250.92 457.744 250.844 456.882C244.025 460.563 236.35 461.724 227.955 460.763C226.013 460.205 225.808 457.815 228.136 456.497C231.543 454.569 233.968 453.828 237.426 452.571C239.832 449.445 242.237 446.319 244.642 443.193C245.09 434.606 243.313 426.018 242.049 417.431L242.049 417.431Z"
            fill="#373435" />
        <path fill-rule="evenodd" clip-rule="evenodd"
            d="M276.317 415.679C280.539 416.027 285.252 416.807 291.15 416.093C291.395 425.582 286.803 438.597 288.932 446.525C289.652 449.672 290.209 450.895 288.92 454.161C288.083 456.282 287.525 458.681 287.288 460.937C284.789 460.934 283.71 461.043 280.134 460.592C280.062 459.767 280.155 457.354 280.084 456.529C273.558 460.051 267.459 462.116 259.426 461.196C257.567 460.662 257.371 458.374 259.599 457.114C262.859 455.27 265.181 454.56 268.49 453.357C270.791 450.366 273.094 448.325 275.395 445.333C276.327 437.176 276.737 423.957 276.318 415.679H276.317Z"
            fill="#373435" />
        <path fill-rule="evenodd" clip-rule="evenodd"
            d="M285.567 232.229C283.431 231.992 281.295 231.755 279.16 231.517C278.727 236.672 276.416 239.618 272.827 241.061C273.408 243.083 274.636 244.543 276.553 245.406C276.875 248.16 277.626 251.203 277.948 253.958C278.803 256.494 280.821 257.717 283.928 258.012C289.657 258.557 291.041 261.342 289.516 266.488C289.041 268.435 288.124 270.151 286.313 271.402C282.006 273.89 276.153 274.291 271.847 276.78C269.467 278.155 267.04 281.184 266.253 282.994C266.88 283.38 267.508 283.765 268.135 284.151C284.848 280.448 301.561 276.744 318.273 273.041C309.134 271.03 305.384 269.476 305.087 258.939C301.524 256.825 298.646 253.401 296.295 248.968C297.539 247.491 301.623 239.631 296.069 236.75C292.826 235.068 290.687 241.664 290.111 244.338C287.447 243.129 286.891 239.673 288.473 233.94C287.953 232.88 286.936 232.363 285.567 232.231V232.229Z"
            fill="#FEFEFE" stroke="#373435" stroke-width="1.33386" stroke-miterlimit="7.6613" />
        <path fill-rule="evenodd" clip-rule="evenodd"
            d="M304.138 258.334C300.395 255.474 297.665 252.305 296.536 248.65C297.977 246.602 301.304 239.464 296.069 236.749C293.714 235.528 291.942 238.67 290.928 241.507C290.619 242.429 290.284 243.609 290.112 244.337C286.809 242.257 287.667 238.819 287.734 237.439C287.874 236.385 288.121 235.219 288.474 233.939C288.016 233.006 287.172 232.494 286.043 232.294C285.891 232.267 285.612 234.948 285.449 234.932C284.707 234.85 278.925 233.286 278.913 233.344C277.061 232.95 275.208 232.557 273.356 232.164C273.122 222.524 277.381 218.662 284.184 218.07C291.541 212.699 300.792 212.624 311.302 216.069C317.812 209.56 332.625 209.351 336.872 221.549C339.589 229.352 335.134 242.827 331.23 251.737C329.763 257.293 330.208 262.215 334.324 265.917C326.915 265.078 320.5 260.957 315.76 251.302C312.21 254.057 308.66 256.813 305.11 259.57C305.101 259.362 305.092 259.153 305.087 258.938C304.765 258.747 304.449 258.546 304.138 258.334Z"
            fill="#85BBB6" stroke="#373435" stroke-width="1.33386" stroke-miterlimit="2.61313" />
        <path
            d="M292.464 254.694C294.273 254.694 295.74 253.272 295.74 251.519C295.74 249.765 294.273 248.344 292.464 248.344C290.655 248.344 289.189 249.765 289.189 251.519C289.189 253.272 290.655 254.694 292.464 254.694Z"
            fill="#F6EEF6" stroke="black" stroke-width="1.33386" stroke-miterlimit="2.61313" />
        <path
            d="M315.76 251.301C314.358 248.063 314.544 244.335 314.649 241.233C314.846 235.404 318.291 230.423 316.67 224.507"
            stroke="#373435" stroke-width="1.33386" stroke-miterlimit="2.61313" />
        <path d="M316.188 233.501C308.777 231.202 305.483 223.047 311.302 216.068" stroke="#373435"
            stroke-width="1.33386" stroke-miterlimit="2.61313" />
        <path
            d="M280.54 226.272C279.846 227.431 279.348 228.559 279.045 229.657C278.744 230.746 278.631 231.809 278.705 232.847L277.54 232.921C277.622 230.272 277.819 227.554 280.54 226.273V226.272Z"
            fill="#373435" />
        <path
            d="M288.752 225.913C287.984 227.071 287.413 228.199 287.039 229.298C286.668 230.386 286.487 231.449 286.493 232.487L285.322 232.561C285.576 229.912 285.948 227.194 288.751 225.913L288.752 225.913Z"
            fill="#373435" />
        <path fill-rule="evenodd" clip-rule="evenodd"
            d="M280.174 300.375H318.616C324.165 300.375 329.378 304.756 328.704 310.02L325.388 335.907C324.714 341.169 320.845 345.551 315.3 345.551H283.49C277.945 345.551 274.076 341.172 273.402 335.907L270.086 310.02C269.412 304.754 274.625 300.375 280.174 300.375Z"
            fill="#D2E3E9" stroke="#373435" stroke-width="1.33386" stroke-miterlimit="2.61313" />
        <path
            d="M335.999 462.403C340.456 462.403 344.069 458.948 344.069 454.687C344.069 450.426 340.456 446.972 335.999 446.972C331.542 446.972 327.929 450.426 327.929 454.687C327.929 458.948 331.542 462.403 335.999 462.403Z"
            fill="#373435" />
        <path
            d="M262.865 462.403C267.322 462.403 270.935 458.948 270.935 454.687C270.935 450.426 267.322 446.972 262.865 446.972C258.408 446.972 254.795 450.426 254.795 454.687C254.795 458.948 258.408 462.403 262.865 462.403Z"
            fill="#373435" />
        <path fill-rule="evenodd" clip-rule="evenodd"
            d="M264.676 455.686L299.444 439.846L334.21 455.686L336.452 452.764L299.444 434.458L262.435 452.764L264.676 455.686Z"
            fill="#D2E3E9" stroke="black" stroke-width="0.666929" stroke-miterlimit="2.61313" />
        <path
            d="M262.865 459.208C265.477 459.208 267.594 457.184 267.594 454.687C267.594 452.191 265.477 450.167 262.865 450.167C260.254 450.167 258.137 452.191 258.137 454.687C258.137 457.184 260.254 459.208 262.865 459.208Z"
            fill="#D2E3E9" />
        <path
            d="M335.999 459.208C338.61 459.208 340.727 457.184 340.727 454.687C340.727 452.191 338.61 450.167 335.999 450.167C333.387 450.167 331.271 452.191 331.271 454.687C331.271 457.184 333.387 459.208 335.999 459.208Z"
            fill="#D2E3E9" />
        <path d="M301.891 416.82H296.9V430.323H301.891V416.82Z" fill="#D2E3E9" stroke="#373435"
            stroke-width="1.33386" stroke-miterlimit="2.61313" />
        <path
            d="M303.537 426.77H295.254C293.553 426.77 292.174 428.088 292.174 429.714V432.86C292.174 434.487 293.553 435.805 295.254 435.805H303.537C305.238 435.805 306.617 434.487 306.617 432.86V429.714C306.617 428.088 305.238 426.77 303.537 426.77Z"
            fill="#D2E3E9" stroke="#373435" stroke-width="1.33386" stroke-miterlimit="2.61313" />
        <path
            d="M303.537 379.46H295.254C293.553 379.46 292.174 384.947 292.174 391.716V404.818C292.174 411.587 293.553 417.074 295.254 417.074H303.537C305.238 417.074 306.617 411.587 306.617 404.818V391.716C306.617 384.947 305.238 379.46 303.537 379.46Z"
            fill="#D2E3E9" stroke="#373435" stroke-width="1.33386" stroke-miterlimit="2.61313" />
        <path
            d="M317.423 370.019H281.368C273.964 370.019 267.962 372.073 267.962 374.606V379.51C267.962 382.043 273.964 384.097 281.368 384.097H317.423C324.827 384.097 330.829 382.043 330.829 379.51V374.606C330.829 372.073 324.827 370.019 317.423 370.019Z"
            fill="#D2E3E9" stroke="#373435" stroke-width="1.33386" stroke-miterlimit="2.61313" />
        <path
            d="M301.101 317.734H297.69C296.99 317.734 296.422 326.183 296.422 336.606V356.78C296.422 367.203 296.99 375.652 297.69 375.652H301.101C301.801 375.652 302.369 367.203 302.369 356.78V336.606C302.369 326.183 301.801 317.734 301.101 317.734Z"
            fill="#D2E3E9" stroke="#373435" stroke-width="1.33386" stroke-miterlimit="2.61313" />

        <path d="M231.893 326.468C232.632 325.508 233.418 325.232 234.007 323.592" stroke="black"
            stroke-width="1.33386" stroke-miterlimit="2.61313" />
        <path d="M235.652 326.722C236.738 326.336 237.428 325.196 237.949 324.383" stroke="black"
            stroke-width="1.33386" stroke-miterlimit="2.61313" />
        <path fill-rule="evenodd" clip-rule="evenodd"
            d="M480.55 427.149C485.165 427.506 493.709 427.611 498.07 427.283C498.105 428.61 495.77 434.934 494.74 440.751C493.862 445.718 494.275 450.367 494.157 450.67C493.283 452.886 492.647 455.288 492.399 457.646C489.631 458.352 488.048 457.803 484.062 458.188C483.986 457.326 484.301 455.484 484.226 454.622C477.406 458.303 469.732 459.464 461.337 458.503C459.395 457.945 459.19 455.555 461.518 454.237C464.925 452.309 467.35 451.568 470.808 450.311C473.213 447.185 475.619 444.059 478.024 440.933C480.032 438.638 480.4 435.411 480.549 427.149H480.55Z"
            fill="#373435" />
        <path fill-rule="evenodd" clip-rule="evenodd"
            d="M520.093 366.875C526.788 366.687 533.482 366.499 540.176 366.311C538.811 381.506 536.641 393.307 534.661 406.726C533.591 413.98 533.635 421.398 532.988 428.653C528.768 428.734 527.203 428.814 522.983 428.895C523.92 415.75 520.467 402.362 520.055 388.895C519.838 381.796 520.312 373.975 520.093 366.875Z"
            fill="#85BBB6" stroke="#373435" stroke-width="1.33386" stroke-miterlimit="2.61313" />
        <path fill-rule="evenodd" clip-rule="evenodd"
            d="M537.083 427.648C531.736 427.943 526.39 428.239 521.043 428.533C521.972 435.177 522.033 443.479 521.921 452.117C521.955 453.815 522.424 455.282 523.627 456.359C525.545 456.265 527.462 456.172 529.38 456.079C531.324 456.277 532.734 455.601 533.768 454.308C536.748 455.444 539.856 455.595 543.226 453.749C544.069 452.965 544.251 451.735 542.884 449.46C540.378 448.922 538.906 447.559 537.96 445.778C536.217 438.972 536.225 433.085 537.082 427.647L537.083 427.648Z"
            fill="#373435" />
        <path fill-rule="evenodd" clip-rule="evenodd"
            d="M417.309 300.375H455.751C461.3 300.375 466.513 304.756 465.839 310.02L462.523 335.907C461.849 341.169 457.98 345.551 452.435 345.551H420.625C415.079 345.551 411.211 341.172 410.537 335.907L407.221 310.02C406.547 304.754 411.76 300.375 417.309 300.375Z"
            fill="#D2E3E9" stroke="#373435" stroke-width="1.33386" stroke-miterlimit="2.61313" />
        <path
            d="M473.134 462.403C477.591 462.403 481.204 458.948 481.204 454.687C481.204 450.426 477.591 446.972 473.134 446.972C468.677 446.972 465.063 450.426 465.063 454.687C465.063 458.948 468.677 462.403 473.134 462.403Z"
            fill="#373435" />
        <path
            d="M400 462.403C404.457 462.403 408.07 458.948 408.07 454.687C408.07 450.426 404.457 446.972 400 446.972C395.543 446.972 391.93 450.426 391.93 454.687C391.93 458.948 395.543 462.403 400 462.403Z"
            fill="#373435" />
        <path fill-rule="evenodd" clip-rule="evenodd"
            d="M401.811 455.686L436.578 439.846L471.345 455.686L473.586 452.764L436.578 434.458L399.57 452.764L401.811 455.686Z"
            fill="#D2E3E9" stroke="black" stroke-width="0.666929" stroke-miterlimit="2.61313" />
        <path
            d="M400 459.208C402.611 459.208 404.728 457.184 404.728 454.687C404.728 452.191 402.611 450.167 400 450.167C397.388 450.167 395.271 452.191 395.271 454.687C395.271 457.184 397.388 459.208 400 459.208Z"
            fill="#D2E3E9" />
        <path
            d="M473.134 459.208C475.745 459.208 477.862 457.184 477.862 454.687C477.862 452.191 475.745 450.167 473.134 450.167C470.522 450.167 468.405 452.191 468.405 454.687C468.405 457.184 470.522 459.208 473.134 459.208Z"
            fill="#D2E3E9" />
        <path d="M439.025 416.82H434.034V430.323H439.025V416.82Z" fill="#D2E3E9" stroke="#373435"
            stroke-width="1.33386" stroke-miterlimit="2.61313" />
        <path
            d="M440.671 426.77H432.389C430.688 426.77 429.309 428.088 429.309 429.714V432.86C429.309 434.487 430.688 435.805 432.389 435.805H440.671C442.372 435.805 443.751 434.487 443.751 432.86V429.714C443.751 428.088 442.372 426.77 440.671 426.77Z"
            fill="#D2E3E9" stroke="#373435" stroke-width="1.33386" stroke-miterlimit="2.61313" />
        <path
            d="M440.671 379.46H432.389C430.688 379.46 429.309 384.947 429.309 391.716V404.818C429.309 411.587 430.688 417.074 432.389 417.074H440.671C442.372 417.074 443.751 411.587 443.751 404.818V391.716C443.751 384.947 442.372 379.46 440.671 379.46Z"
            fill="#D2E3E9" stroke="#373435" stroke-width="1.33386" stroke-miterlimit="2.61313" />
        <path
            d="M454.557 370.019H418.502C411.098 370.019 405.096 372.073 405.096 374.606V379.51C405.096 382.043 411.098 384.097 418.502 384.097H454.557C461.961 384.097 467.963 382.043 467.963 379.51V374.606C467.963 372.073 461.961 370.019 454.557 370.019Z"
            fill="#D2E3E9" stroke="#373435" stroke-width="1.33386" stroke-miterlimit="2.61313" />
        <path
            d="M438.235 317.734H434.825C434.124 317.734 433.557 326.183 433.557 336.606V356.78C433.557 367.203 434.124 375.652 434.825 375.652H438.235C438.936 375.652 439.503 367.203 439.503 356.78V336.606C439.503 326.183 438.936 317.734 438.235 317.734Z"
            fill="#D2E3E9" stroke="#373435" stroke-width="1.33386" stroke-miterlimit="2.61313" />
<g>        <path fill-rule="evenodd" clip-rule="evenodd"
    d="M498.893 218.24C492.927 214.044 495.033 209.18 490.932 205.109C486.809 201.017 481.54 203.854 477.933 199.734C477.92 199.72 473.89 196.766 474.551 199.941C475.549 204.732 482.441 207.309 483.873 210.577C485.468 214.219 484.539 212.102 485.318 215.78C485.489 216.586 480.536 209.965 476.947 210.077C476.195 210.101 473.736 210.671 474.695 211.752C476.264 213.522 479.584 214.078 481.356 217.258C481.871 218.181 488.296 225.898 489.389 226.173C490.925 226.56 493.054 229.548 494.606 225.078C494.836 224.418 500.263 218.221 498.892 218.24H498.893Z"
    fill="#FEFEFE" stroke="#373435" stroke-width="1.33386" stroke-miterlimit="2.61313" />
<path d="M478.927 200.674L486.161 206.362" stroke="#373435" stroke-width="1.33386"
    stroke-miterlimit="2.61313" />  
    
    <animateTransform 
    attributeName="transform" 
    attributeType="XML" 
    type="translate"  
    values="0 0; 0 0; 0 2;0 -3; 0 -3; 0 0" 
    dur="3s" 
    repeatCount="indefinite" />
    
</g>
        <path
            d="M415.808 247.76C417.544 247.304 418.231 244.428 417.343 241.337C416.454 238.246 414.326 236.111 412.59 236.567C410.855 237.023 410.168 239.898 411.056 242.989C411.945 246.08 414.072 248.216 415.808 247.76Z"
            fill="#FEFEFE" stroke="#373435" stroke-width="1.33386" stroke-miterlimit="2.61313" />
        <path
            d="M448.139 247.76C446.403 247.304 445.716 244.428 446.605 241.337C447.494 238.246 449.621 236.111 451.357 236.567C453.093 237.023 453.78 239.898 452.892 242.989C452.003 246.08 449.875 248.216 448.139 247.76Z"
            fill="#FEFEFE" stroke="#373435" stroke-width="1.33386" stroke-miterlimit="2.61313" />
        <path fill-rule="evenodd" clip-rule="evenodd"
            d="M493.277 299.769C492.085 298.881 490.893 297.993 489.7 297.106C490.237 289.196 494.68 282.051 495.217 274.142C495.576 268.856 495.846 262.042 492.389 257.52C488.987 260.235 484.578 266.487 481.189 263.762C474.757 258.594 469.503 248.823 465.767 238.093C468.282 236.424 470.796 234.756 473.31 233.088C476.102 237.576 479.059 241.926 483.516 245.05C488.843 238.605 492.043 225.627 497.37 219.183C500.739 215.108 505.616 213.917 509.606 213.49C520.994 214.508 532.382 215.527 543.771 216.545C545.164 236.033 540.663 251.154 532.59 263.629C536.987 274.529 540.151 286.265 541.982 298.216C534.119 299.045 526.256 299.873 518.392 300.702C510.021 300.392 501.649 300.08 493.278 299.769H493.277Z"
            fill="#85BBB6" stroke="#373435" stroke-width="1.33386" stroke-miterlimit="2.61313" />
        <path fill-rule="evenodd" clip-rule="evenodd"
            d="M541.894 296.927C524.095 300.188 506.39 300.549 488.816 296.927C483.508 320.252 481.407 343.437 481.052 366.547C500.126 369.019 520.841 368.155 541.725 366.95C544.636 344.427 543.504 320.745 541.894 296.927Z"
            fill="#373435" />
        <path d="M507.023 238.206C502.957 245.129 498.329 251.716 492.388 257.52" stroke="#373435"
            stroke-width="0.666929" stroke-miterlimit="2.61313" />
        <path d="M532.589 263.628C530.41 252.021 532.212 240.459 539.407 228.964" stroke="#373435"
            stroke-width="0.666929" stroke-miterlimit="2.61313" />
        <path fill-rule="evenodd" clip-rule="evenodd"
            d="M508.566 172.315C505.725 172.696 502.884 173.076 500.043 173.458C495.048 179.914 499.078 181.842 498.115 186.037C497.645 188.078 495.582 189.566 494.07 190.787C495.18 192.771 497.548 192.264 498.936 193.402C500.823 194.948 500.701 200.031 502.532 201.792C506.444 205.555 514.129 200.119 517.567 197.064C514.567 188.815 511.566 180.565 508.566 172.316V172.315Z"
            fill="#FEFEFE" stroke="#373435" stroke-width="1.33386" stroke-miterlimit="2.61313" />
        <path fill-rule="evenodd" clip-rule="evenodd"
            d="M495.474 159.746C495.18 161.697 494.579 162.19 496.291 164.555C499.204 154.503 506.547 152.088 516.199 154.301C531.885 151.334 543.317 155.449 543.352 171.606C554.486 175.728 557.794 183.438 553.055 194.835C556.934 203.965 558.62 212.137 552.484 216.896C550.967 226.551 544.128 232.058 532.471 230.041C531.001 229.786 534.765 228.193 531.565 224.464C530.599 224.26 527.467 238.371 516.439 229.273C519.896 230.216 521.903 230.187 522.886 227.34C515.619 224.632 510.914 220.551 510.655 214.089C502.731 214.6 502.306 209.68 509.187 203.253C514.94 197.88 514.535 194.074 510.329 189.3C508.859 190.625 503.978 188.653 504.527 186.728C507.428 188.014 508.898 186.435 508.617 185.87C506.552 181.654 505.012 177.58 505.926 174.177C502.176 175.424 498.192 173.841 494.44 171.232C492.385 166.765 491.242 162.078 495.474 159.744V159.746Z"
            fill="#373435" />
        <path
            d="M512.081 197.221C513.746 197.859 515.671 197.003 516.381 195.31C517.091 193.617 516.316 191.727 514.65 191.089C512.985 190.452 511.06 191.307 510.351 193C509.641 194.693 510.416 196.583 512.081 197.221Z"
            fill="#85BBB6" />
            <path fill-rule="evenodd" clip-rule="evenodd"
            d="M466.553 237.702C467.641 231.255 455.103 220.127 454.403 216.596C453.261 210.842 454.593 209.302 454.593 203.194C454.593 197.716 457.982 211.163 460.281 211.176C460.911 211.179 460.555 209.835 461.117 207.218C461.491 205.478 461.814 205.091 462.1 204.287C463.361 200.727 466.806 209.682 464.802 215.719C464.182 217.589 472.476 222.753 472.476 224.857C472.476 227.018 471.775 227.691 472.423 230.244C473.862 235.916 471.948 233.779 468.293 236.746C468.075 236.923 466.6 237.874 466.554 237.702H466.553Z"
            fill="#FEFEFE" stroke="#373435" stroke-width="1.33386" stroke-miterlimit="2.61313" />
            <path d="M460.623 210.854C460.662 213.163 460.115 215.299 458.267 217.051" stroke="#373435"
            stroke-width="1.33386" stroke-miterlimit="2.61313" />
           
      
        <path fill-rule="evenodd" clip-rule="evenodd"
            d="M371.633 437.331C377.059 438.365 382.633 438.967 388.431 438.933C389.226 443.122 389.395 447.131 388.327 450.785C388.525 451.32 388.85 451.186 389.374 451.587C389.165 453.422 389.444 454.658 389.235 456.494C385.737 456.546 382.628 456.91 379.142 456.981C377.218 457.021 375.339 455.708 373.381 455.723C371.21 455.739 369.188 457.048 366.995 457.306C363.496 457.716 359.516 457.301 356.443 457.261C355.338 455.681 355.382 454.101 355.954 452.521C358.716 449.813 362.434 448.128 366.781 447.112C369.505 445.301 371.424 442.436 371.635 437.33L371.633 437.331Z"
            fill="#FEFEFE" stroke="#373435" stroke-width="1.33386" stroke-miterlimit="2.61313" />
        <path fill-rule="evenodd" clip-rule="evenodd"
            d="M389.13 449.117L389.044 443.841L383.336 443.728L378.828 444.576L375.65 447.514L375.09 451.955L377.937 451.685L387.92 450.829L389.13 449.117Z"
            fill="#85BBB6" />
        <path
            d="M355.564 454.318C358.359 454.506 362.482 454.626 365.696 454.28C369.174 453.905 372.275 452.625 375.644 452.026C379.738 451.298 384.099 451.241 388.327 450.786"
            stroke="#373435" stroke-width="1.33386" stroke-miterlimit="2.61313" />
        <path d="M366.396 454.425C366.414 451.764 367.013 449.041 367.87 446.292" stroke="#373435"
            stroke-width="1.33386" stroke-miterlimit="2.61313" />
        <path d="M375.09 451.954C375.073 444.016 381.239 443.159 388.78 443.874" stroke="#373435"
            stroke-width="1.33386" stroke-miterlimit="2.61313" />
        <path d="M380.643 444.138L380.783 438.833" stroke="#373435" stroke-width="1.33386"
            stroke-miterlimit="2.61313" />
        <path d="M385.751 443.969L385.891 438.665" stroke="#373435" stroke-width="1.33386"
            stroke-miterlimit="2.61313" />
        <path fill-rule="evenodd" clip-rule="evenodd"
            d="M371.633 437.331C377.059 438.365 382.633 438.967 388.431 438.933C389.226 443.122 389.395 447.131 388.327 450.785C388.525 451.32 388.85 451.186 389.374 451.587C389.165 453.422 389.444 454.658 389.235 456.494C385.737 456.546 382.628 456.91 379.142 456.981C377.218 457.021 375.339 455.708 373.381 455.723C371.21 455.739 369.188 457.048 366.995 457.306C363.496 457.716 359.516 457.301 356.443 457.261C355.338 455.681 355.382 454.101 355.954 452.521C358.716 449.813 362.434 448.128 366.781 447.112C369.505 445.301 371.424 442.436 371.635 437.33L371.633 437.331Z"
            stroke="#373435" stroke-width="1.33386" stroke-miterlimit="2.61313" />
        <path d="M386.134 319.22L384.389 322.521" stroke="#373435" stroke-width="1.33386"
            stroke-miterlimit="2.61313" />
        <path fill-rule="evenodd" clip-rule="evenodd"
            d="M431.896 211.057C442.222 211.057 450.593 221.657 450.593 234.732C450.593 247.807 438.643 258.407 431.896 258.407C425.148 258.407 413.198 247.807 413.198 234.732C413.198 221.656 421.569 211.057 431.896 211.057Z"
            fill="#373435" stroke="#373435" stroke-width="1.33386" stroke-miterlimit="2.61313" />
    </g>
    <defs>
        <clipPath id="clip0_215_7024">
            <rect width="659" height="467" fill="white" />
        </clipPath>
    </defs>
</svg>
    