<?xml version="1.0" encoding="UTF-8"?>
<svg  fill="none" xmlns="http://www.w3.org/2000/svg" viewBox="-40 -20 260 260"> 

 
<path d="M98.1135 193.227C150.643 193.227 193.227 150.643 193.227 98.1135C193.227 45.5838 150.643 3 98.1135 3C45.5838 3 3 45.5838 3 98.1135C3 150.643 45.5838 193.227 98.1135 193.227Z" fill="#D2E3E9" stroke="#373435" stroke-width="5.33315" stroke-miterlimit="2.61313"/>

    <svg width="200" height="240" viewBox="-55 -15 260 260" fill="none" xmlns="http://www.w3.org/2000/svg">
<path fill-rule="evenodd" clip-rule="evenodd" d="M96.682 104.845C108.248 106.707 134.45 114.961 141.607 118.288C134.898 96.6137 106.854 74.5984 97.1804 71.3013C97.8431 82.6374 97.5551 94.0597 96.6833 104.845H96.682Z" fill="#85BBB6" stroke="#373435" stroke-width="1.00003" stroke-miterlimit="2.61313"/>
<path fill-rule="evenodd" clip-rule="evenodd" d="M45.7892 104.932C33.9712 106.953 8.44261 115.01 1.39417 118.286C8.05641 96.7635 35.7518 74.9077 45.6133 71.3755C44.8702 82.7104 45.027 94.1481 45.7905 104.932H45.7892Z" fill="#85BBB6" stroke="#373435" stroke-width="1.00003" stroke-miterlimit="2.61313"/>
<path fill-rule="evenodd" clip-rule="evenodd" d="M93.1782 131.925H93.1807C102.588 132.585 111.392 134.368 119.199 137.997C112.274 115.627 104.508 102.701 95.7809 100.559H95.777C96.0383 110.454 95.1563 120.917 93.1782 131.926V131.925Z" fill="#EAF8F8" stroke="#373435" stroke-width="1.00003" stroke-miterlimit="2.61313"/>
<path fill-rule="evenodd" clip-rule="evenodd" d="M49.1095 131.925H49.107C39.6993 132.585 30.8957 134.368 23.0889 137.997C30.0137 115.627 37.7797 102.701 46.5068 100.559H46.5106C46.2493 110.454 47.1313 120.917 49.1095 131.926V131.925Z" fill="#EAF8F8" stroke="#373435" stroke-width="1.00003" stroke-miterlimit="2.61313"/>
<path fill-rule="evenodd" clip-rule="evenodd" d="M54.5672 154.862C52.2908 147.073 50.4822 139.515 49.1566 132.198C42.112 93.3166 41.453 29.0284 71.1394 1.51392C102.503 30.5842 100.14 93.189 93.1629 131.968C91.8335 139.356 90.0108 146.991 87.7102 154.861C75.6131 157.168 66.6643 157.168 54.5672 154.861V154.862Z" fill="#85BBB6" stroke="#373435" stroke-width="1.00003" stroke-miterlimit="2.61313"/>
<path fill-rule="evenodd" clip-rule="evenodd" d="M55.2428 25.4431C59.1456 16.0385 64.3459 7.81165 71.1394 1.51514C78.1853 8.04555 83.5233 16.2712 87.4961 25.5352C76.9693 26.5701 66.217 26.5358 55.2428 25.4431Z" fill="#373435" stroke="#373435" stroke-width="1.00003" stroke-miterlimit="2.61313"/>
<path fill-rule="evenodd" clip-rule="evenodd" d="M57.3191 155.63H84.9482C85.4275 158.241 85.9067 160.851 86.386 163.462C82.357 166.49 76.8482 167.038 71.133 167.24C65.419 167.038 59.9103 166.49 55.8801 163.462C56.3593 160.851 56.8386 158.241 57.3178 155.63H57.3191Z" fill="#136868" stroke="#373435" stroke-width="1.00003" stroke-miterlimit="2.61313"/>
<path fill-rule="evenodd" clip-rule="evenodd" d="M54.5672 154.862C53.0721 149.745 51.7809 144.731 50.6937 139.816C64.3203 143.52 77.9456 143.754 91.5722 139.863C90.4862 144.762 89.2001 149.762 87.7102 154.862C75.6131 157.169 66.6642 157.169 54.5672 154.862Z" fill="#136868" stroke="#373435" stroke-width="1.00003" stroke-miterlimit="2.61313"/>
<path d="M71.1393 95.0793C77.3283 95.0793 82.3454 89.6983 82.3454 83.0604C82.3454 76.4225 77.3283 71.0415 71.1393 71.0415C64.9503 71.0415 59.9332 76.4225 59.9332 83.0604C59.9332 89.6983 64.9503 95.0793 71.1393 95.0793Z" fill="#FEFEFE" stroke="#373435" stroke-width="2.00005" stroke-miterlimit="2.61313"/>
<path fill-rule="evenodd" clip-rule="evenodd" d="M46.4685 104.806C62.9157 108.478 79.3629 108.708 95.8102 104.852C95.749 114.223 94.7 124.083 92.7053 134.414C78.3241 138.262 63.943 138.135 49.5619 134.356C47.571 124.03 46.5259 114.173 46.4685 104.806Z" fill="#373435" stroke="#373435" stroke-width="0.667009" stroke-miterlimit="2.61313"/>
<path d="M71.1343 142.681V156.292" stroke="#373435" stroke-width="0.667009" stroke-miterlimit="2.61313"/>
<path d="M65.2496 142.684L65.7199 156.289" stroke="#373435" stroke-width="0.667009" stroke-miterlimit="2.61313"/>
<path d="M59.9907 142.04L61.171 155.607" stroke="#373435" stroke-width="0.667009" stroke-miterlimit="2.61313"/>
<path d="M55.0211 141.1L57.7002 155.185" stroke="#373435" stroke-width="0.667009" stroke-miterlimit="2.61313"/>
<path d="M77.0191 142.729L76.5475 156.334" stroke="#373435" stroke-width="0.667009" stroke-miterlimit="2.61313"/>
<path d="M82.278 142.084L81.0964 155.652" stroke="#373435" stroke-width="0.667009" stroke-miterlimit="2.61313"/>
<path d="M87.2476 141.145L84.571 155.214" stroke="#373435" stroke-width="0.667009" stroke-miterlimit="2.61313"/>
<path fill-rule="evenodd" clip-rule="evenodd" d="M59.2653 36.0692C62.2554 26.4626 65.9109 17.2447 70.1107 8.34448C64.551 16.4945 60.5322 25.5093 59.2653 36.0692Z" fill="#FEFEFE"/>
<path d="M71.1392 57.9332C76.5412 57.9332 80.9204 53.5603 80.9204 48.166C80.9204 42.7716 76.5412 38.3987 71.1392 38.3987C65.7373 38.3987 61.3581 42.7716 61.3581 48.166C61.3581 53.5603 65.7373 57.9332 71.1392 57.9332Z" fill="#FEFEFE" stroke="#373435" stroke-width="2.00005" stroke-miterlimit="2.61313"/>
<path fill-rule="evenodd" clip-rule="evenodd" d="M56.6996 127.713C56.2484 115.109 55.0605 103.507 54.3073 91.0625C52.8721 103.183 53.5132 114.706 56.6996 127.713Z" fill="#FEFEFE"/>
<path fill-rule="evenodd" clip-rule="evenodd" d="M71.6582 238.762C67.6343 226.646 65.4051 214.53 64.1356 202.414C60.8242 208.067 58.1553 213.868 55.9961 219.788C53.8841 210.643 52.7638 201.5 53.2825 192.356C50.1585 194.719 47.0345 197.08 43.9105 199.443C47.241 188.255 51.3082 177.521 56.613 167.554C56.9788 173.388 58.2611 178.37 60.93 182.07C62.0402 180.013 63.1503 177.956 64.2592 175.898C65.2432 182.407 67.3845 188.059 71.6595 192.128C75.9331 188.057 78.0745 182.407 79.0597 175.898C80.1699 177.956 81.28 180.013 82.3889 182.07C85.0566 178.37 86.3401 173.388 86.7059 167.554C92.0095 177.522 96.0767 188.255 99.4084 199.443C96.2844 197.08 93.1604 194.719 90.0364 192.356C90.5552 201.5 89.4348 210.643 87.3228 219.788C85.1637 213.868 82.4947 208.067 79.1833 202.414C77.9139 214.53 75.6846 226.646 71.6607 238.762H71.6582Z" fill="#F6EEF6" stroke="#373435" stroke-width="1.00003" stroke-miterlimit="2.61313"/>
<path d="M64.9792 166.537L65.7198 156.363" stroke="#373435" stroke-width="0.667009" stroke-miterlimit="2.61313"/>
<path d="M59.9905 165.739L61.1708 155.929" stroke="#373435" stroke-width="0.667009" stroke-miterlimit="2.61313"/>
<path d="M77.1184 166.794L76.5474 156.333" stroke="#373435" stroke-width="0.667009" stroke-miterlimit="2.61313"/>
<path d="M82.278 165.709L81.0964 156.089" stroke="#373435" stroke-width="0.667009" stroke-miterlimit="2.61313"/>
<path d="M71.1343 156.591V167.297" stroke="#373435" stroke-width="0.667009" stroke-miterlimit="2.61313"/>
</svg>

</svg>
