<?xml version="1.0" encoding="UTF-8"?>
<svg  fill="none" xmlns="http://www.w3.org/2000/svg">

  <svg width="243" height="237"  viewBox="0 -50 282 282" fill="none" xmlns="http://www.w3.org/2000/svg">
<path d="M135 229.138C207.902 229.138 267 178.553 267 116.153C267 53.7529 207.902 3.16772 135 3.16772C62.0984 3.16772 3 53.7529 3 116.153C3 178.553 62.0984 229.138 135 229.138Z" fill="#D2E3E9" stroke="#373435" stroke-width="5.33315" stroke-miterlimit="2.61313"/>
</svg>
<svg width="252" height="338" viewBox="-30 50 300 300" fill="none" xmlns="http://www.w3.org/2000/svg">
<path fill-rule="evenodd" clip-rule="evenodd" d="M82.5309 176.786C79.2862 166.118 79.2524 155.253 76.0091 144.584C43.5669 166.175 19.7383 190.112 0.754342 215.367C0.0367669 217.947 1.24082 218.515 3.27733 218.214C30.2371 213.408 55.4698 205.893 80.5808 198.187C80.1214 191.184 80.8106 183.985 82.5309 176.786Z" fill="#EAF8F8" stroke="#373435" stroke-width="1.00003" stroke-miterlimit="22.9256"/>
<path fill-rule="evenodd" clip-rule="evenodd" d="M52.0158 139.282C40.7954 159.775 40.2332 184.863 50.4157 214.287C49.186 219.461 49.3631 223.824 51.678 227.639C55.8185 227.898 60.1996 227.693 64.8672 226.854C66.1335 222.357 65.5254 218.03 63.9497 213.797C70.3714 183.689 67.9133 158.163 52.0158 139.282Z" fill="#85BBB6" stroke="#373435" stroke-width="1.00003" stroke-miterlimit="22.9256"/>
<path fill-rule="evenodd" clip-rule="evenodd" d="M63.9873 213.619L50.3696 214.486C49.1912 219.573 49.3939 223.873 51.6777 227.638C55.8183 227.897 60.1994 227.692 64.867 226.852C66.1332 222.356 65.5252 218.029 63.9495 213.796L63.9873 213.617V213.619Z" fill="#136868"/>
<path d="M62.2416 227.433L60.8754 216.071" stroke="#373435" stroke-width="1.00003" stroke-miterlimit="2.61313"/>
<path d="M54.4617 227.742L54.0981 216.452" stroke="#373435" stroke-width="1.00003" stroke-miterlimit="2.61313"/>
<path d="M58.305 227.646L57.528 216.333" stroke="#373435" stroke-width="1.00003" stroke-miterlimit="2.61313"/>
<path fill-rule="evenodd" clip-rule="evenodd" d="M52.0158 139.282C40.7954 159.775 40.2332 184.863 50.4157 214.287C49.186 219.461 49.3631 223.824 51.678 227.639C55.8185 227.898 60.1996 227.693 64.8672 226.854C66.1335 222.357 65.5254 218.03 63.9497 213.797C70.3714 183.689 67.9133 158.163 52.0158 139.282Z" stroke="#373435" stroke-width="1.00003" stroke-miterlimit="22.9256"/>
<path fill-rule="evenodd" clip-rule="evenodd" d="M139.469 176.786C142.714 166.118 142.748 155.253 145.991 144.584C178.433 166.175 202.262 190.112 221.246 215.367C221.963 217.947 220.759 218.515 218.723 218.214C191.763 213.408 166.53 205.893 141.419 198.187C141.879 191.184 141.19 183.985 139.469 176.786Z" fill="#EAF8F8" stroke="#373435" stroke-width="1.00003" stroke-miterlimit="22.9256"/>
<path fill-rule="evenodd" clip-rule="evenodd" d="M169.985 139.282C181.205 159.775 181.767 184.863 171.585 214.287C172.814 219.461 172.637 223.824 170.322 227.639C166.182 227.898 161.801 227.693 157.133 226.854C155.867 222.357 156.475 218.03 158.051 213.797C151.629 183.689 154.087 158.163 169.985 139.282Z" fill="#85BBB6" stroke="#373435" stroke-width="1.00003" stroke-miterlimit="22.9256"/>
<path fill-rule="evenodd" clip-rule="evenodd" d="M158.013 213.619L171.63 214.486C172.809 219.573 172.606 223.873 170.322 227.638C166.182 227.897 161.801 227.692 157.133 226.852C155.867 222.356 156.475 218.029 158.051 213.796L158.013 213.617V213.619Z" fill="#136868"/>
<path d="M159.759 227.433L161.125 216.071" stroke="#373435" stroke-width="1.00003" stroke-miterlimit="2.61313"/>
<path d="M167.539 227.742L167.902 216.452" stroke="#373435" stroke-width="1.00003" stroke-miterlimit="2.61313"/>
<path d="M163.695 227.646L164.472 216.333" stroke="#373435" stroke-width="1.00003" stroke-miterlimit="2.61313"/>
<path fill-rule="evenodd" clip-rule="evenodd" d="M169.985 139.282C181.205 159.775 181.767 184.863 171.585 214.287C172.814 219.461 172.637 223.824 170.322 227.639C166.182 227.898 161.801 227.693 157.133 226.854C155.867 222.357 156.475 218.03 158.051 213.797C151.629 183.689 154.087 158.163 169.985 139.282Z" stroke="#373435" stroke-width="1.00003" stroke-miterlimit="22.9256"/>
<path fill-rule="evenodd" clip-rule="evenodd" d="M93.631 221.137C69.9753 146.378 59.2603 69.775 111.201 1C161.625 69.923 152.394 146.498 128.771 221.137C115.945 223.396 106.457 223.396 93.631 221.137Z" fill="#85BBB6" stroke="#373435" stroke-width="1.00003" stroke-miterlimit="2.61313"/>
<path fill-rule="evenodd" clip-rule="evenodd" d="M90.4378 210.754C88.1215 202.987 85.9688 195.206 84.035 187.42H138.28C136.383 195.207 134.259 202.99 131.954 210.754H90.4365H90.4378Z" fill="#136868" stroke="#373435" stroke-width="1.00003" stroke-miterlimit="2.61313"/>
<path fill-rule="evenodd" clip-rule="evenodd" d="M87.2918 42.8169C93.054 28.6196 100.889 14.6548 111.201 1C121.111 14.5449 128.707 28.3871 134.352 42.4491C127.887 51.3013 120.623 58.6787 110.687 64.4553C100.889 58.7586 93.6878 51.5061 87.2904 42.8158L87.2918 42.8169Z" fill="#373435" stroke="#373435" stroke-width="1.00003" stroke-miterlimit="2.61313"/>
<path fill-rule="evenodd" clip-rule="evenodd" d="M84.3012 188.486C80.0376 171.499 76.8051 154.49 75.1794 137.57C99.0608 139.799 122.941 139.836 146.821 137.581C145.303 154.603 142.165 171.709 137.946 188.788C120.537 191.944 102.645 191.815 84.3012 188.486Z" fill="#373435" stroke="#373435" stroke-width="1.00003" stroke-miterlimit="2.61313"/>
<path fill-rule="evenodd" clip-rule="evenodd" d="M96.5486 221.889H125.842C126.35 224.445 126.858 227.002 127.367 229.558C123.095 232.522 117.254 233.059 111.195 233.257C105.137 233.059 99.296 232.522 95.0229 229.558C95.5311 227.002 96.0391 224.445 96.5473 221.889H96.5486Z" fill="#136868" stroke="#373435" stroke-width="1.00003" stroke-miterlimit="2.61313"/>
<path fill-rule="evenodd" clip-rule="evenodd" d="M93.631 221.137C92.0459 216.127 90.677 211.217 89.5243 206.405C103.972 210.032 118.418 210.261 132.865 206.452C131.714 211.248 130.35 216.144 128.771 221.137C115.945 223.396 106.457 223.396 93.631 221.137Z" fill="#136868" stroke="#373435" stroke-width="1.00003" stroke-miterlimit="2.61313"/>
<path d="M111.202 162.6C117.763 162.6 123.083 157.331 123.083 150.832C123.083 144.332 117.763 139.063 111.202 139.063C104.64 139.063 99.3203 144.332 99.3203 150.832C99.3203 157.331 104.64 162.6 111.202 162.6Z" fill="#FEFEFE" stroke="#373435" stroke-width="2.00005" stroke-miterlimit="2.61313"/>
<path d="M111.196 209.21V222.538" stroke="#373435" stroke-width="0.667009" stroke-miterlimit="2.61313"/>
<path d="M104.955 209.214L105.455 222.534" stroke="#373435" stroke-width="0.667009" stroke-miterlimit="2.61313"/>
<path d="M99.3811 208.581L100.632 221.866" stroke="#373435" stroke-width="0.667009" stroke-miterlimit="2.61313"/>
<path d="M94.1121 207.663L96.9526 221.454" stroke="#373435" stroke-width="0.667009" stroke-miterlimit="2.61313"/>
<path d="M117.435 209.258L116.935 222.578" stroke="#373435" stroke-width="0.667009" stroke-miterlimit="2.61313"/>
<path d="M123.01 208.626L121.758 221.909" stroke="#373435" stroke-width="0.667009" stroke-miterlimit="2.61313"/>
<path d="M128.279 207.707L125.442 221.481" stroke="#373435" stroke-width="0.667009" stroke-miterlimit="2.61313"/>
<path fill-rule="evenodd" clip-rule="evenodd" d="M90.3864 72.5061C94.2553 54.5183 99.5161 37.1262 105.92 20.2234C96.6783 35.9892 90.6566 53.0713 90.3864 72.5061Z" fill="#FEFEFE"/>
<path d="M111.201 126.23C116.929 126.23 121.572 121.948 121.572 116.666C121.572 111.385 116.929 107.103 111.201 107.103C105.474 107.103 100.831 111.385 100.831 116.666C100.831 121.948 105.474 126.23 111.201 126.23Z" fill="#FEFEFE" stroke="#373435" stroke-width="2.00005" stroke-miterlimit="2.61313"/>
<path fill-rule="evenodd" clip-rule="evenodd" d="M91.935 181.448C90.2444 159.773 87.2498 139.863 85.0052 118.479C83.1457 139.422 85.1187 159.225 91.935 181.448Z" fill="#FEFEFE"/>
<path fill-rule="evenodd" clip-rule="evenodd" d="M57.2131 285.833C53.8834 276.575 52.0401 267.319 50.9887 258.061C48.2495 262.38 46.0414 274.894 44.2549 279.418C42.5076 272.431 41.5806 257.362 42.0103 250.376C39.4251 252.181 36.8399 253.986 34.2561 255.79C37.0115 247.241 40.3764 239.04 44.7657 231.423C45.0684 235.881 46.1292 239.688 48.3374 242.515C49.2563 240.943 50.1739 239.371 51.0928 237.799C51.9077 242.773 53.6793 247.091 57.2145 250.201C60.751 247.091 62.5227 242.773 63.3362 237.799C64.2538 239.371 65.1726 240.943 66.0916 242.515C68.2984 239.688 69.3605 235.88 69.6633 231.423C74.0525 239.04 77.4174 247.24 80.1728 255.79C77.5877 253.985 75.0025 252.18 72.4187 250.376C72.8484 257.362 71.9214 272.431 70.174 279.418C68.3875 274.894 66.1795 262.38 63.4402 258.061C62.3902 267.319 60.5456 276.576 57.2159 285.833H57.2131Z" fill="#F6EEF6" stroke="#373435" stroke-width="1.00003" stroke-miterlimit="22.9256"/>
<path d="M104.67 232.569L105.456 222.607" stroke="#373435" stroke-width="0.667009" stroke-miterlimit="2.61313"/>
<path d="M99.3811 231.788L100.632 222.181" stroke="#373435" stroke-width="0.667009" stroke-miterlimit="2.61313"/>
<path d="M117.541 232.82L116.935 222.578" stroke="#373435" stroke-width="0.667009" stroke-miterlimit="2.61313"/>
<path d="M123.01 231.759L121.758 222.338" stroke="#373435" stroke-width="0.667009" stroke-miterlimit="2.61313"/>
<path d="M111.196 222.829V233.311" stroke="#373435" stroke-width="0.667009" stroke-miterlimit="2.61313"/>
<path fill-rule="evenodd" clip-rule="evenodd" d="M163.863 285.833C160.533 276.575 158.69 267.319 157.638 258.061C154.899 262.38 152.691 274.894 150.905 279.418C149.157 272.431 148.23 257.362 148.66 250.376C146.075 252.181 143.49 253.986 140.906 255.79C143.661 247.241 147.026 239.04 151.415 231.423C151.718 235.881 152.779 239.688 154.987 242.515C155.906 240.943 156.823 239.371 157.742 237.799C158.557 242.773 160.329 247.091 163.864 250.201C167.401 247.091 169.172 242.773 169.986 237.799C170.903 239.371 171.822 240.943 172.741 242.515C174.948 239.688 176.01 235.88 176.313 231.423C180.702 239.04 184.067 247.24 186.822 255.79C184.237 253.985 181.652 252.18 179.068 250.376C179.498 257.362 178.571 272.431 176.824 279.418C175.037 274.894 172.829 262.38 170.09 258.061C169.04 267.319 167.195 276.576 163.865 285.833H163.863Z" fill="#F6EEF6" stroke="#373435" stroke-width="1.00003" stroke-miterlimit="22.9256"/>
<path fill-rule="evenodd" clip-rule="evenodd" d="M111.127 336.069C105.996 324.539 101.376 312.893 100.533 298.603C98.4487 302.568 96.3636 306.532 94.2797 310.498C93.7446 300.685 93.3892 290.872 94.2797 281.06C92.127 283.451 90.5094 286.527 89.0689 289.832C87.8945 281.249 88.2648 272.978 90.1108 265.004C88.3743 266.342 86.6364 267.68 84.8999 269.017C87.8648 255.388 91.6108 243.296 96.8852 234.227C97.2041 244.071 98.6149 253.394 100.533 262.476C101.241 259.951 102.153 256.998 103.66 253.258C105.078 262.07 107.401 270.348 111.127 277.79C114.854 270.346 117.176 262.069 118.595 253.258C120.102 256.999 121.012 259.952 121.722 262.476C123.639 253.394 125.052 244.071 125.369 234.227C130.644 243.297 134.39 255.388 137.355 269.017C135.618 267.679 133.88 266.341 132.144 265.004C133.99 272.978 134.36 281.249 133.186 289.832C131.745 286.529 130.127 283.451 127.975 281.06C128.865 290.872 128.51 300.685 127.975 310.498C125.891 306.532 123.806 302.568 121.722 298.603C120.879 312.893 116.258 324.539 111.127 336.069Z" fill="#F6EEF6" stroke="#373435" stroke-width="1.00003" stroke-miterlimit="22.9256"/>
<path d="M111.202 90.8662C117.763 90.8662 123.083 86.225 123.083 80.4999C123.083 74.7747 117.763 70.1335 111.202 70.1335C104.64 70.1335 99.3203 74.7747 99.3203 80.4999C99.3203 86.225 104.64 90.8662 111.202 90.8662Z" fill="#FEFEFE" stroke="#373435" stroke-width="2.00005" stroke-miterlimit="2.61313"/>
<path d="M111.196 191.241V209.369" stroke="#373435" stroke-width="0.667009" stroke-miterlimit="2.61313"/>
<path d="M104.061 190.84L104.956 209.214" stroke="#373435" stroke-width="0.667009" stroke-miterlimit="2.61313"/>
<path d="M97.2067 189.643L99.3811 208.581" stroke="#373435" stroke-width="0.667009" stroke-miterlimit="2.61313"/>
<path d="M90.285 189.062L94.2134 208.157" stroke="#373435" stroke-width="0.667009" stroke-miterlimit="2.61313"/>
<path d="M118.304 191.281L117.429 209.423" stroke="#373435" stroke-width="0.667009" stroke-miterlimit="2.61313"/>
<path d="M124.987 190.524L123.01 208.625" stroke="#373435" stroke-width="0.667009" stroke-miterlimit="2.61313"/>
<path d="M132.134 189.098L128.279 207.707" stroke="#373435" stroke-width="0.667009" stroke-miterlimit="2.61313"/>
</svg>


</svg>
