<?xml version="1.0" encoding="UTF-8"?>
<svg  fill="none" xmlns="http://www.w3.org/2000/svg">
 
    <svg width="196" height="196" viewBox="-80  -80 296 296" fill="none" xmlns="http://www.w3.org/2000/svg">
<path d="M98.1135 193.227C150.643 193.227 193.227 150.643 193.227 98.1135C193.227 45.5838 150.643 3 98.1135 3C45.5838 3 3 45.5838 3 98.1135C3 150.643 45.5838 193.227 98.1135 193.227Z" fill="#D2E3E9" stroke="#373435" stroke-width="5.33315" stroke-miterlimit="2.61313"/>
</svg>

    <svg width="196"  height="196"  viewBox="-140 -130 296 296" fill="none" xmlns="http://www.w3.org/2000/svg">
        <path fill-rule="evenodd" clip-rule="evenodd" d="M21.2806 79.3832H21.2786C14.0915 79.9275 7.36586 81.3969 1.40173 84.3882C6.69204 65.9495 12.625 55.2949 19.2922 53.5295H19.2951C19.0955 61.6856 19.7693 70.3099 21.2806 79.3842V79.3832Z" fill="#EAF8F8" stroke="#373435" stroke-width="1.00003" stroke-miterlimit="2.61313"/>
        <path fill-rule="evenodd" clip-rule="evenodd" d="M54.9465 79.3832H54.9485C62.1356 79.9275 68.8612 81.3969 74.8253 84.3882C69.535 65.9495 63.6021 55.2949 56.9349 53.5295H56.932C57.1316 61.6856 56.4578 70.3099 54.9465 79.3842V79.3832Z" fill="#EAF8F8" stroke="#373435" stroke-width="1.00003" stroke-miterlimit="2.61313"/>
        <path fill-rule="evenodd" clip-rule="evenodd" d="M25.45 98.2893C14.4702 57.7526 17.7371 24.8452 38.1105 1.13574C58.484 24.8443 61.7509 57.7526 50.7701 98.2893C41.5284 100.191 34.6918 100.191 25.45 98.2893Z" fill="#85BBB6" stroke="#373435" stroke-width="1.00003" stroke-miterlimit="2.61313"/>
        <path fill-rule="evenodd" clip-rule="evenodd" d="M25.45 98.2892C24.3078 94.072 23.3214 89.9384 22.4908 85.8877C32.9011 88.9404 43.3103 89.1332 53.7205 85.9266C52.8909 89.9647 51.9084 94.0856 50.7701 98.2892C41.5284 100.191 34.6918 100.191 25.45 98.2892Z" fill="#136868" stroke="#373435" stroke-width="1.00003" stroke-miterlimit="2.61313"/>
        <path fill-rule="evenodd" clip-rule="evenodd" d="M23.7558 58.331C24.5971 58.406 25.4394 58.481 26.2807 58.556C25.2826 54.7341 25.0187 50.9725 24.9437 47.2266C24.1833 50.919 23.6535 54.6172 23.7558 58.332V58.331Z" fill="#FEFEFE"/>
        <path d="M38.1106 49.0113C42.8388 49.0113 46.6717 44.5759 46.6717 39.1045C46.6717 33.6332 42.8388 29.1978 38.1106 29.1978C33.3825 29.1978 29.5496 33.6332 29.5496 39.1045C29.5496 44.5759 33.3825 49.0113 38.1106 49.0113Z" fill="#FEFEFE" stroke="#373435" stroke-width="2.00005" stroke-miterlimit="2.61313"/>
        <path fill-rule="evenodd" clip-rule="evenodd" d="M19.2629 57.03C31.828 60.0564 44.3931 60.2463 56.9582 57.068C56.9114 64.7917 56.1101 72.9194 54.5862 81.4348C43.5995 84.6062 32.6129 84.502 21.6262 81.3871C20.1052 72.8756 19.3068 64.7508 19.2629 57.03Z" fill="#373435" stroke="#373435" stroke-width="0.667009" stroke-miterlimit="2.61313"/>
        <path d="M38.1057 88.249V99.4684" stroke="#373435" stroke-width="0.667009" stroke-miterlimit="2.61313"/>
        <path d="M33.61 88.252L33.9703 99.4655" stroke="#373435" stroke-width="0.667009" stroke-miterlimit="2.61313"/>
        <path d="M29.5924 87.7205L30.4951 98.9028" stroke="#373435" stroke-width="0.667009" stroke-miterlimit="2.61313"/>
        <path d="M25.7968 86.9463L27.788 98.2455" stroke="#373435" stroke-width="0.667009" stroke-miterlimit="2.61313"/>
        <path d="M42.6015 88.2891L42.2422 99.5026" stroke="#373435" stroke-width="0.667009" stroke-miterlimit="2.61313"/>
        <path d="M46.6191 87.7573L45.7174 98.9397" stroke="#373435" stroke-width="0.667009" stroke-miterlimit="2.61313"/>
        <path d="M50.4157 86.9834L48.4235 98.2826" stroke="#373435" stroke-width="0.667009" stroke-miterlimit="2.61313"/>
        <path fill-rule="evenodd" clip-rule="evenodd" d="M30.0393 22.9999C32.3383 17.2354 34.9937 11.7494 37.9421 6.49023C34.2614 11.209 31.4103 16.5489 30.0393 22.9999Z" fill="#FEFEFE"/>
        <path fill-rule="evenodd" clip-rule="evenodd" d="M37.6578 151.253C27.6585 138.152 13.2307 108.119 30.8699 102.906C28.2632 112.357 31.346 120.197 37.6578 127.014C43.9696 120.197 47.0514 112.357 44.4447 102.906C62.084 108.119 47.6561 138.153 37.6578 151.253Z" fill="#F6EEF6" stroke="#373435" stroke-width="1.00003" stroke-miterlimit="2.61313"/>
    </svg>
</svg>
