<?xml version="1.0" encoding="utf-8"?>
<!-- <svg version="1.1" id="Layer_1" xmlns="http://www.w3.org/2000/svg" xmlns:xlink="http://www.w3.org/1999/xlink" x="0px" y="0px"
	 viewBox="0 0 1440 251" style="enable-background:new 0 0 1440 251;" xml:space="preserve">
<style type="text/css">
	.st0{fill-rule:evenodd;clip-rule:evenodd;fill:#134e4a;}
	.st1{fill-rule:evenodd;clip-rule:evenodd;fill:#6AE5CE;}
</style>
<path class="st0" d="M0,251V0c132.3,62.7,405,109.5,720,109.5S1307.7,62.7,1440,0v251c-146.1,0-405,0-720,0S329.9,251,0,251z"/>
<path class="st1" d="M0,5.2V0c132.3,62.7,405,109.5,720,109.5S1307.7,62.7,1440,0v5.2C1307.7,68,1035,112,720,112S132.3,68,0,5.2z"/>
</svg> -->


<svg xmlns="http://www.w3.org/2000/svg" viewBox="0 0 1920 255">
	<style type="text/css">
	.st0{fill-rule:evenodd;clip-rule:evenodd;fill:#134e4a;}
	.st1{fill-rule:evenodd;clip-rule:evenodd;fill:#6AE5CE;}
</style>
	<g id="Layer_2" data-name="Layer 2">
	<path class="st0" d="M0 0v255h1920V.37C1634.07 53 1307.62 82.85 961 82.85 613.57 82.85 286.41 52.88 0 0z" />
	<path class="st1" d="M0,5.2V0c132.3,62.7,405,109.5,720,109.5S1307.7,62.7,1440,0v5.2C1307.7,68,1035,112,720,112S132.3,68,0,5.2z"/>
	</g>
	<script xmlns=""/>
<style xmlns="">@media print{.searchbar5189329390771478{display:none!important;}}</style></svg>