<?xml version="1.0" standalone="no"?>
<!DOCTYPE svg PUBLIC "-//W3C//DTD SVG 20010904//EN"
 "http://www.w3.org/TR/2001/REC-SVG-20010904/DTD/svg10.dtd">
<svg version="1.0" xmlns="http://www.w3.org/2000/svg" width="512.000000pt" height="512.000000pt" viewBox="0 0 512.000000 512.000000" preserveAspectRatio="xMidYMid meet">
<defs>
        <linearGradient id="myGradient" x1="0%" y1="0%" x2="100%" y2="0%">
            <stop offset="0%" style="stop-color:#134e4a;stop-opacity:1" />
            <stop offset="100%" style="stop-color:#17cfc2;stop-opacity:1" />
        </linearGradient>
</defs>
<g transform="translate(0.000000,512.000000) scale(0.100000,-0.100000)" fill="url(#myGradient)" stroke="none">
<path d="M2330 5110 c-494 -48 -950 -230 -1350 -538 -195 -150 -448 -432 -594
-662 -63 -99 -186 -351 -230 -471 -49 -134 -102 -340 -128 -499 -31 -195 -31
-565 0 -760 45 -276 116 -498 237 -745 132 -269 269 -460 489 -681 221 -220
412 -357 681 -489 247 -121 469 -192 745 -237 195 -31 565 -31 760 0 276 45
498 116 745 237 269 132 460 269 681 489 220 221 357 412 489 681 88 179 132
296 180 476 63 240 78 371 78 649 0 278 -15 409 -78 649 -48 180 -92 297 -180
476 -132 269 -269 460 -489 681 -221 220 -412 357 -681 489 -246 121 -474 193
-740 235 -147 23 -475 34 -615 20z m-70 -1078 c41 -19 86 -52 121 -89 59 -61
905 -1051 967 -1132 98 -128 114 -295 40 -433 -44 -84 -992 -1202 -1059 -1250
-85 -62 -149 -81 -254 -76 -71 3 -102 10 -148 30 -79 37 -157 114 -198 196
-32 64 -34 72 -33 172 0 115 12 152 76 241 18 25 188 229 378 453 190 224 346
410 347 414 2 4 -163 202 -366 440 -225 264 -382 458 -403 495 -32 60 -33 66
-33 177 0 107 2 119 29 175 49 100 155 188 261 216 17 4 71 7 120 5 77 -2 99
-7 155 -34z"/>
</g>
</svg>
