<?xml version="1.0" encoding="UTF-8"?>
<!DOCTYPE svg PUBLIC "-//W3C//DTD SVG 1.0//EN" "http://www.w3.org/TR/2001/REC-SVG-20010904/DTD/svg10.dtd">
<!-- Creator: CorelDRAW -->
<svg xmlns="http://www.w3.org/2000/svg" xml:space="preserve" preserveAspectRatio="none" width="2.26031in" height="3.8788in" version="1.0" style="shape-rendering:geometricPrecision; text-rendering:geometricPrecision; image-rendering:optimizeQuality; fill-rule:evenodd; clip-rule:evenodd"
viewBox="0 0 2254.71 3869.18"
 xmlns:xlink="http://www.w3.org/1999/xlink"
 xmlns:xodm="http://www.corel.com/coreldraw/odm/2003">
 <defs>
  <style type="text/css">
   <![CDATA[
    .str0 {stroke:#85BBB6;stroke-width:6.93;stroke-miterlimit:2.61313}
    .fil1 {fill:#FEFEFE}
    .fil0 {fill:#136868}
    .fil2 {fill:#136868;fill-rule:nonzero}
   ]]>
  </style>
 </defs>
 <g id="Layer_x0020_1">
  <metadata id="CorelCorpID_0Corel-Layer"/>
  <rect class="fil0" transform="matrix(0.625438 0.625438 -0.707107 0.707107 320.963 -133.494)" width="3305.27" height="642.69" rx="321.35" ry="321.35"/>
  <rect class="fil0" transform="matrix(0.625438 -0.625438 -0.707107 -0.707107 320.963 4002.68)" width="3305.27" height="642.69" rx="321.35" ry="321.35"/>
  <circle class="fil1 str0" cx="345.32" cy="342.4" r="221.3"/>
  <polygon class="fil2" points="382.63,240.78 382.63,444.02 353.88,444.02 353.88,266.04 308.01,266.04 308.01,240.78 "/>
  <circle class="fil1 str0" cx="345.32" cy="3529.84" r="221.3"/>
  <path class="fil2" d="M336.9 3510.39c29.03,0 50.37,5.47 64.02,16.4 13.64,10.93 20.47,25.88 20.47,44.85 0,12 -2.86,22.79 -8.57,32.37 -5.71,9.58 -14.32,17.13 -25.84,22.64 -11.51,5.52 -25.69,8.27 -42.53,8.27 -14.32,0 -28.16,-2.18 -41.52,-6.53 -13.35,-4.36 -24.38,-10.4 -33.09,-18.14l13.35 -22.94c6.97,6.58 15.87,11.86 26.71,15.82 10.84,3.97 22.26,5.95 34.26,5.95 15.29,0 27.15,-3.24 35.57,-9.73 8.42,-6.48 12.63,-15.34 12.63,-26.56 0,-12.19 -4.65,-21.43 -13.94,-27.73 -9.29,-6.29 -25.16,-9.44 -47.61,-9.44l-46.16 0 10.74 -106.26 114.68 0 0 25.26 -90.29 0 -5.51 55.74 22.64 0z"/>
  <circle class="fil1 str0" cx="1127.36" cy="2741.83" r="221.3"/>
  <polygon class="fil2" points="1223.89,2794.67 1185.28,2794.67 1185.28,2844.6 1157.11,2844.6 1157.11,2794.67 1044.17,2794.67 1044.17,2774.35 1148.11,2641.37 1179.47,2641.37 1079.88,2769.7 1157.99,2769.7 1157.99,2725.57 1185.28,2725.57 1185.28,2769.7 1223.89,2769.7 "/>
  <circle class="fil1 str0" cx="1127.36" cy="1127.36" r="221.3"/>
  <path class="fil2" d="M1203.71 1204.87l0 25.26 -146.04 0 0 -19.74 82.74 -79.84c10.07,-9.68 16.84,-18.05 20.32,-25.11 3.49,-7.07 5.23,-14.18 5.23,-21.34 0,-10.65 -3.73,-18.92 -11.18,-24.82 -7.45,-5.9 -18.15,-8.86 -32.08,-8.86 -22.45,0 -39.78,7.36 -51.97,22.07l-19.74 -17.13c7.94,-9.68 18.34,-17.22 31.21,-22.64 12.87,-5.42 27.24,-8.13 43.11,-8.13 21.29,0 38.23,5.08 50.81,15.24 12.58,10.16 18.87,23.95 18.87,41.37 0,10.84 -2.32,21.1 -6.97,30.78 -4.65,9.68 -13.45,20.71 -26.42,33.09l-62.13 59.81 104.23 0z"/>
  <g id="_1755401192416">
   <circle class="fil1 str0" cx="1855.6" cy="1938.3" r="221.3"/>
   <path class="fil2" d="M1867.21 1923.2c19.93,1.93 35.13,8.08 45.58,18.43 10.45,10.36 15.68,23.56 15.68,39.63 0,11.61 -2.91,22.11 -8.71,31.5 -5.81,9.39 -14.47,16.84 -25.99,22.35 -11.51,5.52 -25.6,8.27 -42.24,8.27 -14.52,0 -28.45,-2.18 -41.81,-6.53 -13.35,-4.36 -24.29,-10.4 -32.8,-18.14l13.35 -22.94c6.97,6.58 15.87,11.86 26.71,15.82 10.84,3.97 22.35,5.95 34.55,5.95 15.1,0 26.85,-3.19 35.27,-9.58 8.42,-6.39 12.63,-15.19 12.63,-26.42 0,-11.23 -4.16,-19.93 -12.48,-26.13 -8.32,-6.2 -20.9,-9.29 -37.74,-9.29l-16.25 0 0 -20.32 51.1 -62.71 -97.84 0 0 -25.26 134.14 0 0 19.74 -53.13 65.62z"/>
  </g>
 </g>
</svg>
