<svg width="2254.71" height="3869.18" xmlns="http://www.w3.org/2000/svg" preserveAspectRatio="none" clip-rule="evenodd">
 <defs>
  <style type="text/css">
   <![CDATA[
    .str0 {stroke:#85BBB6;stroke-width:6.93;stroke-miterlimit:2.61313}
    .fil1 {fill:#FEFEFE}
    .fil0 {fill:#136868}
    .fil2 {fill:#136868;fill-rule:nonzero}
   ]]>
  </style>
 </defs>
 <g>
  <title>background</title>
  <rect fill="none" id="canvas_background" height="402" width="582" y="-1" x="-1"/>
 </g>
 <g class="layer">
  <title>Layer 1</title>
  <g transform="matrix(0.896057,0,0,0.927627,188.797,160.013) " id="Layer_x0020_1">
   <metadata transform="translate(9.300004005432129,-2.842170943040401e-14) translate(-9.300004005432129,-2.842170943040401e-14) translate(-9.300003051757812,8.983495712280273) " id="CorelCorpID_0Corel-Layer"/>
   <rect stroke="null" transform="rotate(-111 1012.3785400390624,993.0610961914062) " y="671.675027" x="-213.516621" width="2451.790473" ry="321.35" rx="321.35" id="svg_1" height="642.772044" class="fil0"/>
   <rect y="356.143638" x="261.238087" width="2800" transform="rotate(-20.78233528137207 978.9571533203157,2688.3393554687505) matrix(0.6126801013942845,-0.6085516851214119,-0.6926834526934357,-0.6880153448314624,430.54217084447333,4165.51789835228) " ry="321.35" rx="321.35" id="svg_2" height="643" class="fil0"/>
   <circle stroke="null" r="209.889999" id="svg_3" cy="143.490176" cx="699.673358" class="fil1 str0"/>
   <polygon points="718.3894815444946,46.0472717285156 718.3894815444946,240.9339447021484 691.1216592788696,240.9339447021484 691.1216592788696,70.2690734863281 647.6164102554321,70.2690734863281 647.6164102554321,46.0472717285156 " id="svg_4" class="fil2"/>
   <circle r="209.889999" id="svg_5" cy="3499.920166" cx="599.673348" class="fil1 str0"/>
   <path id="svg_6" d="m591.683348,3481.270166c27.53,0 47.77,5.25 60.72,15.73c12.94,10.48 19.41,24.82 19.41,43.01c0,11.51 -2.71,21.85 -8.13,31.04c-5.42,9.19 -13.58,16.43 -24.51,21.71c-10.92,5.29 -24.37,7.93 -40.34,7.93c-13.58,0 -26.71,-2.09 -39.38,-6.26c-12.66,-4.18 -23.12,-9.97 -31.38,-17.39l12.66,-22c6.61,6.31 15.05,11.37 25.33,15.17c10.28,3.81 21.11,5.71 32.49,5.71c14.5,0 25.75,-3.11 33.74,-9.33c7.99,-6.21 11.98,-14.71 11.98,-25.47c0,-11.69 -4.41,-20.55 -13.22,-26.59c-8.81,-6.03 -23.86,-9.05 -45.16,-9.05l-43.78,0l10.19,-101.89l108.77,0l0,24.22l-85.64,0l-5.23,53.45l21.47,0l-0.01,0.03l0.02,-0.02z" class="fil2"/>
   <circle r="209.889999" id="svg_7" cy="2660.966834" cx="1008.059984" class="fil1 str0"/>
   <polygon points="1082.94677734375,2694.97021484375 1046.3272705078125,2694.97021484375 1046.3272705078125,2742.84814453125 1019.6094970703125,2742.84814453125 1019.6094970703125,2694.97021484375 912.491943359375,2694.97021484375 912.491943359375,2675.485595703125 1011.0733642578125,2547.97119140625 1040.816650390625,2547.97119140625 946.3609619140625,2671.026611328125 1020.444091796875,2671.026611328125 1020.444091796875,2628.71044921875 1046.3272705078125,2628.71044921875 1046.3272705078125,2671.026611328125 1082.94677734375,2671.026611328125 " id="svg_8" class="fil2"/>
   <circle r="209.889999" id="svg_9" cy="996.190163" cx="1016.393327" class="fil1 str0"/>
   <path id="svg_10" d="m1080.469993,1070.510163l0,24.22l-138.51,0l0,-18.93l78.47,-76.56c9.55,-9.28 15.97,-17.31 19.27,-24.08c3.31,-6.78 4.96,-13.6 4.96,-20.46c0,-10.21 -3.54,-18.14 -10.6,-23.8c-7.07,-5.66 -17.21,-8.5 -30.43,-8.5c-21.29,0 -37.73,7.06 -49.29,21.16l-18.72,-16.43c7.53,-9.28 17.39,-16.51 29.6,-21.71c12.21,-5.2 25.84,-7.8 40.89,-7.8c20.19,0 36.26,4.87 48.19,14.61c11.93,9.74 17.9,22.97 17.9,39.67c0,10.39 -2.2,20.23 -6.61,29.51c-4.41,9.28 -12.76,19.86 -25.06,31.73l-58.93,57.35l98.86,0l0.01,-0.01l0,0.03z" class="fil2"/>
   <g id="_1755401192416">
    <circle r="209.889999" id="svg_11" cy="1840.466836" cx="1332.09331" class="fil1 str0"/>
    <path id="svg_12" d="m1343.10331,1825.986836c18.9,1.85 33.32,7.75 43.23,17.67c9.91,9.93 14.87,22.59 14.87,38c0,11.13 -2.76,21.2 -8.26,30.21c-5.51,9 -13.72,16.15 -24.65,21.43c-10.92,5.29 -24.28,7.93 -40.06,7.93c-13.77,0 -26.98,-2.09 -39.65,-6.26c-12.66,-4.18 -23.04,-9.97 -31.11,-17.39l12.66,-22c6.61,6.31 15.05,11.37 25.33,15.17c10.28,3.81 21.2,5.71 32.77,5.71c14.32,0 25.47,-3.06 33.45,-9.19c7.99,-6.13 11.98,-14.57 11.98,-25.33c0,-10.77 -3.95,-19.11 -11.84,-25.06c-7.89,-5.95 -19.82,-8.91 -35.79,-8.91l-15.41,0l0,-19.48l48.47,-60.13l-92.8,0l0,-24.22l127.22,0l0,18.93l-50.39,62.92l-0.02,0.01l0,-0.01z" class="fil2"/>
   </g>
  </g>
  <rect y="550.82" x="472.35" width="0" stroke="#000000" id="svg_13" height="0" fill="#FF0000"/>
 </g>
</svg>