<svg width="2254.71" height="3869.18" xmlns="http://www.w3.org/2000/svg" xmlns:svg="http://www.w3.org/2000/svg" clip-rule="evenodd" fill-rule="evenodd" preserveAspectRatio="none" version="1.0" xml:space="preserve">
 <defs>
  <style type="text/css">
   <![CDATA[
    .str0 {stroke:#85BBB6;stroke-width:6.93;stroke-miterlimit:2.61313}
    .fil1 {fill:#FEFEFE}
    .fil0 {fill:#136868}
    .fil2 {fill:#136868;fill-rule:nonzero}
   ]]>
  </style>
 </defs>
 <g class="layer">
  <title>Layer 1</title>
  <g id="Layer_x0020_1" transform="matrix(0.896057 0 0 0.927627 188.797 160.013)">
   <metadata id="CorelCorpID_0Corel-Layer"/>
   <rect class="fil0" height="642.69" id="svg_1" rx="321.35" ry="321.35" transform="matrix(0.593195 0.599732 -0.670654 0.678044 427.535 36.5061)" width="3305.27" x="0" y="0"/>
   <rect class="fil0" height="642.69" id="svg_2" rx="321.35" ry="321.35" transform="matrix(0.593195 -0.599732 -0.670654 -0.678044 427.535 4002.68)" width="3305.27" x="0" y="0"/>
   <circle class="fil1 str0" cx="450.64" cy="492.84" id="svg_3" r="209.89"/>
   <polygon class="fil2" id="svg_4" points="486.0227966308594,395.3970947265625 486.0227966308594,590.2837524414062 458.75494384765625,590.2837524414062 458.75494384765625,419.618896484375 415.2496643066406,419.618896484375 415.2496643066406,395.3970947265625 "/>
   <circle class="fil1 str0" cx="450.64" cy="3549.27" id="svg_5" r="209.89"/>
   <path class="fil2" d="m442.65,3530.62c27.53,0 47.77,5.25 60.72,15.73c12.94,10.48 19.41,24.82 19.41,43.01c0,11.51 -2.71,21.85 -8.13,31.04c-5.42,9.19 -13.58,16.43 -24.51,21.71c-10.92,5.29 -24.37,7.93 -40.34,7.93c-13.58,0 -26.71,-2.09 -39.38,-6.26c-12.66,-4.18 -23.12,-9.97 -31.38,-17.39l12.66,-22c6.61,6.31 15.05,11.37 25.33,15.17c10.28,3.81 21.11,5.71 32.49,5.71c14.5,0 25.75,-3.11 33.74,-9.33c7.99,-6.21 11.98,-14.71 11.98,-25.47c0,-11.69 -4.41,-20.55 -13.22,-26.59c-8.81,-6.03 -23.86,-9.05 -45.16,-9.05l-43.78,0l10.19,-101.89l108.77,0l0,24.22l-85.64,0l-5.23,53.45l21.47,0l-0.01,0.03l0.02,-0.02z" id="svg_6"/>
   <circle class="fil1 str0" cx="1192.36" cy="2793.65" id="svg_7" r="209.89"/>
   <polygon class="fil2" id="svg_8" points="1283.91357421875,2844.320068359375 1247.2940673828125,2844.320068359375 1247.2940673828125,2892.197998046875 1220.5762939453125,2892.197998046875 1220.5762939453125,2844.320068359375 1113.4586181640625,2844.320068359375 1113.4586181640625,2824.83544921875 1212.0401611328125,2697.321044921875 1241.783447265625,2697.321044921875 1147.32763671875,2820.37646484375 1221.410888671875,2820.37646484375 1221.410888671875,2778.060302734375 1247.2940673828125,2778.060302734375 1247.2940673828125,2820.37646484375 1283.91357421875,2820.37646484375 "/>
   <circle class="fil1 str0" cx="1192.36" cy="1245.54" id="svg_9" r="209.89"/>
   <path class="fil2" d="m1264.77,1319.86l0,24.22l-138.51,0l0,-18.93l78.47,-76.56c9.55,-9.28 15.97,-17.31 19.27,-24.08c3.31,-6.78 4.96,-13.6 4.96,-20.46c0,-10.21 -3.54,-18.14 -10.6,-23.8c-7.07,-5.66 -17.21,-8.5 -30.43,-8.5c-21.29,0 -37.73,7.06 -49.29,21.16l-18.72,-16.43c7.53,-9.28 17.39,-16.51 29.6,-21.71c12.21,-5.2 25.84,-7.8 40.89,-7.8c20.19,0 36.26,4.87 48.19,14.61c11.93,9.74 17.9,22.97 17.9,39.67c0,10.39 -2.2,20.23 -6.61,29.51c-4.41,9.28 -12.76,19.86 -25.06,31.73l-58.93,57.35l98.86,0l0.01,-0.01l0,0.03z" id="svg_10"/>
   <g id="_1755401192416">
    <circle class="fil1 str0" cx="1883.06" cy="2023.15" id="svg_11" r="209.89"/>
    <path class="fil2" d="m1894.07,2008.67c18.9,1.85 33.32,7.75 43.23,17.67c9.91,9.93 14.87,22.59 14.87,38c0,11.13 -2.76,21.2 -8.26,30.21c-5.51,9 -13.72,16.15 -24.65,21.43c-10.92,5.29 -24.28,7.93 -40.06,7.93c-13.77,0 -26.98,-2.09 -39.65,-6.26c-12.66,-4.18 -23.04,-9.97 -31.11,-17.39l12.66,-22c6.61,6.31 15.05,11.37 25.33,15.17c10.28,3.81 21.2,5.71 32.77,5.71c14.32,0 25.47,-3.06 33.45,-9.19c7.99,-6.13 11.98,-14.57 11.98,-25.33c0,-10.77 -3.95,-19.11 -11.84,-25.06c-7.89,-5.95 -19.82,-8.91 -35.79,-8.91l-15.41,0l0,-19.48l48.47,-60.13l-92.8,0l0,-24.22l127.22,0l0,18.93l-50.39,62.92l-0.02,0.01l0,-0.01z" id="svg_12"/>
   </g>
  </g>
  <rect fill="#FF0000" height="0" id="svg_13" stroke="#000000" width="0" x="472.35" y="550.82"/>
 </g>
</svg>