<?xml version="1.0" encoding="UTF-8"?>
<!DOCTYPE svg PUBLIC "-//W3C//DTD SVG 1.0//EN" "http://www.w3.org/TR/2001/REC-SVG-20010904/DTD/svg10.dtd">

<svg xmlns="http://www.w3.org/2000/svg" xml:space="preserve" width="7.2829in" height="5.16347in" version="1.0" style="shape-rendering:geometricPrecision; text-rendering:geometricPrecision; image-rendering:optimizeQuality; fill-rule:evenodd; clip-rule:evenodd" viewBox="0 0 7386.67 5237.04"
  xmlns:xlink="http://www.w3.org/1999/xlink">
  <defs>
    <style type="text/css">
      <![CDATA[
    .str9 {stroke:black;stroke-width:4.22;stroke-miterlimit:2.61313}
    .str2 {stroke:#FEFEFE;stroke-width:10.57;stroke-miterlimit:2.61313}
    .str4 {stroke:#373435;stroke-width:10.57;stroke-miterlimit:2.61313}
    .str7 {stroke:black;stroke-width:10.57;stroke-miterlimit:2.61313}
    .str1 {stroke:#29584E;stroke-width:10.57;stroke-miterlimit:2.61313}
    .str5 {stroke:#373435;stroke-width:14.09;stroke-miterlimit:2.61313}
    .str3 {stroke:black;stroke-width:14.09;stroke-miterlimit:2.61313}
    .str0 {stroke:#29584E;stroke-width:14.09;stroke-miterlimit:2.61313}
    .str6 {stroke:#373435;stroke-width:7.04;stroke-miterlimit:2.61313}
    .str8 {stroke:#85BBB6;stroke-width:7.04;stroke-miterlimit:2.61313}
    .fil1 {fill:none}
    .fil7 {fill:#FEFEFE}
    .fil6 {fill:#373435}
    .fil5 {fill:#29584E}
    .fil9 {fill:#85BBB6}
    .fil4 {fill:#85BBB6}
    .fil0 {fill:#D2E3E9}
    .fil2 {fill:#EAF8F8}
    .fil3 {fill:#EAF8F8}
    .fil10 {fill:#F6EEF6}
    .fil11 {fill:#FEFEFE;fill-rule:nonzero}
    .fil8 {fill:#29584E;fill-rule:nonzero}
   ]]>
    </style>
  </defs>
  <g id="Layer_x0020_1">
    <metadata id="CorelCorpID_0Corel-Layer"/>
    <ellipse class="fil0" cx="3675.57" cy="2706.04" rx="3511.76" ry="2432.56"/>
    <path class="fil3" d="M6086.25 4474.77c-628.98,411.48 -1477.25,663.82 -2410.68,663.82 -933.44,0 -1781.7,-252.34 -2410.68,-663.82l4821.36 0z"/>
<g opacity="0">  <animate
attributeName="opacity"
values="0;1"
dur="0.5s"
begin="1.3s"
fill="freeze"
/>
    <g id='cabels2'>
      <polyline class="fil1 str1" points="4539.99,4009.41 4539.99,4191.37 4509.41,4221.96 4509.41,4484.89 3745.02,4672.27 3527.5,4784.96 2648.93,5033">

      </polyline>
      <polyline class="fil1 str1" points="4573.28,4009.41 4573.28,4483.04 3806.76,4683.83 3605.97,4820.21 2829.98,5067.61 ">

      </polyline>
      <polyline class="fil1 str1" points="4647.3,4009.41 4647.3,4485.56 4257.58,4609.32 4219.69,4777.27 3512.36,5136.02 ">

      </polyline>
      <polyline class="fil1 str1" points="4687.11,4009.41 4687.11,4486.83 4386.38,4597.95 4386.38,4725.5 3627.43,5138.37 ">

      </polyline>
      <polyline class="fil1 str1" points="4740.76,4009.41 4740.76,4486.83 4426.79,4620.68 4426.79,4724.24 3734.72,5138.26 ">
      </polyline>
      <polyline class="fil1 str1" points="4808.25,4009.41 4808.25,4190.07 4775.32,4230.48 4775.32,4485.56 4455.83,4647.2 4455.83,4798.74 4035.52,5125.97 ">

      </polyline>
      <polyline class="fil1 str1" points="4840.99,4009.41 4840.99,4201.43 4813.21,4229.22 4813.21,4488.09 4535.39,4643.41 4535.39,4812.63 4219.98,5109.54 ">

      </polyline>
      <polyline class="fil1 str1" points="4872.56,4009.41 4872.56,4489.35 4690.72,4625.73 4690.72,4952.8 4642.27,5045.27 ">

      </polyline>
      <polyline class="fil1 str1" points="4969.2,4009.41 4969.2,4104.2 4928.46,4144.95 4928.46,4484.3 4799.32,4644.68 4799.32,4807.58 4695.15,5034.48 ">

      </polyline>


    </g>
    <g id='cabels'>
      <polyline class="fil1 str1" points="4539.99,4009.41 4539.99,4191.37 4509.41,4221.96 4509.41,4484.89 3745.02,4672.27 3527.5,4784.96 2648.93,5033" stroke-dasharray="300 100" stroke-dashoffset="0">
        <animate attributeName="stroke-dashoffset" values="0;5000;" dur="6s" fill="freeze" repeatCount="indefinite"></animate>
      </polyline>
      <polyline class="fil1 str1" points="4573.28,4009.41 4573.28,4483.04 3806.76,4683.83 3605.97,4820.21 2829.98,5067.61 " stroke-dasharray="300 100" stroke-dashoffset="0">
        <animate attributeName="stroke-dashoffset" values="0;5000;" dur="6s" fill="freeze" repeatCount="indefinite" begin="0.1s"></animate>
      </polyline>
      <polyline class="fil1 str1" points="4647.3,4009.41 4647.3,4485.56 4257.58,4609.32 4219.69,4777.27 3512.36,5136.02 " stroke-dasharray="300 100" stroke-dashoffset="0">
        <animate attributeName="stroke-dashoffset" values="0;5000;" dur="6s" fill="freeze" repeatCount="indefinite" begin="0.3s"></animate>
      </polyline>
      <polyline class="fil1 str1" points="4687.11,4009.41 4687.11,4486.83 4386.38,4597.95 4386.38,4725.5 3627.43,5138.37 " stroke-dasharray="300 100" stroke-dashoffset="0">
        <animate attributeName="stroke-dashoffset" values="0;5000;" dur="6s" fill="freeze" repeatCount="indefinite" begin="0.2s"></animate>
      </polyline>
      <polyline class="fil1 str1" points="4740.76,4009.41 4740.76,4486.83 4426.79,4620.68 4426.79,4724.24 3734.72,5138.26 " stroke-dasharray="300 100" stroke-dashoffset="0">
        <animate attributeName="stroke-dashoffset" values="0;5000;" dur="6s" fill="freeze" repeatCount="indefinite" begin="0.6s"></animate>
      </polyline>
      <polyline class="fil1 str1" points="4808.25,4009.41 4808.25,4190.07 4775.32,4230.48 4775.32,4485.56 4455.83,4647.2 4455.83,4798.74 4035.52,5125.97 " stroke-dasharray="300 100" stroke-dashoffset="0">
        <animate attributeName="stroke-dashoffset" values="0;5000;" dur="6s" fill="freeze" repeatCount="indefinite" begin="0.4s"></animate>
      </polyline>
      <polyline class="fil1 str1" points="4840.99,4009.41 4840.99,4201.43 4813.21,4229.22 4813.21,4488.09 4535.39,4643.41 4535.39,4812.63 4219.98,5109.54 " stroke-dasharray="300 100" stroke-dashoffset="0">
        <animate attributeName="stroke-dashoffset" values="0;5000;" dur="6s" fill="freeze" repeatCount="indefinite" begin="0.5s"></animate>
      </polyline>
      <polyline class="fil1 str1" points="4872.56,4009.41 4872.56,4489.35 4690.72,4625.73 4690.72,4952.8 4642.27,5045.27 " stroke-dasharray="300 100" stroke-dashoffset="0">
        <animate attributeName="stroke-dashoffset" values="0;5000;" dur="6s" fill="freeze" repeatCount="indefinite" begin="0.7s"></animate>
      </polyline>
      <polyline class="fil1 str1" points="4969.2,4009.41 4969.2,4104.2 4928.46,4144.95 4928.46,4484.3 4799.32,4644.68 4799.32,4807.58 4695.15,5034.48 " stroke-dasharray="300 100" stroke-dashoffset="0">
        <animate attributeName="stroke-dashoffset" values="0;5000;" dur="6s" fill="freeze" repeatCount="indefinite" begin="0.8s"></animate>
      </polyline>


    </g>
  </g>
    <g id="center-cloud" opacity="0">
      <animate
      attributeName="opacity"
      values="0;1"
      dur="0.5s"
            begin="0.8s"
      fill="freeze"
    />
      <animateTransform attributeName="transform" attributeType="XML" type="translate" values="-10000; 0"
      begin ="0.8s" dur="1s" repeatCount="1" calcMode="spline" keySplines="0.3 0.3 0.3 1;" fill="freeze" />
      <polyline class="fil1 str0" points="3741.34,1394.81 3741.34,1627.22 3956.73,1724.53 " opacity="0"  stroke-dasharray="300 100" stroke-dashoffset="0">
        <animate attributeName="stroke-dashoffset" values="0;-5000;" dur="6s" fill="freeze" repeatCount="indefinite" begin="0.8s"></animate>   
      <animate
      attributeName="opacity"
      values="0;1"
      dur="0.5s"
            begin="1.8s"
      fill="freeze"
  /> </polyline>
      <polyline class="fil1 str0" points="3741.34,1394.81 3741.34,1627.22 3956.73,1724.53 " opacity="0" >
         
      <animate
      attributeName="opacity"
      values="0;1"
      dur="0.5s"
            begin="1.8s"
      fill="freeze"
  /> </polyline>
      <path class="fil2" d="M4580.28 1136.99c130.55,13.02 214.37,225.51 81.1,289.37 -631.75,0 -1263.49,0 -1895.24,0 -200.45,-97.76 -126.2,-433.62 125.79,-447.04 0.84,-434.89 314.75,-609.95 672.03,-528.48 253.65,-207.14 697.01,-47.57 724.99,348.28 183.84,42.97 296.19,126.22 291.33,337.88z"/>


    </g>
    <g id="right-cloud" opacity="0">
      <animate
      attributeName="opacity"
      values="0;1"
      dur="0.5s"
            begin="0.7s"
      fill="freeze"
    />
      <animateTransform attributeName="transform" attributeType="XML" type="translate" values="10000; 0"
      begin ="0.7s" dur="1s" repeatCount="1" calcMode="spline" keySplines="0.3 0.3 0.3 1;" fill="freeze" />
      <polyline class="fil1 str0" points="6631.46,1954.89 6496.51,2211.99 5562.67,2436.05 " opacity="0" stroke-dasharray="300 100" stroke-dashoffset="0">
        <animate attributeName="stroke-dashoffset" values="0;-5000;" dur="6s" fill="freeze" repeatCount="indefinite" begin="0.8s"></animate>
        <animate
            attributeName="opacity"
            values="0;1"
            dur="0.5s"
                  begin="1.7s"
            fill="freeze"
        />
    </polyline>  
      <polyline class="fil1 str0" points="6631.46,1954.89 6496.51,2211.99 5562.67,2436.05 " opacity="0" >
     
        <animate
            attributeName="opacity"
            values="0;1"
            dur="0.5s"
                  begin="1.7s"
            fill="freeze"
        />
    </polyline>  <path class="fil2" d="M5904.57 1742.52c-100.3,9.56 -164.7,165.51 -62.31,212.38 485.37,0 970.74,0 1456.11,0 154,-71.75 96.96,-318.25 -96.65,-328.1 -0.65,-319.18 -241.82,-447.66 -516.31,-387.87 -194.88,-152.03 -535.51,-34.91 -557.01,255.61 -141.24,31.54 -227.56,92.63 -223.83,247.98z"/>

    </g>
    <g id="rocket">
      <animateTransform attributeName="transform" attributeType="XML" type="translate" values="12000; 0"
  begin ="0.2s" dur="0.8s" repeatCount="1" calcMode="spline" keySplines="0.3 0.3 0.3 1;" fill="freeze" />
      <path class="fil4" d="M4336.89 4009.41l807.75 0c175.02,-436.52 296.56,-843.74 366.81,-1223.14 0.23,-1.23 -42.87,-31.36 -42.64,-32.56 20.11,-109.23 45.16,-189.59 56.79,-294.25 0.2,-1.88 34.73,-1.63 34.93,-3.57 113.22,-1025.74 -177.07,-1833.14 -819.76,-2455.88 -430.56,417.2 -703.2,917.29 -801.85,1510.33 -0.15,0.95 39.5,-1.26 39.38,-0.5 -55.41,337.24 -35.16,708.75 23.59,1107.93 0.2,1.38 -59.35,3.77 -59.12,5.38 63.32,425.13 193.76,886.53 394.13,1386.27z"/>
      <path class="fil4" d="M5278.31 3651.93c57.13,-165.1 106.1,-325.75 147.05,-482.03l-1369.24 0c40.96,156.28 89.95,316.93 147.09,482.03l1075.11 0z"/>
      <path class="fil5" d="M5278.31 3651.93c57.13,-165.1 106.1,-325.75 147.05,-482.03l-1356.84 8.38c40.96,156.28 77.55,308.55 134.69,473.65l1075.11 0z"/>
      <path class="fil5" d="M5195.1 3880.13c2.47,-6.48 4.99,-13 7.44,-19.47l-923.56 0c2.45,6.48 4.97,12.99 7.44,19.47l908.68 0z"/>
      <path class="fil5" d="M5575.63 2285.55c10.81,-158.98 11.55,-312.51 2.38,-460.72l-1256.96 0 8.19 460.72 1246.39 0z"/>

      <circle class="fil6" cx="4740.77" cy="1018.37" r="415.75"/>
      <circle class="fil7" cx="4740.76" cy="1018.37" r="280.04"/>
      <circle class="fil7" cx="4740.77" cy="2597" r="202.88"/>
      <g id="_2716887902032">
        <path class="fil4" d="M3531.05 3271.87l452 -488.33c56.76,323.27 151.09,666.91 284.37,1031.84l-388.55 265.17 -240.4 534.17 -107.42 -1342.85z"/>
        <path class="fil5" d="M4068.52 3178.28c39.32,153.82 86.46,311.89 141.55,474.3l-472.15 341.69 -121.91 339.62 -56.36 -704.59 508.87 -451.02z"/>
      </g>
      <g id="_2716887901744">
        <path class="fil4" d="M5950.18 3271.87l-452 -488.33c-56.76,323.27 -151.09,666.91 -284.37,1031.84l388.55 265.17 240.4 534.17 107.42 -1342.85z"/>
        <path class="fil5" d="M5412.71 3178.28c-39.32,153.82 -86.46,311.89 -141.55,474.3l472.15 341.69 121.91 339.62 56.36 -704.59 -508.87 -451.02z"/>
      </g>
      <g>
        <path class="fil5" d="M4351.37 3874.01l27.67 0 0 135.4 -27.67 0 0 -135.4zm751.12 0l27.67 0 0 135.4 -27.67 0 0 -135.4zm-53.65 0l27.67 0 0 135.4 -27.67 0 0 -135.4zm-53.65 0l27.67 0 0 135.4 -27.67 0 0 -135.4zm-53.65 0l27.67 0 0 135.4 -27.67 0 0 -135.4zm-53.65 0l27.67 0 0 135.4 -27.67 0 0 -135.4zm-53.65 0l27.67 0 0 135.4 -27.67 0 0 -135.4zm-53.65 0l27.67 0 0 135.4 -27.67 0 0 -135.4zm-53.65 0l27.67 0 0 135.4 -27.67 0 0 -135.4zm-53.65 0l27.67 0 0 135.4 -27.67 0 0 -135.4zm-53.65 0l27.67 0 0 135.4 -27.67 0 0 -135.4zm-53.65 0l27.67 0 0 135.4 -27.67 0 0 -135.4zm-53.65 0l27.67 0 0 135.4 -27.67 0 0 -135.4zm-53.65 0l27.67 0 0 135.4 -27.67 0 0 -135.4zm-53.65 0l27.67 0 0 135.4 -27.67 0 0 -135.4z"/>

        <line class="fil1 str1" x1="4023.84" y1="1499.71" x2="4023.84" y2= "1860.86" />
        <line class="fil1 str1" x1="4072.23" y1="1503.85" x2="4071.99" y2= "2046.77" />
        <line class="fil1 str1" x1="4121.29" y1="1491.68" x2="4121.29" y2= "1687.73" />
        <line class="fil1 str2" x1="4011.86" y1="1499.71" x2="4011.86" y2= "1860.86" />
        <line class="fil1 str2" x1="4060.25" y1="1503.85" x2="4060.01" y2= "2046.77" />
        <line class="fil1 str2" x1="4109.31" y1="1491.68" x2="4109.31" y2= "1687.73" />
        <path class="fil5" d="M5278.31 3651.93c57.13,-165.1 106.1,-325.75 147.05,-482.03l-1356.84 8.38c40.96,156.28 77.55,308.55 134.69,473.65l1075.11 0z"/>
        <g id="_2716887905440">
          <path class="fil5" d="M3939 1509.83c0.62,-3.67 1.24,-7.35 1.86,-11.02 102.3,-10.23 205.42,-26.07 306.89,-30.69 35.35,-1.61 67.05,33.87 69.05,72.39 17.27,332.24 14.85,665.22 22.27,997.83 1.86,28.19 -7.94,45.1 -31.18,49 -120.7,18.58 -241.4,33.16 -362.11,51.73 -0.8,-5.25 -1.6,-6.51 -2.4,-11.76 120.89,-17.79 241.78,-35.57 362.67,-53.35 15.44,-2.27 16.75,-8.37 16.42,-25.44 -6.42,-333.37 -18.18,-660.16 -24.61,-993.54 -2.02,-31.71 -19.46,-58.79 -51.23,-57.91 -101.32,2.78 -205.09,8.51 -307.64,12.76z"/>
          <path class="fil7" d="M4336.67 2563.69c-4.23,13.07 -13.66,21.12 -28.78,23.65 -98.7,15.19 -197.39,27.71 -296.09,41.93 -8.57,-0.99 -12.92,-4.44 -13.64,-10.01l307.9 -45.29c9.74,-1.43 13.84,-4.39 15.48,-10.66 5.45,0.98 9.73,0.69 15.14,0.39z"/>
        </g>
        <path class="fil8" d="M4339.26 4005.88l803 0c87.07,-217.35 160.89,-427.45 221.7,-630.48 61.01,-203.7 108.94,-400.24 144.04,-589.78 0.29,-1.57 -10.22,-5.72 -20.1,-12.94 -11.55,-8.45 -23.06,-16.87 -22.55,-19.63 7.57,-41.15 15.87,-78.28 23.88,-114.15 13.2,-59.09 25.64,-114.77 32.87,-179.85 0.44,-3.93 10.51,-4.4 20.63,-4.88 7.22,-0.34 14.09,3.36 14.3,1.34l1.69 -15.63c1.19,6.32 2.01,12.12 3.85,18.4 -3.24,2.12 -11.4,2.52 -19.51,2.91 -7.11,0.34 -13.75,-3.45 -13.97,-1.38 -7.26,65.37 -19.75,121.27 -33.01,180.61 -7.98,35.73 -16.25,72.73 -23.82,113.9 -0.29,1.56 10.02,5.55 19.79,12.69 11.66,8.52 23.37,17.09 22.85,19.89 -35.16,189.86 -83.14,386.64 -144.2,590.51 -64.42,215.04 -140.01,427.23 -223.69,635.51l-812.5 0c-94.9,-237.26 -179.66,-477.8 -249.47,-723.68 -65.61,-231.1 -114.08,-452.89 -145.76,-665.6 -0.37,-2.64 1.61,-4.08 5.35,-4.61 5.12,-0.72 17.33,-1.53 29.16,-2.29 9.75,-0.64 19.26,-1.26 24.13,-1.79 -29.11,-198.49 -48.69,-390.19 -54.14,-574.29 -5.44,-183.7 3.18,-359.8 30.42,-527.47l-10.29 0.32 0.05 -7.04c7.05,-0.24 13.17,-0.41 14.67,-0.19 2.24,0.33 3.62,1.76 3.14,4.12 -27.66,168.38 -36.44,345.36 -30.97,530.08 5.47,184.73 25.22,377.28 54.57,576.78 0.36,2.57 -1.32,3.95 -4.61,4.44 -4.15,0.61 -15.18,1.33 -26.53,2.08 -10.88,0.71 -22.08,1.45 -27.5,2.09 31.65,211.44 79.89,431.85 145.09,661.49 65.34,230.17 147.72,469.6 247.45,718.54z"/>
        <g id="_2716887906400">
          <polyline class="fil1 str1" points="4234.04,2590.28 4223.04,2477.25 4280.05,2426.24 4246.04,1633.1 "/>
          <polyline class="fil1 str1" points="4179.34,2592.6 4166.03,2448.25 4228.04,2383.24 4213.04,2139.19 "/>
          <polyline class="fil1 str1" points="4124.72,2600.63 4105.02,2398.24 4221.26,2273.02 "/>
          <line class="fil1 str1" x1="4058.01" y1="2616.28" x2="4017" y2= "2310.22" />
          <line class="fil1 str1" x1="4026.67" y1="2615.06" x2="3996" y2= "2339.23" />
          <polyline class="fil1 str1" points="4096.59,2610.8 4069.61,2285.55 4130.75,2214.6 4120.56,2082.13 "/>
        </g>
        <polygon class="fil4" points="4998.55,3394.3 5361.47,3395.86 5425.54,3155.26 4962.38,3134.26 4954.7,3357.35 "/>
        <polyline class="fil1 str1" points="4148.13,2084.53 4160.12,2275.74 4100.18,2346.47 "/>
        <g id="_2716887906160">
          <polyline class="fil1 str2" points="4226.06,2590.28 4215.05,2477.25 4272.06,2426.24 4238.06,1633.1 "/>
          <polyline class="fil1 str2" points="4171.35,2592.6 4158.04,2448.25 4220.05,2383.24 4205.05,2139.19 "/>
          <polyline class="fil1 str2" points="4116.74,2600.63 4097.03,2398.24 4213.28,2273.02 "/>
          <line class="fil1 str2" x1="4050.02" y1="2616.28" x2="4009.01" y2= "2310.22" />
          <line class="fil1 str2" x1="4018.69" y1="2615.06" x2="3988.01" y2= "2339.23" />
          <polyline class="fil1 str2" points="4088.6,2610.8 4061.63,2285.55 4122.77,2214.6 4112.58,2082.13 "/>
        </g>
        <g id="_2716887909184">
          <polyline class="fil1 str2" points="5078.3,2444.54 5021.98,3335.63 5070.12,3335.63 5062,3386.82 "/>
          <polyline class="fil1 str2" points="5152.78,2446.36 5111,2538.1 5206.37,2755.19 5137.34,3234.81 5227.27,3301.12 5213.69,3388.64 "/>
          <polyline class="fil1 str2" points="5158.2,3397.39 5166.41,3336.54 5081.93,3272.96 5105.86,3100.76 "/>
          <polyline class="fil1 str2" points="5209.1,2449.99 5180.94,2541.73 5258.15,2750.65 5199.11,3178.49 5287.22,3292.94 5273.6,3389.36 "/>
          <polyline class="fil1 str2" points="5259.06,2450.9 5220.91,2536.28 5305.39,2774.27 5261.79,3181.21 5338.99,3279.31 5317.15,3399.09 "/>
          <line class="fil1 str2" x1="5330.82" y1="2451.81" x2="5313.56" y2= "2631.66" />
          <line class="fil1 str2" x1="5392.59" y1="2450.9" x2="5377.1" y2= "2615.49" />
          <polyline class="fil1 str2" points="5446.2,2458.39 5416.2,2680.71 5385.55,2677.17 "/>
          <polyline class="fil1 str2" points="5491.6,2449.08 5431.65,2811.51 5334.45,2770.64 "/>
          <polyline class="fil1 str2" points="5347.27,2706.05 5331.73,2827.87 5409.85,2882.36 5384.41,3078.57 "/>
          <polyline class="fil1 str2" points="5348.99,3158.5 5328.1,3132.16 5364.81,2850.94 "/>
          <line class="fil1 str2" x1="5348" y1="3157.25" x2="5336.82" y2= "3256.32" />
        </g>
        <g id="_2716887913312">
          <polyline class="fil1 str1" points="5070.31,2444.54 5014,3335.63 5062.14,3335.63 5054.01,3386.82 "/>
          <polyline class="fil1 str1" points="5144.8,2446.36 5103.01,2538.1 5198.39,2755.19 5129.36,3234.81 5219.28,3301.12 5205.71,3388.64 "/>
          <polyline class="fil1 str1" points="5150.21,3397.39 5158.42,3336.54 5073.95,3272.96 5097.88,3100.76 "/>
          <polyline class="fil1 str1" points="5201.12,2449.99 5172.96,2541.73 5250.17,2750.65 5191.12,3178.49 5279.23,3292.94 5265.62,3389.36 "/>
          <polyline class="fil1 str1" points="5251.07,2450.9 5212.92,2536.28 5297.4,2774.27 5253.8,3181.21 5331.01,3279.31 5309.16,3399.09 "/>
          <line class="fil1 str1" x1="5322.83" y1="2451.81" x2="5305.58" y2= "2631.66" />
          <line class="fil1 str1" x1="5384.6" y1="2450.9" x2="5369.11" y2= "2615.49" />
          <polyline class="fil1 str1" points="5438.21,2458.39 5408.22,2680.71 5377.56,2677.17 "/>
          <polyline class="fil1 str1" points="5483.61,2449.08 5423.66,2811.51 5326.47,2770.64 "/>
          <polyline class="fil1 str1" points="5339.29,2706.05 5323.74,2827.87 5401.86,2882.36 5376.43,3078.57 "/>
          <polyline class="fil1 str1" points="5341,3158.5 5320.11,3132.16 5356.82,2850.94 "/>
          <line class="fil1 str1" x1="5340.01" y1="3157.25" x2="5328.83" y2= "3256.32" />
        </g>
        <polyline class="fil1 str2" points="4140.15,2080.54 4152.14,2271.75 4092.19,2342.48 "/>

        <path class="fil5" d="M5560.53 2455.88l2.14 -19.83c-171.76,-0.36 -343.51,-0.72 -515.27,-1.08 -37.56,3.6 -57.12,28.03 -56.69,74.64 -12.6,277.78 -25.2,555.57 -37.79,833.36 0.51,30.81 19.18,48.14 54.8,52.91l352.62 3.75 2.75 -9.1c-113.73,-1.37 -227.46,-2.73 -341.19,-4.1 -36.19,-5.51 -54.67,-23.86 -55.74,-54.8 14.49,-269.91 28.97,-539.82 43.46,-809.74 0.44,-36.45 15.35,-54.01 49.13,-55.74l501.8 -10.27z"/>
        <path class="fil7" d="M4953.08 3346.84c1.97,28.39 20.54,44.47 54.63,49.04l352.62 3.75 2.75 -9.1 -341.19 -4.1c-19.87,-3.03 -34.4,-9.92 -43.64,-20.64 -11.77,-2.49 -20.54,-9.68 -25.17,-18.95z"/>


      </g>

      <path class="fil7 str3" d="M5095.81 1531.57c38.73,0 71.96,23.58 86.11,57.16l678.8 0 0 -866.37 79.79 0 0 3295.74 -3.78 0 -716.85 406.48 419.73 0 -200.21 78.25 -439.03 0 0 -68.09 860.35 -485.68 0 -265.16 -678.8 0c-14.16,33.58 -47.38,57.16 -86.11,57.16 -51.59,0 -93.41,-41.82 -93.41,-93.41 0,-51.59 41.82,-93.41 93.41,-93.41 38.73,0 71.96,23.58 86.11,57.16l678.8 0 0 -1375.19 -678.8 0c-14.16,33.58 -47.38,57.16 -86.11,57.16 -51.59,0 -93.41,-41.82 -93.41,-93.41 0,-51.59 41.82,-93.41 93.41,-93.41 38.73,0 71.96,23.58 86.11,57.16l678.8 0 0 -502.47 -678.8 0c-14.16,33.58 -47.38,57.16 -86.11,57.16 -51.59,0 -93.41,-41.82 -93.41,-93.41 0,-51.59 41.82,-93.41 93.41,-93.41z"/>

      <g>

    

      </g>
 
      <rect class="fil7 str1" transform="matrix(0.997427 0.0716947 -0.0716947 0.997427 5093.03 3023.24)" width="60.54" height="79.12" rx="19.18" ry="19.18">
        <animate attributeName="fill" from="#285c5c" to="yellow" dur="0.3s" fill="freeze" begin="0.14s" repeatCount="indefinite"/>
      </rect>
      <ellipse class="fil7 str0" cx="5339.29" cy="2653.36" rx="42.89" ry="52.69">
        <animate attributeName="fill" from="#285c5c" to="yellow" dur="0.3s" fill="freeze" begin="0.2s" repeatCount="indefinite"/>
      </ellipse>

      <ellipse class="fil7 str0" cx="4093.21" cy="2405.03" rx="46.18" ry="56.72">
        <animate attributeName="fill" from="#285c5c" to="yellow" dur="0.3s" fill="freeze" begin="0.12s" repeatCount="indefinite"/>
      </ellipse>
      <ellipse class="fil7 str0" cx="4193.32" cy="2091.54" rx="46.18" ry="56.72">
        <animate attributeName="fill" from="#285c5c" to="yellow" dur="0.3s" fill="freeze" begin="0.16s" repeatCount="indefinite"/>
      </ellipse>
      <rect class="fil7 str1" x="4214.07" y="1558.25" width="60.54" height="79.12" rx="19.18" ry="19.19">
        <animate attributeName="fill" from="#285c5c" to="yellow" dur="0.3s" fill="freeze" begin="0.1s" repeatCount="indefinite"/>
      </rect>
    </g>

    
<g id="cloud-left" opacity="0">
  <animate
  attributeName="opacity"
  values="0;1"
  dur="0.5s"
        begin="0.7s"
  fill="freeze"
/>
  <polyline class="fil1 str0" points="555.08,2064.27 558.83,2211.99 3967.66,2753.53 " opacity="0" >
     
    <animate
        attributeName="opacity"
        values="0;1"
        dur="0.5s"
              begin="1.6s"
        fill="freeze"
    /></polyline>
    <polyline class="fil1 str0" points="555.08,2064.27 558.83,2211.99 3967.66,2753.53 " opacity="0" stroke-dasharray="300 100" stroke-dashoffset="0">
     
    <animate attributeName="stroke-dashoffset" values="0;-5000;" dur="6s" fill="freeze" repeatCount="indefinite" begin="0.8s" ></animate>
    <animate
        attributeName="opacity"
        values="0;1"
        dur="0.5s"
        begin="1.6s"
        fill="freeze"
    /></polyline>
    <animateTransform attributeName="transform" attributeType="XML" type="translate" values="-5000; 0"
    begin ="0.6s" dur="1.1s" repeatCount="1" calcMode="spline" keySplines="0.3 0.3 0.3 1;" fill="freeze" />
  <path class="fil3" d="M242.29 1774.9c-136.66,13.02 -224.41,225.51 -84.9,289.37 661.33,0 1322.65,0 1983.98,0 209.83,-97.76 132.11,-433.62 -131.68,-447.04 -0.88,-434.89 -329.49,-609.95 -703.49,-528.48 -265.53,-207.14 -729.64,-47.57 -758.94,348.28 -192.44,42.97 -310.06,126.22 -304.97,337.88z"/>
</g>

    <g id="woman" opacity="0">
      <animateTransform attributeName="transform" attributeType="XML" type="translate" values="-5000; 0"
      begin ="0.7s" dur="0.6s" repeatCount="1" calcMode="spline" keySplines="0.3 0.3 0.3 1;" fill="freeze" />
      <animate
      attributeName="opacity"
      values="0;1"
      dur="0.1s"
            begin="0.7s"
      fill="freeze"
  />
       
  <g id="_2716887871120">
    <path class="fil7 str4" d="M3591.86 1505.78c5.71,9.53 10.55,20.81 14.08,34.67 9.12,35.83 2.9,24.07 6.87,62.2 2.9,27.73 33.33,70.52 48.49,84.75 -2.92,1.89 -12.89,24.82 -31.09,38.52 5.2,43.17 -22.39,133.25 -77.27,139.29 -28.34,3.12 -52.48,7.03 -65.17,37.67 -2.56,6.17 -3.61,17.45 -5.04,25.84 -0.65,3.81 19.85,77.05 1.22,69.46l-145.41 -59.3c-3.77,-1.54 8.82,-62.31 -21.87,-91.16 -43.43,-40.83 51.38,-140.37 28.75,-195.25 -36.84,-89.38 52.57,-78.9 117.69,-122.69 67.5,-45.37 88.25,-91.62 128.75,-24.01z"/>
  <path class="fil7" d="M3582.63 1631.75c-2.2,-10.95 -32.95,-30.23 -43.12,10.55 -1.04,4.18 9.76,6.24 10.3,3.86 3.86,-16.74 18.12,-14.57 32.85,-9.81 1.67,0.54 0.82,-3.86 -0.03,-4.6z"/>
  <path class="fil6 str5" d="M3211.84 1903.43c-124.9,19.15 -173.59,-26.17 -140.41,-140.76 -83.82,4.64 -93.1,-39.94 -64.2,-109.72 -100.31,-65.81 17.72,-271.34 142.84,-275.4 -47.74,-109.15 116.04,-179.15 184,-100.89 33.16,-44.86 153.92,-62.2 155.89,3.64 74.85,-36.82 148.77,31.73 136.6,105.77 106.82,44.98 -9.4,206.11 -124.15,152.38 -15.08,40.64 -40.42,59.05 -78.4,50.12 -14.79,38.68 -42.29,46.9 -83.45,22.41 24.95,13.12 39.32,31.26 34.99,58.25 38.82,36.56 32.08,69.99 -5.45,101.33 15.36,59.78 -4.09,86.04 -49.23,87.52 -45.62,64.87 -84.28,92.4 -109.04,45.36z"/>
  <g id="_2716887915952">
   <path class="fil7 str5" d="M3632.74 3385.18c-171.94,-37.56 -343.87,-75.13 -515.81,-112.69 -12.22,122.82 -4.5,254.32 -16.72,377.13 -13.73,138.02 -90.36,257.33 -61.17,405.39 51.78,10.41 103.56,20.83 155.34,31.24 15.86,-67.44 20.05,-139.42 12.15,-216.08 53.22,-130.17 106.45,-260.34 159.68,-390.51 3.3,115.96 33.92,234.4 9.9,347.9 -22.32,105.47 -23.48,204.23 8.33,292.54 60.75,16.2 121.49,32.4 182.24,48.6 8.03,-95.22 -32.45,-183.51 -24.42,-278.72 13.99,-165.95 92.34,-294.29 90.5,-504.79z"/>
   <path class="fil1 str5" d="M3366.97 3486.26c-6.54,-44.17 -18.87,-87.94 -22.7,-135.12"/>
  </g>
 
  <path class="fil9 str5" d="M3489.18 1997.58c-50.21,-19.56 -100.43,-39.13 -150.64,-58.69 -53.87,108.64 -89.57,208.86 -92.79,317.49 -3.93,132.48 84.92,344.74 55.77,430.58 -40.45,119.11 -88.73,179.75 -127.83,293.96 -30.12,87.96 -49.86,196.07 -64.41,287.93 157.08,75.33 331.77,113.69 523.46,116.33 7.48,-128.3 38.34,-248.81 45.82,-377.11 7.59,-130.16 -9.89,-263.51 -9.19,-395.97 0.23,-43.88 -2.95,-91.75 2.72,-135.29 4.04,-31.06 10.04,-58.53 18.82,-88.71 18.84,7.2 37.67,14.4 56.5,21.6 19.94,-66.47 32.09,-125.8 52.03,-192.28 -72.57,-38.22 -137.34,-83.58 -209.91,-121.8 -13.64,-39.58 -46.9,-72.32 -100.35,-98.05z"/>
  <path class="fil7" d="M3455.31 3371.81c11.47,1.62 23.01,3.08 34.62,4.41 10.83,-49.69 18.58,-84.08 25.73,-115.8 70.26,-311.92 88.68,-393.69 -31.64,-739.1 -25.99,-74.62 -30.89,-136.92 -24.21,-185.94 8.39,-61.53 34.12,-100.31 57.72,-114.65 20.79,-12.63 63.88,7.99 130.69,39.95 35.18,16.83 76.11,36.41 123.36,55.43l3.31 -8.26c3.91,-15.29 7.84,-30.62 12.02,-46.17 -44.29,-18.05 -81.94,-36.07 -114.48,-51.63 -83.45,-39.92 -137.27,-65.66 -183.96,-37.3 -35.43,21.53 -73.41,74.81 -84.35,155.15 -7.74,56.76 -2.38,127.98 26.85,211.91 115.04,330.23 97.35,408.75 29.88,708.29 -9.03,40.09 -18.87,83.75 -26.58,119.17l21.05 4.54z"/>
  <path class="fil1 str5" d="M3690.9 2388.1c-40.93,-17.54 -81.85,-35.08 -122.78,-52.63 -15.45,-4.44 -26.19,-2.83 -30.32,7.28"/>
  <path class="fil1 str5" d="M3589.53 2095.63c-45.88,-20.74 -85.91,-31.73 -117.23,-28.21"/>
  <path class="fil1 str5" d="M3489.18 1997.58c-50.21,-19.56 -100.43,-39.13 -150.64,-58.69 -53.87,108.64 -89.57,208.86 -92.79,317.49 -3.93,132.48 84.92,344.74 55.77,430.58 -40.45,119.11 -88.73,179.75 -127.83,293.96 -30.12,87.96 -49.86,196.07 -64.41,287.93 157.08,75.33 331.77,113.69 523.46,116.33 7.48,-128.3 38.34,-248.81 45.82,-377.11 7.59,-130.16 -9.89,-263.51 -9.19,-395.97 0.23,-43.88 -2.95,-91.75 2.72,-135.29 4.04,-31.06 10.04,-58.53 18.82,-88.71 18.84,7.2 37.67,14.4 56.5,21.6 19.94,-66.47 32.09,-125.8 52.03,-192.28 -72.57,-38.22 -137.34,-83.58 -209.91,-121.8 -13.64,-39.58 -46.9,-72.32 -100.35,-98.05z"/>
  <path class="fil10 str5" d="M3058.54 4354.27c12.61,-52.13 -6.41,-163.19 -45.19,-311.03 64.69,12.18 129.38,24.37 194.06,36.55 -4.24,100.86 -25.09,234.3 2.57,333.83 25.28,90.98 107.72,184.62 156.27,237.72 9.56,18.44 8.37,28.98 -8.64,27.92 -83.8,-8.92 -153.67,-33.17 -202.04,-81.08 -18.1,-19.25 -33.74,-22.18 -46.52,-5.98 -3.32,15.95 -6.64,31.9 -9.97,47.85 -5.76,-0.22 -11.52,-0.44 -17.28,-0.67 -17.95,-47.85 -35.89,-95.7 -53.83,-143.55 -0.8,-43.52 15.16,-92.63 30.57,-141.56z"/>
  <path class="fil10 str5" d="M3384.43 4120.09c61.27,11.54 122.54,23.08 183.8,34.62 -4.01,95.53 9.61,185.19 35.8,279.45 23.94,86.17 135.25,176.19 181.24,226.48 9.06,17.46 7.93,27.44 -8.18,26.44 -79.37,-8.45 -145.55,-31.41 -191.35,-76.8 -17.14,-18.24 -31.96,-21.01 -44.06,-5.67 -3.15,15.11 -16.38,20.72 -19.52,35.83 -5.46,-0.21 -10.91,-0.42 -16.37,-0.63 -13.28,-35.4 -15.53,-91.94 -29.74,-154.91 -15.45,-68.45 -49.53,-147.37 -67.62,-217.79 -14.53,-56.59 -24.18,-107.66 -23.99,-147.04z"/>
  <path class="fil7 str4" d="M3737.71 2406c20.58,-62.86 41.15,-125.71 61.73,-188.57 30.47,14.28 60.93,28.55 91.4,42.83l188.16 -276.5c-18.72,-49.18 -20.4,-115.39 -4.32,-164.26 -3.99,-43.75 -7.9,-110.08 20.29,-107.18 22.53,-3.12 8.18,44.77 16.94,44.25 6.88,-32.35 12.85,-65.88 31.83,-93.78 11.05,-15.96 15.8,-45.85 38.88,-47.19 26.68,7.38 5.46,38.94 0.42,55.63 -4.41,16.76 -24.67,44.04 -15.74,55.45 16.91,-34.15 40.18,-65.34 64.61,-94.72 17.69,-23.96 45.7,7.04 24.28,25.24 -17.95,29.71 -39.38,57.66 -50.78,90.77 -8.74,13.05 0.37,18.58 6.36,3.06 15.2,-27.83 35.12,-52.61 51.63,-79.63 9.61,-28.49 45.85,-2.6 26.13,18.12 -13.06,24.83 -29.42,47.76 -42.55,72.47 -4.06,10.01 -22.5,49.78 0.27,30.01 21.19,-19.42 38.13,-42.65 54.75,-65.91 22.59,-21.54 30.81,17.11 14.05,30.64 -15.42,28.46 -34.1,54.98 -52.87,81.22 -17.05,40.47 -24.42,85.7 -51.54,121.47 -8.26,21.74 -17.05,36 -19.51,47.46 -68.24,139.35 -147.7,274.69 -242.95,404.38 -25.31,33.94 -57.11,53.85 -105.77,37.2 -35.24,-14.15 -70.47,-28.3 -105.71,-42.45z"/>

  <path class="fil7 str4" d="M3906.49 2304.69c-23.18,-23.23 -46.37,-46.46 -69.56,-69.7 10.38,-47.24 -9.12,-99.48 1.26,-146.71 12.52,-56.97 44.14,-77.58 67.47,-165.96 4.95,-18.75 19.96,-15.96 23.95,-1.65 4.58,16.44 0.55,34.14 0.83,51.2 8.26,-25.05 12.23,-51.95 24.77,-75.15 5.87,-10.87 24.6,-8.21 24.78,3.3 1.44,92.32 -50.7,157.55 -49.55,225.45 17.89,-29.18 33.6,-59.82 53.68,-87.54 7.3,-10.07 24.56,-4.29 21.47,6.61 -25.34,89.27 -66.07,173.42 -99.1,260.14z"/>
  <path class="fil1 str4" d="M3930.44 1971.88c-9.32,46.67 -31.85,82.76 -59.29,114.92"/>


   </g>
  </g>
    <g id="man-2" opacity="0">
      <animate
      attributeName="opacity"
      values="0;1"
      dur="0.1s"
            begin="0.7s"
      fill="freeze"
  />
        <animateTransform attributeName="transform" attributeType="XML" type="translate" values="5000; 0"
        begin ="0.7s"  dur="0.6s" repeatCount="1" calcMode="spline" keySplines="0.3 0.3 0.3 1;" fill="freeze" />
        <path class="fil7 str4" d="M5885.75 2627.6c-27.09,33.85 -53.6,60.19 -49.95,99.91 3.66,39.87 -117.8,52.04 -27.06,95.8 1.28,16.81 18.61,81.54 21.64,93.56 3.03,12.02 12.67,58.12 56.5,54.34 24.29,-2.1 84.69,-5.58 92.3,26.98 2.06,8.8 -2.57,21.63 1.37,24.07 20.34,-2.9 141.62,-24.47 173.05,-27.86 1.49,-0.16 -2.03,-36.82 7.29,-67.03 15.03,-48.71 34.78,-109.7 44.62,-159.5 16.03,-81.08 -177.03,-133.05 -238.93,-158.93 -15.66,-6.55 -60.59,13.59 -80.84,18.66z"/>
        <path class="fil6" d="M5931.5 2416.26c34.14,68.57 190.4,28.38 269.85,88.6 33.41,25.32 70.41,71.32 86.79,131.1 14.61,53.32 -0.13,116.78 10.95,155.83 14.94,52.62 11.12,42.67 38.08,62.33 4.11,2.99 -11.47,42.36 -40.77,56.41 -27.87,13.36 -69.44,1.4 -69.05,6.42 3.49,44.26 -69.94,46.24 -68.98,20.03 -10.41,-3.21 -21.3,-20.94 -33.86,-31.89 -2.1,-1.83 -4.36,-7.87 -6.23,-5.74 -7.29,8.27 -17.56,24.31 -19.41,33.53 -17.93,-6.49 -47.71,-33.69 -65,-65.15 2.83,-8.03 31.15,-8.48 55.47,-11.15 1.82,-0.2 62.72,-81.67 23.41,-115.25 -50.15,-38.3 -83.74,6.6 -91.61,41.67 -87.81,4.01 -122.97,-85.77 -118.67,-156.44 -32.78,10.41 -77.89,-14.6 -60.48,-41.84 -14.32,-13.26 -16.21,-34.47 -13.35,-61 0.56,-5.19 39.11,-92.14 102.85,-107.47z"/>
        <path class="fil6 str6" d="M5995.55 3063.79c-5,-13.84 -10,-27.68 -15,-41.52 57.68,-9.29 115.37,-18.58 173.05,-27.86 178.41,176.75 315.16,412.91 256.89,927.15 -71.98,-55.7 -184.96,-106.68 -370.66,-149.25 3.64,-214.71 -17.88,-271.87 -73.8,-478.9 -49.2,3.83 -98.41,7.65 -147.61,11.48 -13.67,-60.68 -27.33,-121.36 -41,-182.05 72.71,-19.68 145.42,-39.36 218.13,-59.05z"/>
        <path class="fil11" d="M5790.66 3186.68l216.44 -57.99c119.13,-36.11 184.33,39.93 220.4,158.99 37.04,122.26 41.76,292.42 45.31,420.31 1.53,55.04 2.66,104.44 6.37,135.63l-58.15 -22.59c-3.82,-32.1 -2.76,-54.21 -4.34,-111.5 -3.45,-124.36 -8.05,-289.83 -43.11,-405.56 -26.66,-87.99 -71.74,-145.13 -150.2,-121.36l-218.19 58.44 -14.53 -54.36z"/>
            <path class="fil7 str4" d="M5372.64 3016.03c78.55,47.52 157.1,95.05 235.65,142.57 56.37,-11.92 112.75,-23.84 169.12,-35.77 13.67,60.68 27.33,121.36 41,182.05 -78.96,1.63 -157.91,3.25 -236.86,4.88l-276.95 -197.7 -0.14 -0.1c-4.72,-3.37 -20.06,-16.8 -28.59,-23.7 -16.37,-13.83 -33.61,-28.01 -56.1,-27.89 -42.59,-6.68 -77.81,-33.05 -116.55,-49.69 -30.46,-5.64 -61.04,-11.54 -90.65,-20.96 -20.61,1.8 -40.67,-30.4 -10.69,-30.55 26.98,5.02 54.17,9.81 81.76,9.12 28.91,-1.49 -10.32,-16.72 -19.8,-20.94 -25.54,-8.34 -52.13,-13.31 -77.69,-21.79 -27.44,-1.2 -19.62,-43.24 6,-29.94 29.42,7.7 59.7,11.56 88.75,20.7 14.48,6.74 17.09,-3.14 2.36,-6.35 -29.93,-15.31 -63.37,-20.37 -95.57,-28.98 -26.93,1.69 -28.2,-38.41 -0.02,-33.62 36.47,4.05 73.33,10.12 107.77,22.49 -1.41,-13.85 -33.6,-19.22 -47.81,-27.87 -14.61,-8.18 -50.3,-15.88 -36.76,-38.76 16.84,-14.44 40.04,3.07 58.32,6.75 31.72,6.66 58.17,25.88 84.47,43.67 6.4,-5.48 -11.54,-40.73 6.13,-53.58 16.64,-19.68 28.42,4.53 23.2,21.57 5.99,20.76 25.19,34.36 38.33,50.74 29.06,24.15 41.64,61.29 67.3,88.34 25.36,22.05 84.01,55.31 84.01,55.31z"/>

        <path class="fil6" d="M5931.5 2416.26c34.14,68.57 190.4,28.38 269.85,88.6 33.41,25.32 70.41,71.32 86.79,131.1 14.61,53.32 -0.13,116.78 10.95,155.83 14.94,52.62 11.12,42.67 38.08,62.33 4.11,2.99 -11.47,42.36 -40.77,56.41 -27.87,13.36 -69.44,1.4 -69.05,6.42 3.49,44.26 -69.94,46.24 -68.98,20.03 -10.41,-3.21 -21.3,-20.94 -33.86,-31.89 -2.1,-1.83 -4.36,-7.87 -6.23,-5.74 -7.29,8.27 -17.56,24.31 -19.41,33.53 -17.93,-6.49 -47.71,-33.69 -65,-65.15 2.83,-8.03 31.15,-8.48 55.47,-11.15 1.82,-0.2 62.72,-81.67 23.41,-115.25 -50.15,-38.3 -83.74,6.6 -91.61,41.67 -87.81,4.01 -122.97,-85.77 -118.67,-156.44 -32.78,10.41 -77.89,-14.6 -60.48,-41.84 -14.32,-13.26 -16.21,-34.47 -13.35,-61 0.56,-5.19 39.11,-92.14 102.85,-107.47z"/>
        <path class="fil6 str6" d="M5995.55 3063.79c-5,-13.84 -10,-27.68 -15,-41.52 57.68,-9.29 115.37,-18.58 173.05,-27.86 178.41,176.75 315.16,412.91 256.89,927.15 -71.98,-55.7 -184.96,-106.68 -370.66,-149.25 3.64,-214.71 -17.88,-271.87 -73.8,-478.9 -49.2,3.83 -98.41,7.65 -147.61,11.48 -13.67,-60.68 -27.33,-121.36 -41,-182.05 72.71,-19.68 145.42,-39.36 218.13,-59.05z"/>
        <path class="fil11" d="M5790.66 3186.68l216.44 -57.99c119.13,-36.11 184.33,39.93 220.4,158.99 37.04,122.26 41.76,292.42 45.31,420.31 1.53,55.04 2.66,104.44 6.37,135.63l-58.15 -22.59c-3.82,-32.1 -2.76,-54.21 -4.34,-111.5 -3.45,-124.36 -8.05,-289.83 -43.11,-405.56 -26.66,-87.99 -71.74,-145.13 -150.2,-121.36l-218.19 58.44 -14.53 -54.36z"/>
      
       <g id="_2716887917584">
       <path class="fil7 str4" d="M6383.7 4435.66c-14.48,-65.53 -28.96,-131.05 -43.44,-196.58 35.15,-22.64 70.3,-45.29 105.45,-67.94 7.48,-3.27 18.42,-6.95 23.62,-1.7 31.44,47.54 32.39,54.19 55.09,112.57 5.6,14.95 19.97,103.97 26.06,119.21 28.55,71.44 61.13,123.82 44.73,168.9 -21.77,24.22 -67.47,36.34 -78.78,8.81 -33.76,-82.15 -64.3,-122.48 -132.73,-143.28z"/>
       <polygon class="fil4" points="6407.35,4336.84 6396.48,4377.51 6423.89,4390.14 6458.61,4416.79 6469.69,4430.06 6489.76,4371.11 6470.68,4320.05 6458.94,4270.8 6454.9,4256.71 6427.38,4291.99 "/>
       <path class="fil1 str4" d="M6415.4 4190.68c49.97,45.63 43.72,113.11 67.36,165.12 47.7,104.89 92.69,192.51 89.51,231.38"/>
       <path class="fil1 str4" d="M6498.46 4538.91c1.81,-83.41 -32.02,-145.59 -129.48,-169.84"/>
       <path class="fil1 str4" d="M6396.48 4377.51c11.76,-56.53 31.88,-95.41 58.42,-120.81"/>
       <path class="fil1 str4" d="M6468.03 4427.82c8.51,-21.87 15.91,-39.5 22.67,-54.65"/>
      </g>
      <g id="_2716887919552">
       <path class="fil7 str4" d="M5914.74 3093.12c-64.33,13.83 -128.66,27.66 -192.99,41.48 -54.43,-30.77 -108.86,-61.54 -163.29,-92.31 -12.29,0.15 -24.59,0.3 -36.88,0.45 -21.29,-10.65 -42.59,-21.29 -63.88,-31.94 15.87,-76.54 34.19,-152.62 47.62,-229.63 3.15,-18.08 17.18,-33.89 30.66,-14.63 11.43,16.34 12.01,37.06 22.12,52.28 11.32,17.05 31.98,28.58 40.86,46.68 16.27,33.17 10.88,73.3 31.49,108.86 94.76,39.58 189.53,79.17 284.3,118.75z"/>
       <path class="fil1 str4" d="M5505.32 2781.17c-3.38,30.37 5.69,63.12 27.5,98.28 -2.32,32.13 1.26,63.08 22.94,90.42"/>
      </g>
      <path class="fil7 str4" d="M6039.84 3772.3c149.71,17.49 271.27,76.3 370.66,149.25 -100.29,176.25 -222.01,318.48 -365.73,425.75 126.15,-38.96 205.26,-82.57 299.53,-110.82 15.76,74.22 21.2,135.92 50.67,205.27 -39.59,-3.57 -140.96,10.57 -180.52,14.68 -119.78,12.47 -251.08,70 -371.83,56.61 -7.02,-35.77 -14.05,-71.54 -21.08,-107.3 48.54,-127.43 111.14,-247.82 195.45,-357.36 -68.34,-20.76 -136.68,-41.52 -205.03,-62.28 3.21,16.3 -10.25,24.9 -40.24,25.87 31.14,116.49 23.97,207.11 40.73,309.22 4.62,28.17 6.86,53.49 11.48,81.67 -75.69,-5.75 -139.4,-11.5 -215.08,-17.25 -3.09,-42.51 12.97,-85.98 9.88,-128.47 -4.64,-63.95 -29.31,-128.13 -38.69,-191.84 -9.72,-66.01 -24.8,-227.26 29.19,-277.19 22.22,-20.55 41.58,-28.65 83.92,-31 89.7,8.89 231.8,1.75 346.69,15.17z"/>
      <path class="fil1 str5" d="M5751.59 3960.24c226.8,75.75 473.45,174.28 578.08,85.36"/>
      <g id="_2716887918208">
       <path class="fil7 str4" d="M5623.25 4386.73c66.89,5.38 133.78,10.76 200.67,16.14 11.34,40.25 22.68,80.5 34.01,120.74 0.93,8.11 1.24,19.65 -5.31,23.08 -54.67,16.11 -61.31,15.07 -123.78,19.64 -15.94,0.97 -105.25,-11.41 -121.61,-10.06 -76.67,6.34 -136.3,22.12 -174.59,-6.78 -16.77,-27.92 -14.95,-75.17 14.69,-77.91 88.44,-8.18 135.95,-25.54 175.92,-84.86z"/>
       <polygon class="fil4" points="5710.79,4438.34 5675.09,4416.02 5654.98,4438.51 5619.32,4463.89 5603.38,4470.59 5653.85,4507.06 5708.26,4503.81 5758.79,4507.03 5773.44,4507.31 5747.78,4470.64 "/>
       <path class="fil1 str4" d="M5848.15 4488.91c-58.28,34.39 -120.96,8.61 -177.62,15.96 -114.27,14.83 -211.24,32.14 -247.46,17.69"/>
       <path class="fil1 str4" d="M5490.88 4466.16c79.21,26.2 148.58,12.09 200.35,-73.96"/>
       <path class="fil1 str4" d="M5675.09 4416.02c50.59,27.83 81.86,58.47 98.35,91.29"/>
       <path class="fil1 str4" d="M5606 4469.65c18.42,14.55 33.09,26.8 45.59,37.71"/>
      </g>
    
      </g>


    <g id="man-1">
    <animateTransform attributeName="transform" attributeType="XML" type="translate" values="-10000; 0"
    begin ="0s" dur="1.2s" repeatCount="1" calcMode="spline" keySplines="0.3 0.3 0.3 1;" fill="freeze" />
    <path class="fil7 str5" d="M1289.81 4483.66c8.58,-115.25 17.16,-230.51 25.74,-345.76 92.66,0.28 164.9,0.51 257.56,0.79 70.98,-2.56 147.72,-17.67 215.18,-59.13 -0.62,-29.45 17.03,-60.74 41.18,-92.66 180.17,-9.15 360.35,-18.3 540.52,-27.46 65.78,-17.45 131.55,-34.89 197.33,-52.34 -52.33,68.63 -63.21,117.74 -114.11,157.01 -67.65,52.19 -135.43,70.39 -214.65,102.42 -10.58,11.72 -34.03,28.16 -48.69,34.02 -80.9,32.29 -174.26,-5.2 -257.47,20.52 -115.7,35.75 -209.09,125.75 -320.73,177.07 -100,45.97 -218.22,53.48 -321.86,85.51z"/>
  <path class="fil1 str5" d="M2234.75 4170.45c34.24,-59.53 116.78,-74.5 164.02,-117.31 36.02,-32.64 49.77,-76.44 85.8,-109.08"/>
 <path class="fil7 str5" d="M755.89 2231.78c-62.18,100.65 -130.59,176.94 -221.03,255.62 -602,523.7 -606.59,1060.13 -418.82,1715.23 31.63,110.37 -53.35,422.61 -68.34,541.77 418.27,160.79 836.55,321.57 1254.83,482.36 -1.42,-177.47 -36.82,-353.47 -20.53,-512.51 74.5,-727.03 25.72,-1230.76 -152.17,-1562.02 -59.54,-110.87 -80.89,-196.23 -90.03,-310.7 -23.65,-295.94 91.48,-248.48 203.31,-176.86 120.08,83.82 235.16,99.51 321.57,13.98 50.35,-49.83 83.89,-114.18 125.83,-171.27 37.48,29.68 83.59,33.52 139.81,6.99 -3.15,-85.77 -32.64,-167.15 10.22,-232.02 72.64,-109.94 149.5,-172.11 172.97,-384.62 -262.63,-71.75 -525.25,-143.5 -787.88,-215.26 -121.17,127.26 -242.35,254.52 -363.52,381.79 -36.44,59.51 -72.89,119.02 -106.22,167.51z"/>
  <path class="fil4" d="M432.57 2582.17c-12.25,12.12 -24.16,24.24 -35.8,36.38l-24.51 42.32c145.54,84.33 269.1,182.11 378.46,288.56 109.63,106.71 205.62,222.89 295.47,343.31l61.68 82.66 25.56 -99.99c5.58,-21.83 10.24,-53.39 13.41,-90.13 -5.54,-11.2 -11.21,-22.22 -17.03,-33.05 -43.98,-81.89 -67.12,-149.87 -79.89,-225.93l-7.09 1.13c8.27,51.06 11.09,112.07 10.15,169.06 -0.24,14.26 -0.71,28.23 -1.39,41.68 -71.28,-89.71 -147.57,-176.73 -232.32,-259.22 -112.09,-109.1 -238.45,-209.58 -386.71,-296.77z"/>
  <path class="fil6" d="M671.26 2349.88c-40.24,48.39 -84.72,92.56 -136.4,137.52 -20.7,18.01 -40.64,36.05 -59.94,54.09 204.67,148.26 381.86,303.4 515.86,469.33 11.39,-71.49 22.78,-142.99 34.17,-214.48l11.91 -11.27c-1.48,-71.78 7.66,-117.11 24.08,-143.48 -114.17,-102.96 -244.71,-199.96 -389.67,-291.72z"/>
  <polygon class="fil4 str4" points="1868.98,2224.1 1723.91,2119.48 1612.32,2267.34 1762.97,2376.84 "/>
  <polygon class="fil6" points="1542.58,1992.54 1567.69,1975.8 1949.89,2256.18 1929.66,2290.35 "/>
  <ellipse class="fil6" transform="matrix(0.786266 0.617889 -0.617889 0.786266 1735.42 2253.04)" rx="17.79" ry="42.89"/>
  <path class="fil6 str5" d="M100.36 3057.39c149.31,-134.59 283.94,-143.19 404.77,-41.42 113.15,117.4 82.76,448.79 170.82,846.93 -177.98,44.32 -355.96,88.65 -533.94,132.97 -68.63,-144.81 -115.26,-304.29 -134.78,-481.83 3.77,-78.55 13.18,-175.17 30.14,-257.66 14.59,-70.94 49.93,-131.71 63,-198.99z"/>
  <path class="fil6" d="M1122.5 1282.26c113.3,-60.78 312.41,-80.14 465.18,-27.28 242.31,83.84 461.17,293.99 669.06,378.56 -134.84,316.05 -359.56,321.31 -606.44,249.92 -167.71,263.19 -334.11,228.37 -372.25,139.81 61.01,-265.32 -356.38,-218.79 -192.24,148.55 -92.18,64.5 -197.35,91.63 -326.81,48.94 15.15,-66.41 30.29,-132.82 45.44,-199.24 -36.14,-126.09 -0.62,-351.8 50.62,-470.9 54.77,-127.31 154.16,-207.58 267.45,-268.36z"/>
  <polygon class="fil7 str7" points="1394.84,3964.2 1894.69,3834.09 2800.17,3804.7 2816.7,3848.78 2368.55,3977.35 1387.77,4023.27 "/>
  <polyline class="fil1 str7" points="2800.17,3804.7 2363.04,3927.76 1394.84,3964.2 "/>
  <path class="fil7 str4" d="M1894.69 3834.09l68.23 -344.09c78.27,-245.9 156.54,-491.8 234.81,-737.7 311.01,-25.1 622.02,-50.2 933.03,-75.3 27.39,7.39 40.81,25.74 40.41,56.94 -123.67,356.92 -247.34,713.85 -371.01,1070.77l-905.47 29.39z"/>
  <line class="fil1 str7" x1="3118.91" y1="2707.21" x2="2790.43" y2= "3750.74" />
  <polyline class="fil1 str5" points="2012.84,3510.41 2221.24,2864.93 3027.6,2794.97 2739.45,3717.53 2295.89,3725.88 2161.47,3728.77 "/>
  <g id="_2716887921808">
   <polyline class="fil1 str0" points="2181.92,3719.99 2307.03,3292.23 2226.8,3238.18 2271.56,3092.08 "/>
   <polyline class="fil1 str0" points="2307.03,3292.23 2353.48,3276.18 2399.92,3125.86 "/>
   <polyline class="fil1 str0" points="2294.61,3335.36 2429.48,3302.36 2460.73,3212 "/>
   <polyline class="fil1 str0" points="2266.33,3433.56 2524.06,3348.81 2604.29,3104.75 "/>
  </g>
  <ellipse class="fil4 str8" transform="matrix(0.714848 0.538851 -0.500345 0.842259 2285.3 3051.42)" rx="43.91" ry="48.13"/>
  <ellipse class="fil4 str8" transform="matrix(0.714848 0.538851 -0.500345 0.842259 2408.59 3087.74)" rx="43.91" ry="48.13"/>
  <ellipse class="fil4 str8" transform="matrix(0.714848 0.538851 -0.500345 0.842259 2472.55 3177.37)" rx="43.91" ry="48.13"/>
  <ellipse class="fil4 str8" transform="matrix(0.714848 0.538851 -0.500345 0.842259 2611.89 3070.12)" rx="43.91" ry="48.13"/>
  <ellipse class="fil4" transform="matrix(0.714848 0.538851 -0.500345 0.842259 2796.83 2975.54)" rx="43.91" ry="48.13"/>
  <ellipse class="fil4" transform="matrix(0.714848 0.538851 -0.500345 0.842259 2719.14 3241.56)" rx="43.91" ry="48.13"/>
  <ellipse class="fil1 str8" transform="matrix(0.714848 0.538851 -0.500345 0.842259 2757.99 3108.13)" rx="43.91" ry="48.13"/>
  <ellipse class="fil1 str8" transform="matrix(0.714848 0.538851 -0.500345 0.842259 2689.58 3364.01)" rx="43.91" ry="48.13"/>
  <rect class="fil4" transform="matrix(1 -0 -0.267949 1 2483.25 3448.46)" width="43.91" height="20.27"/>
  <rect class="fil4" transform="matrix(1 -0 -0.267949 1 2552.49 3448.46)" width="43.91" height="20.27"/>
  <rect class="fil4" transform="matrix(1.61544 -0 -0.267949 1 2623.43 3448.46)" width="43.91" height="20.27"/>
  <rect class="fil4" transform="matrix(1 -0 -0.267949 1 2467.18 3508.42)" width="43.91" height="20.27"/>
  <rect class="fil4" transform="matrix(1.5577 -0 -0.267949 1 2451.57 3566.69)" width="43.91" height="20.27"/>
  <rect class="fil4" transform="matrix(0.500045 -0 -0.267949 1 2533.05 3508.42)" width="43.91" height="20.27"/>
  <rect class="fil4" transform="matrix(0.500045 -0 -0.267949 1 2579.5 3508.42)" width="43.91" height="20.27"/>
  <rect class="fil4" transform="matrix(0.500045 -0 -0.267949 1 2621.72 3508.42)" width="43.91" height="20.27"/>
  <rect class="fil4" transform="matrix(1.5577 -0 -0.267949 1 2534.75 3566.69)" width="43.91" height="20.27"/>
  <rect class="fil4" transform="matrix(0.778849 -0 -0.267949 1 2621.74 3566.69)" width="43.91" height="20.27"/>
  <g id="_2716887926128">
    
   <rect class="fil1 str9" transform="matrix(0.828973 -0.0317596 -1.50176 0.579383 1766.59 3903.66)" width="57.53" height="53.48"/>
   <rect class="fil1 str9" transform="matrix(0.828973 -0.0317596 -1.50176 0.579383 1835.74 3901.01)" width="57.53" height="53.48"/>
   <rect class="fil1 str9" transform="matrix(0.828973 -0.0317596 -1.50176 0.579383 1908.26 3898.24)" width="57.53" height="53.48"/>
   <rect class="fil1 str9" transform="matrix(0.828973 -0.0317596 -1.50176 0.579383 1980.78 3895.46)" width="57.53" height="53.48"/>
   <rect class="fil1 str9" transform="matrix(0.828973 -0.0317596 -1.50176 0.579383 2053.29 3892.68)" width="57.53" height="53.48"/>
   <rect class="fil1 str9" transform="matrix(0.828973 -0.0317596 -1.50176 0.579383 2125.81 3889.9)" width="57.53" height="53.48"/>
   <rect class="fil1 str9" transform="matrix(0.828973 -0.0317596 -1.50176 0.579383 2198.33 3887.12)" width="57.53" height="53.48"/>
   <rect class="fil1 str9" transform="matrix(0.828973 -0.0317596 -1.50176 0.579383 2270.85 3884.34)" width="57.53" height="53.48"/>
   <rect class="fil1 str9" transform="matrix(0.828973 -0.0317596 -1.50176 0.579383 1886.52 3857.39)" width="57.53" height="53.48"/>
   <rect class="fil1 str9" transform="matrix(0.828973 -0.0317596 -1.50176 0.579383 1955.67 3854.74)" width="57.53" height="53.48"/>
   <rect class="fil1 str9" transform="matrix(0.828973 -0.0317596 -1.50176 0.579383 2028.19 3851.97)" width="57.53" height="53.48"/>
   <rect class="fil1 str9" transform="matrix(0.828973 -0.0317596 -1.50176 0.579383 2100.71 3849.19)" width="57.53" height="53.48"/>
   <rect class="fil1 str9" transform="matrix(0.828973 -0.0317596 -1.50176 0.579383 2173.23 3846.41)" width="57.53" height="53.48"/>
   <rect class="fil1 str9" transform="matrix(0.828973 -0.0317596 -1.50176 0.579383 2245.75 3843.63)" width="57.53" height="53.48"/>
   <rect class="fil1 str9" transform="matrix(0.828973 -0.0317596 -1.50176 0.579383 2318.27 3840.85)" width="57.53" height="53.48"/>
   <rect class="fil1 str9" transform="matrix(0.828973 -0.0317596 -1.50176 0.579383 2390.79 3838.07)" width="57.53" height="53.48"/>
  </g>
  <path class="fil7 str5" d="M675.94 3862.91c-180.94,37.97 -361.88,75.93 -542.81,113.9 92.39,253.79 208.72,442.28 344.21,578.53 11.5,22.06 26.7,31.83 49.96,14.69 60.81,-30.15 114.27,-80.45 175.33,-109.71 339.63,-162.76 612.18,-389.64 863.56,-680.84 80.5,18.26 176.64,5.25 280.66,-23.51l128.65 -23.13c14.1,-58.81 40.68,-131.12 -12.57,-242.84 -51.2,-14.16 -94.82,6.06 -147.9,9.85 -98.91,7.06 -208.81,12.02 -307.62,18.07 -77.59,46.52 -164,75.42 -241.59,121.94 -118.5,71.06 -228.21,159.76 -346.71,230.82 -69.37,41.59 -138.76,83.2 -208.13,124.8 -11.68,-44.19 -23.36,-88.38 -35.03,-132.57z"/>
  <path class="fil1 str5" d="M1904.8 4059.61c103.94,-72.77 216.68,-80.12 337.95,-24.14 52.81,-7.7 91.8,-27.86 119.85,-57.84"/>
 
  <g id="_2716887870736" style="transform-origin: 1800px 3800px;">
    <path class="fil7" d="M2288.7 3848.27c-0.93,1.09 -6.59,-9.69 -7.25,-10.51 -51.27,-63.96 -61.32,-104.31 -142.69,-142.59 -56.89,-26.76 -121.28,-38.47 -163.74,-95.62l-27.93 107.91 28.39 11.91c3.21,0.34 6.37,14.15 9.49,14.51 102.27,12.02 159.21,40.94 210.97,105.63 11.32,14.15 32.93,23.26 53.51,26.65 23.53,3.88 34.36,-2.85 39.24,-17.9z"/>
    <path class="fil1 str5" d="M1975.03 3599.55c42.45,57.16 106.85,68.86 163.74,95.62 81.37,38.28 91.42,78.62 142.69,142.59 0.66,0.82 6.32,11.6 6.81,11.71m-312.77 -116.64c108.29,11.35 167.12,40.02 220.46,106.68 11.32,14.15 32.93,23.26 53.51,26.65 23.53,3.88 34.36,-2.85 39.68,-19.1"/>
    <animateTransform id="second_finger" attributeName="transform" attributeType="XML" type="rotate" values="0; 7; 0;" dur="2s" repeatCount="indefinite"/>
   </g>
   <g id="_2716887871552" style="transform-origin: 1800px 3800px;">
    <path class="fil7" d="M1975.03 3599.55c42.45,57.16 106.85,68.86 163.74,95.62 81.37,38.28 91.42,78.62 146.53,147.24 21.38,6.16 36.51,4.91 33.23,-17.39 -33.54,-53.08 -38.65,-120.91 -79.35,-163.11 -43.38,-44.98 -90.96,-56.98 -140.14,-87.28 -36.17,-22.28 -64.81,-64.93 -136.11,-84.65l-17.82 89.86 29.92 19.69z"/>
    <path class="fil1 str5" d="M1975.03 3599.55c42.45,57.16 106.85,68.86 163.74,95.62 81.37,38.28 91.42,78.62 146.53,147.24 21.38,6.16 36.51,4.91 33.23,-17.39 -33.54,-53.08 -38.65,-120.91 -79.35,-163.11 -43.38,-44.98 -90.96,-56.98 -140.14,-87.28 -36.17,-22.28 -64.81,-64.93 -136.11,-84.65"/>
    <animateTransform id="first_finger" attributeName="transform" attributeType="XML" type="rotate" values="0; -7; 0;" dur="2s" repeatCount="indefinite"/>
   </g>
  <g id="_2716887871216" style="transform-origin: 1800px 3700px;">
   <path class="fil7" d="M1842.85 3751.97c83.67,85.06 173.97,135.35 273.31,138.13 16.3,-1.19 32.96,-17.95 19.1,-26.45 -71.37,-43.82 -125.46,-74.69 -163.77,-134.8 -5.29,-0.31 -10.09,-12.96 -15.28,-13.11 -72.12,-2.06 -132.93,23.23 -113.37,36.23z"/>
   <path class="fil1 str5" d="M1842.85 3751.97c83.67,85.06 173.97,135.35 273.31,138.13 16.3,-1.19 32.95,-17.95 19.1,-26.45 -71.37,-43.82 -128.94,-80.66 -167.24,-140.77"/>
   <animateTransform attributeName="transform" attributeType="XML" type="rotate" values="0; -5; 0;" dur="2s" begin="0.5s" repeatCount="indefinite"/>
  </g>
  <path class="fil1 str5" d="M2281.45 3837.76c0.66,0.82 6.32,11.6 6.81,11.71"/>
</g>
  </g>
</svg>
