<svg width="700" height="496" viewBox="0 0 700 496" fill="none" xmlns="http://www.w3.org/2000/svg">
    <path d="M348.243 486.375C531.819 486.375 680.636 383.29 680.636 256.129C680.636 128.969 531.819 25.8843 348.243 25.8843C164.668 25.8843 15.8506 128.969 15.8506 256.129C15.8506 383.29 164.668 486.375 348.243 486.375Z" fill="#D2E3E9"/>
    <path d="M354.469 132.02V154.017L374.856 163.228" stroke="#29584E" stroke-width="1.33364" stroke-miterlimit="2.61313"/>
    <path fill-rule="evenodd" clip-rule="evenodd" d="M433.875 107.616C446.232 108.849 454.166 128.961 441.552 135.006C381.756 135.006 321.961 135.006 262.165 135.006C243.192 125.753 250.22 93.963 274.071 92.6928C274.15 51.5299 303.862 34.9602 337.679 42.6715C361.688 23.0654 403.652 38.1689 406.301 75.6366C423.701 79.7038 434.335 87.5835 433.875 107.617V107.616Z" fill="#EAF8F8"/>
    <path fill-rule="evenodd" clip-rule="evenodd" d="M576.418 423.542C516.884 462.489 436.594 486.373 348.243 486.373C259.892 486.373 179.603 462.489 120.069 423.542H576.418Z" fill="#EAF8F8"/>
    <path fill-rule="evenodd" clip-rule="evenodd" d="M410.838 379.495H487.293C503.859 338.178 515.363 299.634 522.012 263.723C522.034 263.607 517.954 260.755 517.976 260.641C519.879 250.303 522.25 242.697 523.351 232.79C523.37 232.612 526.639 232.636 526.657 232.452C537.374 135.365 509.898 58.9432 449.066 0C408.313 39.4885 382.507 86.8227 373.17 142.955C373.156 143.045 376.909 142.836 376.897 142.907C371.653 174.828 373.569 209.992 379.13 247.775C379.149 247.905 373.512 248.131 373.534 248.284C379.528 288.523 391.874 332.195 410.839 379.496L410.838 379.495Z" fill="#85BBB6"/>
    <path fill-rule="evenodd" clip-rule="evenodd" d="M499.945 345.659C505.352 330.032 509.987 314.826 513.863 300.034H384.263C388.14 314.826 392.777 330.032 398.185 345.659H499.946H499.945Z" fill="#85BBB6"/>
    <path fill-rule="evenodd" clip-rule="evenodd" d="M499.945 345.659C505.352 330.032 509.987 314.826 513.863 300.034L385.437 300.827C389.314 315.619 392.777 330.032 398.185 345.659H499.946H499.945Z" fill="#29584E"/>
    <path fill-rule="evenodd" clip-rule="evenodd" d="M492.069 367.259C492.303 366.646 492.541 366.028 492.773 365.416H405.357C405.589 366.029 405.827 366.646 406.061 367.259H492.069Z" fill="#29584E"/>
    <path fill-rule="evenodd" clip-rule="evenodd" d="M528.087 216.329C529.11 201.282 529.18 186.75 528.312 172.722H409.339L410.114 216.329H528.087Z" fill="#29584E"/>
    <path d="M449.066 135.741C470.799 135.741 488.417 118.123 488.417 96.3894C488.417 74.6563 470.799 57.0381 449.066 57.0381C427.333 57.0381 409.715 74.6563 409.715 96.3894C409.715 118.123 427.333 135.741 449.066 135.741Z" fill="#373435"/>
    <path d="M449.065 122.895C463.704 122.895 475.571 111.028 475.571 96.389C475.571 81.75 463.704 69.8828 449.065 69.8828C434.426 69.8828 422.559 81.75 422.559 96.389C422.559 111.028 434.426 122.895 449.065 122.895Z" fill="#FEFEFE"/>
    <path d="M449.066 265.012C459.671 265.012 468.269 256.414 468.269 245.809C468.269 235.203 459.671 226.606 449.066 226.606C438.461 226.606 429.863 235.203 429.863 245.809C429.863 256.414 438.461 265.012 449.066 265.012Z" fill="#FEFEFE"/>
    <path fill-rule="evenodd" clip-rule="evenodd" d="M334.564 309.686L377.347 263.465C382.719 294.063 391.648 326.589 404.263 361.13L367.486 386.229L344.732 436.789L334.564 309.686Z" fill="#85BBB6"/>
    <path fill-rule="evenodd" clip-rule="evenodd" d="M385.437 300.828C389.158 315.387 393.62 330.348 398.834 345.721L354.145 378.062L342.606 410.208L337.271 343.517L385.437 300.828Z" fill="#29584E"/>
    <path fill-rule="evenodd" clip-rule="evenodd" d="M563.538 309.686L520.756 263.465C515.384 294.063 506.455 326.589 493.84 361.13L530.617 386.229L553.371 436.789L563.538 309.686Z" fill="#85BBB6"/>
    <path fill-rule="evenodd" clip-rule="evenodd" d="M512.666 300.828C508.944 315.387 504.483 330.348 499.268 345.721L543.958 378.062L555.497 410.208L560.831 343.517L512.666 300.828Z" fill="#29584E"/>
    <path fill-rule="evenodd" clip-rule="evenodd" d="M412.209 366.679H414.828V379.495H412.209V366.679ZM483.303 366.679H485.922V379.495H483.303V366.679ZM478.225 366.679H480.844V379.495H478.225V366.679ZM473.147 366.679H475.766V379.495H473.147V366.679ZM468.069 366.679H470.688V379.495H468.069V366.679ZM462.991 366.679H465.61V379.495H462.991V366.679ZM457.913 366.679H460.532V379.495H457.913V366.679ZM452.835 366.679H455.454V379.495H452.835V366.679ZM447.757 366.679H450.376V379.495H447.757V366.679ZM442.679 366.679H445.298V379.495H442.679V366.679ZM437.601 366.679H440.22V379.495H437.601V366.679ZM432.523 366.679H435.142V379.495H432.523V366.679ZM427.445 366.679H430.064V379.495H427.445V366.679ZM422.367 366.679H424.986V379.495H422.367V366.679ZM417.289 366.679H419.908V379.495H417.289V366.679Z" fill="#29584E"/>
    <path d="M430.062 379.495V396.718L427.168 399.613V424.5L354.817 442.236L334.228 452.902L251.071 476.379" stroke="#29584E" stroke-width="1.00046" stroke-miterlimit="2.61313"/>
    <path d="M433.213 379.495V424.325L360.661 443.33L341.656 456.238L268.207 479.655" stroke="#29584E" stroke-width="1.00046" stroke-miterlimit="2.61313"/>
    <path d="M440.219 379.495V424.563L403.331 436.277L399.745 452.174L332.795 486.13" stroke="#29584E" stroke-width="1.00046" stroke-miterlimit="2.61313"/>
    <path d="M443.987 379.495V424.684L415.523 435.201V447.274L343.687 486.353" stroke="#29584E" stroke-width="1.00046" stroke-miterlimit="2.61313"/>
    <path d="M449.065 379.495V424.684L419.347 437.353V447.155L353.842 486.342" stroke="#29584E" stroke-width="1.00046" stroke-miterlimit="2.61313"/>
    <path d="M455.453 379.495V396.595L452.336 400.42V424.563L422.096 439.863V454.206L382.313 485.179" stroke="#29584E" stroke-width="1.00046" stroke-miterlimit="2.61313"/>
    <path d="M458.552 379.495V397.67L455.923 400.3V424.803L429.627 439.504V455.521L399.773 483.624" stroke="#29584E" stroke-width="1.00046" stroke-miterlimit="2.61313"/>
    <path fill-rule="evenodd" clip-rule="evenodd" d="M559.221 164.931C549.728 165.836 543.632 180.597 553.324 185.033C599.264 185.033 645.205 185.033 691.146 185.033C705.723 178.242 700.324 154.91 681.998 153.978C681.937 123.767 659.11 111.606 633.129 117.266C614.683 102.876 582.442 113.961 580.407 141.459C567.039 144.445 558.868 150.227 559.221 164.931Z" fill="#EAF8F8"/>
    <path d="M461.54 379.495V424.922L444.329 437.831V468.788L439.743 477.541" stroke="#29584E" stroke-width="1.00046" stroke-miterlimit="2.61313"/>
    <path d="M470.687 379.495V388.467L466.831 392.324V424.444L454.608 439.624V455.043L444.748 476.519" stroke="#29584E" stroke-width="1.00046" stroke-miterlimit="2.61313"/>
    <path d="M381.208 141.949V176.132" stroke="#29584E" stroke-width="1.00046" stroke-miterlimit="2.61313"/>
    <path d="M385.788 142.34L385.765 193.728" stroke="#29584E" stroke-width="1.00046" stroke-miterlimit="2.61313"/>
    <path d="M390.431 141.188V159.745" stroke="#29584E" stroke-width="1.00046" stroke-miterlimit="2.61313"/>
    <path d="M380.074 141.949V176.132" stroke="#FEFEFE" stroke-width="1.00046" stroke-miterlimit="2.61313"/>
    <path d="M384.654 142.34L384.631 193.728" stroke="#FEFEFE" stroke-width="1.00046" stroke-miterlimit="2.61313"/>
    <path d="M389.297 141.188V159.745" stroke="#FEFEFE" stroke-width="1.00046" stroke-miterlimit="2.61313"/>
    <path fill-rule="evenodd" clip-rule="evenodd" d="M499.945 345.659C505.352 330.032 509.987 314.826 513.863 300.034L385.437 300.827C389.314 315.619 392.777 330.032 398.185 345.659H499.946H499.945Z" fill="#29584E"/>
    <path fill-rule="evenodd" clip-rule="evenodd" d="M373.177 142.907C373.236 142.559 373.295 142.211 373.353 141.863C383.036 140.895 392.797 139.396 402.401 138.959C405.747 138.806 408.747 142.164 408.937 145.81C410.571 177.257 410.342 208.774 411.045 240.256C411.221 242.925 410.293 244.525 408.093 244.894C396.669 246.653 385.245 248.033 373.819 249.791C373.743 249.294 373.668 249.174 373.592 248.678C385.034 246.994 396.477 245.311 407.919 243.628C409.381 243.413 409.505 242.836 409.473 241.22C408.866 209.666 407.753 178.735 407.144 147.18C406.953 144.179 405.302 141.615 402.295 141.699C392.705 141.962 382.883 142.504 373.176 142.907H373.177Z" fill="#29584E"/>
    <path fill-rule="evenodd" clip-rule="evenodd" d="M410.817 242.656C410.417 243.893 409.524 244.655 408.093 244.894C398.751 246.332 389.41 247.517 380.068 248.863C379.257 248.769 378.845 248.443 378.777 247.915L407.92 243.629C408.842 243.493 409.23 243.213 409.385 242.62C409.901 242.712 410.306 242.685 410.818 242.657L410.817 242.656Z" fill="#FEFEFE"/>
    <path d="M628.022 185.032L615.249 209.367L526.86 230.575" stroke="#29584E" stroke-width="1.33364" stroke-miterlimit="2.61313"/>
    <path d="M411.062 379.161H487.068C495.309 358.589 502.296 338.702 508.052 319.485C513.826 300.205 518.363 281.602 521.685 263.662C521.713 263.513 520.718 263.121 519.783 262.437C518.69 261.637 517.6 260.84 517.648 260.579C518.365 256.684 519.151 253.17 519.909 249.775C521.158 244.182 522.336 238.912 523.02 232.752C523.062 232.38 524.015 232.335 524.973 232.29C525.656 232.258 526.306 232.608 526.326 232.417L526.486 230.937C526.599 231.535 526.676 232.084 526.85 232.679C526.544 232.879 525.771 232.917 525.004 232.954C524.331 232.986 523.702 232.628 523.682 232.824C522.994 239.011 521.812 244.302 520.557 249.919C519.802 253.3 519.019 256.803 518.302 260.699C518.275 260.847 519.251 261.225 520.176 261.9C521.279 262.707 522.388 263.518 522.338 263.783C519.01 281.754 514.469 300.379 508.69 319.676C502.592 340.03 495.438 360.114 487.517 379.828H410.613C401.63 357.371 393.608 334.603 387 311.33C380.79 289.456 376.202 268.464 373.204 248.33C373.169 248.08 373.356 247.944 373.71 247.894C374.195 247.826 375.351 247.749 376.47 247.677C377.393 247.617 378.293 247.558 378.754 247.508C375.999 228.72 374.146 210.576 373.63 193.15C373.115 175.763 373.931 159.095 376.509 143.225L375.535 143.255L375.54 142.589C376.207 142.566 376.786 142.55 376.928 142.571C377.14 142.602 377.271 142.737 377.226 142.961C374.608 158.898 373.777 175.649 374.294 193.133C374.812 210.618 376.681 228.844 379.459 247.726C379.493 247.97 379.334 248.1 379.023 248.147C378.63 248.204 377.586 248.273 376.512 248.344C375.482 248.411 374.422 248.481 373.909 248.541C376.905 268.554 381.471 289.417 387.642 311.152C393.827 332.938 401.624 355.601 411.063 379.163L411.062 379.161Z" fill="#29584E"/>
    <path fill-rule="evenodd" clip-rule="evenodd" d="M482.671 144.964C486.337 144.964 489.482 147.196 490.822 150.375H555.071V68.3716H562.623V380.318H562.265L494.414 418.792H534.142L515.192 426.198H473.638V419.753L555.071 373.783V348.685H490.822C489.481 351.864 486.337 354.096 482.671 354.096C477.788 354.096 473.83 350.137 473.83 345.254C473.83 340.371 477.788 336.413 482.671 336.413C486.337 336.413 489.482 338.645 490.822 341.823H555.071V211.66H490.822C489.481 214.838 486.337 217.07 482.671 217.07C477.788 217.07 473.83 213.111 473.83 208.228C473.83 203.345 477.788 199.387 482.671 199.387C486.337 199.387 489.482 201.619 490.822 204.797H555.071V157.238H490.822C489.481 160.416 486.337 162.648 482.671 162.648C477.788 162.648 473.83 158.69 473.83 153.807C473.83 148.924 477.788 144.965 482.671 144.965V144.964Z" fill="#FEFEFE" stroke="black" stroke-width="1.33364" stroke-miterlimit="2.61313"/>
    <path d="M401.103 245.173L400.062 234.474L405.458 229.646L402.239 154.574" stroke="#29584E" stroke-width="1.00046" stroke-miterlimit="2.61313"/>
    <path d="M395.926 245.392L394.666 231.73L400.535 225.576L399.116 202.477" stroke="#29584E" stroke-width="1.00046" stroke-miterlimit="2.61313"/>
    <path d="M390.756 246.152L388.891 226.996L399.894 215.144" stroke="#29584E" stroke-width="1.00046" stroke-miterlimit="2.61313"/>
    <path d="M384.442 247.634L380.56 218.665" stroke="#29584E" stroke-width="1.00046" stroke-miterlimit="2.61313"/>
    <path d="M381.475 247.518L378.573 221.41" stroke="#29584E" stroke-width="1.00046" stroke-miterlimit="2.61313"/>
    <path d="M388.093 247.115L385.54 216.33L391.327 209.614L390.362 197.076" stroke="#29584E" stroke-width="1.00046" stroke-miterlimit="2.61313"/>
    <path fill-rule="evenodd" clip-rule="evenodd" d="M473.465 321.274L507.816 321.422L513.88 298.649L470.042 296.661L469.315 317.777L473.465 321.274Z" fill="#85BBB6"/>
    <path d="M392.972 197.303L394.107 215.401L388.433 222.096" stroke="#29584E" stroke-width="1.00046" stroke-miterlimit="2.61313"/>
    <path d="M400.348 245.173L399.306 234.474L404.702 229.646L401.484 154.574" stroke="#FEFEFE" stroke-width="1.00046" stroke-miterlimit="2.61313"/>
    <path d="M395.17 245.392L393.91 231.73L399.779 225.576L398.359 202.477" stroke="#FEFEFE" stroke-width="1.00046" stroke-miterlimit="2.61313"/>
    <path d="M390.001 246.152L388.135 226.996L399.138 215.144" stroke="#FEFEFE" stroke-width="1.00046" stroke-miterlimit="2.61313"/>
    <path d="M383.686 247.634L379.804 218.665" stroke="#FEFEFE" stroke-width="1.00046" stroke-miterlimit="2.61313"/>
    <path d="M380.72 247.518L377.816 221.41" stroke="#FEFEFE" stroke-width="1.00046" stroke-miterlimit="2.61313"/>
    <path d="M387.337 247.115L384.785 216.33L390.572 209.614L389.607 197.076" stroke="#FEFEFE" stroke-width="1.00046" stroke-miterlimit="2.61313"/>
    <path d="M392.216 196.925L393.351 215.023L387.677 221.718" stroke="#FEFEFE" stroke-width="1.00046" stroke-miterlimit="2.61313"/>
    <path d="M387.774 233.007C390.188 233.007 392.145 230.604 392.145 227.639C392.145 224.674 390.188 222.27 387.774 222.27C385.36 222.27 383.403 224.674 383.403 227.639C383.403 230.604 385.36 233.007 387.774 233.007Z" fill="#FEFEFE" stroke="#29584E" stroke-width="1.33364" stroke-miterlimit="2.61313"/>
    <path d="M397.249 203.335C399.663 203.335 401.62 200.931 401.62 197.966C401.62 195.001 399.663 192.598 397.249 192.598C394.835 192.598 392.878 195.001 392.878 197.966C392.878 200.931 394.835 203.335 397.249 203.335Z" fill="#FEFEFE" stroke="#29584E" stroke-width="1.33364" stroke-miterlimit="2.61313"/>
    <path d="M403.128 147.49H401.029C400.026 147.49 399.213 148.303 399.213 149.305V153.163C399.213 154.166 400.026 154.979 401.029 154.979H403.128C404.131 154.979 404.943 154.166 404.943 153.163V149.305C404.943 148.303 404.131 147.49 403.128 147.49Z" fill="#FEFEFE" stroke="#29584E" stroke-width="1.00046" stroke-miterlimit="2.61313"/>
    <path d="M481.014 231.378L475.683 315.721H480.239L479.471 320.566" stroke="#FEFEFE" stroke-width="1.00046" stroke-miterlimit="2.61313"/>
    <path d="M488.063 231.55L484.109 240.234L493.136 260.781L486.602 306.178L495.114 312.454L493.829 320.738" stroke="#FEFEFE" stroke-width="1.00046" stroke-miterlimit="2.61313"/>
    <path d="M488.576 321.567L489.353 315.807L481.357 309.789L483.622 293.49" stroke="#FEFEFE" stroke-width="1.00046" stroke-miterlimit="2.61313"/>
    <path d="M493.394 231.894L490.729 240.577L498.037 260.351L492.449 300.847L500.788 311.68L499.499 320.806" stroke="#FEFEFE" stroke-width="1.00046" stroke-miterlimit="2.61313"/>
    <path d="M498.123 231.98L494.512 240.061L502.508 262.587L498.381 301.105L505.688 310.39L503.621 321.727" stroke="#FEFEFE" stroke-width="1.00046" stroke-miterlimit="2.61313"/>
    <path d="M504.915 232.066L503.281 249.089" stroke="#FEFEFE" stroke-width="1.00046" stroke-miterlimit="2.61313"/>
    <path d="M510.762 231.98L509.296 247.559" stroke="#FEFEFE" stroke-width="1.00046" stroke-miterlimit="2.61313"/>
    <path d="M515.836 232.689L512.996 253.732L510.095 253.397" stroke="#FEFEFE" stroke-width="1.00046" stroke-miterlimit="2.61313"/>
    <path d="M520.133 231.808L514.459 266.112L505.259 262.244" stroke="#FEFEFE" stroke-width="1.00046" stroke-miterlimit="2.61313"/>
    <path d="M506.472 256.13L505.001 267.661L512.395 272.818L509.987 291.39" stroke="#FEFEFE" stroke-width="1.00046" stroke-miterlimit="2.61313"/>
    <path d="M506.635 298.955L504.658 296.462L508.132 269.844" stroke="#FEFEFE" stroke-width="1.00046" stroke-miterlimit="2.61313"/>
    <path d="M506.541 298.837L505.483 308.214" stroke="#FEFEFE" stroke-width="1.00046" stroke-miterlimit="2.61313"/>
    <path d="M480.257 231.378L474.928 315.721H479.484L478.715 320.566" stroke="#29584E" stroke-width="1.00046" stroke-miterlimit="2.61313"/>
    <path d="M487.308 231.55L483.353 240.234L492.38 260.781L485.847 306.178L494.358 312.454L493.073 320.738" stroke="#29584E" stroke-width="1.00046" stroke-miterlimit="2.61313"/>
    <path d="M487.82 321.567L488.597 315.807L480.602 309.789L482.867 293.49" stroke="#29584E" stroke-width="1.00046" stroke-miterlimit="2.61313"/>
    <path d="M492.639 231.894L489.973 240.577L497.281 260.351L491.692 300.847L500.032 311.68L498.744 320.806" stroke="#29584E" stroke-width="1.00046" stroke-miterlimit="2.61313"/>
    <path d="M497.367 231.98L493.756 240.061L501.752 262.587L497.625 301.105L504.933 310.39L502.865 321.727" stroke="#29584E" stroke-width="1.00046" stroke-miterlimit="2.61313"/>
    <path d="M504.159 232.066L502.526 249.089" stroke="#29584E" stroke-width="1.00046" stroke-miterlimit="2.61313"/>
    <path d="M510.005 231.98L508.539 247.559" stroke="#29584E" stroke-width="1.00046" stroke-miterlimit="2.61313"/>
    <path d="M515.08 232.689L512.241 253.732L509.339 253.397" stroke="#29584E" stroke-width="1.00046" stroke-miterlimit="2.61313"/>
    <path d="M519.377 231.808L513.703 266.112L504.503 262.244" stroke="#29584E" stroke-width="1.00046" stroke-miterlimit="2.61313"/>
    <path d="M505.717 256.13L504.245 267.661L511.639 272.818L509.232 291.39" stroke="#29584E" stroke-width="1.00046" stroke-miterlimit="2.61313"/>
    <path d="M505.879 298.955L503.901 296.462L507.376 269.844" stroke="#29584E" stroke-width="1.00046" stroke-miterlimit="2.61313"/>
    <path d="M505.785 298.837L504.727 308.214" stroke="#29584E" stroke-width="1.00046" stroke-miterlimit="2.61313"/>
    <path d="M505.717 256.131C507.959 256.131 509.776 253.898 509.776 251.143C509.776 248.389 507.959 246.156 505.717 246.156C503.475 246.156 501.657 248.389 501.657 251.143C501.657 253.898 503.475 256.131 505.717 256.131Z" fill="#FEFEFE" stroke="#29584E" stroke-width="1.33364" stroke-miterlimit="2.61313"/>
    <path d="M486.313 286.434L484.219 286.283C483.219 286.211 482.35 286.964 482.278 287.964L482.001 291.812C481.929 292.812 482.682 293.681 483.682 293.753L485.776 293.903C486.776 293.975 487.645 293.223 487.717 292.222L487.993 288.374C488.065 287.374 487.313 286.505 486.313 286.434Z" fill="#FEFEFE" stroke="#29584E" stroke-width="1.00046" stroke-miterlimit="2.61313"/>
    <path fill-rule="evenodd" clip-rule="evenodd" d="M526.657 232.451L526.86 230.574C510.603 230.54 494.346 230.506 478.089 230.472C474.534 230.813 472.682 233.125 472.723 237.537C471.531 263.829 470.338 290.122 469.146 316.416C469.195 319.332 470.962 320.972 474.333 321.424L507.709 321.779L507.969 320.917C497.205 320.788 486.44 320.659 475.675 320.529C472.25 320.008 470.501 318.271 470.4 315.342C471.771 289.795 473.142 264.248 474.513 238.699C474.555 235.249 475.966 233.587 479.163 233.423L526.659 232.451H526.657Z" fill="#29584E"/>
    <path fill-rule="evenodd" clip-rule="evenodd" d="M469.161 316.782C469.348 319.469 471.106 320.991 474.332 321.424L507.708 321.779L507.969 320.918L475.674 320.529C473.794 320.243 472.418 319.591 471.544 318.576C470.43 318.34 469.6 317.66 469.161 316.782Z" fill="#FEFEFE"/>
    <path fill-rule="evenodd" clip-rule="evenodd" d="M340.32 142.523C340.861 143.425 341.319 144.493 341.653 145.805C342.516 149.196 341.927 148.083 342.303 151.692C342.578 154.317 345.458 158.367 346.893 159.714C346.616 159.893 345.673 162.063 343.95 163.36C344.442 167.446 341.831 175.972 336.636 176.544C333.954 176.839 331.669 177.209 330.468 180.109C330.226 180.693 330.126 181.761 329.991 182.555C329.929 182.916 331.87 189.848 330.106 189.129L316.343 183.517C315.986 183.371 317.178 177.619 314.273 174.888C310.162 171.024 319.136 161.602 316.994 156.407C313.507 147.948 321.97 148.939 328.134 144.795C334.523 140.5 336.487 136.123 340.32 142.522V142.523Z" fill="#FEFEFE" stroke="#373435" stroke-width="1.00046" stroke-miterlimit="2.61313"/>
    <path fill-rule="evenodd" clip-rule="evenodd" d="M339.446 154.447C339.238 153.41 336.328 151.585 335.365 155.445C335.267 155.841 336.289 156.036 336.34 155.811C336.705 154.226 338.055 154.431 339.449 154.882C339.607 154.933 339.527 154.517 339.446 154.447Z" fill="#FEFEFE"/>
    <path fill-rule="evenodd" clip-rule="evenodd" d="M304.351 180.161C292.529 181.974 287.92 177.684 291.061 166.838C283.127 167.277 282.249 163.058 284.984 156.453C275.49 150.224 286.661 130.77 298.504 130.386C293.985 120.055 309.487 113.429 315.92 120.837C319.059 116.591 330.489 114.949 330.675 121.181C337.76 117.696 344.756 124.185 343.605 131.193C353.715 135.45 342.715 150.701 331.854 145.616C330.426 149.462 328.028 151.205 324.433 150.359C323.033 154.021 320.43 154.799 316.534 152.481C318.896 153.722 320.256 155.439 319.846 157.994C323.52 161.455 322.883 164.619 319.33 167.585C320.784 173.243 318.943 175.729 314.671 175.869C310.353 182.009 306.693 184.615 304.35 180.162L304.351 180.161Z" fill="#373435" stroke="#373435" stroke-width="1.33364" stroke-miterlimit="2.61313"/>
    <path fill-rule="evenodd" clip-rule="evenodd" d="M344.19 320.411C327.915 316.856 311.642 313.3 295.367 309.745C294.211 321.37 294.941 333.816 293.785 345.441C292.485 358.504 285.232 369.797 287.995 383.811C292.896 384.797 297.797 385.783 302.698 386.768C304.199 380.385 304.596 373.572 303.848 366.316C308.886 353.995 313.924 341.674 318.962 329.354C319.274 340.329 322.173 351.54 319.899 362.283C317.787 372.266 317.677 381.613 320.688 389.972C326.438 391.505 332.187 393.039 337.937 394.572C338.697 385.559 334.865 377.203 335.625 368.191C336.95 352.484 344.366 340.336 344.191 320.412L344.19 320.411Z" fill="#FEFEFE" stroke="#373435" stroke-width="1.33364" stroke-miterlimit="2.61313"/>
    <path d="M319.034 329.978C318.415 325.798 317.248 321.655 316.885 317.189" stroke="#373435" stroke-width="1.33364" stroke-miterlimit="2.61313"/>
    <path d="M52.8848 195.385L53.2397 209.367L375.89 260.625" stroke="#29584E" stroke-width="1.33364" stroke-miterlimit="2.61313"/>
    <path fill-rule="evenodd" clip-rule="evenodd" d="M330.601 189.073C325.849 187.221 321.096 185.369 316.343 183.518C311.244 193.801 307.865 203.286 307.56 213.568C307.188 226.108 315.598 246.199 312.839 254.323C309.01 265.597 304.441 271.337 300.74 282.147C297.889 290.473 296.02 300.705 294.643 309.4C309.511 316.53 326.046 320.161 344.19 320.411C344.898 308.267 347.818 296.861 348.526 284.717C349.245 272.397 347.59 259.775 347.657 247.238C347.678 243.085 347.377 238.554 347.914 234.432C348.296 231.493 348.864 228.893 349.695 226.036C351.479 226.717 353.261 227.399 355.043 228.08C356.931 221.789 358.081 216.173 359.968 209.881C353.099 206.263 346.968 201.97 340.1 198.352C338.809 194.606 335.66 191.507 330.601 189.072V189.073Z" fill="#85BBB6" stroke="#373435" stroke-width="1.33364" stroke-miterlimit="2.61313"/>
    <path fill-rule="evenodd" clip-rule="evenodd" d="M327.395 319.146C328.481 319.299 329.573 319.437 330.672 319.563C331.697 314.86 332.431 311.605 333.108 308.602C339.758 279.079 341.501 271.339 330.113 238.645C327.653 231.583 327.189 225.686 327.821 221.046C328.616 215.222 331.051 211.552 333.285 210.194C335.252 208.999 339.331 210.95 345.655 213.976C348.985 215.569 352.859 217.422 357.331 219.222L357.644 218.44C358.014 216.993 358.386 215.542 358.782 214.07C354.59 212.362 351.026 210.656 347.946 209.183C340.048 205.405 334.953 202.969 330.534 205.653C327.181 207.691 323.586 212.734 322.55 220.338C321.818 225.71 322.325 232.451 325.092 240.396C335.98 271.652 334.306 279.084 327.92 307.436C327.065 311.231 326.134 315.363 325.404 318.716L327.396 319.146H327.395Z" fill="#FEFEFE"/>
    <path d="M349.694 226.036C345.82 224.376 341.947 222.716 338.073 221.054C336.611 220.634 335.594 220.787 335.203 221.744" stroke="#373435" stroke-width="1.33364" stroke-miterlimit="2.61313"/>
    <path d="M340.1 198.353C335.757 196.39 331.968 195.35 329.004 195.683" stroke="#373435" stroke-width="1.33364" stroke-miterlimit="2.61313"/>
    <path fill-rule="evenodd" clip-rule="evenodd" d="M330.601 189.073C325.849 187.221 321.096 185.369 316.343 183.518C311.244 193.801 307.865 203.286 307.56 213.568C307.188 226.108 315.598 246.199 312.839 254.323C309.01 265.597 304.441 271.337 300.74 282.147C297.889 290.473 296.02 300.705 294.643 309.4C309.511 316.53 326.046 320.161 344.19 320.411C344.898 308.267 347.818 296.861 348.526 284.717C349.245 272.397 347.59 259.775 347.657 247.238C347.678 243.085 347.377 238.554 347.914 234.432C348.296 231.493 348.864 228.893 349.695 226.036C351.479 226.717 353.261 227.399 355.043 228.08C356.931 221.789 358.081 216.173 359.968 209.881C353.099 206.263 346.968 201.97 340.1 198.352C338.809 194.606 335.66 191.507 330.601 189.072V189.073Z" stroke="#373435" stroke-width="1.33364" stroke-miterlimit="2.61313"/>
    <path fill-rule="evenodd" clip-rule="evenodd" d="M289.841 412.137C291.034 407.203 289.234 396.691 285.563 382.697C291.686 383.85 297.809 385.004 303.931 386.157C303.53 395.703 301.557 408.334 304.175 417.754C306.567 426.366 314.37 435.229 318.966 440.255C319.871 442 319.758 442.998 318.148 442.897C310.216 442.053 303.603 439.758 299.025 435.223C297.311 433.401 295.831 433.124 294.621 434.657C294.307 436.167 293.993 437.676 293.678 439.186C293.133 439.165 292.587 439.144 292.042 439.123C290.343 434.594 288.645 430.065 286.947 425.536C286.871 421.416 288.382 416.768 289.841 412.137Z" fill="#F6EEF6" stroke="#373435" stroke-width="1.33364" stroke-miterlimit="2.61313"/>
    <path fill-rule="evenodd" clip-rule="evenodd" d="M320.687 389.971C326.486 391.063 332.285 392.156 338.084 393.248C337.704 402.29 338.993 410.776 341.472 419.698C343.738 427.854 354.274 436.375 358.627 441.135C359.484 442.788 359.377 443.732 357.852 443.638C350.34 442.838 344.076 440.665 339.741 436.368C338.119 434.642 336.716 434.38 335.571 435.832C335.272 437.262 334.02 437.793 333.723 439.223C333.206 439.203 332.69 439.183 332.173 439.163C330.917 435.813 330.704 430.461 329.359 424.501C327.896 418.022 324.67 410.552 322.958 403.887C321.583 398.53 320.67 393.697 320.688 389.969L320.687 389.971Z" fill="#F6EEF6" stroke="#373435" stroke-width="1.33364" stroke-miterlimit="2.61313"/>
    <path fill-rule="evenodd" clip-rule="evenodd" d="M557.44 248.705C554.876 251.909 552.367 254.402 552.712 258.161C553.059 261.935 541.562 263.087 550.151 267.229C550.272 268.82 551.912 274.947 552.199 276.085C552.486 277.222 553.398 281.586 557.547 281.228C559.846 281.029 565.563 280.7 566.283 283.782C566.478 284.615 566.04 285.829 566.413 286.06C568.338 285.785 579.817 283.744 582.792 283.423C582.933 283.408 582.6 279.938 583.482 277.078C584.905 272.468 586.774 266.695 587.706 261.982C589.223 254.307 570.95 249.388 565.091 246.939C563.608 246.319 559.356 248.225 557.439 248.705H557.44Z" fill="#FEFEFE" stroke="#373435" stroke-width="1.00046" stroke-miterlimit="2.61313"/>
    <path fill-rule="evenodd" clip-rule="evenodd" d="M561.77 228.701C565.002 235.191 579.792 231.387 587.312 237.087C590.474 239.484 593.976 243.838 595.527 249.496C596.91 254.543 595.514 260.549 596.563 264.246C597.977 269.226 597.616 268.284 600.167 270.145C600.556 270.428 599.082 274.155 596.309 275.484C593.671 276.749 589.736 275.617 589.773 276.092C590.103 280.281 583.153 280.469 583.244 277.988C582.259 277.684 581.228 276.006 580.039 274.97C579.84 274.796 579.626 274.225 579.449 274.426C578.759 275.209 577.787 276.727 577.612 277.6C575.915 276.986 573.096 274.411 571.46 271.433C571.728 270.673 574.408 270.631 576.71 270.378C576.882 270.359 582.647 262.648 578.926 259.469C574.179 255.844 571 260.094 570.255 263.414C561.943 263.793 558.616 255.295 559.023 248.606C555.92 249.592 551.65 247.224 553.298 244.646C551.943 243.391 551.764 241.383 552.034 238.872C552.087 238.381 555.736 230.151 561.769 228.7L561.77 228.701Z" fill="#373435"/>
    <path fill-rule="evenodd" clip-rule="evenodd" d="M567.833 289.991C567.359 288.681 566.886 287.371 566.413 286.061C571.872 285.182 577.333 284.302 582.792 283.424C599.679 300.153 612.623 322.506 607.107 371.18C600.294 365.908 589.601 361.082 572.024 357.053C572.368 336.731 570.331 331.32 565.039 311.725C560.382 312.087 555.724 312.449 551.067 312.811C549.773 307.068 548.48 301.324 547.186 295.58C554.069 293.717 560.951 291.854 567.833 289.991Z" fill="#373435" stroke="#373435" stroke-width="0.666346" stroke-miterlimit="2.61313"/>
    <path d="M548.44 301.623L568.926 296.134C580.202 292.716 586.373 299.913 589.787 311.182C593.293 322.754 593.74 338.86 594.076 350.965C594.221 356.175 594.328 360.851 594.679 363.803L589.175 361.665C588.813 358.626 588.913 356.534 588.764 351.111C588.437 339.34 588.002 323.678 584.683 312.724C582.16 304.396 577.893 298.987 570.467 301.237L549.815 306.769L548.44 301.624V301.623Z" fill="#FEFEFE"/>
    <path fill-rule="evenodd" clip-rule="evenodd" d="M604.572 419.84C603.201 413.638 601.831 407.436 600.46 401.234C603.787 399.091 607.114 396.947 610.441 394.803C611.149 394.494 612.184 394.145 612.677 394.642C615.652 399.142 615.742 399.772 617.891 405.297C618.421 406.712 619.781 415.138 620.358 416.581C623.06 423.343 626.144 428.3 624.591 432.567C622.531 434.86 618.205 436.007 617.135 433.401C613.939 425.626 611.049 421.808 604.572 419.84V419.84Z" fill="#FEFEFE" stroke="#373435" stroke-width="1.00046" stroke-miterlimit="2.61313"/>
    <path fill-rule="evenodd" clip-rule="evenodd" d="M606.81 410.487L605.781 414.336L608.376 415.532L611.662 418.054L612.711 419.31L614.61 413.73L612.804 408.898L611.693 404.236L611.311 402.902L608.706 406.242L606.81 410.487Z" fill="#85BBB6"/>
    <path d="M607.572 396.653C612.302 400.972 611.71 407.359 613.948 412.282C618.463 422.21 622.721 430.503 622.42 434.182" stroke="#373435" stroke-width="1.00046" stroke-miterlimit="2.61313"/>
    <path d="M615.434 429.613C615.605 421.718 612.403 415.833 603.178 413.538" stroke="#373435" stroke-width="1.00046" stroke-miterlimit="2.61313"/>
    <path d="M605.781 414.337C606.894 408.986 608.799 405.306 611.311 402.902" stroke="#373435" stroke-width="1.00046" stroke-miterlimit="2.61313"/>
    <path d="M612.554 419.098C613.359 417.028 614.059 415.36 614.699 413.926" stroke="#373435" stroke-width="1.00046" stroke-miterlimit="2.61313"/>
    <path fill-rule="evenodd" clip-rule="evenodd" d="M560.184 292.767C554.095 294.076 548.006 295.385 541.917 296.693C536.765 293.781 531.613 290.869 526.462 287.956C525.298 287.97 524.134 287.985 522.971 287.999C520.956 286.991 518.94 285.984 516.924 284.976C518.427 277.731 520.161 270.53 521.432 263.241C521.73 261.53 523.058 260.033 524.334 261.856C525.416 263.403 525.471 265.364 526.427 266.804C527.499 268.418 529.454 269.51 530.295 271.223C531.835 274.362 531.325 278.161 533.276 281.527C542.245 285.273 551.215 289.02 560.185 292.766L560.184 292.767Z" fill="#FEFEFE" stroke="#373435" stroke-width="1.00046" stroke-miterlimit="2.61313"/>
    <path d="M521.432 263.241C521.112 266.115 521.97 269.215 524.035 272.543C523.815 275.584 524.154 278.514 526.206 281.101" stroke="#373435" stroke-width="1.00046" stroke-miterlimit="2.61313"/>
    <path fill-rule="evenodd" clip-rule="evenodd" d="M572.025 357.052C586.195 358.708 597.701 364.274 607.108 371.179C597.616 387.862 586.095 401.324 572.491 411.477C584.432 407.789 591.92 403.662 600.842 400.988C602.334 408.013 602.849 413.853 605.638 420.417C601.891 420.079 592.296 421.417 588.552 421.806C577.215 422.987 564.787 428.432 553.358 427.165C552.693 423.779 552.028 420.393 551.362 417.008C555.957 404.947 561.882 393.552 569.862 383.184C563.394 381.219 556.925 379.254 550.456 377.289C550.759 378.832 549.485 379.646 546.647 379.738C549.594 390.764 548.916 399.341 550.502 409.006C550.939 411.672 551.151 414.069 551.589 416.736C544.424 416.192 538.394 415.647 531.231 415.103C530.938 411.079 532.459 406.965 532.166 402.943C531.727 396.89 529.392 390.816 528.504 384.785C527.584 378.537 526.157 363.275 531.267 358.549C533.37 356.604 535.203 355.837 539.21 355.615C547.7 356.456 561.15 355.78 572.025 357.051V357.052Z" fill="#FEFEFE" stroke="#373435" stroke-width="1.00046" stroke-miterlimit="2.61313"/>
    <path d="M544.742 374.841C566.208 382.011 589.554 391.337 599.458 382.921" stroke="#373435" stroke-width="1.33364" stroke-miterlimit="2.61313"/>
    <path fill-rule="evenodd" clip-rule="evenodd" d="M532.594 415.209C538.925 415.718 545.256 416.227 551.588 416.737C552.661 420.546 553.734 424.356 554.807 428.165C554.895 428.932 554.924 430.025 554.304 430.349C549.13 431.874 548.501 431.776 542.588 432.208C541.079 432.3 532.626 431.128 531.078 431.256C523.821 431.856 518.177 433.35 514.552 430.614C512.965 427.972 513.137 423.499 515.943 423.24C524.314 422.466 528.811 420.823 532.594 415.208V415.209Z" fill="#FEFEFE" stroke="#373435" stroke-width="1.00046" stroke-miterlimit="2.61313"/>
    <path fill-rule="evenodd" clip-rule="evenodd" d="M540.88 420.094L537.501 417.981L535.597 420.11L532.222 422.512L530.713 423.147L535.49 426.599L540.64 426.291L545.423 426.596L546.81 426.622L544.381 423.151L540.88 420.094Z" fill="#85BBB6"/>
    <path d="M553.881 424.88C548.365 428.135 542.432 425.695 537.069 426.391C526.253 427.795 517.075 429.433 513.647 428.065" stroke="#373435" stroke-width="1.00046" stroke-miterlimit="2.61313"/>
    <path d="M520.065 422.727C527.562 425.207 534.128 423.871 539.028 415.727" stroke="#373435" stroke-width="1.00046" stroke-miterlimit="2.61313"/>
    <path d="M537.501 417.981C542.289 420.616 545.249 423.516 546.81 426.622" stroke="#373435" stroke-width="1.00046" stroke-miterlimit="2.61313"/>
    <path d="M530.961 423.058C532.705 424.435 534.093 425.594 535.276 426.627" stroke="#373435" stroke-width="1.00046" stroke-miterlimit="2.61313"/>
    <path fill-rule="evenodd" clip-rule="evenodd" d="M23.2788 167.996C10.3437 169.228 2.03804 189.341 15.2429 195.385C77.8386 195.385 140.433 195.385 203.029 195.385C222.89 186.132 215.534 154.342 190.566 153.072C190.482 111.909 159.379 95.3396 123.979 103.051C98.8465 83.4448 54.9179 98.5483 52.1446 136.016C33.9299 140.083 22.797 147.963 23.2788 167.997V167.996Z" fill="#EAF8F8"/>
    <path fill-rule="evenodd" clip-rule="evenodd" d="M122.428 424.384C123.24 413.475 124.052 402.566 124.864 391.657C133.635 391.684 140.472 391.705 149.243 391.732C155.961 391.49 163.225 390.059 169.61 386.135C169.551 383.348 171.222 380.386 173.508 377.365C190.561 376.499 207.615 375.633 224.668 374.766C230.895 373.114 237.12 371.463 243.346 369.812C238.393 376.307 237.363 380.956 232.545 384.673C226.142 389.613 219.727 391.335 212.228 394.367C211.227 395.476 209.007 397.032 207.62 397.587C199.963 400.643 191.126 397.095 183.25 399.529C172.299 402.913 163.459 411.432 152.892 416.289C143.427 420.64 132.238 421.351 122.428 424.383V424.384Z" fill="#FEFEFE" stroke="#373435" stroke-width="1.33364" stroke-miterlimit="2.61313"/>
    <path d="M211.868 394.738C215.109 389.103 222.921 387.686 227.393 383.634C230.802 380.545 232.103 376.399 235.514 373.31" stroke="#373435" stroke-width="1.33364" stroke-miterlimit="2.61313"/>
    <path fill-rule="evenodd" clip-rule="evenodd" d="M508.873 285.471C516.308 289.968 523.743 294.467 531.178 298.965C536.513 297.837 541.85 296.708 547.185 295.579C548.479 301.323 549.772 307.066 551.066 312.811C543.592 312.965 536.12 313.118 528.647 313.272L502.433 294.56L502.42 294.55C501.973 294.231 500.521 292.96 499.714 292.307C498.164 290.998 496.533 289.656 494.404 289.667C490.373 289.035 487.039 286.539 483.372 284.964C480.489 284.43 477.595 283.872 474.792 282.98C472.841 283.151 470.943 280.103 473.78 280.089C476.334 280.564 478.908 281.017 481.519 280.952C484.255 280.811 480.542 279.369 479.645 278.97C477.228 278.18 474.711 277.71 472.292 276.907C469.694 276.794 470.434 272.815 472.859 274.074C475.644 274.802 478.51 275.168 481.26 276.033C482.63 276.671 482.877 275.736 481.483 275.432C478.65 273.983 475.485 273.504 472.437 272.689C469.888 272.849 469.768 269.053 472.435 269.507C475.887 269.89 479.376 270.464 482.636 271.635C482.503 270.324 479.456 269.816 478.111 268.997C476.728 268.223 473.35 267.494 474.631 265.329C476.225 263.962 478.421 265.619 480.151 265.968C483.154 266.598 485.657 268.417 488.147 270.101C488.752 269.582 487.054 266.246 488.727 265.03C490.302 263.167 491.417 265.458 490.923 267.071C491.49 269.036 493.307 270.323 494.551 271.874C497.301 274.16 498.492 277.675 500.921 280.235C503.321 282.322 508.872 285.471 508.872 285.471H508.873Z" fill="#FEFEFE" stroke="#373435" stroke-width="1.00046" stroke-miterlimit="2.61313"/>
    <path fill-rule="evenodd" clip-rule="evenodd" d="M71.8917 211.24C66.0063 220.767 59.5312 227.988 50.9709 235.435C-6.00921 285.004 -6.44366 335.778 11.329 397.784C14.3229 408.23 6.27938 437.784 4.86056 449.063C44.4504 464.282 84.0412 479.5 123.632 494.719C123.498 477.921 120.147 461.263 121.689 446.209C128.74 377.395 124.123 329.716 107.286 298.362C101.65 287.868 99.6293 279.788 98.7642 268.954C96.5257 240.943 107.423 245.435 118.008 252.214C129.373 260.147 140.266 261.632 148.445 253.537C153.21 248.82 156.385 242.73 160.355 237.326C163.902 240.135 168.267 240.499 173.588 237.988C173.29 229.869 170.499 222.167 174.555 216.027C181.431 205.621 188.706 199.736 190.927 179.622C166.069 172.83 141.212 166.039 116.353 159.247C104.884 171.292 93.4145 183.338 81.9456 195.384C78.4965 201.017 75.0464 206.649 71.8917 211.239V211.24Z" fill="#FEFEFE" stroke="#373435" stroke-width="1.33364" stroke-miterlimit="2.61313"/>
    <path fill-rule="evenodd" clip-rule="evenodd" d="M41.289 244.405C40.1295 245.552 39.0022 246.699 37.9005 247.848L35.5806 251.854C49.3561 259.836 61.0512 269.091 71.4023 279.166C81.7789 289.267 90.8645 300.263 99.369 311.661L105.207 319.485L107.626 310.021C108.155 307.955 108.596 304.967 108.896 301.49C108.371 300.43 107.835 299.387 107.284 298.362C103.121 290.611 100.931 284.176 99.722 276.977L99.0509 277.084C99.8337 281.917 100.101 287.692 100.012 293.086C99.9889 294.436 99.9444 295.758 99.8801 297.031C93.1333 288.54 85.9124 280.303 77.8907 272.495C67.2812 262.169 55.3211 252.658 41.288 244.406L41.289 244.405Z" fill="#85BBB6"/>
    <path fill-rule="evenodd" clip-rule="evenodd" d="M63.8813 222.418C60.0726 226.999 55.8625 231.179 50.9709 235.435C49.0116 237.14 47.1243 238.847 45.2975 240.555C64.6698 254.588 81.4411 269.272 94.1243 284.977C95.2024 278.211 96.2805 271.443 97.3586 264.676L98.4859 263.61C98.3458 256.816 99.2109 252.525 100.765 250.029C89.9587 240.284 77.6029 231.103 63.8823 222.417L63.8813 222.418Z" fill="#373435"/>
    <path fill-rule="evenodd" clip-rule="evenodd" d="M177.247 210.513L163.516 200.611L152.954 214.606L167.213 224.97L177.247 210.513Z" fill="#85BBB6" stroke="#373435" stroke-width="1.00046" stroke-miterlimit="2.61313"/>
    <path fill-rule="evenodd" clip-rule="evenodd" d="M146.353 188.596L148.73 187.011L184.905 213.55L182.991 216.784L146.353 188.596Z" fill="#373435"/>
    <path d="M162.097 216.444C162.828 217.019 164.544 216.056 165.93 214.293C167.315 212.53 167.845 210.635 167.114 210.06C166.383 209.486 164.667 210.449 163.282 212.212C161.896 213.975 161.366 215.87 162.097 216.444Z" fill="#373435"/>
    <path fill-rule="evenodd" clip-rule="evenodd" d="M9.84491 289.385C23.9773 276.646 36.7202 275.832 48.1569 285.465C58.8667 296.577 55.9903 327.943 64.3253 365.628C47.4792 369.823 30.6332 374.019 13.7871 378.214C7.29122 364.507 2.87762 349.412 1.03003 332.608C1.38686 325.173 2.27753 316.028 3.88282 308.22C5.26378 301.505 8.60876 295.753 9.84586 289.385H9.84491Z" fill="#373435" stroke="#373435" stroke-width="1.33364" stroke-miterlimit="2.61313"/>
    <path fill-rule="evenodd" clip-rule="evenodd" d="M106.592 121.367C117.316 115.614 136.162 113.782 150.622 118.785C173.557 126.72 194.272 146.611 213.949 154.616C201.186 184.531 179.916 185.028 156.549 178.271C140.675 203.183 124.925 199.887 121.315 191.505C127.09 166.392 87.583 170.796 103.119 205.565C94.3941 211.67 84.4396 214.238 72.186 210.197C73.62 203.911 75.053 197.626 76.487 191.339C73.0663 179.404 76.4283 158.041 81.2782 146.768C86.4623 134.718 95.8697 127.12 106.593 121.367H106.592Z" fill="#373435"/>
    <path fill-rule="evenodd" clip-rule="evenodd" d="M132.369 375.216L179.681 362.901L265.386 360.119L266.95 364.291L224.532 376.461L131.7 380.807L132.369 375.216Z" fill="#FEFEFE" stroke="black" stroke-width="1.00046" stroke-miterlimit="2.61313"/>
    <path d="M265.386 360.119L224.011 371.767L132.369 375.216" stroke="black" stroke-width="1.00046" stroke-miterlimit="2.61313"/>
    <path fill-rule="evenodd" clip-rule="evenodd" d="M179.681 362.901L186.139 330.332C193.547 307.058 200.955 283.783 208.364 260.508C237.801 258.132 267.239 255.757 296.676 253.381C299.269 254.08 300.539 255.817 300.501 258.77C288.796 292.553 277.09 326.337 265.385 360.12L179.681 362.902V362.901Z" fill="#FEFEFE" stroke="#373435" stroke-width="1.00046" stroke-miterlimit="2.61313"/>
    <path d="M295.555 256.24L264.464 355.012" stroke="black" stroke-width="1.00046" stroke-miterlimit="2.61313"/>
    <path d="M190.864 332.264L210.589 271.169L286.912 264.547L259.638 351.868L215.829 352.694" stroke="#373435" stroke-width="1.33364" stroke-miterlimit="2.61313"/>
    <path d="M209.36 344.079L218.709 311.613L211.115 306.497L215.352 292.668" stroke="#29584E" stroke-width="1.33364" stroke-miterlimit="2.61313"/>
    <path d="M218.709 311.613L223.106 310.094L227.501 295.866" stroke="#29584E" stroke-width="1.33364" stroke-miterlimit="2.61313"/>
    <path d="M217.534 315.695L230.299 312.572L233.257 304.019" stroke="#29584E" stroke-width="1.33364" stroke-miterlimit="2.61313"/>
    <path d="M214.857 324.99L239.251 316.968L246.845 293.868" stroke="#29584E" stroke-width="1.33364" stroke-miterlimit="2.61313"/>
    <path d="M214.373 292.657C216.014 293.894 218.365 293.179 219.623 291.06C220.882 288.941 220.573 286.22 218.932 284.983C217.291 283.746 214.94 284.462 213.681 286.581C212.423 288.7 212.732 291.42 214.373 292.657Z" fill="#85BBB6" stroke="#85BBB6" stroke-width="0.624017" stroke-miterlimit="2.61313"/>
    <path d="M226.043 296.095C227.684 297.331 230.034 296.616 231.293 294.497C232.552 292.378 232.242 289.658 230.601 288.421C228.961 287.184 226.61 287.899 225.351 290.018C224.092 292.137 224.402 294.858 226.043 296.095Z" fill="#85BBB6" stroke="#85BBB6" stroke-width="0.624017" stroke-miterlimit="2.61313"/>
    <path d="M232.097 304.579C233.737 305.815 236.088 305.1 237.347 302.981C238.606 300.862 238.296 298.141 236.655 296.905C235.014 295.668 232.664 296.383 231.405 298.502C230.146 300.621 230.456 303.342 232.097 304.579Z" fill="#85BBB6" stroke="#85BBB6" stroke-width="0.624017" stroke-miterlimit="2.61313"/>
    <path d="M245.285 294.427C246.926 295.664 249.277 294.949 250.536 292.83C251.795 290.711 251.485 287.99 249.844 286.753C248.203 285.516 245.853 286.232 244.594 288.351C243.335 290.47 243.644 293.19 245.285 294.427Z" fill="#85BBB6" stroke="#85BBB6" stroke-width="0.624017" stroke-miterlimit="2.61313"/>
    <path d="M262.79 285.475C264.431 286.712 266.782 285.997 268.04 283.878C269.299 281.758 268.99 279.038 267.349 277.801C265.708 276.564 263.357 277.279 262.098 279.398C260.84 281.518 261.149 284.238 262.79 285.475Z" fill="#85BBB6"/>
    <path d="M255.437 310.654C257.077 311.891 259.428 311.176 260.687 309.057C261.946 306.938 261.636 304.217 259.995 302.98C258.354 301.743 256.004 302.459 254.745 304.578C253.486 306.697 253.796 309.417 255.437 310.654Z" fill="#85BBB6"/>
    <path d="M259.114 298.025C260.755 299.262 263.105 298.546 264.364 296.427C265.623 294.308 265.313 291.588 263.673 290.351C262.032 289.114 259.681 289.829 258.422 291.948C257.163 294.067 257.473 296.788 259.114 298.025Z" stroke="#85BBB6" stroke-width="0.624017" stroke-miterlimit="2.61313"/>
    <path d="M252.639 322.244C254.28 323.481 256.63 322.766 257.889 320.647C259.148 318.528 258.838 315.807 257.197 314.57C255.557 313.333 253.206 314.048 251.947 316.168C250.688 318.287 250.998 321.007 252.639 322.244Z" stroke="#85BBB6" stroke-width="0.624017" stroke-miterlimit="2.61313"/>
    <path d="M239.545 326.4H235.389L234.875 328.319H239.031L239.545 326.4Z" fill="#85BBB6"/>
    <path d="M246.099 326.4H241.942L241.428 328.319H245.584L246.099 326.4Z" fill="#85BBB6"/>
    <path d="M255.371 326.4H248.657L248.143 328.319H254.857L255.371 326.4Z" fill="#85BBB6"/>
    <path d="M238.024 332.076H233.868L233.354 333.994H237.51L238.024 332.076Z" fill="#85BBB6"/>
    <path d="M238.864 337.591H232.39L231.876 339.51H238.35L238.864 337.591Z" fill="#85BBB6"/>
    <path d="M242.181 332.076H240.102L239.588 333.994H241.666L242.181 332.076Z" fill="#85BBB6"/>
    <path d="M246.577 332.076H244.499L243.985 333.994H246.063L246.577 332.076Z" fill="#85BBB6"/>
    <path d="M250.573 332.076H248.495L247.981 333.994H250.059L250.573 332.076Z" fill="#85BBB6"/>
    <path d="M246.737 337.591H240.263L239.749 339.51H246.223L246.737 337.591Z" fill="#85BBB6"/>
    <path d="M251.734 337.591H248.497L247.983 339.51H251.22L251.734 337.591Z" fill="#85BBB6"/>
    <path d="M172.07 369.313L167.556 369.486L159.954 372.419L164.468 372.246L172.07 369.313Z" stroke="black" stroke-width="0.461566" stroke-miterlimit="2.61313"/>
    <path d="M178.615 369.062L174.101 369.235L166.499 372.168L171.013 371.995L178.615 369.062Z" stroke="black" stroke-width="0.461566" stroke-miterlimit="2.61313"/>
    <path d="M185.479 368.8L180.965 368.973L173.363 371.905L177.877 371.733L185.479 368.8Z" stroke="black" stroke-width="0.461566" stroke-miterlimit="2.61313"/>
    <path d="M192.343 368.537L187.829 368.709L180.227 371.642L184.741 371.469L192.343 368.537Z" stroke="black" stroke-width="0.461566" stroke-miterlimit="2.61313"/>
    <path d="M199.206 368.273L194.692 368.446L187.091 371.379L191.605 371.206L199.206 368.273Z" stroke="black" stroke-width="0.461566" stroke-miterlimit="2.61313"/>
    <path d="M206.071 368.01L201.557 368.183L193.955 371.116L198.469 370.943L206.071 368.01Z" stroke="black" stroke-width="0.461566" stroke-miterlimit="2.61313"/>
    <path d="M212.935 367.747L208.421 367.92L200.819 370.853L205.333 370.68L212.935 367.747Z" stroke="black" stroke-width="0.461566" stroke-miterlimit="2.61313"/>
    <path d="M219.799 367.484L215.285 367.657L207.683 370.59L212.197 370.417L219.799 367.484Z" stroke="black" stroke-width="0.461566" stroke-miterlimit="2.61313"/>
    <path d="M183.421 364.933L178.907 365.106L171.306 368.039L175.82 367.866L183.421 364.933Z" stroke="black" stroke-width="0.461566" stroke-miterlimit="2.61313"/>
    <path d="M189.967 364.683L185.453 364.855L177.851 367.788L182.365 367.615L189.967 364.683Z" stroke="black" stroke-width="0.461566" stroke-miterlimit="2.61313"/>
    <path d="M196.831 364.42L192.317 364.593L184.715 367.526L189.229 367.353L196.831 364.42Z" stroke="black" stroke-width="0.461566" stroke-miterlimit="2.61313"/>
    <path d="M203.695 364.157L199.181 364.33L191.579 367.263L196.093 367.09L203.695 364.157Z" stroke="black" stroke-width="0.461566" stroke-miterlimit="2.61313"/>
    <path d="M210.559 363.894L206.045 364.067L198.443 367L202.957 366.827L210.559 363.894Z" stroke="black" stroke-width="0.461566" stroke-miterlimit="2.61313"/>
    <path d="M217.423 363.631L212.909 363.804L205.307 366.737L209.821 366.564L217.423 363.631Z" stroke="black" stroke-width="0.461566" stroke-miterlimit="2.61313"/>
    <path d="M224.287 363.368L219.773 363.541L212.171 366.473L216.685 366.3L224.287 363.368Z" stroke="black" stroke-width="0.461566" stroke-miterlimit="2.61313"/>
    <path d="M231.151 363.104L226.637 363.277L219.035 366.21L223.549 366.037L231.151 363.104Z" stroke="black" stroke-width="0.461566" stroke-miterlimit="2.61313"/>
    <path fill-rule="evenodd" clip-rule="evenodd" d="M64.3244 365.629C47.1981 369.223 30.0719 372.816 12.9467 376.41C21.6915 400.431 32.7023 418.272 45.5266 431.168C46.6151 433.256 48.0538 434.181 50.2554 432.559C56.0111 429.705 61.0712 424.944 66.8506 422.175C98.997 406.769 124.794 385.295 148.588 357.732C156.207 359.461 165.307 358.229 175.153 355.507C183.072 363.558 191.619 368.318 201.022 368.581C202.565 368.469 204.141 366.882 202.83 366.078C196.074 361.93 190.955 359.008 187.329 353.319C197.578 354.393 203.147 357.106 208.195 363.416C209.267 364.755 211.312 365.618 213.26 365.939C215.487 366.306 216.512 365.669 217.016 364.131C218.676 364.274 220.108 364.155 219.798 362.045C216.623 357.02 216.139 350.6 212.287 346.606C208.181 342.349 203.678 341.213 199.023 338.345C195.599 336.236 192.888 332.199 186.14 330.333C181.294 328.992 177.165 330.906 172.141 331.265C162.779 331.933 152.377 332.403 143.024 332.975C135.68 337.378 127.501 340.114 120.157 344.517C108.941 351.243 98.5569 359.639 87.3407 366.364C80.7748 370.301 74.2069 374.239 67.6409 378.177C66.5354 373.994 65.4299 369.812 64.3253 365.629H64.3244Z" fill="#FEFEFE" stroke="#373435" stroke-width="1.33364" stroke-miterlimit="2.61313"/>
    <path d="M187.285 340.702C191.303 346.112 197.399 347.219 202.783 349.752C210.485 353.375 211.436 357.194 216.289 363.249C216.352 363.326 216.887 364.347 216.934 364.357" stroke="#373435" stroke-width="1.33364" stroke-miterlimit="2.61313"/>
    <path d="M180.638 384.247C190.476 377.359 201.147 376.663 212.625 381.962C217.624 381.233 221.314 379.325 223.969 376.487" stroke="#373435" stroke-width="1.33364" stroke-miterlimit="2.61313"/>
    <path fill-rule="evenodd" clip-rule="evenodd" d="M370.1 218.141C367.906 215.942 365.711 213.744 363.516 211.544C364.499 207.073 362.653 202.128 363.636 197.658C364.821 192.265 367.814 190.315 370.022 181.949C370.49 180.175 371.911 180.439 372.289 181.793C372.722 183.349 372.341 185.024 372.367 186.639C373.149 184.268 373.525 181.722 374.712 179.526C375.267 178.497 377.04 178.749 377.057 179.839C377.193 188.577 372.258 194.751 372.367 201.178C374.061 198.416 375.547 195.516 377.448 192.892C378.139 191.939 379.773 192.486 379.48 193.518C377.082 201.967 373.227 209.932 370.1 218.14V218.141Z" fill="#FEFEFE" stroke="#373435" stroke-width="1.00046" stroke-miterlimit="2.61313"/>
    <path d="M372.367 186.64C371.485 191.058 369.353 194.473 366.755 197.517" stroke="#373435" stroke-width="1.00046" stroke-miterlimit="2.61313"/>
    <path fill-rule="evenodd" clip-rule="evenodd" d="M354.125 227.73C356.073 221.781 358.02 215.832 359.968 209.882C362.852 211.234 365.735 212.584 368.619 213.936L386.429 187.765C384.657 183.11 384.498 176.843 386.02 172.217C385.642 168.076 385.272 161.798 387.94 162.073C390.073 161.777 388.714 166.31 389.544 166.261C390.195 163.199 390.76 160.025 392.556 157.385C393.602 155.874 394.052 153.045 396.236 152.918C398.762 153.616 396.753 156.604 396.276 158.183C395.859 159.77 393.941 162.352 394.786 163.432C396.387 160.2 398.589 157.247 400.902 154.466C402.576 152.199 405.227 155.133 403.2 156.855C401.501 159.668 399.473 162.313 398.393 165.447C397.566 166.682 398.429 167.206 398.995 165.737C400.434 163.102 402.32 160.757 403.882 158.2C404.792 155.503 408.222 157.953 406.356 159.915C405.119 162.265 403.571 164.435 402.328 166.774C401.944 167.721 400.198 171.486 402.354 169.614C404.359 167.776 405.963 165.578 407.536 163.376C409.674 161.337 410.452 164.995 408.866 166.276C407.406 168.97 405.638 171.48 403.862 173.964C402.248 177.794 401.55 182.075 398.983 185.461C398.201 187.519 397.369 188.868 397.136 189.953C390.677 203.143 383.156 215.953 374.141 228.228C371.745 231.441 368.735 233.325 364.13 231.749C360.794 230.41 357.46 229.071 354.124 227.731L354.125 227.73Z" fill="#FEFEFE" stroke="#373435" stroke-width="1.00046" stroke-miterlimit="2.61313"/>
    </svg>
    