<?xml version="1.0" encoding="UTF-8"?>
<!DOCTYPE svg PUBLIC "-//W3C//DTD SVG 1.0//EN" "http://www.w3.org/TR/2001/REC-SVG-20010904/DTD/svg10.dtd">
<!-- Creator: CorelDRAW -->
<svg xmlns="http://www.w3.org/2000/svg" xml:space="preserve" width="7.14394in" height="5.81742in" version="1.0" style="shape-rendering:geometricPrecision; text-rendering:geometricPrecision; image-rendering:optimizeQuality; fill-rule:evenodd; clip-rule:evenodd"
viewBox="0 0 7142.61 5816.34"
 xmlns:xlink="http://www.w3.org/1999/xlink"
>
 <defs>
  <style type="text/css">
   <![CDATA[
    .str5 {stroke:#373435;stroke-width:10.42;stroke-miterlimit:2.61313}
    .str3 {stroke:#FEFEFE;stroke-width:13.89;stroke-miterlimit:2.61313}
    .str0 {stroke:#373435;stroke-width:13.89;stroke-miterlimit:2.61313}
    .str4 {stroke:#FEFEFE;stroke-width:6.94;stroke-miterlimit:2.61313}
    .str1 {stroke:#373435;stroke-width:6.94;stroke-miterlimit:2.61313}
    .str2 {stroke:#FFF212;stroke-width:3;stroke-miterlimit:2.61313}
    .fil3 {fill:none}
    .fil4 {fill:#FEFEFE}
    .fil6 {fill:#373435}
    .fil5 {fill:#136868}
    .fil1 {fill:#85BBB6}
    .fil0 {fill:#D2E3E9}
    .fil2 {fill:#EAF8F8}
    .fil7 {fill:#F6EEF6}
   ]]>
  </style>
 </defs>
 <defs>
  <clipPath id="cut-off-bottom">
    <ellipse class="fil0" cx="3571.31" cy="2908.17" rx="3571.31" ry="2908.17"/>
  </clipPath>
</defs>
 <g id="Layer_x0020_1">
  <metadata id="CorelCorpID_0Corel-Layer"/>
  <ellipse class="fil0" cx="3571.31" cy="2908.17" rx="3571.31" ry="2908.17"/>
   <path class="fil2" d="M156.27 2055.11c28.52,-75.8 60.72,-150.28 96.47,-223.31l383.85 0 0 -580.94c69.59,-81.56 144.1,-160.11 223.31,-235.3l0 816.24 0 223.31 -223.31 0 -480.32 0z"/>
  <path class="fil2" d="M1126.25 5027.66c-101.49,-77.67 -197.37,-160.12 -287.16,-246.91l0 -1510.08 -811.51 0c-12.76,-83.59 -20.99,-168.33 -24.85,-253.97l1417.9 0 0 253.97 -294.37 0 0 1756.99z"/>
  <path class="fil3" d="M5522.29 5344.2c-560.86,298.47 -1230.97,472.14 -1950.98,472.14 -720.01,0 -1390.12,-173.66 -1950.98,-472.14l3901.97 0z"/>
  <path class="fil4" d="M6951.33 1967.03c37.16,88.52 69.17,178.96 95.85,271.1l-551.48 0 0 -271.1 455.62 0z"/>
  <path class="fil2" d="M7047.19 2238.13c62.3,215.13 95.43,439.43 95.43,670.04 0,1019.85 -644.81,1916.94 -1620.42,2436.08l-1905.37 -0.05 0 -425.33 600.25 0 0 -483.7 571.11 0 0 -576.94 565.29 0 0 -489.53 565.28 0 0 -524.49 576.94 0 0 -606.08 551.48 0z"/>
  <rect class="fil4" x="5918.77" y="2573.11" width="576.94" height="271.1"/>
  <rect class="fil4" x="5353.48" y="3097.61" width="565.28" height="271.1"/>
  <rect class="fil4" x="4788.19" y="3587.13" width="565.29" height="271.1"/>
  <rect class="fil4" x="4217.08" y="4164.08" width="571.11" height="271.1"/>
  <rect class="fil4" x="3616.82" y="4647.78" width="600.25" height="271.1"/>
  <g id="_2752536979280">
   <g>
    <g>
     <path class="fil5" d="M866.21 2621.34c-11.86,-27.62 -88.23,-203.93 -90.42,-208.47 -52.31,-108.07 -72.96,-193.78 -136.42,-322.81 119.31,64.04 183.29,154.02 200.89,292.84 2.04,55.43 52.29,163.14 25.95,238.44z"/>
    </g>
    <g>
     <path class="fil5" d="M881.43 2622.89c-15.49,-17.47 -30.99,-34.93 -46.49,-52.4 -15.28,-12 -40.97,-40.84 -56.57,-52.44 -93.34,-69.47 -166.78,-143.85 -246.67,-265.27 114.79,38.11 214.45,101.12 275.96,226.9 24.59,47.74 49.18,95.47 73.77,143.21z"/>
    </g>
    <g>
     <path class="fil5" d="M885.47 2537.93c15.91,-17.08 31.83,-34.17 47.75,-51.26 16.89,-10.5 43.33,-38.68 60.72,-48.61 104.13,-59.43 181.51,-130.2 256.34,-256.49 -195.53,192.26 -281.82,149.36 -364.81,356.36z"/>
    </g>
    <g>
     <path class="fil5" d="M871.24 2575.9c9.7,-34.93 23.1,-233.9 24.88,-239.68 42.27,-137.21 60.52,-244.11 111.71,-408.01 -89.71,89.3 -139.85,205.38 -157.83,377.12 -3.52,68.13 4.71,180.66 21.24,270.58z"/>
    </g>
    <g>
     <path class="fil5" d="M876.17 2627.99c5.77,-22.63 11.54,-45.26 17.3,-67.89 9.79,-17.32 19.45,-54.73 29.95,-71.78 62.84,-102.1 96.77,-201.32 101.82,-348.04 -68.66,48.14 -83.72,111.13 -111.93,178.18 -18.83,44.76 -65.54,86.7 -56.93,144.3 6.6,55.08 13.19,110.15 19.78,165.23z"/>
    </g>
    <g>
     <path class="fil5" d="M932.78 2485c117.6,-26.36 124.37,-0.83 245.44,21.04 -64.26,22.38 -67.02,17.8 -135.59,31.94 -34.76,7.16 -97.62,36.87 -130.2,48.21 -14.4,5.01 -14.25,37.84 -28.66,42.86 -5.33,0 -10.65,0 -15.98,0 -1.19,-57.95 24.57,-134.98 64.98,-144.04z"/>
    </g>
    <g>
     <path class="fil5" d="M561.83 2425.96c17.33,38.45 76.06,61.5 169.67,109.09 27.66,14.06 48.83,47.2 84.78,62.38 15.17,6.41 16.42,12.27 33.48,18.92 9.84,1.79 19.69,3.57 29.53,5.36 -51.58,-72.24 -113.27,-126.82 -184.9,-161.1 -18.53,-8.86 -37.38,-14.64 -55.95,-19.49 -25.61,-6.69 -35.69,2.04 -76.62,-15.16z"/>
    </g>
   </g>
   <polygon class="fil4" points="634.59,2600.15 1080.78,2600.15 1021.77,3016.7 693.6,3016.7 "/>
  </g>
  <g id='arrow'  clip-path="url(#cut-off-bottom)" >  
    
    <rect class="fil1" x="3140.19" y="1271.33" width="63.02" height="311.03">
      <animateTransform
      attributeName="transform"
      attributeType="XML"
      type="translate"
      values="-7000; 0"
      dur="1s"
      begin="0.6s"
      repeatCount="1"
      calcMode="spline" keySplines="0.7 0.5 0.2 1;" />


  
    </rect>
    <polygon class="fil1" points="3463.42,1271.33 4727.89,1271.33 5514.66,919.7 5467.87,807.83 5941.54,889.14 5682.04,1315.27 5638.12,1206.48 4817.34,1582.36 3463.42,1582.36 ">
    <animateTransform
      attributeName="transform"
      attributeType="XML"
      type="translate"
      values="-7000; 0"
      dur="0.9s"
      begin="0.2s"
      repeatCount="1"
      calcMode="spline" keySplines="0.7 0.5 0.5 1;" />


  
    </polygon>
    <rect class="fil1" x="3268.26" y="1271.33" width="97.58" height="311.03">
      <animateTransform
      attributeName="transform"
      attributeType="XML"
      type="translate"
      values="-7000; 0"
      dur="1s"
      begin="0.5s"
      repeatCount="1"
      calcMode="spline" keySplines="0.7 0.5 0.1 1;" />


  
    </rect>
  
  </g>

  <path class="fil6" d="M4769.07 1433.97c-141.72,-163.78 -329.38,-172.27 -573.75,11 13.44,32.38 26.88,64.77 40.33,97.15 -62.62,50.16 -122.46,75.75 -163.72,132.05l-48.91 993.45c-3.66,104.48 -7.33,208.97 -11,313.45 2.87,14.56 7.64,28.91 31.16,38.49 -0.61,39.11 -1.22,78.21 -1.83,117.32 268.73,26.37 542.48,16.29 819.38,-16.5 0.52,-30.73 2.11,-65.83 5.5,-108.15 20.46,-8.3 32.3,-31.38 38.49,-64.16 -30.41,-103.18 -39.97,-209.84 -45.83,-317.12 11.82,-84.33 14.47,-168.67 26.29,-253 11.39,-81.25 31.97,-162.5 43.36,-243.75l-32.99 -623.24c-52.55,-12.22 -105.09,-24.44 -157.64,-36.66 10.39,-13.44 20.78,-26.88 31.16,-40.33z"/>
  <path class="fil4 str1" d="M4435.58 738.17c-92.78,8.78 -185.56,17.56 -278.33,26.34 -14.35,48.87 -18.87,97.74 -5.73,146.61 -29.02,41.61 -54.06,77.53 -83.08,119.15 -4.83,6.16 4.2,10.91 7.18,10.55 76.08,-9.1 76.65,41.14 70.17,101.67 -0.4,40.79 18.88,159.32 77.89,146.61 32.45,3.44 70.63,-8.02 103.09,-4.58 0,94.32 -5.73,203.53 -5.73,297.84 93.92,-53.84 187.85,-107.69 281.77,-161.54 -9.07,-79.45 -18.14,-158.9 -27.21,-238.35 14.03,-99.23 28.06,-198.47 42.09,-297.7 -60.71,-48.87 -121.41,-97.74 -182.12,-146.61z"/>
  <ellipse class="fil6 str1" cx="4221.35" cy="914.46" rx="13.4" ry="30.16"/>
  <path class="fil3 str1" d="M4145.79 1142.49c34.18,3.44 68.35,-0.94 102.53,-11.42"/>
  <path class="fil6" d="M4403.51 897.38c-43.4,-11.31 -70.76,-44.82 -74.45,-111.11 -59.55,5.75 -119.13,18.02 -178.68,-2.29 -94.35,-59.94 -76.35,-119.88 -5.73,-179.83 21.34,-29.81 67.18,-35.13 119.12,-34.36 63.84,-38.93 133.17,-50.41 206.17,-43.53 47.13,4.6 89.93,23.27 124.85,67.58 68.63,23.75 98.61,62.53 112.25,107.67 71.21,87.26 60.93,172.37 16.04,256.57 -18.42,161.19 -65.57,229.01 -132.87,231.37 -51.1,-21.07 -79.86,-64.46 -79.03,-137.45 55.71,-42.3 83.41,-104.58 51.54,-139.74 -49.07,-54.14 -101.26,-6.95 -120.27,82.47 -16.42,-12.6 -32.84,-25.2 -49.25,-37.8 3.44,-19.85 6.87,-39.71 10.31,-59.56z"/>
  
  <path class="fil6" d="M4927.91 2133.41c37.22,49.76 85.04,102.62 130.66,148.55 46.01,46.31 97.02,85.18 144.94,129.02 104.3,-6.91 209.37,15.24 313.67,8.33 107.72,-7.14 214.68,-43.35 322.4,-50.49 1.22,-67.82 2.44,-135.65 3.66,-203.47 -69.45,1.56 -139.67,13.07 -209.12,14.63 -93.68,2.1 -183.55,-16.45 -280.3,-3.63 -22.17,-4.88 -24.44,-22 -36.66,-33 -59.01,-120.08 -180.43,-245.51 -284.12,-395.94 -49.67,-72.06 -76.88,-159.91 -137.48,-236.46l-0.48 -0.04 31.42 621.07 1.41 1.42z"/>
  <path class="fil4 str0" d="M5827.08 2346.66c2.9,-53.8 5.8,-107.6 8.7,-161.4 12.14,-7.43 24.28,-14.85 36.41,-22.28 11.77,-21.01 12.97,-54.08 35.32,-63.04 81.74,-32.78 167.09,-49.3 240.21,-99.45 45.13,20.3 3.31,67.06 -23.91,84.24 72.64,7.25 147.01,4.43 217.92,21.74 21,5.13 19.03,27.62 3.26,39.13 27.79,3.49 40.37,26.2 15.76,42.93 -11.23,4.89 -20.29,1.63 -31.52,6.52 25.23,19.15 16.24,32.86 -7.49,43.21 -15.7,6.85 -31.85,8.46 -47.94,15.48 22.17,4.46 30.2,25.74 1.61,39.66 -20.82,10.14 -43.02,19.93 -65.74,24.46 -47.17,9.42 -99.76,26.22 -147.74,29.83 -79.53,5.98 -144.42,-28.23 -234.85,-1.03z"/>
  <path class="fil3 str0" d="M6123.81 2084.72c-34.96,25.72 -69.93,43.48 -104.89,53.26 8.92,26.78 5.93,50.75 -9.78,71.73"/>
  <line class="fil3 str0" x1="6112.4" y1="2157" x2="6344.99" y2= "2145.59" />
  <line class="fil3 str0" x1="6329.23" y1="2195.04" x2="6145.54" y2= "2229.27" />
  <line class="fil3 str0" x1="6273.8" y1="2253.73" x2="6140.11" y2= "2290.68" />


  

  <g id="_2752536991136">
   <path class="fil4 str0" d="M4035.13 5322.85c88.72,61.33 190.66,85.32 312.29,53.66 3.03,56.34 2.88,112.68 -6.98,169.02 -2.86,2.68 -5.72,5.37 -8.59,8.05 0.36,16.28 0.72,32.55 1.07,48.83 -159.19,6.13 -318.92,30.51 -478.11,36.63 -54.54,2.1 -121.97,-4.39 -163.1,-11.95 0.89,-24.86 1.79,-49.72 2.68,-74.58 33.86,-49.66 112.03,-55.02 185.65,-64.93 100.08,-41.3 146.56,-97.67 155.07,-164.73z"/>
   <path class="fil7 str2" d="M3870.8 5493.4c42.16,-6.22 131.37,-56.49 156.02,-119.54 85.48,86.72 -2.87,125.98 -117.46,159.84 -13.46,-14.07 -25.1,-26.24 -38.56,-40.3z"/>
   <path class="fil7 str0" d="M4343.52 5525.67c-0.9,6.62 -1.92,13.24 -3.08,19.85 -2.86,2.68 -5.72,5.37 -8.59,8.05 0.36,16.28 0.72,32.55 1.07,48.83 -159.19,6.13 -318.92,30.51 -478.11,36.63 -54.54,2.1 -121.97,-4.39 -163.1,-11.95 0.89,-24.86 1.79,-49.72 2.68,-74.58 12.26,9.35 153.84,27.81 309.57,17.72 70.94,-4.59 154.6,-35.54 213.07,-39.98 75.73,-5.75 113.35,3.59 126.47,-4.57z"/>
   <path class="fil3 str0" d="M3863.89 5489.69c31.55,28.27 61.47,56.43 71.42,83.27"/>
   <path class="fil3 str0" d="M3907.41 5531.54c126.48,-30.59 199.7,-85.15 114.71,-162.08"/>
   <line class="fil3 str0" x1="4030" y1="5481.08" x2="3979.81" y2= "5427.09" />
   <line class="fil3 str0" x1="3989.85" y1="5504.5" x2="3937.18" y2= "5458.98" />
  </g>
  <g id="_2752536994832">
   <path class="fil4 str0" d="M5036.4 5325.17c-85.98,2.78 -174.11,15.55 -265.02,41.39 1.24,66.31 2.47,132.61 3.71,198.92 3.5,19.97 7,39.95 10.5,59.92 40.57,-0.88 158.56,13.82 233.51,11.78 60.95,-1.66 121.29,-9.51 174.21,-22.9 3.42,-22.69 0.45,-47.39 -10.72,-71.17 -28.34,-60.29 -68.42,-64.36 -88.12,-98.09 -19.35,-39.95 -38.71,-79.89 -58.07,-119.84z"/>
   <path class="fil7 str0" d="M5098.31 5450.89c-1.35,-1.86 -2.64,-3.81 -3.84,-5.88l-48.72 -100.54c-62.7,0.19 -164.6,2.47 -170.59,62.24 11.74,22.03 23.47,44.07 35.21,66.1 56.39,-35.45 118.15,-46.75 187.93,-21.92z"/>
   <path class="fil7 str0" d="M4777.68 5566.86c3.5,19.97 4.42,38.57 7.92,58.54 40.57,-0.88 158.56,13.82 233.51,11.78 60.95,-1.66 121.29,-9.51 174.21,-22.9 3.42,-22.69 -4.93,-53.61 -10.72,-58.82 -8.68,-7.81 -45.52,-25.11 -101.75,-17.53 -40.21,5.42 -78.46,28.41 -124.15,35.41 -77.34,11.86 -156.19,7.02 -179.01,-6.49z"/>
   <path class="fil3 str0" d="M5060.86 5375.66c-52.23,-4.57 -100.94,-1.67 -139.99,21.78"/>
   <path class="fil3 str0" d="M5074.97 5408.58c-52.23,-4.57 -100.94,-1.67 -139.99,21.78"/>
   <path class="fil3 str0" d="M4910.38 5472.81c-28.62,18.14 -44.68,37.86 -46.95,59.3"/>
  </g>
  <path class="fil1 str0" d="M4861.3 3097.35c-275.83,40 -549.3,54.76 -819.95,39.53 -53.33,423.44 -22.64,816.32 41.62,1197 -5.85,113.82 -24.04,229.95 -22.97,340.44 1.29,132.37 22.1,259.03 15.1,395.37 -4.44,86.59 -39.63,187.9 -44.08,274.51 127.06,57.27 235.65,74.76 316.4,32.3 3.75,-44.37 16.87,-83.55 16.65,-126.36 -1.18,-218.73 31.83,-421.08 51.94,-649.17 6.53,-74.12 -13.95,-195.81 -1.47,-268.5 24.75,-144.11 45.51,-289.58 58.24,-440.38 23.65,116.76 47.03,179.1 75.82,292.66 16.86,66.48 66.28,176.75 83.64,242.91 28.72,109.47 30.28,229.75 48.97,342.76 12.82,77.52 42.91,147.39 58.61,224.96 23.42,115.7 -9.24,228.82 31.56,367.24 88.34,-13.8 191.8,-36.59 283.72,-33.37 -15.44,-196.45 -49.49,-399.5 -54.45,-594.79 -3.16,-124.36 5.82,-244.87 -4.01,-369.97 -18.65,-237.35 -78.16,-475.98 -106.81,-714.44 -22.17,-184.55 -19.97,-379.84 -28.53,-552.7z"/>
  <polygon class="fil4 str0" points="2666.89,3603.42 2705.81,3603.42 2910.87,3583.96 2894.29,3461.79 2943.93,3426.92 2965.65,3616.39 2671.21,3641.62 "/>
  <g id="_2752536997856">
   <line class="fil3 str0" x1="2677.14" y1="3288.79" x2="2667.87" y2= "3198.46" />
   <path class="fil4 str0" d="M2678.03 3507.77c-4.38,-61.65 -8.76,-123.3 -13.14,-184.94 59.55,-15.94 119.09,-31.88 178.64,-47.81 22.94,20.67 45.89,41.33 68.83,62 3.04,25.22 13.36,49.23 36.57,71.09 10.57,9.94 6.76,6.73 -5,18.81 -31.18,32.03 -56.76,73.53 -72.72,131.25 -4.21,15.23 -1.3,19.55 -10.98,6.7 -25.82,-34.27 -23.81,-38.29 -18.27,-84.42 -54.64,9.11 -109.28,18.21 -163.93,27.32z"/>
   <path class="fil3 str0" d="M2731.09 3358.56c26.59,48.19 76.56,73 146.59,77.76"/>
   <path class="fil3 str0" d="M2874.43 3436.08c-18.11,11.15 -28.38,26.22 -32.47,44.37"/>
   <line class="fil3 str0" x1="2673.77" y1="3447.88" x2="2833.89" y2= "3430.11" />
   <path class="fil4 str0" d="M2779.01 3476.1c-6.44,26.24 8.42,51.53 14.85,63.03 6.44,11.5 50.73,13.6 39.96,-52.08 -9.23,-56.28 -51.05,-26.24 -54.81,-10.95z"/>
   <path class="fil4 str0" d="M2731.63 3481.07c-6.07,24.76 7.94,48.61 14.01,59.46 6.08,10.85 47.86,12.84 37.69,-49.13 -8.71,-53.09 -48.16,-24.76 -51.71,-10.33z"/>
   <path class="fil4 str0" d="M2689.82 3486.35c-5.54,22.57 7.23,44.31 12.77,54.2 5.53,9.89 43.63,11.7 34.36,-44.79 -7.94,-48.4 -43.91,-22.57 -47.13,-9.42z"/>
  </g>
  <path class="fil3 str0" d="M4147.04 3141.31c-30.45,68.33 -71.04,112.67 -120.46,136.14"/>
  <g id="_2752536998864">
   <rect class="fil6 str0" transform="matrix(0.996226 -0.0868021 0.0868021 0.996226 2265.4 3668.18)" width="1114.79" height="781.8" rx="61.86" ry="61.86"/>
   <polygon class="fil4 str0" points="3085.1,3725.82 3082.57,3578.91 3173.76,3570.93 3173.76,3718.34 "/>
   <ellipse class="fil4 str0" cx="3129.09" cy="3673.07" rx="24.14" ry="26.92"/>
   <line class="fil3 str3" x1="3337.23" y1="3587.85" x2="3404.95" y2= "4288.3" />
  </g>
  <g id="_2752536998144">
   <path class="fil6 str0" d="M2844.38 5463.15c0.7,3.59 1.41,7.17 2.11,10.76 12.6,60.58 37.65,111.81 75.54,153.42 48.2,-12.64 96.41,-25.29 144.61,-37.93 -4.54,-13.04 -27.05,-35.87 -13.63,-39.11 57.61,-13.93 120.29,13.69 177.81,-0.59 103.28,-25.66 197.96,-78.23 296.93,-117.35 -22.14,-129.01 -120.4,-86.98 -232.35,-78.43 -51.15,3.9 -104.22,-4.79 -155.86,-30.04 -98.39,46.43 -196.77,92.85 -295.16,139.28z"/>
   <path class="fil3 str4" d="M2891.8 5549.68c47.03,-20.26 82.84,-39.17 132,-46.76 70.29,-10.84 154.28,-1.39 221.53,-18.48 83.86,-21.31 174.26,-53.91 240.94,-85.9"/>
   <path class="fil3 str4" d="M3078.49 5393.81c76.82,28.2 157.63,74.93 209.81,-11.86"/>
   <line class="fil3 str4" x1="3155.8" y1="5387.73" x2="3197.95" y2= "5347.72" />
   <line class="fil3 str4" x1="3210.92" y1="5394.25" x2="3253.07" y2= "5354.24" />
  </g>
  <g id="_2752537006880">
   <path class="fil6 str0" d="M1486.75 5311.16c-1.12,3.48 -2.23,6.96 -3.35,10.44 -18.22,59.13 -21.01,116.09 -7.92,170.82 48.32,12.2 96.64,24.4 144.96,36.6 2.31,-13.61 -6.37,-44.47 6.95,-40.83 57.17,15.62 98.73,70.07 155.99,85.33 102.84,27.4 211.13,27.07 316.69,40.6 42.91,-123.66 -63.44,-134.3 -165.6,-180.86 -46.68,-21.28 -88.96,-54.52 -121.99,-101.56 -108.57,-6.85 -217.14,-13.69 -325.72,-20.54z"/>
   <path class="fil3 str4" d="M1486.5 5409.83c50.97,4.97 91.46,5.69 138.16,22.79 66.79,24.44 135.78,73.27 202.92,90.78 83.73,21.82 178.63,36.93 252.47,41.11"/>
   <path class="fil3 str4" d="M1725.25 5363.47c53.66,61.78 101.86,141.73 189.46,90.92"/>
   <line class="fil3 str4" x1="1795.88" y1="5395.47" x2="1852.11" y2= "5380.79" />
   <line class="fil3 str4" x1="1841" y1="5427.8" x2="1897.23" y2= "5413.11" />
  </g>
  <polygon class="fil1 str0" points="2647.1,3212.29 2828.94,3175.27 2843.53,3275.02 2664.89,3322.83 "/>
  <path class="fil3 str0" d="M4515.82 3133.98c51.18,78.67 139.95,107.61 249.82,108.63"/>
  <path class="fil3 str0" d="M4277.71 3142.67c3.48,94.52 6.8,189 -1.93,281.78 22.83,80.3 61.08,144.24 113.24,193.48"/>
  <path class="fil3 str0" d="M4472.78 3892.1c-43.38,-141.89 -73.16,-286.93 -94.11,-433.99"/>
  <path class="fil4 str0" d="M2354 727.7c-27.94,151.2 -55.87,302.4 -83.8,453.59 1.4,30.38 2.79,60.76 4.19,91.14 94.98,50.98 189.96,101.96 284.94,152.94 4.89,-49.59 9.78,-99.17 14.67,-148.75 57.97,-79.02 122.21,-159.83 180.18,-238.85 -1.05,-6.88 -8.37,-11.97 -9.43,-18.85 26.09,-4.17 42.07,-16.24 54.47,-34.57 -25.84,-52.38 -51.68,-104.76 -77.52,-157.13 22.15,-31.79 17.54,-74.27 11.52,-117.32 -126.41,5.94 -252.81,11.87 -379.22,17.81z"/>
  <ellipse class="fil6" transform="matrix(1.30678 0.376604 -0.276921 0.960893 2675.56 907.969)" rx="12.64" ry="32.85"/>
  <path class="fil6" d="M2645.22 729.79c19.09,4.05 23.51,13.36 42.59,17.41 8.84,1.88 32.36,-1.48 41.21,0.4 26.83,-47.18 69.74,-110.37 34.46,-148.65 -7.55,-8.2 -11.71,-26.25 -28.17,-30.48 -41.49,-10.65 -80.23,-0.21 -124.66,0.41 -36.72,0.52 -79.01,-9.31 -115.23,-10.89 -89.48,-20.68 -169.62,5.32 -236.75,96.38 -57.8,53.96 -85.01,122.04 -70.19,209.51 5.75,67.06 23.03,135.17 28.77,202.23 2.63,30.7 -6.26,60.37 -3.63,91.09 10.57,9.71 33.71,14.18 44.28,23.89 6.53,6 0.51,17.25 7.05,23.26 14.99,-11.2 29.99,-22.41 44.98,-33.61 16.78,-12.54 33.56,-25.08 50.35,-37.62 6.64,-66.35 -76.48,-166.2 19.91,-199.04 50.03,-17.04 82.52,57.4 89.89,142.49 5.22,60.31 -6.84,120.21 6.48,162.36 16.2,29.07 46.65,47.06 87.99,56.57 40.85,-1.4 81.71,-2.79 122.57,-4.19 73.57,-17.62 77.67,-68.96 53.42,-134.09 9.78,-28.63 19.56,-57.27 29.33,-85.9 -5.24,-11.18 -10.47,-22.35 -15.71,-33.52 -63.46,17.6 -109.74,47.34 -125.71,98.47 -34.22,-18.16 -68.44,-36.32 -102.66,-54.47 2.94,-76.11 -11.32,-153.65 -41.91,-232.56 77.62,-8.95 131.19,-49.02 161.32,-119.42z"/>
  <path class="fil3 str5" d="M2647.39 1135.59c45.21,-2.17 75.76,-13.27 95.14,-31.15"/>
  <path class="fil7 str0" d="M2402.73 1515.56c-44.74,-57.34 -121.14,-127.96 -177.06,-174.5 -39.41,61.92 -44.2,88.49 -118.21,185.76 -74.01,97.27 -137.83,279.61 -138.48,432.33 -1.76,88 8.49,180.36 6.73,268.34 -3.12,156.32 -18.25,308.27 -21.37,464.59 -20.45,109.62 -59.45,214.89 -79.89,324.51 -14.83,79.51 -11.11,163.4 -25.94,242.92 29.27,10.51 58.54,21.02 87.81,31.53 -45.86,142.73 -56.8,288.73 -76.47,433.64 -23.11,170.32 -28.76,341.75 -51.88,512.07 -64.92,215.8 -163.68,402.14 -228.59,617.94 -43.91,145.97 -53.99,321.41 -97.91,467.38 114.84,7.37 229.67,14.75 344.51,22.12 4.04,-46.61 11.69,-104.19 17.39,-141.66 5.23,-34.37 7.28,-49.23 36.65,-78.61 30.47,-91.04 51.13,-191.91 81.6,-282.94 29.57,-88.34 68.97,-166.87 98.54,-255.21 100.1,-162.24 174.83,-358.91 234.18,-576.44 56.29,90.82 112.59,181.64 168.88,272.46 77.47,118.81 69.42,251.53 83.32,387.29 8.77,85.74 58.54,162.12 87.81,243.19 35.49,95.42 44.8,198.48 80.29,293.89 34.3,92.22 80.62,186.63 129.12,269.04 106.58,-51.04 213.16,-102.08 319.74,-153.12 -57.1,-91.7 -111.09,-239.72 -154.65,-393 -23.54,-82.85 -54.48,-148.11 -79.52,-239.73 4.28,-61.87 5.91,-111.29 1.4,-161.12 -6.01,-66.38 -29.88,-133.99 -40.17,-219.3 -22.06,-91.6 -93.24,-231.23 -115.29,-322.83 -46.99,-195.11 -60.15,-409.88 -107.14,-604.99 3,-30.77 6,-61.54 9.01,-92.32 60.04,0.92 77.51,-31.92 76.56,-81.06 33.77,-7.51 67.55,-15.01 101.32,-22.52l-67.55 -312.99 6.75 -448.09c-40.63,-272.02 -102.31,-537.96 -391.5,-908.57z"/>
  <path class="fil3 str0" d="M2929.34 4689.36c-41.41,121.09 -67.63,268.02 -87.3,426.09"/>
  <line class="fil3 str0" x1="2055.12" y1="4600.52" x2="1800.57" y2= "4917.13" />
  <line class="fil3 str0" x1="1858.12" y1="5150.6" x2="1717.89" y2= "5240.97" />
  <path class="fil3 str0" d="M2294.35 4009.34c-118.78,-197.77 -219.81,-398.88 -306.98,-602.58"/>
  <path class="fil3 str0" d="M1936.33 3291.05c236.29,70.08 470.04,79.31 700.03,-1.82 55.08,-140.05 81.72,-291.47 105.14,-444.19"/>
  <line class="fil3 str0" x1="2753.71" y1="3207.73" x2="2759.23" y2= "2857.43" />
  <path class="fil3 str5" d="M2019.22 2324.47c78.11,76.32 170.04,141.59 279.17,193.09"/>
  <path class="fil3 str0" d="M2186.11 1409.19c89.85,104.47 148.46,206.71 194.87,308.08 57.24,4.12 114.47,8.24 171.71,12.36 -29.71,36.59 -59.41,73.19 -89.12,109.78 116.74,152.51 193.39,313.46 251.17,490.8"/>
  <path class="fil1 str0" d="M2752.19 2201.05c-105.77,-365.39 -280.19,-653.27 -526.52,-859.98 -7.4,-33.48 -1.12,-65.81 10.51,-95.93 130.98,76.12 262.82,144.38 393.79,220.51 -8.21,54.85 -16.42,109.71 -24.63,164.56 108.03,206.4 137.48,391.36 146.85,570.85z"/>
  <polyline class="fil3 str0" points="2293.26,1401.53 2535.94,1639.16 2594.16,1505.94 "/>

  
    <g>

    <path class="fil4 str0" d="M3584.01 2816.44c-43.29,35.82 -90.07,45.87 -140.73,27.27 -18.93,-12.68 -37.86,-25.37 -56.8,-38.05 -64.62,30.78 -128.04,49.01 -185.28,1.66 -33.82,47.61 -67.64,95.21 -101.47,142.82 27.41,10.3 65.3,32.18 91.05,54.06 12.1,10.28 10.44,32.16 22.54,42.44 68.2,62.13 136.39,124.26 204.58,186.39 31.79,10.98 45.61,-7.11 47.98,-31.43 30.85,18.3 54.99,12.58 71.13,-17.65 52.36,43.72 85.68,-0.53 48.53,-52.39 28.34,-68.69 54.74,-138.29 110.84,-194.11 -37.46,-40.34 -74.92,-80.68 -112.38,-121.02z"/>
    <line class="fil3 str0" x1="3585.55" y1="3131.56" x2="3514.6" y2= "3014.27" />

    <path class="fil3 str0" d="M3552.47 3019.07c-67.39,-4.12 -115.33,-27.68 -140.06,-74.45 -25.37,80.1 -65.24,116.03 -122.97,97.61 34.4,-45.85 50.91,-100.65 61.76,-158.27 37.39,-2.03 67.24,-16.14 89.93,-41.7"/>
    <line class="fil3 str0" x1="3537.03" y1="3183.95" x2="3492.36" y2= "3129.91" />
    <path class="fil4 str0" d="M3391.72 3177.88c-27.02,0 -48.04,20.45 -57.67,29.45 -9.63,8.99 -1.12,52.51 60.1,26.39 52.45,-22.38 13.32,-55.84 -2.43,-55.84z"/>
    <path class="fil4 str0" d="M3355.53 3134.02c-27.02,0 -48.04,20.45 -57.67,29.45 -9.63,8.99 -1.12,52.51 60.1,26.39 52.45,-22.38 13.32,-55.84 -2.43,-55.84z"/>
    <path class="fil4 str0" d="M3302.08 3096.85c-27.02,0 -49.14,25.97 -58.77,34.96 -9.63,8.99 0.67,56.35 60.1,26.39 68.44,-34.51 14.42,-61.35 -1.33,-61.35z"/>
    <path class="fil4 str0" d="M3247.03 3057.22c-25.72,8.31 -47.29,38.16 -53.69,49.68 -6.4,11.52 22.94,46.37 73.18,2.7 43.03,-37.41 -4.5,-57.23 -19.48,-52.38z"/>
    <animateTransform attributeName="transform" attributeType="XML" type="translate"  values="0; 20 -20; 0;" dur="2s" repeatCount="indefinite" />


    </g>
    <g id="hand_move">

      <g style=""> 
      <path class="fil6"  d="M4071.93 1674.16c-60.9,83.07 -90.01,200.65 -98.41,298.72 -23.22,160.7 -46.44,321.4 -69.66,482.1 -89.7,95.56 -179.42,191.11 -269.12,286.67 -22.72,24.2 -45.44,48.41 -68.17,72.61 44,50.1 87.99,100.21 131.98,150.31 78.02,-71.41 162.93,-136.7 240.95,-208.11 30.12,-27.57 53.38,-61.27 83.5,-88.85l3.03 -3.33 48.88 -988.8 -3 -1.32z" style="transform-origin: 4000px 1850px;">
      
    
     
    </path>  
    <animateTransform attributeName="transform" attributeType="XML" type="translate" values="0;20, -30;0" dur="2s" fill="freeze" repeatCount="indefinite"/>
  </g>

    <g style="transform-origin: 2300px 1850px;">
      <polygon class="fil1 str0" points="2975.56,2945.9 3134.55,2740 3214.81,2795.68 3063.42,3004.34 "/>
      <path class="fil7 str0" d="M2794.23 2424.14c104.26,122.78 221.75,228.7 358.02,310.74 -60.8,80.31 -121.6,160.62 -182.39,240.93 -60.8,-34.53 -121.59,-69.05 -182.39,-103.58 -290.31,-204.15 -906.55,-640.7 -741.77,-1045.07 31.8,-72.14 60.08,-83.73 63.08,-90.11 228.85,-133.7 322.82,143.94 424,395.38 94.25,96.53 180.88,194.12 261.45,291.71z"/>
      <path class="fil3 str0" d="M2249.53 1866.17c215.6,185.99 391.14,371.98 544.7,557.97 -92.15,-60.47 -193.92,-113.25 -301.59,-161.32"/>
      <circle class="fil0 str0" cx="2953.47" cy="2866.15" r="25.51"/>
      <animateTransform attributeName="transform" attributeType="XML" type="rotate" values="-1;-2;-1;" dur="2s" repeatCount="indefinite"/>
    </g>
  </g>
 </g>
</svg>
