<?xml version="1.0" encoding="UTF-8" standalone="no"?>
<!-- Creator: CorelDRAW -->

<svg xml:space="preserve" width="7.60997in" height="6.82376in" version="1.0" style="shape-rendering:geometricPrecision; text-rendering:geometricPrecision; image-rendering:optimizeQuality; fill-rule:evenodd; clip-rule:evenodd" viewBox="0 0 8049.65 7218.02" id="svg74" sodipodi:docname="ContactUs.svg" inkscape:version="1.3.2 (091e20e, 2023-11-25, custom)"
       xmlns:inkscape="http://www.inkscape.org/namespaces/inkscape"
       xmlns:sodipodi="http://sodipodi.sourceforge.net/DTD/sodipodi-0.dtd"
       xmlns="http://www.w3.org/2000/svg"
       xmlns:svg="http://www.w3.org/2000/svg">
       <sodipodi:namedview id="namedview74" pagecolor="#ffffff" bordercolor="#000000" borderopacity="0.25" inkscape:showpageshadow="2" inkscape:pageopacity="0.0" inkscape:pagecheckerboard="0" inkscape:deskcolor="#d1d1d1" inkscape:document-units="in" showguides="true" inkscape:zoom="1.2532802" inkscape:cx="365.04207" inkscape:cy="327.54048" inkscape:window-width="2560" inkscape:window-height="1017" inkscape:window-x="-8" inkscape:window-y="-8" inkscape:window-maximized="1" inkscape:current-layer="Layer_x0020_1">
              <sodipodi:guide position="2356.1852,5925.6342" orientation="0,-1" id="guide74" inkscape:locked="false" />
       </sodipodi:namedview>
       <defs id="defs1">
              <style type="text/css" id="style1">
                     <![CDATA[
    .str3 {stroke:#373435;stroke-width:11.02;stroke-miterlimit:2.61313}
    .str4 {stroke:#FEFEFE;stroke-width:22.04;stroke-miterlimit:2.61313}
    .str0 {stroke:#EAF8F8;stroke-width:22.04;stroke-miterlimit:2.61313}
    .str1 {stroke:#373435;stroke-width:14.69;stroke-miterlimit:2.61313}
    .str2 {stroke:#373435;stroke-width:7.35;stroke-miterlimit:2.61313}
    .fil4 {fill:none}
    .fil3 {fill:#FEFEFE}
    .fil7 {fill:#373435}
    .fil1 {fill:#85BBB6}
    .fil0 {fill:#D2E3E9}
    .fil6 {fill:#EAF8F8}
    .fil5 {fill:#373435;fill-rule:nonzero}
    .fil2 {fill:#136868;fill-rule:nonzero}
   ]]>
              </style>
       </defs>
       <g id="Layer_x0020_1" inkscape:label="Layer 1">
              <metadata id="CorelCorpID_0Corel-Layer" />
              <ellipse class="fil0" cx="3955.54" cy="3842.88" rx="3955.54" ry="3158.4" id="ellipse1" />
              <circle class="fil1 str0" cx="6093.45" cy="1956.2" r="1945.18" id="circle1" />
              <path class="fil2" d="M4695.51 1416.8c20.97,0 40.82,6.34 55.15,19.19 13.18,11.81 21.48,28.78 21.54,50.94l0 1.83c0.4,8.45 4,16.08 9.6,21.68 5.96,5.96 14.19,9.64 23.28,9.64l64.8 0c4.96,-0.32 9.72,-1.78 13.86,-3.93 4.33,-2.25 7.75,-5.13 9.74,-8.12 2.39,-3.59 4.41,-7.4 5.81,-11.31 1.32,-3.72 2.09,-7.52 2.07,-11.3 -0.34,-54.35 -20.05,-97.61 -54.77,-127.29 -70.93,-60.64 -206.62,-64.74 -279.2,-15.69 -45.44,30.7 -88.88,102.02 -38.24,179.31 -24.31,-10.54 -39.36,-32.78 -49.12,-64.81 0.18,105.97 38.24,141.16 168.94,173.63l2.21 0.56c24.36,5.9 46.57,11.29 64.22,19.11 11.22,4.98 20.52,10.92 27.21,18.51 7.45,8.46 11.63,18.56 11.63,30.99 0,18.4 -8.66,32.92 -22.08,43.07 -13.78,10.43 -32.71,15.97 -51.88,15.97 -21.04,0 -40.95,-6.36 -55.28,-19.26 -13.16,-11.84 -21.41,-28.86 -21.42,-51.1l0 -1.53c-0.38,-8.49 -3.98,-16.14 -9.61,-21.76 -5.95,-5.95 -14.19,-9.64 -23.28,-9.64l-110 0c3.82,3.89 6.92,8.35 9.2,13.2 2.82,6 4.41,12.63 4.56,19.48l0.05 0.25c0,54.85 19.55,98.48 54.25,128.4 35.79,30.85 88.01,47.62 151.96,47.62 40.63,0 77.29,-6.57 107.93,-19.52 29.24,-12.36 53.11,-30.6 69.77,-54.56 8.77,-12.61 15.58,-26.78 20.13,-42.48 4.45,-15.34 6.8,-32.34 6.8,-50.99 0,-114.02 -105.52,-149.18 -174.44,-159.02 -119.06,-17.01 -104.58,-121.07 -15.41,-121.07z" id="path1" />
              <path class="fil2" d="M5190.42 1514.95c31.17,0 58.84,7.27 83.02,21.8 24.19,14.53 42.56,35.17 55.13,61.91 12.56,26.74 17.27,57.8 14.11,93.18 -3.16,35.38 -13.41,66.44 -30.75,93.18 -17.34,26.74 -39.4,47.38 -66.18,61.91 -26.78,14.53 -55.75,21.8 -86.91,21.8 -40.01,0 -70.74,-12.01 -92.18,-36.01l-13.65 152.89 -120.03 0c11.19,-125.32 22.43,-250.64 33.56,-375.96 2.47,-27.81 -9.31,-53.9 -43.8,-89.02 55.36,0 118.6,0 173.96,0 -6.95,7.08 -12.19,28.52 -13.2,39.9 22.28,-33.52 61.85,-45.58 106.92,-45.58zm-48.34 258.39c21.06,0 38.98,-7.27 53.75,-21.8 14.78,-14.53 23.29,-34.43 25.54,-59.7 2.26,-25.27 -2.7,-45.17 -14.88,-59.7 -12.19,-14.53 -28.8,-21.8 -49.86,-21.8 -21.06,0 -38.98,7.27 -53.75,21.8 -14.78,14.53 -23.29,34.43 -25.54,59.7 -2.26,25.27 2.7,45.17 14.89,59.7 12.18,14.53 28.8,21.8 49.86,21.8z" id="path2" />
              <path class="fil2" d="M5552.41 1514.95c56.86,0 99.09,12.95 126.68,38.85 27.59,25.9 39,65.6 34.23,119.09l-16.97 190.16 -111.82 0 3.95 -44.22c-20.24,33.27 -55.42,49.91 -105.54,49.91 -26.54,0 -49.07,-4.64 -67.62,-13.9 -18.55,-9.27 -32.07,-21.79 -40.55,-37.59 -8.49,-15.79 -11.83,-33.8 -10.02,-54.02 2.89,-32.43 17.57,-57.59 44.01,-75.49 26.45,-17.9 65.57,-26.85 117.38,-26.85l68.23 0c1.12,-36.22 -21.48,-54.33 -67.81,-54.33 -16.42,0 -33.29,2.63 -50.61,7.9 -17.32,5.27 -32.29,12.53 -44.91,21.8l-33.16 -81.5c20.08,-12.63 44.01,-22.43 71.8,-29.38 27.79,-6.95 55.37,-10.42 82.74,-10.42zm-29.23 277.98c13.9,0 26.41,-3.37 37.54,-10.11 11.13,-6.74 19.59,-16.64 25.39,-29.69l2.65 -29.69 -51.81 0c-34.96,0 -53.47,11.59 -55.54,34.74 -0.94,10.53 2.31,18.96 9.75,25.27 7.44,6.32 18.11,9.48 32.01,9.48z" id="path3" />
              <path class="fil2" d="M7133.72 1514.95c42.54,0 75.63,12.64 99.28,37.91 23.64,25.27 33.19,63.39 28.64,114.35l-17.48 195.84 -120.04 0 15.73 -176.26c4.17,-46.75 -12.49,-70.13 -49.97,-70.13 -20.64,0 -37.77,6.74 -51.4,20.22 -13.63,13.48 -21.65,33.69 -24.05,60.65l-14.78 165.52 -120.03 0 30.56 -342.42 111.22 0c5.76,0 15.46,0 28.91,0 -22,20.86 -26.47,37.73 -28.54,52.21 23.48,-29.6 61.95,-57.89 111.92,-57.89z" id="path4" />
              <polygon class="fil2" points="6712.46,1520.64 6832.49,1520.64 6801.93,1863.05 6681.89,1863.05 " id="polygon4" />
              <polygon class="fil2" points="6525.99,1394.29 6646.03,1394.29 6604.18,1863.05 6484.15,1863.05 " id="polygon5" />
              <path class="fil2" d="M6216.89 1743.02l-38.59 36.01 -7.5 84.02 -120.04 0c11.29,-126.53 22.59,-253.06 33.88,-379.59 6.26,7.71 21.23,18.13 37.53,20.65 -37.22,-53.18 -32.15,-73.91 -29.58,-109.83l120.04 0 -21.93 245.75 133.22 -119.4 142.15 0 -155.23 146.57 136.67 195.84 -145.31 0 -85.31 -120.03z" id="path5" />
              <path class="fil2" d="M5913.4 1561.71c13.61,-15.59 30.55,-27.27 50.83,-35.07 20.28,-7.79 43.06,-11.69 68.33,-11.69l-9.64 108.03c-10.84,-1.26 -19.84,-1.89 -27,-1.89 -25.69,0 -46.42,6.95 -62.19,20.84 -15.78,13.9 -24.94,35.17 -27.49,63.81l-14.04 157.3 -120.04 0c7.56,-84.68 15.16,-169.37 22.68,-254.05 3.11,-35.03 -4.93,-53.37 -35.41,-88.36 52.55,0 114.68,0 167.22,0 -8.68,9.9 -12.02,27.38 -13.24,41.07z" id="path6" />
              <path class="fil2" d="M7726.17 1520.64l-24.98 279.87c-5.68,63.6 -27.2,111.3 -64.58,143.1 -37.37,31.8 -88.49,47.7 -153.35,47.7 -33.69,0 -58.68,-2.19 -87.48,-9.8 -65.44,-17.31 -99.68,-82.35 -72.78,-144.37 21.28,25.91 65.25,42.51 95.77,52.14 20.68,6.53 41.35,9.79 61.98,9.79 31.59,0 55.38,-6.95 71.36,-20.85 15.98,-13.9 25.19,-34.54 27.64,-61.91l1.01 -11.37c-25.57,26.96 -60.68,40.43 -105.32,40.43 -30.32,0 -57.72,-6.85 -82.19,-20.53 -24.47,-13.69 -43.17,-33.07 -56.1,-58.13 -12.92,-25.06 -17.92,-54.01 -14.99,-86.86 2.41,-27.02 9.86,-51.48 22.33,-73.38 6.04,39.64 36.29,67.14 36.06,66.51 -16.73,-45.55 -15,-104.72 38.52,-137.49 25.75,-15.76 55.53,-20.53 85.85,-20.53 48.86,0 83.25,15.8 103.17,47.38l3.72 -41.7 114.35 0zm-213.79 229.33c21.48,0 39.86,-6.53 55.13,-19.58 15.28,-13.06 23.83,-29.91 25.67,-50.54 1.84,-20.64 -3.61,-37.38 -16.36,-50.22 -12.76,-12.85 -30.08,-19.27 -51.98,-19.27 -21.9,0 -40.48,6.43 -55.74,19.27 -15.25,12.84 -23.8,29.58 -25.64,50.22 -1.84,20.63 3.81,37.48 16.97,50.54 13.16,13.06 30.47,19.58 51.95,19.58z" id="path7" />
              <ellipse class="fil2" cx="6781.32" cy="1416.43" rx="67.75" ry="69.51" id="ellipse7" />
              <path class="fil3 str1" d="M2094.28 7053.26c-47.92,1.96 -54.55,105.49 10.55,105.49 681.46,0 1337.92,0 2006.88,0 -203.94,-407.88 -407.88,-815.76 -611.82,-1223.64 -530.07,-29.89 -1060.14,-59.78 -1590.21,-89.67 -275.14,-402.61 -550.29,-805.21 -825.43,-1207.82 -59.91,-81.15 -234.66,4 -179.33,116.03 182.84,377.11 378.99,748.07 548.53,1131.35 127.81,288.94 324.83,532.22 756.87,543.26 223.89,5.71 443.83,-24.6 669.84,-52.74 226.01,-28.14 376.52,26.31 485.24,142.41 104.55,132.93 238.45,379.23 245.25,456.23 4.3,48.67 -140.39,78.9 -229.43,79.12 -428.97,1.02 -858.32,-17.54 -1286.94,0z" id="path8" />
              <g id="_2906669118544">
                     <path class="fil3 str2" d="M4774.08 5582.66l0 0c48.57,0 62.37,39.8 63.31,88.3l24.99 1288.57c0.94,48.5 -39.79,88.3 -88.3,88.3l-0 0c-48.5,0 -89.24,-39.74 -88.3,-88.3l24.99 -1288.57c0.94,-48.56 14.74,-88.3 63.31,-88.3z" id="path9" />
                     <path class="fil3 str2" d="M5233.82 5593.8l0 -0c47.83,-8.43 68.33,28.37 77.68,75.96l248.37 1264.65c9.35,47.6 -23.85,93.86 -71.62,102.29l-0 0c-47.77,8.42 -94.78,-23.64 -102.29,-71.62l-199.15 -1273.33c-7.5,-47.98 -0.81,-89.51 47.01,-97.94z" id="path10" />
                     <path class="fil3 str2" d="M4314.33 5593.79l0 0c47.82,8.43 54.51,50.02 47.01,97.94l-199.15 1273.33c-7.5,47.92 -54.52,80.05 -102.29,71.62l-0 0c-47.77,-8.42 -80.98,-54.63 -71.62,-102.29l248.37 -1264.65c9.36,-47.66 29.85,-84.4 77.68,-75.96z" id="path11" />
              </g>
              <path class="fil3 str1" d="M3961.3 5650.92c-8,-70.63 -9.06,-141.88 -13.58,-212.82 550.91,1.51 1101.83,3.02 1652.74,4.53 -7.35,69.5 -23.66,136.02 -43.01,201.5 -7.02,23.75 -21.71,41.22 -56.6,49.81 -499.6,1.51 -999.2,3.02 -1498.8,4.53 -24.5,-9.6 -38.38,-26.58 -40.75,-47.54z" id="path12" />
              <polygon class="fil3 str1" points="4640.51,4795.11 5333.31,4795.11 5241.69,5441.89 4732.12,5441.89 " id="polygon12" />
              <polygon class="fil3 str1" points="4089.97,4921.89 4468.44,4921.89 4418.39,5441.89 4140.02,5441.89 " id="polygon13" />
              <path class="fil3" d="M4116.16 5032.6c62.85,0 113.81,78.25 113.81,174.79 0,96.53 -50.95,174.79 -113.81,174.79 -62.85,0 -113.81,-78.25 -113.81,-174.79 0,-96.54 50.95,-174.79 113.81,-174.79zm13.82 82.44c23.77,0 43.05,41.35 43.05,92.36 0,51 -19.28,92.35 -43.05,92.35 -23.78,0 -43.06,-41.35 -43.06,-92.35 0,-51.01 19.28,-92.36 43.06,-92.36z" id="path13" />
              <g id="_2906669120848">
                     <path class="fil1 str1" d="M4827.31 4758.41c-28.84,-67.17 -53.71,-460.03 -59.06,-471.1 -127.23,-262.77 -177.4,-471.14 -331.68,-784.87 290.08,155.7 445.65,374.47 488.44,711.98 4.96,134.77 -33.67,360.88 -97.7,543.99z" id="path14" />
                     <path class="fil4 str3" d="M4562.69 3661.88c307.98,386.71 297.81,707.75 281.58,940.11" id="path15" />
              </g>
              <g id="_2906669118064">
                     <path class="fil1 str1" d="M4930.54 4583.78c-41.2,-39.07 -82.4,-78.14 -123.6,-117.21 -42.59,-22.93 -110.96,-87.34 -154.66,-108.82 -261.63,-128.54 -460.05,-288.62 -660.66,-583.83 339.59,16.65 623.13,120.56 765.39,444.37 57.84,121.83 115.69,243.66 173.53,365.5z" id="path16" />
                     <path class="fil4 str3" d="M4243.09 3902.82c311.41,85.94 563.78,505.05 674.17,675.28" id="path17" />
              </g>
              <path class="fil5 str2" d="M4116.16 5028.93c22.41,0 43.32,9.47 61.1,25.92 -1.21,2.18 -2.25,4.57 -3.09,7.15 -16.87,-16.3 -36.76,-25.73 -58.01,-25.73 -30.11,0 -57.49,18.93 -77.41,49.52 -20.22,31.05 -32.73,74.05 -32.73,121.6 0,47.55 12.51,90.55 32.73,121.6 19.92,30.59 47.3,49.52 77.41,49.52 19.95,0 38.7,-8.31 54.88,-22.83 0.39,2.66 0.96,5.44 1.66,8.26 -16.76,13.97 -36.02,21.91 -56.55,21.91 -32.74,0 -62.28,-20.21 -83.54,-52.87 -20.96,-32.2 -33.94,-76.61 -33.94,-125.59 0,-48.97 12.97,-93.39 33.94,-125.59 21.27,-32.66 50.8,-52.87 83.54,-52.87zm13.82 82.44c15.1,0 25.92,13.56 32.6,26.8 -0.69,3.81 -1.25,7.39 -1.16,11.29l-0.97 2.32c-5.11,-13.86 -15.42,-33.07 -30.47,-33.07 -10.33,0 -19.94,9.53 -27.12,24.93 -7.58,16.25 -12.26,38.79 -12.26,63.75 0,24.96 4.69,47.5 12.26,63.75 7.18,15.39 16.79,24.92 27.12,24.92 8.14,0 15.84,-5.92 22.25,-15.97 0.29,3.53 0.78,6.91 1.59,10.25 -6.93,8.32 -15.05,13.07 -23.83,13.07 -13.45,0 -25.37,-11.15 -33.77,-29.17 -8,-17.17 -12.96,-40.82 -12.96,-66.85 0,-26.04 4.95,-49.69 12.96,-66.85 8.4,-18.02 20.34,-29.18 33.77,-29.18z" id="path18" />
              <g id="_2906669120176">
                     <path class="fil1 str1" d="M5030.25 4562.16c38.7,-41.54 77.4,-83.09 116.11,-124.63 41.09,-25.53 105.34,-94.05 147.63,-118.18 253.17,-144.49 441.3,-316.55 623.25,-623.61 -337.91,37.65 -614.47,158.9 -736.42,490.89 -50.19,125.18 -100.38,250.36 -150.57,375.54z" id="path19" />
                     <path class="fil4 str3" d="M5402.36 4060.06c-156.17,145.8 -270.17,314.68 -369.8,491.42" id="path20" />
              </g>
              <g id="_2906669121136">
                     <path class="fil1 str1" d="M4968.51 4736.88c18.05,-70.84 -18.42,-462.79 -14.84,-474.56 84.86,-279.35 102.05,-492.98 205.71,-826.87 -262.37,198.87 -382.06,439.16 -371.9,779.22 16.03,133.91 89.33,351.27 181.03,522.2z" id="path21" />
                     <path class="fil4 str3" d="M5059.56 3612.55c-244.15,429.87 -184.24,745.42 -132.11,972.44" id="path22" />
              </g>
              <g id="_2906669121280">
                     <path class="fil1 str1" d="M4986.91 4795.11c14.02,-55.02 28.04,-110.04 42.06,-165.06 23.8,-42.11 47.29,-133.06 72.82,-174.53 152.78,-248.25 235.28,-489.48 247.57,-846.19 -278.4,195.17 -462.86,434.26 -410.54,784.05 16.03,133.91 32.06,267.82 48.1,401.73z" id="path23" />
                     <path class="fil4 str3" d="M5072.44 4176.03c-67.06,202.86 -86.03,405.72 -88.64,608.59" id="path24" />
              </g>
              <g id="_2906669057248">
                     <path class="fil1 str1" d="M5144.89 4444.9c289.3,-229.63 600.54,-138.76 692.29,67.62 -156.23,54.41 -310.35,111.25 -477.07,145.62 -84.53,17.42 -185.47,5.17 -264.68,32.75 -35.02,12.19 -34.64,92.02 -69.68,104.22 -12.95,0 -25.89,0 -38.84,0 -2.9,-140.89 79.12,-287.62 157.98,-350.21z" id="path25" />
                     <path class="fil4 str3" d="M5231.04 4386.02c118.86,-13.68 237.72,0.64 356.59,29.9" id="path26" />
              </g>
              <polygon class="fil6 str1" points="3846.11,6597.81 3683.37,6694.32 3589.21,6544.57 3699.51,6473.72 " id="polygon26" />
              <g id="_2906669057680">
                     <path class="fil1 str1" d="M4261.01 4248.48c8.55,139.74 94.4,306.69 319.78,427.77 66.61,35.78 155.7,33.77 245.73,68.04 38.01,14.46 35.14,36.78 78.48,50.82 27.3,0 54.6,0 81.9,0 -72.69,-248.89 -195.24,-420.58 -370.09,-504.77 -45.22,-21.77 -94.88,-31.05 -144.72,-36.91 -68.74,-8.08 -108.52,33.73 -211.08,-4.94z" id="path27" />
                     <path class="fil4 str3" d="M4462.26 4404.65c189.03,131.7 372.46,263.09 483.7,390.46" id="path28" />
              </g>
              <g id="g31">
                     <path class="fil3 str1" d="M1350.49 3834.38c-10.41,36.18 -20.82,72.36 -31.23,108.54 85.29,41.37 179.75,61.35 281.03,65.42 11.31,-95.51 22.01,-166.17 65.37,-169.1 58.84,20.14 94.2,38.38 151.71,-1.89 28.05,-17.39 29.46,-56.1 46.19,-81.47 12.01,-18.23 22.04,-33.14 40.05,-49.37 32.43,-3.83 60.68,-17.27 83.26,-44.61 -38.97,-63.73 -36.86,-143.45 -4.46,-234.93 -109.53,-48.57 -219.07,-97.14 -328.61,-145.72 -101.11,184.38 -202.22,368.75 -303.33,553.13z" id="path29" />
                     <path class="fil7" d="M1826.04 3497.01c0.18,-27.44 96.62,18.88 96.74,19.09 2.71,4.56 -30.75,51.44 -37.01,52.13 -20.11,-36.64 -40.32,-53.59 -59.19,-68.63 -0.28,-0.22 -0.23,-0.17 -0.55,-2.59z" id="path30" />
                     <path class="fil7" d="M1815.89 3379.39c-90.2,17.75 -138.29,-4.38 -153.15,-57.99 -16.37,47.43 -14.36,107.71 8.92,182.89 1.09,44.43 0.23,88.47 -38.66,124.9 88.82,293.61 -142.16,301.04 -307.79,209.65 -143.29,37.43 -231.4,-17.11 -279.54,-138.28 -271.85,-160.76 -119.29,-305.8 41.63,-450.53 73.57,-194.39 161.73,-351.14 310.77,-350.91 254.5,-159.8 462.19,-127.18 609.63,153.15 170.37,88.69 246.98,208.19 139.77,388.08 -15.06,58.37 -44.91,74.47 -87.73,53.53 -44.27,-13.53 -75.68,-36.5 -104.08,-57.99 -66.71,19.39 -112.71,-0.55 -139.77,-56.5z" id="path31" />
                     <animateTransform attributeName="transform" attributeType="XML" type="rotate" values="0;20;0" dur="3s" repeatCount="indefinite" keySplines="0.42 0 0.58 1" keyTimes="0;0.5;1" additive="sum" transform-origin="3567.51 3438.53" />
                     <animateTransform attributeName="transform" attributeType="XML" type="translate" values="0 0; 0 -15;0 0;" dur="2s" repeatCount="indefinite" />


              </g>


              <path class="fil1 str1" d="M1616.13 3965.09c-95.35,-19.91 -190.7,-39.82 -286.05,-59.74 -124.36,-25.62 -198.9,11.13 -145.25,122.51 34.03,70.65 -6.17,152.81 -42.52,212.61 -45.57,74.96 -100.12,249.77 -58.06,397.13 96.36,727.77 423.19,1213.34 1038.11,1299.73 249.32,35.03 364.35,-10.41 616.11,-13.11 57.93,6.07 133.15,12.86 192.77,15.19 169.14,6.61 244.73,-64.81 369.61,153.83 118.11,221.29 309.67,381.71 535.15,514.04 63.93,-59.98 115.67,-107.76 179.6,-167.74 -40.5,-45.22 -68.81,-102.64 -109.31,-147.86 -28.74,-165.22 -110.4,-329.29 -154.09,-493.36 -27.84,-104.56 -38.67,-288.39 -60.55,-312.55 -65.53,-72.39 -165.83,-85.98 -263.32,-109.73 -129.35,-31.51 -263.41,-60.81 -398.83,-72.51 -264.59,-27 -529.17,-54 -793.76,-80.99 -25.65,-37.8 -68.55,-51.44 -94.2,-89.24 4.32,-60.51 59.46,-146.18 42.87,-204.52 -13,-45.73 -6.45,-88.03 -3.34,-131.47 -34.34,-33.16 -75.33,-22.03 -123.09,-11.11 -16.45,3.76 -35.74,-5.68 -53.07,0.98 15.9,-89.59 7.75,-197.38 -30.05,-248.88 -68.16,-92.88 -173.79,-162.85 -263.56,-235.07 8.77,-82.34 17.55,-164.69 26.32,-247.04 -2.64,-34.99 -55.89,-63.81 -121.49,-91.12z" id="path32" />

              <path class="fil4 str1" d="M1072.58 4462.66c61.01,250.54 132.65,505.88 306.06,807.26 52.2,96.14 135.16,187.36 304.44,153.72 106.04,-21.07 208.71,-58.23 319.42,-69.87 62.92,-31.47 70.17,-89.97 39.93,-166.7 -20.63,-74.86 -41.26,-149.73 -61.89,-224.59 -1.42,-21.7 -23.83,-26.59 -51.91,-26.95 -30.61,16.64 -61.22,33.27 -91.83,49.91 -28.14,-17.65 -67.02,-19.95 -113.79,-10.98 -55.9,83.51 -85.26,193.07 -167.7,250.54 -47.17,32.89 -121.89,-55.06 -140.74,-145.74" id="path33" />
              <path class="fil4 str1" d="M1495.43 4391.52c44.98,76.95 53.03,115.98 76.04,183.94 19.36,57.17 6.56,104.86 24.5,166.08 25.01,85.37 104.54,176.86 107.59,264.57" id="path34" />
              <path class="fil4 str1" d="M1626.19 4446.42c28.55,143.97 44.42,277.95 -1.74,363.22" id="path35" />
              <path class="fil3" d="M2184.42 4928.8c-74.94,24.38 -149.88,48.76 -224.82,73.14 17.73,68.54 35.45,137.09 53.18,205.63 97.79,-54.66 195.59,-109.32 293.38,-163.98 37.23,-6.8 74.45,-13.59 111.68,-20.39 39,4.43 78,8.86 117,13.29 57.44,51.37 186.69,-13.44 237.06,-54.48 38.85,7.17 31.35,-12.91 60.74,6.08 4.94,-24.36 9.89,-48.71 14.83,-73.07 -64.41,-25.79 -135.94,-111.25 -168.15,-112.53 -89.51,-3.55 -181.82,0.99 -259.7,-15.95 -29.91,-6.5 -99.27,27.18 -148.91,40.77 -37.09,2.97 -68.51,1.21 -91.43,-7.64 -2.14,19.51 -9.47,38.59 -8.6,57.25 0.83,17.69 4.16,36.24 13.73,51.86z" id="path36" />
              <path class="fil4 str1" d="M2171.52 4933c36.45,-12.97 68.74,-30.11 105.19,-43.07 32.65,-11.61 69.48,-19.07 102.13,-30.69 48.73,1.79 105.59,8.05 154.31,9.82 39.9,1.46 71.69,-1.54 111.6,-0.07 70.24,10.79 133.4,47.65 200.09,67.31" id="path37" />
              <path class="fil4 str1" d="M2004.91 4787.2c-17.77,57.11 -13.91,121.23 42.69,186.11" id="path38" />
              <path class="fil7 str2" d="M3087.58 5309.62c-153.5,4.89 -182.13,83.34 -237.25,195.13 -85.35,173.1 -77.01,466 -168.42,621.84 -34.06,58.06 -84.87,99.41 -144.04,127.16 -130.07,-37.13 -258.65,-136.48 -385.93,-290.76 105.77,-131.67 152.97,-397.22 258.73,-528.89 79.58,-99.07 157.08,-113.43 297.32,-163.36 125.24,12.8 250.48,25.6 379.58,38.88z" id="path39" />
              <circle class="fil3" cx="2263.34" cy="5940.5" r="19.35" id="circle39" />
              <circle class="fil3" cx="2382.05" cy="5904.42" r="19.35" id="circle40" />
              <circle class="fil3" cx="2348.58" cy="5758" r="19.35" id="circle41" />
              <circle class="fil3" cx="2514.87" cy="5837.49" r="19.35" id="circle42" />
              <circle class="fil3" cx="2628.87" cy="5970.31" r="19.35" id="circle43" />
              <circle class="fil3" cx="2495" cy="6021.56" r="19.35" id="circle44" />
              <circle class="fil3" cx="2511.73" cy="6149.16" r="19.35" id="circle45" />
              <circle class="fil3" cx="2367.4" cy="6037.25" r="19.35" id="circle46" />
              <circle class="fil3" cx="2623.38" cy="5794.34" r="18.04" id="circle47" />
              <circle class="fil3" cx="2469.9" cy="5687.93" r="18.04" id="circle48" />
              <circle class="fil3" cx="2417.61" cy="5550.92" r="18.04" id="circle49" />
              <circle class="fil3" cx="2615.28" cy="5631.45" r="18.04" id="circle50" />
              <circle class="fil3" cx="2742.87" cy="5678.51" r="18.04" id="circle51" />
              <circle class="fil3" cx="2732.69" cy="5531.32" r="14.13" id="circle52" />
              <circle class="fil3" cx="2552.53" cy="5482.93" r="14.13" id="circle53" />
              <circle class="fil3" cx="2550.44" cy="5379.39" r="14.13" id="circle54" />
              <circle class="fil3" cx="2694.76" cy="5327.09" r="10.99" id="circle55" />
              <circle class="fil3" cx="2690.58" cy="5407.63" r="14.13" id="circle56" />
              <circle class="fil3" cx="2837.01" cy="5430.64" r="14.13" id="circle57" />
              <circle class="fil3" cx="2845.89" cy="5346.97" r="10.99" id="circle58" />
              <g id="_2906669068576">
                     <path class="fil7 str1" d="M3950.03 6721.5c-38.8,-39.64 -77.6,-79.27 -116.39,-118.91 -50.09,30.58 -100.18,61.15 -150.27,91.73 131.72,169.89 225.18,334.67 285.16,494.99 102.5,2.18 201.79,-21.31 299.51,-57.39 -88.18,-122.85 -176.36,-245.7 -264.54,-368.56 -17.82,-13.96 -35.64,-27.91 -53.47,-41.87z" id="path58" />
                     <path class="fil3 str1" d="M3946.94 7134.88c48.93,-15.49 95.64,-33.6 149.41,-44.44 42.33,-8.53 90.02,-7.12 137.98,-5.48l33.71 46.96c-97.72,36.08 -197.01,59.57 -299.51,57.39 -6.77,-18.09 -13.96,-36.24 -21.59,-54.43z" id="path59" />
              </g>
              <g id="g62">
                     <path class="fil4 str1" d="M2738.46 5924.24c148.1,-48.7 286.71,-154.41 434.8,-203.1 85.62,-28.14 193.97,-28.48 262.22,-23.29 107.15,8.15 239.8,308.68 297.61,393.74 49.02,72.13 125.32,138.08 178.97,206.75" id="path60" />
                     <animateTransform attributeName="transform" attributeType="XML" type="rotate" values="0;40;0" dur="3s" repeatCount="indefinite" keySplines="0.42 0 0.58 1" keyTimes="0;0.15;1" additive="sum" transform-origin="3567.51 3438.53" />
                     <animateTransform attributeName="transform" attributeType="XML" type="translate" values="0 10; -10 -10; 0 10;" dur="2s" repeatCount="indefinite" />

                     <polygon class="fil6 str1" points="4227.9,6545 4083.61,6368.73 3824.81,6608.9 3962.09,6738.34 " id="polygon60" />
                     <path class="fil7 str1" d="M4219.7 6550.29c-83.94,61.73 -167.89,123.45 -251.83,185.18 104.1,140.15 208.2,280.29 312.31,420.44 7.92,33.46 27.43,52.15 59.65,54.68 89.47,-25.96 178.95,-51.92 268.43,-77.88 67.38,-8.01 136.27,-10.21 202.15,-24.02 65.87,-13.81 125.6,-44.81 180.61,-88.65 21.84,-28.13 19.72,-70.82 -30.65,-81.19 -60.18,-12.39 -105.07,3.43 -182.83,-5.86 -77.76,-9.29 -289.45,-78.23 -385.5,-147.41 -96.05,-69.18 -114.88,-156.86 -172.32,-235.29z" id="path61" />
                     <path class="fil3 str1" d="M4280.45 7157.05c8.09,32.75 27.52,51.04 59.38,53.54 89.47,-25.96 178.95,-51.92 268.43,-77.88 67.38,-8.01 136.27,-10.21 202.15,-24.02 65.87,-13.81 125.6,-44.81 180.61,-88.65 10.69,-13.77 15.64,-31.02 12,-46.27 -61.26,25.91 -121.43,49.62 -189.96,64.99 -98.65,22.12 -208.96,16.92 -307.01,42.16 -49.9,12.84 -93.34,42.54 -142.6,58.83 -26.42,8.73 -54.8,12.96 -82.98,17.3z" id="path62" />

              </g>
              <path class="fil4 str4" d="M 2393.848,4583.7296 C 2298.5553,3007.484 3719.0549,3630.6218 3248.5784,3977.698 2778.1041,4324.7727 2294.7533,3392.3045 3880.3347,2885.1505" stroke-opacity="0" fill="none" id="motionPath" stroke="#000" stroke-width="2" sodipodi:nodetypes="csc">
                     <animate attributeName="stroke-dasharray" from="0 5000" to="5000 0" dur="1.5s" fill="freeze" calcMode="spline" keySplines="0.1 1 1 0.1;" begin="0.3s" />
                     <animate attributeName="stroke-opacity" from="0" to="1" dur="0.1s" fill="freeze" calcMode="spline" keySplines="0.2 0 1 1;" begin="0.3s" />
              </path>
              <g>
              <g id="g65">

                     <g style="transform-origin: -220px 0px; " transform="scale(0)" id="g64">
                            <g id="_2906669066992" transform="translate(-4200, -2800)">
                                   <g id="g63">
                                          <polygon class="fil3 str3" points="5013.55,2104.98 3481.28,2473.77 3827.24,2726.11 3843.23,3036.67 4056.74,2874.54 4257.69,3046.95 " id="polygon62" />
                                          <line class="fil4 str3" x1="3827.24" y1="2726.11" x2="5013.55" y2="2104.98" id="line62" />
                                          <polyline class="fil4 str3" points="4056.74,2874.54 3916.3,2761.5 3843.23,3036.67 " id="polyline62" />
                                          <line class="fil4 str3" x1="3916.3" y1="2761.5" x2="5013.55" y2="2104.98" id="line63" />
                                   </g>

                            </g>

                            <animateTransform attributeName="transform" attributeType="XML" type="scale" from="0.1" to="1" dur="1.5s" calcMode="spline" begin="0s" keySplines="0.2 0 0.8 1" fill="freeze" />
                     </g>
                     <animateTransform attributeName="transform" attributeType="XML" type="rotate" from="0" to="-30" dur="0.2s" calcMode="spline" begin="0s" keySplines="0.1 0.1 0.3 1;" fill="freeze" />
                     <animateTransform attributeName="transform" attributeType="XML" type="rotate" from="-30" to="372  " dur="1s" calcMode="spline" begin="0.3s" keySplines="0.1 0.1 0.3 1;" fill="freeze" />


                     <animateMotion dur="1.5s" begin="0.1s" fill="freeze" timing-function="cubic-bezier(0.1 1 1 0.1)">
                            <mpath href="#motionPath" />
                     </animateMotion>

                     
              </g><animateTransform
                     attributeName="transform"
                     attributeType="XML"
                     fill="freeze"
                     type="translate"
                     values="-200 550; -250 -100;0 -120;50 100; 20  0"
                     dur="1.3s"
                     begin="0.3s"
                     repeatCount="1" /></g>

              <g id="_2906669070160">
                     <animateTransform attributeName="transform" attributeType="XML" type="translate" values="0 1; 20 -10; 10 2;15 -3; 0 13; 0 1; 10 -5; 0 2;15 -3; 0 -3;  0 0; 0 0; 0 0;  0 1" dur="1.2s" repeatCount="indefinite" />
                     <path class="fil3" d="M2523.81 5032.07l89.52 -11.12c16.25,19.79 32.5,39.59 48.75,59.39 13.29,32.02 26.59,64.03 39.88,96.05 -4.98,21.28 -15.99,25.67 -32.79,13.86 -19.2,-28.66 -38.41,-57.32 -57.61,-85.98 -28.07,-23.93 -59.67,-48.26 -87.74,-72.2z" id="path65" />
                     <path class="fil4 str1" d="M2523.81 5032.07c28.07,23.93 59.67,48.26 87.74,72.2 19.2,28.66 38.41,57.32 57.61,85.98 16.8,11.8 27.81,7.42 32.79,-13.86 -13.29,-32.02 -26.59,-64.03 -39.88,-96.05 -16.25,-19.79 -32.5,-39.59 -48.75,-59.39" id="path66" />
              </g>
              <g id="_2906669071600">
                     <animateTransform attributeName="transform" attributeType="XML" type="translate" values="0 1; -15 -10; 0 0;0 -10; 0 -3;0 1; 10 -10; 0 0;0 -10; 0 -3; 0 0;0 0;0 0;  0 1" dur="1.2s" repeatCount="indefinite" />
                     <path class="fil3" d="M2615.37 5021.58l88.17 -19.06c17.95,18.27 35.9,36.53 53.85,54.8 16.1,30.7 32.19,61.4 48.29,92.1 -3.06,21.64 -13.64,26.99 -31.42,16.73 -21.68,-26.83 -43.37,-53.66 -65.05,-80.49 -30.09,-21.33 -63.74,-42.74 -93.83,-64.08z" id="path67" />
                     <path class="fil4 str1" d="M2615.37 5021.58c30.09,21.33 63.74,42.75 93.83,64.08 21.68,26.83 43.37,53.66 65.05,80.49 17.78,10.26 28.36,4.91 31.42,-16.73 -16.1,-30.7 -32.2,-61.4 -48.29,-92.1 -17.95,-18.27 -35.9,-36.53 -53.85,-54.8" id="path68" />
              </g>
              <g id="_2906669069872">
                     <animateTransform attributeName="transform" attributeType="XML" type="translate" values="0 1; -5 5; -10 10;0 -3; 0 -13; 0 1; 10 21; 0 -20;0 -3; 0 -13; 0 0;0 0;0 0; 0 1" dur="1.2s" repeatCount="indefinite" />
                     <path class="fil3" d="M2665.18 4975.15l88.17 -19.06c17.95,18.27 35.9,36.53 53.85,54.8 16.1,30.7 32.19,61.4 48.29,92.1 -3.06,21.64 -13.64,26.99 -31.42,16.73 -21.68,-26.83 -43.37,-53.66 -65.05,-80.49 -30.09,-21.33 -63.74,-42.74 -93.83,-64.08z" id="path69" />
                     <path class="fil4 str1" d="M2665.18 4975.15c30.09,21.33 63.74,42.75 93.83,64.08 21.68,26.83 43.37,53.66 65.05,80.49 17.78,10.26 28.36,4.91 31.42,-16.73 -16.1,-30.7 -32.2,-61.4 -48.29,-92.1 -17.95,-18.27 -35.9,-36.53 -53.85,-54.8" id="path70" />
              </g>
              <g id="_2906669071360">
                     <animateTransform attributeName="transform" attributeType="XML" type="translate" values="0 1; 2 -5; 0 0;5 -3; 0 -3;0 1; 5 -5; 0 0;5 -3; 0 -3;  0 0;0 0; 0 0; 0 1" dur="1.2s" repeatCount="indefinite" />
                     <path class="fil3" d="M2718.42 4941.86l75.79 -26.92c17.96,14.1 35.91,28.21 53.87,42.31 17.74,25.32 35.47,50.62 53.21,75.94 -0.23,19.49 -8.98,25.42 -25.87,18.38 -22.23,-21.25 -44.47,-42.5 -66.71,-63.75 -29.04,-15.43 -61.24,-30.53 -90.28,-45.95z" id="path71" />
                     <path class="fil4 str1" d="M2718.42 4941.86c29.04,15.43 61.24,30.53 90.28,45.95 22.23,21.25 44.47,42.5 66.71,63.75 16.9,7.04 25.64,1.11 25.87,-18.38 -17.74,-25.31 -35.47,-50.62 -53.21,-75.94 -17.96,-14.1 -48.83,-33.33 -67.31,-44.01" id="path72" />
              </g>
              <path class="fil3 str1" d="M2793.92 5178.89c-196.7,3.56 -393.41,7.11 -590.12,10.67 -37.53,9.37 -46.52,86.32 -0.43,89.92 345.57,-5.98 691.13,-11.95 1036.7,-17.93 36.73,0 65.83,-15.78 83.66,-54.77 60.09,-251.29 120.17,-502.59 180.25,-753.88 3.35,-27.42 -9.97,-45.03 -46.8,-48.8 -163.32,5.31 -326.65,10.62 -489.97,15.93 -14.22,-0.23 -21.85,5.44 -22.9,17.92 -50.12,246.98 -100.25,493.95 -150.38,740.93z" id="path73" />
              <line class="fil4 str1" x1="2781.25" y1="5224.95" x2="2210.44" y2="5233.28" id="line73" />
              <line class="fil4 str1" x1="2989.54" y1="4463.93" x2="2847.73" y2="5153.51" id="line74" />
              <path class="fil4 str1" d="M2847.47 4915.04c-64.41,-25.79 -135.94,-111.25 -168.15,-112.53 -89.51,-3.55 -181.82,0.99 -259.7,-15.95 -29.91,-6.5 -99.27,27.18 -148.91,40.77 -37.09,2.97 -68.51,1.21 -91.43,-7.64 -2.14,19.51 -9.47,38.59 -8.6,57.25 0.83,17.69 4.16,36.24 13.73,51.86 -74.94,24.38 -149.88,48.76 -224.82,73.14 17.73,68.54 35.45,137.09 53.18,205.63 97.79,-54.66 195.59,-109.32 293.38,-163.98 37.23,-6.8 74.45,-13.59 111.68,-20.39 39,4.43 78,8.86 117,13.29" id="path74" />
       </g>
</svg>
