<svg width="700" height="625" viewBox="0 0 700 625" fill="none" xmlns="http://www.w3.org/2000/svg">
    <path d="M366.945 583.959C550.521 583.959 699.339 455.623 699.339 297.314C699.339 139.004 550.521 10.6685 366.945 10.6685C183.37 10.6685 34.5525 139.004 34.5525 297.314C34.5525 455.623 183.37 583.959 366.945 583.959Z" fill="#D2E3E9"/>
      <path fill-rule="evenodd" clip-rule="evenodd" d="M522.37 390.31L480.132 474.598C477.122 480.606 469.742 483.058 463.735 480.047L456.334 476.339C450.325 473.327 447.874 465.949 450.884 459.94L493.12 375.652C463.332 352.256 453.074 310.397 470.703 275.217C490.842 235.028 539.748 218.774 579.938 238.913C620.127 259.052 636.382 307.958 616.242 348.147C598.614 383.328 558.942 400.167 522.37 390.31ZM569.872 258.999C598.968 273.578 610.737 308.986 596.156 338.082C581.576 367.178 546.169 378.946 517.073 364.366C487.978 349.785 476.209 314.378 490.789 285.283C505.369 256.187 540.776 244.419 569.872 258.999Z" fill="#FEFEFE"/>
   
         <g id='icon-circle-small'>
    <path d="M161.567 310.363C189.982 332.771 231.183 327.901 253.591 299.486C275.999 271.071 271.129 229.87 242.714 207.462C214.299 185.054 173.098 189.924 150.69 218.339C128.282 246.754 133.152 287.955 161.567 310.363Z" fill="#F6EEF6" stroke="black" stroke-width="0.933306" stroke-miterlimit="2.61313"/>
    <path d="M175.627 292.533C194.196 307.176 221.119 303.994 235.761 285.425C250.404 266.857 247.222 239.934 228.654 225.291C210.086 210.649 183.163 213.831 168.52 232.399C153.877 250.967 157.059 277.89 175.627 292.533Z" fill="#EAF8F8"/>
    <path d="M194.375 269.225L192.662 268.682C193.57 265.57 194.44 263.299 195.27 261.869C196.1 260.438 197.663 258.599 199.973 256.363C202.283 254.127 203.92 252.256 204.885 250.764C205.865 249.272 206.722 247.332 207.471 244.926C208.63 241.213 208.76 238.242 207.846 236.028C206.946 233.814 205.496 232.399 203.512 231.782C202.009 231.313 200.614 231.321 199.328 231.796C198.355 232.177 197.758 232.691 197.553 233.367C197.406 233.818 197.457 234.598 197.689 235.707C198.216 238.238 198.259 240.247 197.79 241.766C197.349 243.134 196.531 244.13 195.305 244.768C194.08 245.391 192.776 245.49 191.377 245.065C189.814 244.565 188.667 243.613 187.953 242.178C187.238 240.743 187.152 239.108 187.724 237.29C188.752 233.997 191.076 231.552 194.709 229.952C198.329 228.353 202.694 228.354 207.819 229.939C213.231 231.628 216.968 234.212 218.987 237.679C221.02 241.16 221.464 244.712 220.334 248.379C219.496 251.041 218.011 253.255 215.848 255.055C213.701 256.854 210.112 258.469 205.096 259.913C201.729 260.896 199.381 261.962 198.053 263.125C196.711 264.29 195.495 266.323 194.374 269.225H194.375ZM192 275.196C193.879 275.783 195.267 276.943 196.164 278.663C197.076 280.382 197.238 282.181 196.65 284.06C196.063 285.924 194.918 287.327 193.184 288.238C191.465 289.165 189.651 289.326 187.787 288.739C185.908 288.152 184.52 286.992 183.623 285.257C182.727 283.523 182.564 281.724 183.152 279.845C183.739 277.967 184.885 276.579 186.618 275.682C188.338 274.77 190.136 274.608 192 275.195V275.196Z" fill="#85BBB6"/>
    <animateTransform attributeName="transform" attributeType="XML" type="translate" values="0 0; 0 -10; 0 0" dur="1.7s" repeatCount="indefinite" />  
</g>
   <g id="icon-triangle"> 
    <path fill-rule="evenodd" clip-rule="evenodd" d="M93.3813 253.083L50.7084 220.881L8.03545 188.678C2.85817 184.771 0.349698 178.85 1.14458 172.413C1.93946 165.975 5.81305 160.843 11.7852 158.312L61.0101 137.457L110.235 116.603C116.207 114.072 122.589 114.861 127.767 118.768C132.944 122.675 135.452 128.595 134.657 135.033L128.105 188.09L121.553 241.147C120.759 247.585 116.885 252.717 110.913 255.248C104.941 257.779 98.5586 256.99 93.3813 253.083Z" fill="#F6EEF6" stroke="black" stroke-width="1.33344" stroke-miterlimit="2.61313"/>
    <path fill-rule="evenodd" clip-rule="evenodd" d="M100.885 237.449L60.6416 207.08L20.3984 176.711C19.6227 176.127 19.2474 175.24 19.3664 174.276C19.4854 173.312 20.0653 172.543 20.96 172.164L67.3817 152.497L113.803 132.83C114.697 132.451 115.653 132.569 116.429 133.154C117.204 133.739 117.58 134.626 117.461 135.59L111.282 185.626L105.103 235.662C104.984 236.626 104.404 237.395 103.509 237.774C102.615 238.153 101.658 238.035 100.884 237.45L100.885 237.449Z" fill="#FEFEFE"/>
    <path d="M92.0007 191.026C91.5073 191.224 91.178 191.585 90.9966 192.079C90.8151 192.589 90.8314 193.082 91.0282 193.576L93.147 198.579L82.4977 203.065L80.3127 197.88C76.945 189.864 79.0062 184.287 86.5278 181.117L86.9886 180.919C87.4657 180.722 87.7959 180.361 87.9764 179.851C88.1578 179.357 88.1578 178.864 87.9447 178.369L83.378 167.555C83.1812 167.062 82.8356 166.716 82.3422 166.485C81.865 166.271 81.3716 166.253 80.8935 166.451L73.9806 169.375C73.4862 169.572 73.1578 169.934 72.9764 170.444C72.795 170.937 72.8113 171.431 73.0081 171.925L74.9626 176.567L63.6884 181.314L61.8481 176.953C58.4804 168.937 60.5415 163.36 68.0631 160.19L78.169 155.935C85.6743 152.764 91.1357 155.171 94.5034 163.186L99.0212 173.918C102.406 181.918 100.328 187.511 92.8062 190.681L91.9998 191.025L92.0007 191.026ZM86.4058 215.129C85.634 213.302 85.6186 211.491 86.3607 209.682C87.1018 207.872 88.37 206.573 90.1969 205.818C92.0074 205.046 93.8343 205.031 95.6439 205.772C97.4535 206.497 98.7361 207.781 99.5079 209.592C100.28 211.418 100.295 213.229 99.554 215.039C98.8119 216.848 97.5437 218.147 95.7169 218.903C93.9063 219.674 92.0794 219.69 90.2708 218.948C88.4612 218.223 87.1786 216.938 86.4068 215.128L86.4058 215.129Z" fill="#29584E"/>
    <animateTransform attributeName="transform" attributeType="XML" type="translate"  values="0 0; 2 -40; 0 0; 0 40; 0 0" dur="7s" repeatCount="indefinite" />    
</g>
    <g><path d="M382.547 21.1473L286.352 40.832C279.825 42.1677 275.516 48.7714 276.729 55.5817L290.625 133.628C291.838 140.439 298.112 144.877 304.639 143.541L400.835 123.856C407.362 122.521 411.67 115.917 410.458 109.106L396.562 31.06C395.349 24.2497 389.075 19.8116 382.547 21.1473Z" fill="#F6EEF6" stroke="black" stroke-width="1.13697" stroke-miterlimit="2.61313"/>
        <path d="M372.14 37.4973L301.644 51.923C296.861 52.9018 293.704 57.7412 294.592 62.7321L304.776 119.927C305.665 124.918 310.263 128.17 315.046 127.191L385.541 112.766C390.325 111.787 393.482 106.948 392.593 101.957L382.41 44.7617C381.521 39.7709 376.923 36.5185 372.14 37.4973Z" fill="#FEFEFE"/>
        <path d="M320.456 72.0075C319.974 69.2984 320.326 66.3733 321.497 63.2341C322.672 60.1102 324.703 57.2965 327.576 54.811C330.465 52.3227 334.037 50.6504 338.317 49.7749C342.289 48.9617 345.934 49.0059 349.254 49.9198C352.557 50.8222 355.271 52.4225 357.397 54.7189C359.519 57.0017 360.858 59.7022 361.405 62.7771C361.838 65.2078 361.741 67.4437 361.127 69.4673C360.513 71.49 359.672 73.3016 358.601 74.8865C357.547 76.483 355.617 79.2008 352.809 83.0388C352.024 84.1102 351.419 85.0385 350.978 85.8267C350.536 86.6148 350.225 87.3166 350.057 87.9272C349.876 88.5416 349.764 89.1406 349.709 89.7281C349.668 90.3137 349.603 91.3438 349.559 92.8097C349.57 95.8884 348.205 97.7009 345.453 98.2635C344.036 98.5534 342.742 98.3172 341.602 97.5492C340.445 96.7687 339.711 95.4315 339.371 93.5134C338.943 91.1115 338.924 88.9601 339.326 87.0564C339.73 85.1528 340.396 83.4228 341.338 81.8484C342.279 80.275 343.598 78.3656 345.265 76.1278C346.735 74.1723 347.797 72.6958 348.424 71.732C349.065 70.7508 349.562 69.7083 349.918 68.6033C350.274 67.4984 350.345 66.3454 350.137 65.1742C349.73 62.8894 348.571 61.123 346.665 59.8894C344.743 58.6587 342.512 58.2958 339.928 58.8238C336.91 59.4411 334.834 60.6862 333.686 62.5745C332.551 64.4465 331.761 67.0366 331.328 70.3275C330.961 73.7422 329.479 75.714 326.883 76.2459C325.338 76.5617 323.948 76.2699 322.693 75.3425C321.439 74.4305 320.689 73.3236 320.455 72.0056L320.456 72.0075ZM348.882 114.912C347.212 115.254 345.65 114.981 344.2 114.109C342.751 113.238 341.851 111.782 341.489 109.747C341.169 107.946 341.504 106.314 342.492 104.837C343.479 103.359 344.844 102.442 346.598 102.083C348.325 101.73 349.894 102.047 351.292 103.036C352.69 104.024 353.548 105.413 353.869 107.214C354.226 109.22 353.89 110.928 352.858 112.323C351.827 113.718 350.51 114.579 348.882 114.912Z" fill="#29584E"/>
        <animateTransform attributeName="transform" attributeType="XML" type="translate" values="0 0; 2 5; 0 0; 0 -5; 0 0" dur="3s" repeatCount="indefinite" />
    </g>
    <g id='icon-circle-big'><path d="M201.44 202.357C252.142 202.357 293.244 161.255 293.244 110.552C293.244 59.8499 252.142 18.7476 201.44 18.7476C150.737 18.7476 109.635 59.8499 109.635 110.552C109.635 161.255 150.737 202.357 201.44 202.357Z" fill="#FEFEFE" stroke="black" stroke-width="1.99968" stroke-miterlimit="2.61313"/>
        <path d="M201.44 183.357C241.648 183.357 274.244 150.761 274.244 110.552C274.244 70.3437 241.648 37.748 201.44 37.748C161.231 37.748 128.635 70.3437 128.635 110.552C128.635 150.761 161.231 183.357 201.44 183.357Z" fill="#EAF8F8"/>
        <path d="M221.267 135.042L201.807 142.226C200.713 139.442 200.057 137.744 199.838 137.16C197.516 130.84 196.635 125.252 197.22 120.422C197.805 115.564 200.287 109.469 204.666 102.052C209.045 94.6633 211.573 89.9565 212.197 87.9049C213.161 84.7168 213.097 81.6332 211.977 78.6265C210.446 74.4505 207.465 71.488 203.032 69.7389C198.598 67.9898 193.543 68.1808 187.919 70.2563C182.463 72.2502 178.471 75.5037 175.971 79.96C173.443 84.4163 172.659 90.0774 173.644 96.9452L153.033 101.762C150.23 92.44 151.258 83.2796 156.119 74.2547C160.98 65.2297 169.271 58.5587 180.963 54.2426C193.295 49.7075 204.27 49.3312 213.912 53.0848C223.583 56.8393 229.988 62.9891 233.13 71.536C234.878 76.2688 235.182 81.2425 234.066 86.4294C232.951 91.6441 229.375 99.5104 223.31 110.028C220.165 115.452 218.474 119.525 218.208 122.218C217.969 124.911 218.97 129.194 221.268 135.042H221.267ZM212.434 171.096L204.539 149.632L225.975 141.737L233.898 163.174L212.435 171.097L212.434 171.096Z" fill="#D2E3E9"/>
        <animateTransform attributeName="transform" attributeType="XML" type="translate"  values="0 0; 10 10; 0 0; -10 -10; 0 0" dur="5s" repeatCount="indefinite" />
    </g>
    <g>
        <path fill-rule="evenodd" clip-rule="evenodd" d="M406.196 257.254C412.106 251.454 418.016 245.653 423.926 239.853C431.753 247.691 440.756 265.844 449.972 270.551C460.632 270.236 471.669 276.712 482.674 278.726C488.017 279.704 493.015 280.164 499.135 280.279C503.887 277.51 507.75 274.24 510.823 270.525C511.583 269.608 511.447 269.82 512.625 269.901C517.574 270.25 520.807 270.296 522.622 270.091C527.108 271.341 530.728 273.144 535.183 272.514C533.535 278.231 527.669 279.636 519.514 276.221C517.977 281.032 515.251 284.785 511.825 287.916C510.909 292.889 509.993 297.861 509.076 302.834C504.323 300.756 499.571 298.677 494.818 296.599C475.24 296.08 455.993 294.177 437.571 288.828C425.209 278.921 414.676 268.421 406.197 257.254H406.196Z" fill="#FEFEFE" stroke="#373435" stroke-width="1.33344" stroke-miterlimit="2.61313"/>
  
        <path d="M560.752 171.158C606.413 171.158 643.428 134.143 643.428 88.4818C643.428 42.821 606.413 5.80566 560.752 5.80566C515.092 5.80566 478.076 42.821 478.076 88.4818C478.076 134.143 515.092 171.158 560.752 171.158Z" fill="#FEFEFE"/>
        <path fill-rule="evenodd" clip-rule="evenodd" d="M576.884 2.49194C625.369 11.4238 657.434 57.9693 648.502 106.454C640.324 150.844 600.619 181.462 556.763 179.466L525.638 348.429C524.724 353.387 519.92 356.697 514.961 355.784L508.853 354.659C503.893 353.745 500.583 348.94 501.497 343.982L532.622 175.019C490.933 161.258 464.745 118.5 472.923 74.1108C481.855 25.626 528.4 -6.43893 576.885 2.4929L576.884 2.49194ZM572.42 26.7243C607.521 33.1908 630.736 66.8877 624.269 101.99C617.803 137.092 584.105 160.306 549.004 153.84C513.901 147.373 490.688 113.675 497.154 78.5738C503.621 43.4714 537.319 20.2577 572.42 26.7243Z" fill="#FEFEFE" stroke="#373435" stroke-width="1.33344" stroke-miterlimit="2.61313"/>
       
       <path fill-rule="evenodd" clip-rule="evenodd" d="M545.112 275.115C543.932 274.232 543.362 273.627 538.606 274.937C534.532 276.059 533.157 278.04 535.437 281.791C536.673 283.825 543.686 280.325 545.455 278.758C546.491 277.839 545.5 275.405 545.112 275.115V275.115Z" fill="#FEFEFE" stroke="#373435" stroke-width="1.33344" stroke-miterlimit="2.61313"/>
        <path fill-rule="evenodd" clip-rule="evenodd" d="M541.809 282.777C540.205 281.895 540.759 281.999 534.293 283.309C528.753 284.431 527.549 287.591 528.654 289.454C530 291.722 539.87 287.988 542.276 286.42C543.686 285.501 542.338 283.068 541.809 282.778V282.777Z" fill="#FEFEFE" stroke="#373435" stroke-width="1.33344" stroke-miterlimit="2.61313"/>
        <path fill-rule="evenodd" clip-rule="evenodd" d="M539.47 291.175C538.132 287.741 536.352 290.266 532.481 290.511C529.079 290.727 525.12 289.67 524.173 290.911C523.551 291.726 523.893 293.583 525.119 294.591C527.477 296.53 536.367 295.788 539.072 294.826C540.658 294.261 539.69 291.737 539.471 291.175H539.47Z" fill="#FEFEFE" stroke="#373435" stroke-width="1.33344" stroke-miterlimit="2.61313"/>
        <path fill-rule="evenodd" clip-rule="evenodd" d="M536.527 296.856C535.425 295.175 533.893 295.947 530.624 296.191C527.75 296.407 524.406 295.35 523.606 296.592C523.08 297.407 523.369 299.263 524.405 300.271C526.397 302.211 533.907 301.468 536.191 300.507C537.532 299.942 536.853 297.35 536.527 296.856Z" fill="#FEFEFE" stroke="#373435" stroke-width="1.33344" stroke-miterlimit="2.61313"/>
       
    </g>
    
      <path fill-rule="evenodd" clip-rule="evenodd" d="M296.343 289.486C296.312 298.231 304.922 318.559 304.922 325.513C304.922 330.676 303.587 333.676 303.656 336.913C303.824 344.753 305.765 350.067 307.971 362.43C308.716 366.602 310.354 382.907 309.639 395.094C309.269 401.411 306.516 406.211 306.286 408.488C306.203 409.316 313.743 425.67 314.306 425.546C318.684 424.578 322.054 426.992 323.555 426.182C324.03 425.834 326.477 422.152 329.468 417.905C330.267 416.772 331.886 414.856 330.427 412.029C332.612 408.905 329.433 408.085 327.81 405.137C327.936 401.487 326.224 396.301 324.36 396.021C324.12 395.986 325.712 375.188 326.337 371.602C326.861 368.591 326.191 355.778 326.907 347.642C328.445 330.179 321.96 327.182 323.288 310.365C323.349 309.587 323.457 308.827 323.588 308.084C324.724 301.679 320.582 297.115 316.231 289.439C310.687 279.66 301.271 290.403 296.344 289.486H296.343Z" fill="#FEFEFE" stroke="#373435" stroke-width="1.33344" stroke-miterlimit="2.61313"/>
    <path d="M312.773 404.657C312.89 405.089 315.106 407.46 317.445 409.155C317.138 410.555 317.525 421.678 318.585 421.242C325.449 418.422 320.715 415.136 326.55 407.105C328.051 405.038 328.286 405.915 327.856 404.558" stroke="#373435" stroke-width="1.00032" stroke-miterlimit="2.61313"/>
    <path d="M324.715 410.098C326.082 412.915 327.541 415.547 329.503 417.518" stroke="#373435" stroke-width="1.00032" stroke-miterlimit="2.61313"/>
    <path d="M326.903 407.042C327.567 408.553 329.331 411.133 330.85 413.091" stroke="#373435" stroke-width="1.00032" stroke-miterlimit="2.61313"/>
    <path fill-rule="evenodd" clip-rule="evenodd" d="M315.863 199.186C327.699 195.519 339.718 191.625 351.737 187.731C364.28 185.118 374.771 180.275 382.723 185.851C395.166 194.576 395.731 198.741 406.771 208.777C409.212 210.997 423.916 225.525 430.267 230.069C427.723 237.374 412.443 253.372 401.496 260.717C409.437 287.13 417.377 313.541 425.318 339.953C401.433 348.893 371.059 352.966 334.819 352.641C334.946 328.419 332.832 326.406 313.068 287.13C306.579 291.276 274.255 289.202 274.149 286.633C274.083 285.018 276.411 274.124 276.979 271.711C279.105 262.696 282.025 225.597 288.21 221.014C296.788 214.657 309.409 207.278 315.863 199.186Z" fill="#85BBB6" stroke="#373435" stroke-width="1.33344" stroke-miterlimit="2.61313"/>
    <path fill-rule="evenodd" clip-rule="evenodd" d="M351.737 187.731C340.437 199.147 328.816 203.013 316.91 200.209C315.577 191.112 315.831 181.219 312.908 172.915C308.003 160.572 303.097 148.23 298.191 135.888C311.917 125.98 325.644 116.072 339.372 106.165C343.763 110.474 348.154 114.782 352.546 119.09C355.195 129.444 360.355 135.744 366.938 139.745C366.273 142.446 364.767 144.681 361.38 145.871C360.04 150.817 361.241 155.22 361.039 159.483C360.595 168.829 351.932 171.185 342.661 170.941C343.31 178.756 346.551 184.152 351.737 187.73V187.731Z" fill="#FEFEFE" stroke="#373435" stroke-width="1.33344" stroke-miterlimit="2.61313"/>
    <path d="M347.224 137.546C348.232 137.317 348.646 135.349 348.148 133.149C347.65 130.95 346.429 129.352 345.42 129.58C344.412 129.808 343.998 131.776 344.496 133.976C344.994 136.176 346.215 137.774 347.224 137.546Z" fill="#373435"/>
    <path fill-rule="evenodd" clip-rule="evenodd" d="M342.919 120.001C338.842 121.184 338.968 124.803 340.135 127.937C340.165 125.579 340.396 122.53 342.888 121.832C344.42 121.404 345.096 124.25 346.55 124.895C347.427 125.283 348.229 124.49 348.058 123.448C347.536 121.421 345.682 119.198 342.919 120.001Z" fill="#373435"/>
    <path fill-rule="evenodd" clip-rule="evenodd" d="M360.592 153.668C360.637 152.967 360.628 152.387 360.674 151.687C357.613 153.744 354.529 154.406 351.241 154.944C354.402 155.273 357.395 154.825 360.592 153.668Z" fill="#373435"/>
    <path fill-rule="evenodd" clip-rule="evenodd" d="M328.708 139.064C325.452 144.378 322.056 143.735 318.498 136.342C305.235 134.161 305.33 149.301 318.157 155.173C324.465 172.938 302.737 182.37 297.284 165.383C289.345 168.68 284.993 164.431 285.826 149.274C272.591 144.231 271.268 135.94 277.999 125.451C274.293 114.858 280.419 108.098 294.562 104.464C294.79 89.6168 305.677 83.6524 324.057 83.9308C335.306 77.1676 343.059 78.934 346.745 90.6239C357.379 88.7624 364.509 95.1704 358.77 104.917C364.047 115.265 354.628 123.196 342.888 117.056C338.958 121.113 334.264 121.808 328.821 119.211C328.678 121.936 328.216 124.543 325.644 126.357C329.29 130.301 330.507 134.514 328.708 139.063V139.064Z" fill="#373435"/>
    <path fill-rule="evenodd" clip-rule="evenodd" d="M360.687 586.914C352.786 586.961 344.885 587.008 336.983 587.054C335.553 594.463 334.122 601.871 332.693 609.281C332.303 610.662 332.131 612.022 332.079 613.327C337.763 614.532 342.99 610.959 348.714 610.959C355.755 610.959 362.879 616.36 370.377 613.327C365.621 605.994 362.446 597.09 360.687 586.913V586.914Z" fill="#85BBB6" stroke="#373435" stroke-width="1.33344" stroke-miterlimit="2.61313"/>
    <path fill-rule="evenodd" clip-rule="evenodd" d="M332.078 613.328C332.012 615.006 332.145 616.59 332.27 618.003C332.466 619.744 333.233 619.946 334.31 620.324C347.759 625.046 359.462 624.743 370.395 620.324C371.165 620.013 371.184 614.56 370.535 613.572C370.482 613.49 370.429 613.408 370.377 613.328C362.879 616.36 355.755 610.959 348.714 610.959C342.989 610.959 337.763 614.533 332.079 613.328H332.078Z" fill="#FEFEFE" stroke="#373435" stroke-width="1.33344" stroke-miterlimit="2.61313"/>
    <path fill-rule="evenodd" clip-rule="evenodd" d="M354.695 586.949C350.845 586.972 346.996 586.995 343.146 587.017C340.792 593.058 341.255 598.168 342.892 603.322C347.473 601.016 351.373 600.161 356.607 601.306C355.707 596.515 356.26 591.698 354.695 586.948V586.949Z" fill="#FEFEFE" stroke="#373435" stroke-width="1.00032" stroke-miterlimit="2.61313"/>
    <path d="M341.664 593.147C346.253 590.088 350.908 589.693 355.607 591.067" stroke="#373435" stroke-width="1.00032" stroke-miterlimit="2.61313"/>
    <path d="M356.018 595.714C351.225 594.56 346.473 595.083 341.789 598.472" stroke="#373435" stroke-width="1.00032" stroke-miterlimit="2.61313"/>
    <path d="M332.927 613.203C341.657 597.313 363.679 596.126 369.783 613.551" stroke="#373435" stroke-width="1.00032" stroke-miterlimit="2.61313"/>
    <path fill-rule="evenodd" clip-rule="evenodd" d="M399.969 589.979C391.471 591.221 382.595 592.838 374.097 594.08C374.531 600.375 374.965 606.672 375.399 612.968C393.068 621.696 412.566 623.601 432.344 620.784C436.664 620.169 437.277 616.355 436.81 612.875C436.409 609.891 433.397 606.63 426.203 603.861C422.962 602.613 419.317 602.174 415.875 601.71C410.447 597.925 405.397 593.764 399.97 589.979H399.969Z" fill="#FEFEFE" stroke="#373435" stroke-width="1.33344" stroke-miterlimit="2.61313"/>
    <path fill-rule="evenodd" clip-rule="evenodd" d="M399.969 589.979C391.471 591.221 382.595 592.838 374.097 594.08C374.388 598.301 374.679 602.523 374.97 606.744C382.234 611.919 399.936 614.722 412.244 615.112C421.418 615.402 423.059 611.496 429.024 611.158C433.288 610.916 434.148 612.125 436.873 613.421C436.855 613.237 436.834 613.056 436.81 612.875C436.409 609.891 433.397 606.63 426.203 603.861C422.962 602.613 419.317 602.174 415.875 601.71C410.447 597.925 405.397 593.764 399.97 589.979H399.969Z" fill="#85BBB6" stroke="#373435" stroke-width="1.33344" stroke-miterlimit="2.61313"/>
    <path fill-rule="evenodd" clip-rule="evenodd" d="M399.969 589.979C395.617 590.615 391.165 591.349 386.717 592.081C391.625 599.375 398.032 604.837 405.98 608.418C409.336 605.656 413.416 603.473 418.46 602.063C417.592 601.938 416.726 601.825 415.874 601.709C410.446 597.924 405.396 593.763 399.969 589.979V589.979Z" fill="#FEFEFE" stroke="#373435" stroke-width="1.00032" stroke-miterlimit="2.61313"/>
     <path d="M394.334 600.88C397.968 597.155 401.794 595.068 405.764 594.212" stroke="#373435" stroke-width="1.00032" stroke-miterlimit="2.61313"/>
    <path d="M399.621 605.017C403.255 601.293 407.08 599.205 411.051 598.35" stroke="#373435" stroke-width="1.00032" stroke-miterlimit="2.61313"/>
    <path d="M406.127 608.299C403.915 610.069 402.127 611.915 400.93 613.868" stroke="#373435" stroke-width="1.00032" stroke-miterlimit="2.61313"/>
    <path d="M401.497 260.717C396.677 245.041 391.934 229.405 383.59 211.968" stroke="#373435" stroke-width="1.33344" stroke-miterlimit="2.61313"/>
    <path d="M389.99 213.052C394.137 225.346 395.732 233.072 395.251 241.026" stroke="#373435" stroke-width="1.33344" stroke-miterlimit="2.61313"/>
    <path d="M299.952 240.498C299.952 240.461 302.649 254.103 304.942 260.541C308.885 271.611 312.155 282.467 313.068 287.13" stroke="#373435" stroke-width="1.33344" stroke-miterlimit="2.61313"/>
    <path d="M311.452 280.698C304.658 271.101 299.475 262.173 295.286 250.261" stroke="#373435" stroke-width="1.33344" stroke-miterlimit="2.61313"/>
   <path fill-rule="evenodd" clip-rule="evenodd" d="M335.511 352.251C332.715 397.359 333.093 441.408 335.883 484.654C332.434 500.456 330.192 518.031 330.439 534.722C330.712 553.252 335.674 573.596 334.603 588.117C343.811 587.832 353.02 587.547 362.228 587.263C363.046 580.65 364.539 578.136 364.682 567.424C364.759 561.653 363.363 554.076 362.973 545.511C362.639 538.174 362.132 529.84 363.46 523.159C365.887 510.953 372.219 501.905 374.921 487.748C377.624 473.59 377.766 455.109 379.187 438.79C379.443 457.13 377.755 475.58 378.01 493.92C378.146 503.666 380.225 513.306 380.361 523.053C373.162 543.341 370.312 563.238 372.254 595.69C382.458 593.628 392.662 591.566 402.866 589.504C403.342 583.21 401.444 576.917 400.733 570.624C402.732 565.757 406.221 563.136 407.129 557.504C408.353 549.911 405.908 538.539 407.133 530.946C412.161 511.404 417.242 491.876 419.933 471.748C423.678 454.748 425.194 438.65 424.946 415.964C424.697 393.278 426.433 364.979 423.452 339.487C395.393 347.219 365.821 350.758 335.51 352.251H335.511Z" fill="#373435" stroke="#373435" stroke-width="0.666239" stroke-miterlimit="2.61313"/>
    </svg>
    