<?xml version="1.0" standalone="no"?>
<!DOCTYPE svg PUBLIC "-//W3C//DTD SVG 20010904//EN"
 "http://www.w3.org/TR/2001/REC-SVG-20010904/DTD/svg10.dtd">
<svg version="1.0" xmlns="http://www.w3.org/2000/svg"
 width="800.000000pt" height="167.000000pt" viewBox="0 0 800.000000 167.000000"
 preserveAspectRatio="xMidYMid meet">

<g transform="translate(0.000000,167.000000) scale(0.100000,-0.100000)"
fill="#285c5c" stroke="none">
<path d="M445 1650 c-153 -32 -253 -106 -306 -226 -30 -66 -30 -163 -1 -223
12 -25 20 -47 17 -49 -10 -11 -58 45 -81 93 l-24 50 0 -45 c0 -62 24 -144 54
-190 53 -80 137 -124 342 -180 82 -23 169 -51 192 -62 52 -25 82 -69 82 -122
0 -31 -7 -45 -38 -76 -76 -76 -200 -79 -278 -7 -28 26 -37 45 -49 100 -8 42
-21 74 -32 83 -13 10 -56 13 -166 14 -142 0 -147 -1 -138 -19 6 -10 15 -57 20
-104 24 -206 148 -331 372 -374 95 -18 228 -13 319 12 128 34 226 110 277 213
26 52 28 66 28 167 -1 92 -4 118 -23 158 -56 123 -209 213 -412 241 -67 10
-146 51 -169 90 -42 68 -20 145 52 182 47 25 143 22 194 -4 53 -27 70 -53 83
-122 19 -101 43 -115 189 -109 68 4 83 8 106 29 26 24 27 28 22 104 -16 233
-222 389 -510 385 -45 -1 -100 -5 -122 -9z"/>
<path d="M5636 1560 c-58 -18 -116 -99 -116 -161 0 -125 152 -213 251 -146 77
52 101 144 59 226 -34 67 -122 104 -194 81z"/>
<path d="M4000 1381 c0 -57 5 -79 30 -126 17 -31 30 -59 30 -62 0 -8 -45 9
-62 24 -15 13 -17 11 -22 -29 -11 -87 -66 -735 -69 -807 l-2 -74 138 -2 c76
-1 140 2 143 7 3 5 10 53 16 108 l11 98 44 37 c34 28 47 35 56 26 7 -7 55 -71
108 -144 l95 -132 172 -1 c95 -1 172 2 172 7 0 8 -232 344 -304 442 l-21 28
85 82 c47 46 132 126 188 180 l104 97 -174 0 -175 0 -144 -131 c-177 -160
-178 -161 -173 -111 7 65 44 506 44 530 0 22 -2 22 -145 22 l-145 0 0 -69z"/>
<path d="M5056 1393 c-3 -32 -17 -188 -31 -348 -29 -329 -30 -343 -50 -554 -8
-85 -15 -162 -15 -173 0 -18 9 -19 138 -17 77 0 143 4 149 7 5 4 15 77 22 162
7 85 21 247 32 360 10 113 26 284 34 380 8 96 17 190 19 208 l5 32 -148 0
-148 0 -7 -57z"/>
<path d="M1715 1154 c-72 -18 -122 -40 -153 -68 -28 -24 -34 -27 -28 -11 4 11
10 31 12 45 l6 25 -206 0 c-113 0 -206 -3 -206 -6 0 -3 11 -15 24 -28 13 -12
36 -47 51 -78 l29 -56 -38 -436 c-20 -240 -40 -458 -43 -486 l-5 -50 146 0
c121 0 147 3 150 15 3 8 10 85 16 170 6 85 14 161 16 168 2 9 15 5 43 -13 106
-71 248 -72 384 -3 222 111 318 400 206 626 -54 110 -173 181 -314 188 -38 1
-79 1 -90 -2z m74 -252 c104 -52 100 -258 -6 -339 -28 -21 -49 -28 -97 -31
-117 -6 -171 49 -170 173 1 133 73 214 189 215 29 0 65 -8 84 -18z"/>
<path d="M2537 1145 c-80 -15 -237 -71 -237 -84 0 -7 24 -70 65 -168 l14 -33
35 21 c80 47 221 63 295 33 27 -10 45 -26 55 -49 31 -64 30 -65 -111 -65 -191
0 -289 -26 -361 -94 -43 -40 -62 -76 -71 -138 -28 -173 112 -292 322 -275 77
7 170 45 187 78 17 31 29 22 32 -24 l3 -42 128 -1 c70 -1 130 3 133 8 12 19
45 448 42 538 -5 113 -24 157 -94 219 -87 76 -268 108 -437 76z m223 -530 c0
-51 -22 -87 -68 -113 -43 -24 -119 -30 -153 -11 -30 15 -42 56 -29 95 7 19 12
34 13 34 1 0 20 7 42 15 22 8 75 14 118 15 l77 0 0 -35z"/>
<path d="M3745 1146 c-57 -14 -105 -37 -153 -74 l-33 -25 7 29 c4 16 11 37 15
46 5 9 9 18 9 20 0 2 -90 2 -200 0 l-200 -3 35 -50 c55 -81 55 -78 11 -541
-15 -161 -19 -239 -12 -241 25 -8 276 -5 281 4 4 5 15 103 25 218 20 233 33
280 92 324 40 31 125 52 173 43 l33 -6 6 52 c3 29 8 90 12 136 l7 82 -29 -1
c-16 0 -51 -6 -79 -13z"/>
<path d="M6484 1151 c-50 -12 -117 -48 -164 -88 -39 -34 -42 -35 -35 -12 4 13
18 38 31 56 13 17 24 33 24 35 0 2 -76 2 -170 0 -139 -2 -170 -6 -170 -17 0
-8 -16 -191 -35 -406 -20 -216 -34 -398 -31 -404 3 -9 44 -12 138 -12 73 0
138 2 144 4 7 2 14 48 18 111 17 252 33 360 60 406 39 67 127 100 200 76 72
-23 79 -70 54 -347 -11 -124 -17 -231 -14 -239 4 -11 32 -14 140 -14 89 0 137
4 142 11 13 21 55 523 49 579 -12 103 -67 190 -145 230 -67 34 -167 47 -236
31z"/>
<path d="M7361 1150 c-51 -11 -116 -43 -149 -73 -62 -57 -93 -160 -74 -244 5
-24 6 -43 1 -43 -11 0 -56 78 -65 114 l-7 29 -18 -34 c-26 -53 -43 -152 -36
-225 15 -153 110 -266 261 -309 112 -32 288 -3 342 56 26 29 32 23 23 -26 -22
-119 -99 -175 -240 -175 -105 0 -261 52 -346 116 -17 13 -34 24 -37 24 -13 0
-28 -78 -23 -121 11 -93 71 -169 166 -213 39 -17 71 -21 202 -24 94 -2 178 1
211 7 133 28 264 125 313 233 39 85 52 165 80 473 14 160 28 320 31 358 l7 67
-142 0 -141 0 0 -29 c0 -55 -8 -61 -43 -28 -18 17 -52 39 -76 50 -50 22 -173
31 -240 17z m239 -249 c24 -12 43 -32 59 -65 22 -44 23 -51 12 -101 -15 -65
-39 -99 -94 -127 -118 -62 -267 8 -267 124 0 99 60 167 163 187 49 10 79 5
127 -18z"/>
<path d="M5516 1108 c-6 -42 -31 -316 -53 -581 -13 -164 -14 -210 -4 -216 15
-10 254 -12 268 -3 6 4 16 59 22 122 32 338 61 657 61 682 l0 28 -145 0 -144
0 -5 -32z"/>
</g>
</svg>
