<?xml version="1.0" encoding="UTF-8"?>
<!DOCTYPE svg PUBLIC "-//W3C//DTD SVG 1.0//EN" "http://www.w3.org/TR/2001/REC-SVG-20010904/DTD/svg10.dtd">
<!-- Creator: CorelDRAW -->
<svg xmlns="http://www.w3.org/2000/svg" xml:space="preserve" width="7.65221in" height="5.92376in" version="1.0" style="shape-rendering:geometricPrecision; text-rendering:geometricPrecision; image-rendering:optimizeQuality; fill-rule:evenodd; clip-rule:evenodd"
viewBox="0 0 7368.24 5703.93"
 xmlns:xlink="http://www.w3.org/1999/xlink"
>
 <defs>
  <style type="text/css">
   <![CDATA[
    .str0 {stroke:black;stroke-width:18.72;stroke-miterlimit:2.61313}
    .str1 {stroke:#FEFEFE;stroke-width:26.75;stroke-miterlimit:2.61313}
    .str2 {stroke:#373435;stroke-width:20.06;stroke-linecap:round;stroke-linejoin:round;stroke-miterlimit:2.61313}
    .str3 {stroke:#373435;stroke-width:13.37;stroke-linecap:round;stroke-linejoin:round;stroke-miterlimit:2.61313}
    .fil10 {fill:none}
    .fil11 {fill:#FEFEFE}
    .fil6 {fill:#FEFEFE}
    .fil9 {fill:#373435}
    .fil4 {fill:#2A5B5A}
    .fil3 {fill:#7BA8A3}
    .fil1 {fill:#D2E3E9}
    .fil0 {fill:#EAF7F8}
    .fil13 {fill:#FEFEFE;fill-rule:nonzero}
    .fil2 {fill:#FEFEFE;fill-rule:nonzero}
    .fil12 {fill:#373435;fill-rule:nonzero}
    .fil7 {fill:#373435;fill-rule:nonzero}
    .fil8 {fill:black;fill-rule:nonzero}
    .fil5 {fill:#D2E3E9;fill-rule:nonzero}
   ]]>
  </style>
    <clipPath id="id0">
     <path d="M45.78 3371.47l0 -26.75 674.2 0c11.35,-1.02 23.32,-5.6 34.17,-12.8 11.05,-7.32 20.79,-17.24 27.44,-28.79 6.43,-11.17 9.96,-23.95 8.9,-37.4 -0.85,-10.69 -4.62,-21.95 -12.17,-33.34 -8.56,-12.89 -22.35,-21.34 -37.64,-25.1 -12.47,-3.07 -25.84,-3.04 -38.17,0.19 -11.96,3.13 -22.9,9.3 -30.94,18.56 -8.62,9.93 -14.05,23.7 -14.05,41.53l-26.75 0c0,-24.76 7.98,-44.4 20.63,-58.98 11.76,-13.53 27.44,-22.47 44.42,-26.92 16.6,-4.35 34.54,-4.41 51.23,-0.3 21.45,5.28 41.03,17.46 53.51,36.28l1.3 2c0.93,-1.79 1.79,-3.57 2.61,-5.35 9.84,-21.6 10.76,-42.36 5.42,-60.51 -5.37,-18.29 -17.05,-34.14 -32.33,-45.77 -5.97,-4.55 -12.54,-8.47 -19.52,-11.65 -4.43,-2.02 -9.28,-3.87 -14.45,-5.48 -20.58,-6.42 -44.26,-8.08 -65.83,-1.07 -21.14,6.88 -40.54,22.37 -53.29,50.38 -2.29,5.03 -4.41,10.62 -6.34,16.81l-25.5 -7.94c2.18,-6.99 4.73,-13.64 7.6,-19.94 16.27,-35.73 41.54,-55.67 69.27,-64.69 18.16,-5.91 37.27,-7.02 55.48,-4.78 -18.87,-16.55 -42.06,-29.03 -67.2,-37.16 -29.19,-9.45 -60.89,-13.01 -91.5,-10.28 -30.3,2.7 -59.51,11.59 -84.04,27.08 -22.58,14.25 -41.21,34.21 -53.03,60.17 25.49,5.91 42.2,23.97 50.32,46.01 3.72,10.08 5.55,21.09 5.53,32.11 -0.03,11.05 -1.92,22.08 -5.63,32.2 -10.11,27.51 -33.21,49.12 -68.88,49.12l-176.17 0c1.5,10.25 0.4,20.68 -2.92,30.46 -5.92,17.45 -19.03,32.96 -36.89,41.54l-11.49 -24.03c11.16,-5.36 19.37,-15.1 23.09,-26.07 2.29,-6.76 2.84,-13.94 1.27,-20.75 -1.55,-6.74 -5.22,-13.23 -11.36,-18.74 -11.44,-10.25 -31.24,-17.29 -61.71,-17.29l-88.6 0 0 -26.75 88.6 0c37.7,0 63.47,9.85 79.47,24.19 3.74,3.35 6.95,6.93 9.66,10.69l187.04 0c22.6,0 37.31,-13.88 43.8,-31.56 2.68,-7.31 4.05,-15.19 4.07,-23 0.02,-7.82 -1.3,-15.67 -3.97,-22.91 -6.33,-17.16 -20.87,-30.52 -43.91,-30.52l-105.18 0 0 -26.75 95.78 0c13.7,-35.4 37.48,-62.12 66.89,-80.69 28.17,-17.78 61.5,-27.97 95.95,-31.04 2.71,-0.25 5.44,-0.44 8.17,-0.6 -0.67,-18.11 -4.73,-33.28 -14.79,-43.96 -11.86,-12.59 -32.86,-20.19 -67.5,-20.87l0 0.05 -152.18 0c5.57,16.03 7.49,33.36 7.87,49.97 14.92,7.13 25.48,17.13 32.91,28.97 13.37,21.27 15.62,47.41 15.25,73.1l-26.64 -0.31c0.31,-21.48 -1.31,-42.91 -11.15,-58.59l0 -0.06c-9.32,-14.86 -27.13,-25.55 -59.9,-27.76l-250.25 0 0 -26.75 250.31 0 0.84 0.05c7.79,0.49 14.98,1.4 21.6,2.69 -1.03,-15.66 -3.98,-31.23 -11.08,-44.02 -9.44,-17.02 -27.18,-29.78 -59.54,-32l-190.36 0 0 -26.75 190.42 0 0.84 0.05c36.85,2.31 60.1,15.74 74.67,34.65l166.4 0 0.21 0.05c42.82,0.81 69.99,11.46 86.72,29.23 15.31,16.25 21.24,37.52 22.01,62.14 22.84,1.09 45.6,5.17 67.12,12.13 43.63,14.11 82.36,40.06 106.79,76.75 7.38,3.64 14.4,7.99 20.93,12.96 19.72,15 34.83,35.59 41.84,59.46 7.05,24 5.95,51.16 -6.79,79.11 -3.63,7.97 -8.23,16.01 -13.88,24.07 1.18,4.77 1.94,9.51 2.3,14.19 1.5,19.08 -3.43,37.1 -12.45,52.76 -8.8,15.29 -21.5,28.3 -35.8,37.77 -14.76,9.79 -31.4,15.98 -47.43,17.24l-1.05 0.05 -674.63 0zm0 -308.55l0 -26.75 117.93 0 0.21 0.06c40.38,0.75 66.05,9.83 81.97,25.68 16.49,16.41 21.72,38.73 21.33,65.78l-26.65 -0.31c0.29,-20.11 -3.01,-36.12 -13.5,-46.56 -11.03,-10.98 -30.75,-17.31 -63.37,-17.95l0 0.05 -117.93 0z"/>
    </clipPath>
    <clipPath id="id1">
     <path d="M8.45 3371.47l0 -26.75 711.53 0c11.35,-1.02 23.32,-5.6 34.17,-12.8 11.05,-7.32 20.79,-17.24 27.44,-28.79 6.43,-11.17 9.96,-23.95 8.9,-37.4 -0.85,-10.69 -4.62,-21.95 -12.17,-33.34 -8.56,-12.89 -22.35,-21.34 -37.64,-25.1 -12.47,-3.07 -25.84,-3.04 -38.17,0.19 -11.96,3.13 -22.9,9.3 -30.94,18.56 -8.62,9.93 -14.05,23.7 -14.05,41.53l-26.75 0c0,-24.76 7.98,-44.4 20.63,-58.98 11.76,-13.53 27.44,-22.47 44.42,-26.92 16.6,-4.35 34.54,-4.41 51.23,-0.3 21.45,5.28 41.03,17.46 53.51,36.28l1.3 2c0.93,-1.79 1.79,-3.57 2.61,-5.35 9.84,-21.6 10.76,-42.36 5.42,-60.51 -5.37,-18.29 -17.05,-34.14 -32.33,-45.77 -5.97,-4.55 -12.54,-8.47 -19.52,-11.65 -4.43,-2.02 -9.28,-3.87 -14.45,-5.48 -20.58,-6.42 -44.26,-8.08 -65.83,-1.07 -21.14,6.88 -40.54,22.37 -53.29,50.38 -2.29,5.03 -4.41,10.62 -6.34,16.81l-25.5 -7.94c2.18,-6.99 4.73,-13.64 7.6,-19.94 16.27,-35.73 41.54,-55.67 69.27,-64.69 18.16,-5.91 37.27,-7.02 55.48,-4.78 -18.87,-16.55 -42.06,-29.03 -67.2,-37.16 -29.19,-9.45 -60.89,-13.01 -91.5,-10.28 -30.3,2.7 -59.51,11.59 -84.04,27.08 -22.58,14.25 -41.21,34.21 -53.03,60.17 25.49,5.91 42.2,23.97 50.32,46.01 3.72,10.08 5.55,21.09 5.53,32.11 -0.03,11.05 -1.92,22.08 -5.63,32.2 -10.11,27.51 -33.21,49.12 -68.88,49.12l-176.17 0c1.5,10.25 0.4,20.68 -2.92,30.46 -5.92,17.45 -19.03,32.96 -36.89,41.54l-11.49 -24.03c11.16,-5.36 19.37,-15.1 23.09,-26.07 2.29,-6.76 2.84,-13.94 1.27,-20.75 -1.55,-6.74 -5.22,-13.23 -11.36,-18.74 -11.44,-10.25 -31.24,-17.29 -61.71,-17.29l-125.93 0 0 -26.75 125.93 0c37.7,0 63.47,9.85 79.47,24.19 3.74,3.35 6.95,6.93 9.66,10.69l187.04 0c22.6,0 37.31,-13.88 43.8,-31.56 2.68,-7.31 4.05,-15.19 4.07,-23 0.02,-7.82 -1.3,-15.67 -3.97,-22.91 -6.33,-17.16 -20.87,-30.52 -43.91,-30.52l-105.18 0 0 -26.75 95.78 0c13.7,-35.4 37.48,-62.12 66.89,-80.69 28.17,-17.78 61.5,-27.97 95.95,-31.04 2.71,-0.25 5.44,-0.44 8.17,-0.6 -0.67,-18.11 -4.73,-33.28 -14.79,-43.96 -11.86,-12.59 -32.86,-20.19 -67.5,-20.87l0 0.05 -152.18 0c5.57,16.03 7.49,33.36 7.87,49.97 14.92,7.13 25.48,17.13 32.91,28.97 13.37,21.27 15.62,47.41 15.25,73.1l-26.64 -0.31c0.31,-21.48 -1.31,-42.91 -11.15,-58.59l0 -0.06c-9.32,-14.86 -27.13,-25.55 -59.9,-27.76l-287.58 0 0 -26.75 287.63 0 0.84 0.05c7.79,0.49 14.98,1.4 21.6,2.69 -1.03,-15.66 -3.98,-31.23 -11.08,-44.02 -9.44,-17.02 -27.18,-29.78 -59.54,-32l-190.36 0 0 -26.75 190.42 0 0.84 0.05c36.85,2.31 60.1,15.74 74.67,34.65l166.4 0 0.21 0.05c42.82,0.81 69.99,11.46 86.72,29.23 15.31,16.25 21.24,37.52 22.01,62.14 22.84,1.09 45.6,5.17 67.12,12.13 43.63,14.11 82.36,40.06 106.79,76.75 7.38,3.64 14.4,7.99 20.93,12.96 19.72,15 34.83,35.59 41.84,59.46 7.05,24 5.95,51.16 -6.79,79.11 -3.63,7.97 -8.23,16.01 -13.88,24.07 1.18,4.77 1.94,9.51 2.3,14.19 1.5,19.08 -3.43,37.1 -12.45,52.76 -8.8,15.29 -21.5,28.3 -35.8,37.77 -14.76,9.79 -31.4,15.98 -47.43,17.24l-1.05 0.05 -711.96 0zm0 -308.55l0 -26.75 155.26 0 0.21 0.06c40.38,0.75 66.05,9.83 81.97,25.68 16.49,16.41 21.72,38.73 21.33,65.78l-26.65 -0.31c0.29,-20.11 -3.01,-36.12 -13.5,-46.56 -11.03,-10.98 -30.75,-17.31 -63.37,-17.95l0 0.05 -155.26 0z"/>
    </clipPath>
 </defs>
 <g id="Layer_x0020_1">
  <metadata id="CorelCorpID_0Corel-Layer"/>
  <path class="fil0" d="M1607.47 1263.3c-985.68,518.81 -1693.47,1398.2 -1599.02,2241.59 257.71,2301.23 3121.17,2208.15 4231.86,2190.35 1210.37,-19.4 2545.3,-280.98 2708.85,-1511.18 171.93,-1293.26 -31.07,-1667.73 -423.24,-2155.54 -1192.9,-1483.82 -3399.7,-1564.6 -4918.44,-765.22z"/>
  <g id="_2716896545280">
   <g style="clip-path:url(#id0)">
    <image id="Layer_x0020_6_x0020_2" x="45.78" y="775.68" width="6956.71" height="4924.89" xlink:href="about_us_Images\about_us_ImgID1.png"/>
   </g>
   <g style="clip-path:url(#id1)">
    <image id="Layer_x0020_3" x="8.45" y="1543.61" width="7374" height="2559.77" xlink:href="about_us_Images\about_us_ImgID2.png"/>
   </g>
  </g>
  <path class="fil1" d="M1083.57 2330.72c-137.02,13.06 -224.99,226.09 -85.12,290.11 663.03,0 1326.07,0 1989.1,0 210.37,-98.01 132.45,-434.74 -132.03,-448.2 -0.88,-436.01 -330.34,-611.53 -705.31,-529.85 -266.22,-207.68 -731.53,-47.69 -760.9,349.18 -192.94,43.09 -310.86,126.54 -305.75,338.76z"/>
  <path class="fil1" d="M5343.63 2462.04c-137.02,13.06 -224.99,226.09 -85.12,290.11 663.03,0 1326.07,0 1989.1,0 210.37,-98.01 132.45,-434.74 -132.03,-448.2 -0.88,-436.01 -330.34,-611.53 -705.31,-529.85 -266.22,-207.68 -731.53,-47.69 -760.9,349.18 -192.94,43.09 -310.86,126.54 -305.75,338.76z"/>
  <path class="fil2" d="M4028.06 2299.79l0 322.67 118.35 132.21 2.59 6.66 0 1351.02 -20.06 0 0 -1347.25 -118.35 -132.21 -2.59 -6.66 0 -326.44 20.06 0zm-260.46 0l0 978.47 -2.43 6.51 -126.09 147.42 0 671.19 -20.06 0 0 -674.86 2.43 -6.51 126.09 -147.42 0 -974.81 20.06 0zm56.66 0l0 1114.95 -2.7 6.78 -80.32 86.69 0 633.09 -20.06 0 0 -636.95 2.7 -6.78 80.32 -86.69 0 -1111.09 20.06 0zm59.16 0l0 481.8 80.32 86.69 2.7 6.78 0 1237.29 -20.06 0 0 -1233.43 -80.32 -86.69 -2.7 -6.78 0 -485.66 20.06 0zm78.34 0l0 443.89 80.32 86.69 2.7 6.78 0 1290.36 -20.06 0 0 -1286.5 -80.32 -86.69 -2.7 -6.78 0 -447.75 20.06 0z"/>
  <g>
   <path class="fil3" d="M151.04 4103.38c443.66,1152.29 1722.8,1480.5 2808.52,1567.74 -281.03,-344.22 -277.07,-710.55 -580.76,-1028.65 -25.58,-26.79 -41.69,-53.31 -30.91,-93.4 88.01,-306.39 2479.37,-448.35 4556.98,-144.75 19.16,-69.73 34.04,-143.08 44.3,-220.26 3.64,-27.35 7.04,-54.14 10.35,-80.67l-6808.47 0zm2815.18 1568.29c7.94,0.63 15.86,1.25 23.78,1.85l-23.78 -1.85zm71.86 5.39c9.5,0.67 18.96,1.32 28.42,1.95 -9.46,-0.64 -18.93,-1.28 -28.42,-1.95zm70.76 4.69c10.85,0.67 21.67,1.33 32.47,1.96 -10.8,-0.63 -21.62,-1.28 -32.47,-1.96zm70.9 4.11c11.54,0.62 23.04,1.22 34.51,1.8 -11.46,-0.58 -22.98,-1.18 -34.51,-1.8zm68.26 3.43c14.45,0.67 28.83,1.31 43.17,1.91 -14.33,-0.6 -28.72,-1.24 -43.17,-1.91zm70.22 3.01c15.28,0.6 30.49,1.16 45.63,1.68 -15.14,-0.52 -30.35,-1.08 -45.63,-1.68zm68.93 2.46c15.63,0.5 31.17,0.97 46.64,1.4 -15.46,-0.43 -31.01,-0.89 -46.64,-1.4zm71.94 2.07c13.72,0.35 27.36,0.66 40.94,0.96 -13.58,-0.3 -27.22,-0.61 -40.94,-0.96zm64.33 1.44c14.11,0.28 28.14,0.52 42.1,0.75l-42.1 -0.75zm65.24 1.09c16.71,0.23 33.28,0.42 49.75,0.59 -16.46,-0.16 -33.04,-0.36 -49.75,-0.59zm65.36 0.73c16.09,0.14 32.04,0.25 47.88,0.33 -15.84,-0.08 -31.79,-0.19 -47.88,-0.33zm63.19 0.39c14.81,0.06 29.5,0.09 44.09,0.1 -14.58,-0.01 -29.27,-0.04 -44.09,-0.1zm68.26 0.1c12.73,-0.01 25.34,-0.04 37.88,-0.09 -12.53,0.04 -25.16,0.08 -37.88,0.09zm61.76 -0.19c12.32,-0.06 24.51,-0.14 36.64,-0.22 -12.12,0.08 -24.32,0.16 -36.64,0.22zm57.6 -0.39c11.41,-0.09 22.7,-0.19 33.92,-0.31 -11.22,0.11 -22.52,0.21 -33.92,0.31zm390.02 -5.82c7.23,-0.16 14.47,-0.37 21.7,-0.55 -7.23,0.17 -14.47,0.39 -21.7,0.55zm55.81 -1.42c7.53,-0.22 15.08,-0.47 22.62,-0.71 -7.54,0.24 -15.09,0.49 -22.62,0.71zm54.86 -1.75c8.09,-0.28 16.19,-0.61 24.3,-0.92 -8.1,0.31 -16.2,0.64 -24.3,0.92zm56.25 -2.18c7.92,-0.33 15.83,-0.7 23.75,-1.06 -7.92,0.36 -15.84,0.73 -23.75,1.06zm54.85 -2.51c8.59,-0.42 17.18,-0.88 25.77,-1.33 -8.59,0.45 -17.18,0.91 -25.77,1.33zm56.05 -2.98c8.12,-0.46 16.24,-0.95 24.37,-1.44 -8.12,0.49 -16.25,0.97 -24.37,1.44zm56.25 -3.42c7.94,-0.52 15.88,-1.05 23.81,-1.58 -7.94,0.54 -15.88,1.07 -23.81,1.58zm55.39 -3.81c8.29,-0.6 16.57,-1.22 24.85,-1.85 -8.28,0.63 -16.57,1.25 -24.85,1.85zm55.13 -4.25c8.49,-0.69 16.97,-1.38 25.45,-2.1 -8.48,0.72 -16.96,1.41 -25.45,2.1zm55.7 -4.77c8.39,-0.75 16.79,-1.5 25.18,-2.29 -8.39,0.79 -16.78,1.54 -25.18,2.29zm55.65 -5.26c8.32,-0.82 16.63,-1.63 24.94,-2.49 -8.31,0.86 -16.63,1.67 -24.94,2.49zm55.36 -5.75c8.32,-0.9 16.65,-1.79 24.95,-2.73 -8.31,0.94 -16.63,1.82 -24.95,2.73zm56.25 -6.4c7.84,-0.93 15.69,-1.83 23.51,-2.79 -7.83,0.96 -15.68,1.86 -23.51,2.79zm59.48 -7.38c6.21,-0.81 12.43,-1.57 18.62,-2.4 -6.2,0.83 -12.42,1.59 -18.62,2.4zm127.31 -18.08c6.6,-1.03 13.15,-2.13 19.74,-3.18 -6.58,1.05 -13.14,2.15 -19.74,3.18zm54.11 -8.75c7.42,-1.24 14.79,-2.56 22.18,-3.83 -7.39,1.27 -14.77,2.59 -22.18,3.83zm53.57 -9.3c8.03,-1.44 16.02,-2.95 24.03,-4.44 -8.01,1.49 -16,2.99 -24.03,4.44zm53.29 -9.92c8.2,-1.58 16.37,-3.21 24.55,-4.84 -8.18,1.63 -16.35,3.26 -24.55,4.84zm53.16 -10.59c8.12,-1.67 16.22,-3.39 24.31,-5.11 -8.1,1.72 -16.19,3.44 -24.31,5.11zm52.8 -11.24c8.12,-1.79 16.22,-3.61 24.31,-5.44 -8.09,1.83 -16.19,3.66 -24.31,5.44zm52.22 -11.87c8.15,-1.91 16.29,-3.85 24.41,-5.81 -8.12,1.96 -16.26,3.9 -24.41,5.81zm51.66 -12.51c8.23,-2.05 16.43,-4.13 24.62,-6.23 -8.19,2.1 -16.4,4.18 -24.62,6.23zm51.7 -13.33c7.95,-2.11 15.89,-4.23 23.8,-6.39 -7.91,2.16 -15.85,4.28 -23.8,6.39zm51.16 -14.02c7.86,-2.22 15.72,-4.44 23.54,-6.71 -7.82,2.27 -15.68,4.49 -23.54,6.71zm50.27 -14.65c7.81,-2.34 15.64,-4.67 23.41,-7.07 -7.77,2.4 -15.6,4.72 -23.41,7.07zm50.21 -15.53c7.61,-2.43 15.25,-4.82 22.82,-7.3 -7.57,2.48 -15.21,4.88 -22.82,7.3zm50.1 -16.45c7.2,-2.43 14.44,-4.82 21.6,-7.31 -7.16,2.49 -14.4,4.88 -21.6,7.31zm51.54 -17.98c6.12,-2.2 12.29,-4.34 18.37,-6.58 -6.09,2.24 -12.26,4.38 -18.37,6.58zm65.23 -24.3c3.38,-1.32 6.7,-2.69 10.07,-4.02 -3.37,1.33 -6.69,2.71 -10.07,4.02zm47.42 -19.01c6.22,-2.57 12.36,-5.24 18.55,-7.85 -6.19,2.61 -12.32,5.28 -18.55,7.85zm46.21 -19.63c6.8,-2.97 13.51,-6.04 20.26,-9.06 -6.75,3.02 -13.46,6.09 -20.26,9.06zm45.7 -20.54c6.9,-3.19 13.71,-6.47 20.55,-9.71 -6.85,3.25 -13.66,6.52 -20.55,9.71zm44.79 -21.32c6.96,-3.4 13.85,-6.89 20.75,-10.36 -6.9,3.47 -13.79,6.96 -20.75,10.36zm44.15 -22.25c6.87,-3.56 13.67,-7.18 20.48,-10.8 -6.81,3.62 -13.61,7.25 -20.48,10.8zm43.36 -23.13c6.79,-3.72 13.53,-7.5 20.26,-11.29 -6.73,3.79 -13.47,7.57 -20.26,11.29zm42.41 -23.95c6.74,-3.91 13.44,-7.87 20.11,-11.85 -6.68,3.98 -13.37,7.94 -20.11,11.85zm41.68 -24.93c6.58,-4.05 13.15,-8.13 19.66,-12.25 -6.52,4.12 -13.08,8.2 -19.66,12.25zm40.89 -25.91c6.41,-4.18 12.81,-8.38 19.16,-12.63 -6.35,4.25 -12.74,8.45 -19.16,12.63zm39.9 -26.81c6.25,-4.32 12.51,-8.64 18.69,-13.03 -6.18,4.39 -12.43,8.71 -18.69,13.03zm38.99 -27.78c6.1,-4.48 12.23,-8.94 18.26,-13.49 -6.03,4.55 -12.15,9.01 -18.26,13.49zm38.27 -28.95c5.82,-4.53 11.67,-9.03 17.42,-13.64 -5.75,4.61 -11.6,9.1 -17.42,13.64zm37.59 -30.22c5.44,-4.51 10.94,-8.95 16.3,-13.53 -5.37,4.57 -10.87,9.02 -16.3,13.53zm38.06 -32.59c4.54,-4.01 9.16,-7.95 13.64,-12.02 -4.48,4.06 -9.11,8 -13.64,12.02zm47.32 -43.49c3.31,-3.18 6.49,-6.48 9.77,-9.7l-9.77 9.7zm33.56 -33.45c4.67,-4.8 9.19,-9.74 13.79,-14.61 -4.6,4.86 -9.12,9.81 -13.79,14.61zm32.16 -34.22c4.85,-5.33 9.55,-10.79 14.32,-16.19 -4.77,5.4 -9.47,10.86 -14.32,16.19zm31.04 -35.3c4.79,-5.63 9.45,-11.37 14.15,-17.07 -4.7,5.71 -9.36,11.45 -14.15,17.07zm29.9 -36.4c4.65,-5.86 9.19,-11.82 13.75,-17.76 -4.56,5.94 -9.1,11.9 -13.75,17.76zm28.75 -37.56c4.46,-6.04 8.83,-12.15 13.19,-18.27 -4.37,6.11 -8.73,12.24 -13.19,18.27zm27.51 -38.64c4.28,-6.23 8.48,-12.54 12.67,-18.86 -4.19,6.32 -8.39,12.62 -12.67,18.86zm26.24 -39.74c4.13,-6.48 8.19,-13.03 12.21,-19.6 -4.03,6.57 -8.09,13.12 -12.21,19.6zm24.97 -40.89c3.9,-6.64 7.76,-13.31 11.56,-20.04 -3.8,6.73 -7.66,13.4 -11.56,20.04zm23.77 -42.21c3.68,-6.8 7.34,-13.63 10.91,-20.52 -3.58,6.9 -7.23,13.72 -10.91,20.52zm22.34 -43.2c3.48,-7.02 6.96,-14.04 10.33,-21.15 -3.37,7.11 -6.85,14.13 -10.33,21.15zm21.09 -44.63c3.22,-7.12 6.45,-14.22 9.57,-21.44 -3.12,7.21 -6.35,14.31 -9.57,21.44zm19.75 -45.96c2.96,-7.21 5.95,-14.39 8.81,-21.69 -2.86,7.3 -5.85,14.48 -8.81,21.69zm18.4 -47.42c2.66,-7.21 5.38,-14.38 7.95,-21.68 -2.57,7.3 -5.29,14.46 -7.95,21.68zm17.31 -49.83c2.24,-6.83 4.57,-13.59 6.74,-20.47 -2.17,6.89 -4.5,13.64 -6.74,20.47z"/>
  </g>
   <path class="fil1" d="M2643.24 5065.2c53.71,124.31 99.99,251.01 166.22,376.86 864.03,100.82 2115.64,85.16 3004.77,19.9 232.58,-82.61 443.63,-192.15 619.67,-336.21 -1653.62,104.39 -3119.16,148.72 -3790.65,-60.54z"/>
  <path class="fil8" d="M3055.35 4833.54c15.82,0 30.25,5.44 40.8,14.23 11.05,9.21 17.9,22.07 17.9,36.36 0,14.29 -6.84,27.15 -17.9,36.36 -10.55,8.79 -24.98,14.23 -40.8,14.23 -15.82,0 -30.25,-5.44 -40.8,-14.23 -11.05,-9.21 -17.9,-22.07 -17.9,-36.36 0,-14.29 6.84,-27.15 17.9,-36.36 10.55,-8.79 24.98,-14.23 40.8,-14.23zm28.02 29.59c-7.06,-5.88 -16.96,-9.53 -28.02,-9.53 -11.06,0 -20.96,3.64 -28.02,9.53 -6.55,5.46 -10.61,12.9 -10.61,21 0,8.1 4.06,15.54 10.61,21 7.06,5.88 16.96,9.53 28.02,9.53 11.06,0 20.96,-3.64 28.02,-9.53 6.55,-5.46 10.61,-12.9 10.61,-21 0,-8.1 -4.06,-15.54 -10.61,-21z"/>
  <path class="fil8" d="M4545.46 4816.16c15.82,0 30.25,5.44 40.8,14.23 11.05,9.21 17.9,22.07 17.9,36.36 0,14.29 -6.84,27.15 -17.9,36.36 -10.55,8.79 -24.98,14.23 -40.8,14.23 -15.82,0 -30.25,-5.44 -40.8,-14.23 -11.05,-9.21 -17.9,-22.07 -17.9,-36.36 0,-14.29 6.84,-27.15 17.9,-36.36 10.55,-8.79 24.98,-14.23 40.8,-14.23zm28.02 29.59c-7.06,-5.88 -16.96,-9.53 -28.02,-9.53 -11.06,0 -20.96,3.64 -28.02,9.53 -6.55,5.46 -10.61,12.9 -10.61,21 0,8.1 4.06,15.54 10.61,21 7.06,5.88 16.96,9.53 28.02,9.53 11.06,0 20.96,-3.64 28.02,-9.53 6.55,-5.46 10.61,-12.9 10.61,-21 0,-8.1 -4.06,-15.54 -10.61,-21z"/>
  <path class="fil8" d="M6369.29 4762.86c15.82,0 30.25,5.44 40.8,14.23 11.05,9.21 17.9,22.07 17.9,36.36 0,14.29 -6.84,27.15 -17.9,36.36 -10.55,8.79 -24.98,14.23 -40.8,14.23 -15.82,0 -30.25,-5.44 -40.8,-14.23 -11.05,-9.21 -17.9,-22.07 -17.9,-36.36 0,-14.29 6.84,-27.15 17.9,-36.36 10.55,-8.79 24.98,-14.23 40.8,-14.23zm28.02 29.59c-7.06,-5.88 -16.96,-9.53 -28.02,-9.53 -11.06,0 -20.96,3.64 -28.02,9.53 -6.55,5.46 -10.61,12.9 -10.61,21 0,8.1 4.06,15.54 10.61,21 7.06,5.88 16.96,9.53 28.02,9.53 11.06,0 20.96,-3.64 28.02,-9.53 6.55,-5.46 10.61,-12.9 10.61,-21 0,-8.1 -4.06,-15.54 -10.61,-21z"/>
  <path class="fil7" d="M2468.7 4733.29c411.65,63.9 1133.26,38.46 1933.98,10.24 785.16,-27.67 1646.29,-58.03 2367.27,-9.53l-1.77 26.64c-720.05,-48.43 -1580.25,-18.11 -2364.56,9.53 -802,28.27 -1524.78,53.75 -1938.99,-10.55l4.07 -26.33z"/>
  <path class="fil7" d="M6902.93 4417.54c-987.55,-144.31 -2045.9,-187.88 -2893.68,-160.95 -929.65,29.53 -1604.06,141.39 -1648.52,296.15 -4.51,16.92 -3.44,30.81 1.41,43.17 5.13,13.07 14.61,25.11 26.32,37.38 161.69,169.36 236.79,351.53 313.16,536.81 67.76,164.39 136.56,331.28 268.3,492.65l-20.69 16.82c-134.19,-164.36 -203.75,-333.11 -272.27,-499.33 -75.39,-182.9 -149.52,-362.73 -307.84,-528.56 -13.86,-14.51 -25.23,-29.14 -31.86,-46.05 -6.89,-17.56 -8.5,-36.93 -2.29,-60l0.05 -0.21c47.84,-166.53 732.25,-285.58 1673.38,-315.47 849.33,-26.98 1909.45,16.65 2898.38,161.16l-3.87 26.44z"/>
  <path class="fil7" d="M6809.2 4429.97c-1316.5,-132.84 -2397.75,-147.75 -3152.72,-107.88 -378.48,19.99 -674.92,53.76 -877.8,93.34 -199.94,39 -307.58,82.34 -311.63,122.46 -0.1,1.02 -0.13,2.07 -0.07,3.1l-0.08 1.49c-3.34,18.69 32.22,33.67 99.71,45.72 264.54,47.23 996.34,31.74 1819.57,14.32 838.76,-17.75 1772.39,-37.51 2404.34,4.99l-0.89 13.32c-631.67,-42.48 -1564.84,-22.73 -2403.19,-4.99 -824.01,17.44 -1556.51,32.94 -1822.12,-14.48 -75.36,-13.45 -114.83,-33.09 -110.68,-60.46 -0.04,-1.43 0.01,-2.87 0.16,-4.31 4.69,-46.45 116.04,-94.03 322.33,-134.27 203.34,-39.67 500.41,-73.52 879.68,-93.55 755.5,-39.9 1837.45,-24.99 3154.7,107.93l-1.3 13.27z"/>
  <path class="fil2" d="M6572.74 4374.4c13.11,30.51 -8.75,50.37 -45.08,51.84 -36.32,1.47 -65.88,-0.99 -78.99,-31.5 -148.26,-344.54 -278.24,-614.8 -425.85,-823.3 -140.96,-199.09 -288.84,-322.08 -459.56,-341.82 -229.67,-13.48 -362.8,-19.38 -483.98,-24.73 -143.12,-6.33 -270.08,-11.95 -497.57,-26.93 -33.11,-2.07 -58.26,-30.6 -56.18,-63.71 2.07,-33.11 30.6,-58.26 63.71,-56.18 232.31,15.29 355.9,20.76 495.22,26.93 124.88,5.52 262.08,11.6 486.35,24.76 1.58,0.05 3.17,0.16 4.76,0.33 209.49,23.79 384.01,164.77 545.05,392.23 154.62,218.38 301.49,522.01 452.13,872.08z"/>
  <path class="fil8" d="M6581.33 4370.71c2.83,6.59 4.3,12.91 4.54,18.87 0.37,9.23 -2.18,17.37 -7.16,24.22 -4.83,6.58 -11.73,11.8 -20.26,15.47 -8.53,3.67 -18.86,5.84 -30.43,6.31 -19.09,0.78 -36.52,0.48 -51.34,-4.16 -16.13,-5.05 -28.82,-14.85 -36.6,-32.98 -74.12,-172.25 -143.62,-325.82 -212.91,-462.15 -69.32,-136.38 -138.49,-255.7 -211.96,-359.46 -69.91,-98.75 -141.5,-178.59 -216.68,-236.12 -74.55,-57.05 -152.65,-92.08 -236.2,-101.77 -115.1,-6.75 -205.55,-11.59 -282.18,-15.39 -77.44,-3.84 -140.85,-6.65 -201.27,-9.32l-0.11 -0c-143.36,-6.35 -270.59,-11.98 -497.65,-26.92 -19.11,-1.21 -35.95,-10.05 -47.68,-23.36 -11.77,-13.31 -18.44,-31.12 -17.24,-50.26 1.21,-19.11 10.05,-35.95 23.36,-47.68 13.31,-11.77 31.12,-18.44 50.26,-17.24 116.47,7.66 205.36,12.85 282.37,16.88 77.74,4.07 143.25,6.97 212.67,10.04 62.61,2.77 128.32,5.68 205.94,9.52 78.35,3.87 168.87,8.69 280.56,15.25l2.5 0.12 2.74 0.25c106.46,12.09 203.96,53.9 295.23,121.53 90.74,67.24 175.31,160.06 256.41,274.61 77.69,109.74 153.3,240.6 228.29,387.79 74.98,147.16 149.44,310.77 224.83,485.97zm-14.11 19.6c-0.15,-3.63 -1.14,-7.71 -3.07,-12.21 -75.24,-174.86 -149.54,-338.11 -224.32,-484.87 -74.76,-146.73 -149.91,-276.89 -226.82,-385.52 -79.94,-112.91 -163.16,-204.31 -252.31,-270.37 -88.62,-65.67 -183.14,-106.26 -286.16,-117.95 -1.38,-0.12 -2.9,-0.3 -4.29,-0.3 -112.57,-6.61 -202.81,-11.41 -280.34,-15.25 -78.25,-3.87 -143.6,-6.77 -205.87,-9.52 -69.89,-3.09 -135.85,-6.02 -212.81,-10.04 -77.67,-4.06 -166.76,-9.26 -282.59,-16.88 -13.97,-0.88 -26.99,4.01 -36.73,12.6 -9.74,8.56 -16.19,20.85 -17.07,34.81 -0.88,14 4.01,27.02 12.6,36.76 8.56,9.74 20.85,16.19 34.81,17.07 227.84,14.99 354.54,20.6 497.32,26.92l0.11 0c60.76,2.68 124.52,5.51 201.35,9.32 77.56,3.85 168.4,8.7 282.79,15.41l0.51 0.04c87.11,10.07 168.29,46.4 245.54,105.52 76.67,58.66 149.52,139.87 220.56,240.21 74.15,104.73 143.79,224.8 213.42,361.81 69.66,137.06 139.29,290.89 213.42,463.18 5.32,12.38 13.97,19.07 24.97,22.51 12.31,3.85 27.83,4.05 45.05,3.35 9.18,-0.37 17.24,-2.04 23.77,-4.84 5.52,-2.37 9.8,-5.49 12.53,-9.23 2.51,-3.51 3.82,-7.73 3.62,-12.54z"/>
  <g id="_2716896527664">
   <path class="fil6" d="M4187.15 379.91c-24.47,2.86 -109.37,161.43 -98.17,219.34 5.49,28.39 40.49,92.44 9.99,109.81 -0.46,0.27 -76.91,93.09 -74.82,103.92 6.34,32.81 88.95,19.91 104.1,69.78 13.66,44.94 38.6,122.06 69.74,153.26 34.22,34.28 161.38,5.28 204.91,-11.66 0.01,-0.2 -6.3,19.02 -2.75,48.81 3.37,28.32 39.74,74.85 49.75,126.61 12.07,-5.04 60.14,-30.3 131.68,-48.98 26.52,-6.93 198.92,-109.47 195.48,-127.24 -8.35,-43.17 13.28,-224.85 29.79,-262.14 39.96,-90.26 29.01,-212.92 -51.42,-279.62 -101.68,-84.32 -381.23,-113.1 -522.13,-106.29 -11.16,0.54 -41.44,-6.15 -46.15,4.4z"/>
   <path class="fil7" d="M4188.68 389.79l-0.14 0.02c-9.33,1.82 -32.73,38.23 -53.89,81.49 -21.68,44.32 -39.58,94.94 -36.29,123.05 0.12,1.07 0.28,2.08 0.46,3.02 1.29,6.66 4.54,15.99 8.1,26.22 11.89,34.14 26.87,77.15 -3.01,94.17 -0.22,0.13 -31.34,38.88 -52.82,68.72 -9.82,13.64 -17.2,24.11 -17.1,24.61 1.71,8.86 17.42,13.53 35.09,18.78 27.58,8.2 58.87,17.51 68.74,49.98 6.76,22.23 16.3,52.42 28,80.88 11.4,27.75 24.77,53.69 39.27,68.23 11.48,11.5 37.8,14.29 67.8,12.59 44.85,-2.55 96.47,-15.5 122.98,-25.23 5.56,-7.29 14.13,-0.12 15.97,3.57l4.9 9.81 -5.43 2.12c-1.48,7 -3.46,21.17 -1.2,40.18 1.32,11.14 9.21,26.9 18.29,45.06 10.19,20.37 21.79,43.56 28.49,68.52 20.9,-9.7 63.7,-29.18 122.19,-44.45 14.42,-3.76 76.35,-38.66 126.18,-71.1 34.33,-22.34 62.5,-41.83 61.97,-44.58 -4.29,-22.17 -1.19,-77.81 5.09,-133.05 6.52,-57.43 16.56,-115.12 25.36,-135.01 20.13,-45.46 26.84,-99.45 17.59,-149.76 -8.36,-45.47 -29.81,-87.9 -66.23,-118.1 -42.64,-35.36 -118.44,-60.82 -201.98,-77.82 -110.51,-22.5 -234.04,-30.02 -313.3,-26.19 -3.87,0.18 -8.52,-0.22 -13.69,-0.67 -10.2,-0.88 -23.28,-2.01 -23.8,-0.85l-2.22 4.96 -5.38 0.84zm-71.97 72.73c21.59,-44.13 47.92,-82.36 63.91,-90.8 8.32,-9.72 26.59,-8.13 41.19,-6.87 4.67,0.41 8.87,0.77 11.03,0.67 80.55,-3.89 206.04,3.75 318.23,26.59 86.46,17.6 165.37,44.33 210.76,81.97 40.28,33.4 63.95,80.06 73.12,129.94 9.98,54.28 2.76,112.48 -18.92,161.44 -8.02,18.11 -17.48,73.44 -23.8,129.13 -6.09,53.6 -9.22,106.94 -5.33,127.1 2.39,12.37 -30.21,38.74 -70.74,65.11 -51.21,33.33 -116.02,69.5 -132.06,73.69 -58.65,15.31 -101.54,35.27 -121.05,44.35 -4.05,1.86 -7.12,3.29 -9.29,4.2l-11.33 4.73 -2.34 -12.1c-5.24,-27.08 -18.29,-53.19 -29.55,-75.67 -9.96,-19.91 -18.61,-37.19 -20.32,-51.64 -1.67,-14.03 -1.27,-25.96 -0.31,-34.89 -29.72,9.38 -75.5,19.78 -115.91,22.09 -35.11,2 -66.89,-2.24 -83.09,-18.47 -16.62,-16.66 -31.32,-44.88 -43.58,-74.73 -11.97,-29.13 -21.73,-59.98 -28.63,-82.68 -6.73,-22.15 -32.53,-29.83 -55.26,-36.58 -23.87,-7.1 -45.09,-13.41 -49.11,-34.22 -1.32,-6.8 7.83,-22.4 20.54,-40.05 22.66,-31.48 58.79,-74.23 59.17,-74.45 15.39,-8.76 3.46,-43.01 -6,-70.19 -3.84,-11.03 -7.34,-21.08 -8.88,-29.04 -0.28,-1.48 -0.52,-2.99 -0.69,-4.5 -3.76,-32.18 15.18,-86.95 38.25,-134.11z"/>
   <path class="fil9" d="M4189.38 389.44c-170,-132.03 327.9,-252.77 596.19,-148.95 225,87.06 246.97,402.54 74.39,596.72 -113.32,127.51 -47.05,84.54 -119.83,12.72 -3.65,-3.61 -44.59,-67.79 -48.99,-71.52 -54.17,-45.96 137.48,-91.21 77.33,-205.57 -28.93,-55.01 -93.28,-90.09 -160.39,-32.26 -58.63,50.51 -10.57,110.26 -55.05,111.01 -65.14,1.1 -135.48,-9.53 -171.65,-98.2 -65.86,-162.28 -166.83,-144.4 -192,-163.95z"/>
   <ellipse class="fil9" transform="matrix(-1.13884 0.185149 0.201919 1.04426 4204.38 660.342)" rx="14.48" ry="32.9"/>
  </g>
  <path class="fil2 str0" d="M3297.39 3160.32c-13.37,-30.38 0.42,-65.85 30.8,-79.22 30.38,-13.37 65.85,0.42 79.22,30.8 100.57,226.94 183.13,419.21 259.36,605.42 75.72,184.97 150.19,373.51 217.56,557.05 11.42,31.16 -10.61,39.98 -49.95,43.68 -39.33,3.7 -65.68,-4.58 -77.11,-35.73 -69.35,-188.92 -129.14,-343.18 -201.47,-519.85 -71.81,-175.43 -154.3,-367.18 -258.42,-602.13z"/>
  <path class="fil9" d="M4895.4 4317.12c153.29,19.44 306.58,38.88 459.87,58.32 2.11,50.35 -8.53,99.73 -30.82,148.22 -54.69,3.26 -109.38,6.52 -164.07,9.78 -4.34,-11.59 -8.69,-26.97 -13.04,-38.56 -216.11,73.43 -489.91,35.35 -498.59,-22.24 -8.68,-57.59 197.94,-82.33 246.64,-155.52z"/>
  <path class="fil7" d="M4895.81 4313.82l462.66 58.67 0.12 2.82c1.06,25.45 -1.1,50.65 -6.33,75.62 -5.23,24.94 -13.54,49.65 -24.79,74.12l-0.84 1.83c-56.16,3.42 -112.34,6.75 -168.51,10.05l-0.86 -2.31c-2.22,-5.92 -4.4,-12.68 -6.57,-19.42 -1.79,-5.57 -3.59,-11.13 -5.36,-16.1 -40.63,13.58 -83.21,23.26 -125.62,29.66 -89.57,13.5 -178.53,12.35 -247,2.21 -69.43,-10.28 -118.24,-30.15 -126.26,-53.76 -0.45,-1.33 -0.79,-2.69 -0.99,-4.05 -4.87,-32.31 49.07,-53.74 109.23,-77.63 54.81,-21.77 114.93,-45.65 137.94,-80.23l1.14 -1.72 2.05 0.26zm456.22 64.57l-455.04 -57.71c-24.93,35.35 -85.01,59.23 -139.87,81.02 -57.55,22.86 -109.16,43.36 -105.08,70.44 0.14,0.98 0.38,1.94 0.71,2.9 7.18,21.14 53.95,39.38 120.9,49.3 67.9,10.05 156.15,11.19 245.05,-2.21 43.14,-6.51 86.42,-16.43 127.56,-30.41l3.05 -1.04 1.14 3.04c2.22,5.92 4.4,12.68 6.57,19.42 1.88,5.84 3.76,11.68 5.61,16.82l159.6 -9.52c10.61,-23.41 18.49,-47.04 23.49,-70.87 4.93,-23.5 7.07,-47.23 6.3,-71.18z"/>
  <path class="fil9" d="M4204.1 4198.45c153.29,19.44 306.58,38.88 459.87,58.32 2.11,50.35 -8.53,99.73 -30.82,148.22 -54.69,3.26 -109.38,6.52 -164.07,9.78 -4.34,-11.59 -8.69,-26.97 -13.04,-38.56 -216.11,73.43 -489.91,35.35 -498.59,-22.24 -8.68,-57.59 197.94,-82.33 246.64,-155.52z"/>
  <path class="fil7" d="M4204.52 4195.14l462.66 58.67 0.12 2.82c1.06,25.45 -1.1,50.65 -6.33,75.62 -5.23,24.94 -13.54,49.65 -24.79,74.12l-0.84 1.83c-56.16,3.42 -112.34,6.75 -168.51,10.05l-0.86 -2.31c-2.22,-5.92 -4.4,-12.68 -6.57,-19.42 -1.79,-5.57 -3.59,-11.13 -5.36,-16.1 -40.63,13.58 -83.21,23.26 -125.62,29.66 -89.57,13.5 -178.53,12.35 -247,2.21 -69.43,-10.28 -118.24,-30.15 -126.26,-53.76 -0.45,-1.33 -0.79,-2.69 -0.99,-4.05 -4.87,-32.31 49.07,-53.74 109.23,-77.63 54.81,-21.77 114.93,-45.65 137.94,-80.23l1.14 -1.72 2.05 0.26zm456.22 64.57l-455.04 -57.71c-24.93,35.35 -85.01,59.23 -139.87,81.02 -57.55,22.86 -109.16,43.36 -105.08,70.44 0.14,0.98 0.38,1.94 0.71,2.9 7.18,21.14 53.95,39.38 120.9,49.3 67.9,10.05 156.15,11.19 245.05,-2.21 43.14,-6.51 86.42,-16.43 127.56,-30.41l3.05 -1.04 1.14 3.04c2.22,5.92 4.4,12.68 6.57,19.42 1.88,5.84 3.76,11.68 5.61,16.82l159.6 -9.52c10.61,-23.41 18.49,-47.04 23.49,-70.87 4.93,-23.5 7.07,-47.23 6.3,-71.18z"/>
  <g id="_2716896534240">
   <path class="fil10 str1" d="M3592.07 2209.26c0,-85.9 -109.11,-97.11 -145.3,-42.55 -42.92,64.71 17.48,129 69.03,133.07l640.01 0"/>
   <path class="fil10 str1" d="M3630.83 2094.74c-27.98,-89.7 -107.69,-91.79 -158.2,-68.79 -55.61,25.33 -89.16,93.59 -36.63,162.65"/>
   <path class="fil10 str1" d="M4020.22 2187.22c-64.85,0 -129.7,0 -194.55,0 -80.31,0 -82.86,-134.74 0,-134.74l105.18 0"/>
   <path class="fil10 str1" d="M4130.55 1913.95c-74.93,0 -115.49,0 -190.42,0 -76.57,4.81 -85,52.76 -84.31,99.94"/>
   <path class="fil10 str1" d="M4167.72 1991.24c-74.93,0 -20.28,0 -95.21,0 -73.13,1.38 -90.88,30.82 -90.19,77.99"/>
   <path class="fil10 str1" d="M4178.68 1813.92c-74.93,0 -115.49,0 -190.42,0 -76.57,4.81 -85,62.39 -84.31,109.56"/>
   <path class="fil10 str1" d="M3917.34 1848.63c-79.51,0 -91.49,0 -171,0 -77.6,1.46 -96.42,36.49 -95.69,86.55"/>
   <path class="fil10 str1" d="M4197.04 2152.33c-74.93,0 -20.28,0 -95.21,0 -108.2,0 -102.57,85.12 -54.44,108.24"/>
   <path class="fil10 str1" d="M3825.66 2052.48c-47.86,-147.95 -279.19,-143.49 -353.03,-26.52"/>
  </g>
  <path class="fil1" d="M4890.51 2578.36c-240.75,-0.67 -469.08,3.84 -709.83,3.17 1.8,351.41 84.09,702.82 85.9,1054.23 0.96,187.77 -78.55,375.56 -77.58,563.34 105.04,27.76 271.62,47.75 486.43,62.59 16.46,-207.76 20.46,-435.68 17.89,-674.2 109.31,232.17 183.38,473.62 202.08,729.64 168.23,47.34 319.99,61.75 459.6,51.86 -8.54,-511.51 -389.18,-1327.4 -464.48,-1790.62z"/>
  <path class="fil7" d="M4882.02 2588.33c-117.35,-0.27 -231.85,0.67 -346.34,1.6 -114.01,0.94 -228.02,1.87 -344.93,1.61 1.63,171.55 22.23,343.74 42.83,515.92 21.04,175.86 42.08,351.73 42.99,528.25 0.49,94.98 -19.25,189.36 -38.99,283.73 -18.99,90.81 -37.99,181.64 -38.59,271.89 51.08,12.97 116,24.2 193.31,33.98 78.66,9.94 170.48,18.41 273.9,25.68 7.79,-101.03 12.68,-206.41 15.31,-315.12 2.73,-112.69 3.09,-229.19 1.8,-348.32l19.05 -4.35c54.9,116.6 100.95,235.53 135.61,357.4 34.06,119.78 57.15,242.49 66.88,368.75 160.54,44.45 305.9,58.64 439.93,50.26 -7.63,-299.08 -140.33,-701.34 -263.73,-1075.34 -85.73,-259.86 -166.99,-506.12 -199.03,-695.95zm-346.5 -18.38c117.27,-0.96 234.56,-1.92 354.99,-1.58l8.51 0.03 1.36 8.36c30.74,189.12 112.93,438.21 199.72,701.26 125.13,379.27 259.82,787.51 264.89,1090.82l0.16 9.48 -9.44 0.67c-140.71,9.96 -293.6,-4.54 -463.01,-52.22l-6.78 -1.91 -0.51 -7.02c-9.3,-127.26 -32.37,-250.96 -66.71,-371.72 -30.19,-106.18 -69.09,-210.06 -114.97,-312.06 0.74,103.18 0.16,204.22 -2.22,302.31 -2.74,113.27 -7.86,222.41 -16.08,326.12l-0.78 9.89 -9.88 -0.68c-107.34,-7.42 -202.87,-16.15 -284.96,-26.53 -82.13,-10.38 -150.47,-22.4 -203.34,-36.38l-7.41 -1.96 -0.04 -7.68c-0.49,-94.99 19.25,-189.38 38.99,-283.75 19.53,-93.4 39.07,-186.81 38.59,-279.59 -0.89,-174.87 -21.9,-350.43 -42.91,-525.97 -21.04,-175.86 -42.09,-351.73 -42.99,-528.25l-0.05 -10.06 10.05 0.03c120.31,0.33 237.58,-0.63 354.84,-1.58z"/>
  <path class="fil7" d="M4351.11 2817.08c46.25,124.91 108.73,248.03 171.24,371.23 66.44,130.94 132.94,261.99 180.41,395.84l-18.89 6.66c-47.05,-132.7 -113.25,-263.14 -179.39,-393.49 -62.8,-123.77 -125.58,-247.47 -172.18,-373.35l18.81 -6.9z"/>
  <path class="fil2" d="M4369.69 3178.58c142.27,293.84 246.97,584.5 351.38,874.38 64.77,179.83 123.54,336.92 197.68,517.76 13.99,34.04 -14.39,54.8 -49.44,58.69 -35.05,3.89 -72.99,-2.26 -86.98,-36.31 -74.32,-181.3 -120.91,-312.74 -186.64,-495.21 -110.14,-305.79 -220.59,-612.44 -376.07,-922.03 -213.56,-2.95 -426.28,-1.94 -639.19,2.82 -202.96,4.54 -406.32,12.49 -610.96,23.66 111.49,223.34 218.69,447.05 321.39,671.11 113.79,248.25 227.88,478.89 328.63,724.62 13.99,34.04 -25.9,42.45 -64.6,45.55 -38.7,3.1 -60.86,4.81 -74.86,-29.23 -100.39,-244.87 -197.61,-439.57 -310.37,-685.56 -108.76,-237.29 -223.93,-476.68 -345.16,-718.05 -261.21,16.14 -524.82,37.44 -792.62,63.53 115.35,202.1 225.87,398.48 325.92,591.37 114.35,220.45 216.4,416.73 289.02,621.62 12.26,34.76 2.57,57.5 -58.69,60.37 -48.22,4.08 -64.35,-2.56 -76.61,-37.33 -70.43,-198.72 -160.62,-368.21 -272.31,-583.54 -111.3,-214.6 -240.09,-440.83 -374.36,-675.47l0.11 -0.06c-4.54,-7.92 -7.52,-16.91 -8.47,-26.58 -3.61,-36.64 23.17,-69.27 59.81,-72.88 566.66,-57.55 1114.86,-94.13 1661.5,-106.35 547.29,-12.24 1091.4,-0.1 1649.02,39.79l-0.01 0.08c183.34,3.53 405.81,188.49 613.89,458.84 221.04,287.2 422.95,643.51 552.18,1005.55 12.4,34.76 -7.7,63.26 -50.18,64.08 -42.48,0.82 -73.01,-5.72 -85.41,-40.48 -124.98,-350.14 -309.53,-671.44 -522.11,-947.65 -186.24,-241.98 -374.46,-406.89 -513.06,-407.21 -1.58,0 -3.14,-0.06 -4.69,-0.17l-0.01 0.17c-285.95,-20.45 -567.76,-33.59 -847.74,-39.89z"/>
  <path class="fil8" d="M4385.79 3188.95c68.31,142.26 127.94,283.72 183.11,424.66 56.77,145.03 109.21,290.61 161.57,435.98 32.19,89.38 63.03,173.46 95.28,258.35 32.09,84.44 65.29,168.86 102.24,258.98 2.23,5.43 3.58,10.62 4.12,15.54 1.34,12.12 -1.97,22.6 -8.57,31.28 -6.21,8.16 -15.26,14.49 -25.92,18.87 -8.28,3.4 -17.56,5.68 -27.23,6.75 -20.76,2.3 -42.64,1.26 -60.95,-6.38 -15.87,-6.62 -28.95,-18.01 -36.37,-36.07 -68.95,-168.19 -114.08,-293.61 -172.76,-456.63l-14.04 -39.01c-54.84,-152.27 -109.77,-304.75 -170.95,-459.28 -60.09,-151.77 -125.64,-303.83 -201.92,-456.22 -104.71,-1.41 -209.21,-1.87 -313.59,-1.4 -106.35,0.47 -212.72,1.92 -319.19,4.3 -101.23,2.26 -202.77,5.39 -304.69,9.34 -96.39,3.74 -193.27,8.25 -290.69,13.49 52.84,106.04 105.26,213.3 157.23,321.81 53.71,112.12 106.21,224.12 157.48,335.98 33.7,73.53 67.26,145.15 100.48,216.05 79.55,169.78 157.25,335.62 228.3,508.92 9.57,23.3 0.69,37.84 -17.2,47.08 -14.54,7.51 -35.45,10.64 -55.86,12.27 -20.33,1.63 -36.33,2.89 -50.18,-1.04 -15.18,-4.31 -26.36,-14.07 -34.71,-34.38 -70.74,-172.55 -139.9,-320.15 -214.02,-478.35 -31.09,-66.35 -63.06,-134.58 -96.19,-206.86 -54.45,-118.78 -110.41,-237.91 -167.83,-357.34 -56.56,-117.64 -114.65,-235.81 -174.2,-354.46 -127.89,7.94 -256.86,17.17 -387.1,27.62 -127.92,10.27 -255.58,21.61 -383.23,33.97 54.94,96.33 108.82,191.47 161.09,285.83 54.67,98.67 107.38,196.11 157.38,292.51l2.44 4.71c113.53,218.88 214.81,414.13 287.13,618.17 7.29,20.67 7.68,38.23 -3.5,51.83 -10.32,12.54 -30.29,20.23 -63.81,21.85 -25.85,2.2 -43.42,1.36 -56.88,-5.02 -14.38,-6.82 -22.93,-18.92 -29.99,-38.95 -65.86,-185.81 -149.18,-346.24 -251.28,-542.85l-20.47 -39.44c-55.66,-107.31 -115.63,-217.42 -178.41,-329.94 -61.85,-110.84 -128.03,-226.78 -195.75,-345.13l-5.05 -8.83 0.72 -0.4c-0.74,-1.82 -1.41,-3.7 -2.02,-5.61 -1.61,-5.06 -2.72,-10.35 -3.26,-15.8 -2.07,-21.06 4.6,-40.98 17.05,-56.15 12.44,-15.16 30.68,-25.58 51.74,-27.65 283.67,-28.81 562.51,-52.36 838.61,-70.22 276.05,-17.86 549.91,-30.06 823.67,-36.18 273.79,-6.12 546.79,-6.15 821.07,0.35 274.6,6.5 550.21,19.5 828.86,39.44l2.18 0.16c89.77,2.57 188.06,46.87 289.04,122.35 108.92,81.41 221.38,199.33 329.87,340.3 113.45,147.41 221.86,312.92 318,488 91.79,167.16 172.45,343.07 235.71,520.29 2.66,7.46 4.03,14.83 4.16,21.9 0.23,11.69 -2.99,22.32 -9.31,31.15 -6.27,8.76 -15.46,15.61 -27.18,19.79 -7.84,2.79 -16.93,4.41 -27.14,4.61 -22.48,0.44 -41.99,-1.15 -57.9,-7.6 -17.15,-6.96 -29.83,-19.12 -37.11,-39.51 -60.5,-169.49 -134.97,-332.16 -219.82,-486.16 -90.02,-163.39 -191.71,-317.04 -300.77,-458.75 -96.16,-124.94 -192.78,-229.17 -282.65,-300.5 -80.2,-63.65 -154.59,-100.86 -217.84,-102.74l-0.04 0.63 -10.01 -0.72c-143.27,-10.25 -285.14,-18.65 -425.87,-25.26 -135.86,-6.38 -270.8,-11.11 -405.06,-14.26zm164.46 431.95c-56.94,-145.45 -118.59,-291.37 -189.57,-437.97l-7.12 -14.7 16.33 0.36c140.33,3.15 280.88,8.02 421.9,14.63 138.33,6.49 277.03,14.66 416.33,24.54l0.01 -0.14 9.98 0.68c1.19,0.08 2.52,0.13 4.02,0.13 69.1,0.2 149.34,39.22 234.95,107.18 91.13,72.33 188.89,177.74 286.02,303.95 109.73,142.58 212.01,297.11 302.49,461.33 85.4,155 160.33,318.66 221.15,489.06 5.12,14.36 13.92,22.87 25.74,27.67 13.06,5.3 30.08,6.58 50.07,6.19 7.81,-0.15 14.75,-1.38 20.71,-3.51 7.81,-2.79 13.76,-7.11 17.62,-12.5 3.82,-5.33 5.76,-11.9 5.62,-19.24 -0.09,-4.76 -1.1,-9.95 -3.06,-15.47 -62.94,-176.31 -143.13,-351.23 -234.38,-517.39 -95.69,-174.26 -203.51,-338.9 -316.28,-485.42 -107.37,-139.51 -218.53,-256.11 -326.03,-336.45 -98.78,-73.83 -194.14,-116.85 -280.1,-118.5l-10.77 -0.2 0.05 -0.6c-275.48,-19.54 -547.4,-32.31 -817.74,-38.71 -274,-6.49 -546.71,-6.46 -820.2,-0.35 -272.87,6.1 -546.46,18.3 -822.81,36.18 -276.32,17.87 -554.92,41.4 -837.91,70.14 -15.57,1.53 -29.06,9.24 -38.26,20.44 -9.19,11.2 -14.11,25.92 -12.58,41.5 0.4,4.09 1.22,8.02 2.4,11.73 1.19,3.72 2.81,7.36 4.82,10.86l5.06 8.83 -0.12 0.06c64.8,113.25 128.46,224.86 190.78,336.54 62.99,112.89 123.08,223.22 178.72,330.49l20.47 39.44c102.48,197.31 186.09,358.32 252.38,545.35 5.19,14.73 10.85,23.34 19.65,27.51 9.71,4.61 24.33,5.05 46.69,3.16l0.39 0c27.49,-1.28 42.9,-6.4 49.63,-14.57 5.91,-7.18 5.02,-18.39 0.05,-32.47 -71.89,-202.82 -172.85,-397.47 -286.03,-615.67l-2.44 -4.71c-50.04,-96.48 -102.63,-193.7 -157.07,-291.95 -54.41,-98.21 -110.91,-197.88 -168.66,-299.07l-7.64 -13.39 15.4 -1.5c135.02,-13.15 267.96,-25.03 398.94,-35.54 131.59,-10.57 262.85,-19.93 394.04,-28.03l6.55 -0.4 2.98 5.93c60.63,120.71 119.76,240.96 177.33,360.7 57.66,119.93 113.67,239.16 167.99,357.65 33.34,72.75 65.17,140.66 96.11,206.71 74.27,158.52 143.57,306.4 214.41,479.21 5.64,13.72 12.56,20.14 21.62,22.71 10.39,2.95 24.83,1.8 43.2,0.33 18.28,-1.46 36.68,-4.1 48.26,-10.07 8.22,-4.25 12.29,-10.94 7.88,-21.68 -70.94,-173.04 -148.5,-338.58 -227.91,-508.06 -33.37,-71.22 -67.07,-143.15 -100.56,-216.21 -51.43,-112.19 -103.88,-224.09 -157.32,-335.67 -52.94,-110.53 -107.61,-222.26 -163.95,-335.13l-6.8 -13.62 15.26 -0.83c102.06,-5.57 204.12,-10.36 306.26,-14.32 101.65,-3.94 203.28,-7.07 305,-9.34 106.42,-2.38 212.89,-3.82 319.51,-4.3 106.56,-0.48 213.19,0 319.99,1.48l6.08 0.09 2.74 5.44c78.02,155.36 144.62,309.63 205.43,463.22 60.44,152.64 115.82,306.38 171.11,459.9l14.04 39.01c58.52,162.63 103.55,287.73 172.44,455.77 5.16,12.55 14.36,20.51 25.56,25.19 14.82,6.18 33.27,6.94 51.08,4.97 7.89,-0.87 15.33,-2.67 21.81,-5.34 7.51,-3.08 13.68,-7.28 17.62,-12.45 3.54,-4.66 5.31,-10.36 4.57,-17.02 -0.35,-3.15 -1.24,-6.54 -2.71,-10.13 -37.18,-90.71 -70.45,-175.27 -102.47,-259.54 -31.85,-83.81 -62.79,-168.21 -95.37,-258.66 -52.05,-144.5 -104.17,-289.21 -161.41,-435.44z"/>
  <path class="fil9" d="M4371.39 1216.13c26.18,-36.26 19.13,-131.13 32.96,-157.39 125.44,-66.92 342,-142.84 411.35,-122.59 11.61,34.68 -5.8,68.64 8.29,100.54 14.84,33.61 45.99,44.77 63.41,77.03 55.27,102.35 85.16,224.03 81.37,353.12 -10.88,369.73 -161.9,791.68 -65.83,1116.72 -375.83,52.98 -562.65,36.01 -729.16,7 -103.32,-420.2 -53.13,-730.19 -19.48,-942.29l43.67 -391.37c72.96,-5.16 141.25,-13.28 173.42,-40.77z"/>
  <path class="fil9" d="M4371.39 1216.13c1.97,234.2 11.52,346 -27.59,414.87 -34.71,2.96 -68.63,7.59 -189.5,17.27 -181.47,-3.45 -411.09,-17.93 -576.93,-50.84 -145.24,-117.99 -240.13,-317.16 -321.84,-484.77 14.74,-22.97 157.08,-81.33 225.2,-97.38 72.9,83.51 118.2,193.52 196.8,273.89 13.18,11.49 42.56,7.41 65.64,0.55 -28.63,-72.45 -79.96,-187.37 -85.92,-241.98 80.4,-30.07 230.8,-76.65 261.72,-75.07 37.65,74.97 65.13,218.93 117.67,298.24 91.91,-15.27 226.73,-9.23 300.66,-36.15 13.66,-4.97 25.24,-11.07 34.09,-18.63z"/>
  <g id="_2716896539904">
   <path class="fil9" d="M4370.76 1216.13c398.41,-48.94 476.58,176.56 318.03,301.36 -84.11,66.2 -308.32,87.63 -417.15,93.78 -52.64,-5.85 -105.39,19.02 -402.86,-95.53 -46.24,-40.7 -86.86,-124.18 -126.25,-226.02 -28.63,-72.45 -79.96,-187.37 -85.92,-241.98 80.4,-30.07 230.8,-76.65 261.72,-75.07 37.65,74.97 65.13,218.93 117.67,298.24 108.89,-18.09 278.02,-6.27 334.76,-54.78z"/>
   <path class="fil11" d="M3721.42 1294.77c5.83,-0.96 11.68,-2.27 17.27,-3.79 17.52,40.07 37,77.02 57.86,110.93 23.7,38.53 49.11,73.01 75.42,103.62 95.88,41.78 179.09,70.28 249.67,85.53 70.31,15.19 127.79,17.18 172.44,6.02 4.65,-1.16 9.36,1.67 10.52,6.32 1.16,4.65 -1.67,9.36 -6.32,10.52 -47.28,11.82 -107.38,9.88 -180.32,-5.88 -72.05,-15.57 -156.95,-44.69 -254.73,-87.4 -1.15,-0.5 -2.21,-1.26 -3.09,-2.27 -27.47,-31.78 -53.91,-67.52 -78.4,-107.35 -21.75,-35.35 -42.06,-74.06 -60.32,-116.24z"/>
   <path class="fil11" d="M4371.39 1216.13c0.85,-1.18 1.66,-2.42 2.45,-3.72 79.01,-9.72 146.79,-11.09 204.64,-1.74 77.37,12.5 136.94,44.05 181.62,100.15 2.98,3.75 2.36,9.21 -1.39,12.19 -3.75,2.98 -9.21,2.36 -12.19,-1.39 -41.8,-52.48 -97.81,-82.05 -170.75,-93.83 -65.44,-10.58 -144.57,-6.94 -239.23,7.26 13.99,-5.02 25.84,-11.2 34.85,-18.9z"/>
  </g>
  <rect class="fil6" transform="matrix(0.996844 -0.0793903 0.0793903 0.996844 4222.51 2442.59)" width="25.62" height="130.33" rx="12.81" ry="12.81"/>
  <rect class="fil6" transform="matrix(0.997118 -0.0758726 0.0758726 0.997118 4312.42 2451.8)" width="25.62" height="130.33" rx="12.81" ry="12.81"/>
  <rect class="fil6" transform="matrix(0.99902 -0.0442542 0.0442542 0.99902 4416.95 2456.95)" width="25.62" height="130.33" rx="12.81" ry="12.81"/>
  <rect class="fil6" transform="matrix(0.997845 -0.0656144 0.0656144 0.997845 4518.57 2463.76)" width="25.62" height="130.33" rx="12.81" ry="12.81"/>
  <rect class="fil6" transform="matrix(0.998066 -0.0621602 0.0621602 0.998066 4619.9 2457.68)" width="25.62" height="130.33" rx="12.81" ry="12.81"/>
  <rect class="fil6" transform="matrix(0.99755 -0.0699566 0.0699566 0.99755 4708.2 2449.42)" width="25.62" height="130.33" rx="12.81" ry="12.81"/>
  <rect class="fil6" transform="matrix(0.996794 -0.0800057 0.0800057 0.996794 4800.77 2443.86)" width="25.62" height="130.33" rx="12.81" ry="12.81"/>
  <rect class="fil6" transform="matrix(0.727231 -0.120647 0.119324 0.638771 4442.2 1068.52)" width="25.62" height="130.33" rx="12.81" ry="12.81"/>
  <rect class="fil6" transform="matrix(0.719157 -0.161969 0.155598 0.630917 4495.42 1042.37)" width="25.62" height="130.33" rx="12.81" ry="12.81"/>
  <rect class="fil6" transform="matrix(0.71815 -0.166379 0.159467 0.62995 4549.59 1021.17)" width="25.62" height="130.33" rx="12.81" ry="12.81"/>
  <rect class="fil6" transform="matrix(0.724258 -0.137376 0.134015 0.635852 4608.8 995.658)" width="25.62" height="130.33" rx="12.81" ry="12.81"/>
  <rect class="fil6" transform="matrix(0.72801 -0.115853 0.115113 0.639544 4671.53 981.263)" width="25.62" height="130.33" rx="12.81" ry="12.81"/>
  <path class="fil6" d="M3147.63 722.92l78.82 -69.04c-17.19,-18.19 -27.09,-53.1 -54.79,-48.03 -12.04,2.2 -27.47,24.82 -44.76,38.63 -21.59,17.24 -37.45,24.73 -36.86,36.89 1.13,23.04 10.63,17.06 57.58,41.56z"/>
  <path class="fil7" d="M3146.14 710.93l66.42 -58.18c-2.92,-3.94 -5.64,-8.12 -8.37,-12.3 -8.83,-13.55 -17.7,-27.15 -30.74,-24.77 -4.17,0.76 -11.75,8.64 -20.12,17.35 -6.3,6.56 -13,13.53 -20.21,19.28 -5.46,4.36 -10.59,8.14 -15.18,11.51 -10.96,8.05 -18.09,13.31 -17.91,17.08 0.47,9.66 4.08,11.21 17.94,17.12 7.1,3.03 16.23,6.92 28.16,12.92zm86.89 -49.53l-78.82 69.04c-3.01,2.63 -7.45,3.29 -11.21,1.33 -13.91,-7.26 -24.73,-11.88 -32.86,-15.35 -23.01,-9.82 -29,-12.38 -30.09,-34.6 -0.7,-14.49 9.85,-22.25 26.06,-34.16 4.39,-3.23 9.3,-6.83 14.56,-11.04 6.22,-4.97 12.42,-11.41 18.25,-17.48 10.71,-11.15 20.41,-21.22 30.94,-23.15 26.12,-4.77 38.64,14.42 51.11,33.55 4.15,6.37 8.31,12.75 12.77,17.46l0.24 0.28c3.63,4.15 3.21,10.47 -0.94,14.11z"/>
  <rect class="fil6" transform="matrix(0.72672 -0.12369 0.121997 0.638266 4725.58 966.81)" width="25.62" height="130.33" rx="12.81" ry="12.81"/>
  <path class="fil6" d="M3222.51 723.87l86.47 -85.53c-19.61,-20.76 -30.91,-60.59 -62.52,-54.81 -13.74,2.51 -31.35,28.32 -51.08,44.08 -24.64,19.68 -42.73,19.56 -42.05,33.45 1.29,26.29 34.1,26.28 69.18,62.82z"/>
  <path class="fil7" d="M3222.46 709.81l72.91 -72.13c-3.73,-4.89 -7.17,-10.16 -10.61,-15.44 -10.34,-15.86 -20.71,-31.77 -36.51,-28.89 -5.22,0.95 -14.01,10.1 -23.72,20.2 -7.16,7.45 -14.77,15.36 -22.93,21.88 -10.69,8.54 -20.09,13.53 -27.49,17.45 -6.78,3.59 -10.89,5.78 -10.8,7.7 0.46,9.44 9.32,14.78 22.11,22.5 10.63,6.42 23.43,14.14 37.03,26.73zm93.57 -64.34l-86.59 85.61c-3.98,3.83 -10.32,3.7 -14.14,-0.28 -14.37,-14.97 -28.68,-23.6 -40.21,-30.56 -18.18,-10.97 -30.77,-18.57 -31.75,-38.72 -0.72,-14.59 7.64,-19.02 21.46,-26.35 6.64,-3.52 15.08,-8 24.36,-15.41 7.17,-5.73 14.28,-13.12 20.96,-20.07 12.06,-12.54 22.96,-23.89 34.54,-26 28.88,-5.28 42.91,16.23 56.88,37.66 4.65,7.13 9.3,14.27 14.3,19.68l0.27 0.26c3.89,3.93 3.86,10.29 -0.08,14.18z"/>
  <g id="_2716885964816">
   <path class="fil1" d="M4938.82 238.44c-1.89,50.24 -1.65,96.95 -13.45,147.2 -125.74,18.69 -300.73,43.72 -469.1,72.8 -184.28,31.83 -355.92,65.57 -445.53,75.1 -40.36,4.29 -65.73,8.87 -67.3,-8.09 -1.57,-16.96 35.71,-31.5 68.96,-54.72 22.09,-15.43 40.89,-31 57.37,-44.75 4.48,-42.56 8.19,-77.68 12.66,-120.24 1.03,-9.78 -4.56,-17.78 -13.7,-23.22 -88.27,-52.55 -123.08,-85.49 -125.52,-134.7 -2.15,-43.38 40.87,-119.64 133.63,-133 92.77,-13.37 125.44,-8.29 190.27,1.35 69.85,10.39 136.89,41.32 206.74,51.72 74.54,10.19 165.97,11.3 255.46,22.12 96.07,11.62 188.32,32.72 205.96,35.91 34.08,6.16 40.06,29.28 38.58,48.09 -4.37,55.45 -35.63,45.79 -35.04,64.43z"/>
   <path class="fil7" d="M4945.48 238.68l-0.73 21.53c-1.35,42.62 -2.65,83.4 -12.87,126.95l-1.04 4.42 -65.93 9.75c-118.07,17.41 -265.24,39.12 -407.51,63.69 -58.36,10.08 -112.61,19.83 -163.74,29.01 -118.13,21.23 -219.94,39.52 -282.21,46.14l-10.87 1.19c-5.96,0.66 -11.55,1.29 -17.68,1.85 -27.72,2.56 -44.41,1.06 -46.09,-17.16 -1.47,-16 17.97,-27.63 42.13,-42.08 9.53,-5.7 19.89,-11.89 29.64,-18.7 10.93,-7.63 21.05,-15.31 30.47,-22.77 8.2,-6.49 16.49,-13.36 24.36,-19.92l12.37 -117.52c0.34,-3.23 -0.38,-6.17 -1.91,-8.76 -1.83,-3.11 -4.8,-5.83 -8.55,-8.06 -44.64,-26.58 -75.85,-48.29 -96.36,-69.73 -21.25,-22.19 -31.12,-44.07 -32.42,-70.38 -1.29,-26.05 12.49,-63.02 42.23,-92.62 22.83,-22.72 55.08,-41.25 97.13,-47.31 93,-13.4 126.22,-8.46 190.66,1.13l1.52 0.23c35.41,5.27 69.87,15.67 104.31,26.07 33.99,10.26 68,20.53 102.43,25.65 37.6,5.14 79.87,7.98 124.01,10.93 42.75,2.86 87.28,5.84 131.27,11.16 77.74,9.39 153.15,25.04 188.58,32.39 8.43,1.75 14.61,3.03 17.77,3.6 16.61,3 27.42,9.78 34.23,18.28 8.95,11.15 10.78,24.85 9.83,36.89 -2.97,37.71 -17.67,48.03 -28.13,55.37 -4,2.8 -7.02,4.93 -6.91,8.34l0 0.44zm-14.05 21.12l0.72 -21.42c-0.22,-10.41 5.3,-14.3 12.56,-19.39 8.32,-5.84 20.01,-14.05 22.49,-45.49 0.72,-9.22 -0.53,-19.54 -6.91,-27.48 -4.95,-6.18 -13.17,-11.18 -26.19,-13.53 -3.6,-0.65 -9.73,-1.93 -18.08,-3.65 -35.16,-7.29 -110,-22.82 -187.49,-32.18 -43.85,-5.3 -88.1,-8.27 -130.59,-11.11 -44.28,-2.96 -86.68,-5.8 -124.97,-11.04l-0.08 0c-35.42,-5.27 -69.87,-15.68 -104.31,-26.07 -34,-10.26 -68.01,-20.53 -102.43,-25.65l-1.52 -0.23c-63.21,-9.4 -95.78,-14.25 -186.85,-1.13 -38.87,5.6 -68.62,22.66 -89.61,43.55 -26.93,26.8 -39.44,59.67 -38.31,82.53 1.13,22.89 9.89,42.1 28.74,61.81 19.55,20.47 49.89,41.51 93.51,67.48 5.69,3.39 10.28,7.67 13.25,12.71 2.95,5.01 4.33,10.69 3.68,16.92l-12.66 120.24 -2.35 4.44c-7.99,6.67 -16.62,13.84 -26.74,21.85 -9.61,7.61 -19.95,15.45 -31.1,23.24 -10.32,7.2 -20.79,13.46 -30.43,19.22 -20.18,12.06 -36.42,21.77 -35.71,29.44 0.63,6.82 12.22,6.88 31.62,5.09 4.61,-0.42 10.76,-1.11 17.41,-1.85l10.93 -1.19c62.04,-6.59 163.52,-24.83 281.27,-45.99 53.03,-9.53 109.32,-19.64 163.84,-29.06 142.56,-24.62 289.74,-46.33 407.83,-63.74l56.9 -8.41c9.04,-40.8 10.27,-79.51 11.55,-119.91z"/>
   <path class="fil9" d="M4930.68 358.69c-1.43,8.89 -3.17,17.86 -5.3,26.95 -125.74,18.69 -300.73,43.72 -469.1,72.8 -184.28,31.83 -355.92,65.57 -445.53,75.1 -40.36,4.29 -65.73,8.87 -67.3,-8.09 -1.57,-16.96 35.71,-31.5 68.96,-54.72 22.09,-15.43 40.89,-31 57.37,-44.75l1.21 -11.46 859.7 -55.82z"/>
   <path class="fil7" d="M4937.26 359.74c-0.78,4.86 -1.58,9.43 -2.41,13.64 -0.88,4.52 -1.87,9.12 -2.96,13.78l-1.04 4.42 -65.93 9.75c-118.07,17.41 -265.24,39.12 -407.51,63.69 -58.36,10.08 -112.61,19.83 -163.74,29.01 -118.13,21.23 -219.94,39.52 -282.21,46.14l-10.87 1.19c-5.96,0.66 -11.55,1.29 -17.68,1.85 -27.72,2.56 -44.41,1.06 -46.09,-17.16 -1.47,-16 17.97,-27.63 42.13,-42.08 9.53,-5.7 19.89,-11.89 29.64,-18.7 10.93,-7.63 21.05,-15.31 30.47,-22.77 8.2,-6.49 16.49,-13.36 24.36,-19.92l1.5 -14.36c291.21,-19.02 582.43,-37.88 873.65,-56.73l-1.32 8.25zm-15.53 11.07l0.94 -4.91 -845.65 54.92 -0.61 5.85 -2.35 4.44c-7.99,6.67 -16.62,13.84 -26.74,21.85 -9.61,7.61 -19.95,15.45 -31.1,23.24 -10.32,7.2 -20.79,13.46 -30.43,19.22 -20.18,12.06 -36.42,21.77 -35.71,29.44 0.63,6.82 12.22,6.88 31.62,5.09 4.61,-0.42 10.76,-1.11 17.41,-1.85l10.93 -1.19c62.04,-6.59 163.52,-24.83 281.27,-45.99 53.03,-9.53 109.32,-19.64 163.84,-29.06 142.56,-24.62 289.74,-46.33 407.83,-63.74l56.9 -8.41 1.85 -8.89z"/>
   <path class="fil3" d="M4938.82 238.44c-1.61,42.91 -1.68,83.23 -9,125.38l-859.83 60.11 11.58 -110.03c306.54,-45.31 554.14,-73.08 863.72,-87.1 -3.96,3.01 -6.63,6.06 -6.46,11.64z"/>
   <path class="fil7" d="M4945.48 238.68l-0.73 21.52c-1.12,35.32 -2.21,69.37 -8.36,104.75l-0.9 5.17c-291,20.23 -581.99,40.67 -872.98,61.03l12.96 -123.09 5.13 -0.76c153.22,-22.65 291.83,-40.92 431.01,-55.31 139.01,-14.37 278.44,-24.83 433.39,-31.85l4.31 11.96c-1.37,1.04 -2.49,2.04 -3.14,3.08 -0.47,0.75 -0.73,1.73 -0.69,3.07l0 0.42zm-14.05 21.1l0.72 -21.4c-0.03,-1.55 0.09,-2.98 0.35,-4.31 -149.41,6.99 -284.66,17.25 -419.54,31.19 -137.1,14.17 -274.03,32.19 -425.31,54.5l-10.21 96.96 846.65 -59.19c5.27,-32.84 6.29,-64.73 7.33,-97.75z"/>
   <path class="fil9" d="M4938.12 259.34c-0.56,17.5 -1.1,34.68 -2.25,51.85 -287.56,28.88 -575.12,53.37 -862.68,82.27l4.52 -42.98c277.66,-38.87 562.32,-73.15 860.4,-91.14z"/>
   <path class="fil7" d="M4972.87 184.18c-119.19,-11.9 -234.87,-1.58 -350.54,8.73 -58.05,5.18 -116.11,10.36 -174.57,12.74l-0.1 0c-88.29,1.85 -165.24,-15.67 -233.41,-31.2 -102.95,-23.45 -185.56,-42.26 -255.09,18.89l-6.62 -7.52c73.36,-64.53 158.19,-45.21 263.9,-21.13 67.61,15.39 143.92,32.77 230.93,30.96 58.38,-2.38 116.24,-7.54 174.1,-12.7 116.15,-10.35 232.32,-20.71 352.38,-8.73l-0.98 9.95z"/>
  </g>
  <path class="fil6" d="M3463.43 1029.4c-5.72,-25.62 -32.25,-43.99 -12.02,-91.77 29.05,-68.64 77.24,-68.1 44,-139.93 -5.62,-12.16 -98.17,-151.17 -111.41,-165.2 -19.61,-20.76 -30.91,-60.59 -62.52,-54.81 -13.74,2.51 -31.35,28.32 -51.08,44.08 -24.64,19.68 -42.73,19.56 -42.05,33.45 1.29,26.29 40.39,12.68 34.52,67.49 -4.41,41.15 -18.74,97.1 -51.95,122.76 -73.75,57.01 -32.51,166.81 17.71,191.1 50.23,24.28 49.63,49.54 52.78,63.04 3.62,1.5 31.32,-13.3 36.17,-15.79 56.06,-28.84 89.31,-40.14 145.85,-54.4z"/>
  <path class="fil7" d="M3450.56 1022.35c-1.33,-3.11 -2.9,-6.27 -4.49,-9.49 -9.61,-19.45 -20.12,-40.72 -3.87,-79.11 10.69,-25.26 23.61,-41.36 34.51,-54.95 17.3,-21.57 28.67,-35.74 9.61,-76.91 -2.85,-6.18 -31.52,-50.06 -59.15,-91.03 -22.91,-33.97 -44.88,-65.6 -50.46,-71.5 -6.33,-6.7 -11.63,-14.83 -16.92,-22.95 -10.34,-15.86 -20.71,-31.77 -36.51,-28.89 -5.22,0.95 -14.01,10.1 -23.72,20.2 -7.16,7.45 -14.77,15.36 -22.93,21.88 -10.69,8.54 -20.09,13.53 -27.49,17.44 -6.78,3.59 -10.89,5.78 -10.8,7.7 0.26,5.28 4.68,8.12 9.63,11.28 13.45,8.58 29.04,18.56 24.85,57.73 -2.56,23.93 -8.41,52.8 -19.22,78.34 -8.67,20.48 -20.57,38.91 -36.57,51.28 -12.37,9.56 -21.16,20.74 -26.95,32.73 -9.5,19.66 -11.09,41.75 -7.43,62.71 3.72,21.26 12.78,41.23 24.46,56.34 7.83,10.13 16.75,17.98 25.87,22.39 44.92,21.71 53.05,44.77 56.42,60.87 5.96,-3.3 16.71,-9.9 21.64,-12.48l2.51 -1.32c28.22,-14.5 50.75,-24.61 73.32,-32.89 19.91,-7.31 39.83,-13.18 63.69,-19.38zm13.46 -18.35c3.59,7.26 7.06,14.28 9,22.5l0.13 0.47c1.34,5.36 -1.92,10.8 -7.29,12.15 -27.92,7.04 -50.07,13.34 -72.09,21.42 -21.91,8.03 -43.75,17.84 -71.07,31.88l-2.41 1.27c-6.77,3.5 -23.3,12.12 -34.27,14.8 -0.72,0.38 -1.5,0.67 -2.34,0.86 -5.39,1.25 -10.78,-2.1 -12.03,-7.49 -0.3,-1.29 -0.64,-3.11 -1,-5.02 -2.29,-12.24 -5.94,-31.73 -46.37,-51.27 -11.95,-5.77 -23.31,-15.65 -33,-28.19 -13.59,-17.58 -24.1,-40.66 -28.38,-65.11 -4.33,-24.75 -2.34,-51.08 9.16,-74.86 7.09,-14.66 17.76,-28.28 32.75,-39.87 13.02,-10.06 22.95,-25.65 30.38,-43.21 9.92,-23.46 15.33,-50.31 17.73,-72.7 2.88,-26.87 -7.12,-33.27 -15.72,-38.77 -9.54,-6.12 -18.08,-11.61 -18.84,-27.19 -0.72,-14.59 7.65,-19.03 21.46,-26.35 6.64,-3.51 15.08,-8 24.36,-15.4 7.17,-5.73 14.28,-13.12 20.96,-20.07 12.06,-12.54 22.96,-23.89 34.54,-26 28.88,-5.28 42.91,16.23 56.88,37.66 4.78,7.33 9.56,14.66 14.72,20.13 6.44,6.82 29.15,39.39 52.5,74.01 28.06,41.62 57.44,86.76 60.72,93.86 24.25,52.4 9.8,70.41 -12.2,97.84 -10.13,12.63 -22.14,27.59 -31.69,50.16 -12.68,29.95 -4.28,46.95 3.4,62.5z"/>
  <path class="fil9" d="M4019.94 565l13.64 140.53 -693.13 118.71 -23.2 24.56 -413.42 73.68 -20.47 24.56c-127.35,25.47 -254.69,50.94 -382.04,76.41 -38.83,-82.04 -56.22,-169.02 -47.75,-261.97l395.68 -53.21 28.65 21.83 414.79 -57.31 23.19 8.19 704.04 -115.98z"/>
  <path class="fil12" d="M4023.25 564.68l13.94 143.61 -695.08 119.04 -22.43 23.74 -1.85 1 -412.22 73.47 -19.68 23.61 -1.91 1.15 -384.59 76.92 -1.12 -2.37c-19.53,-41.26 -33.68,-83.79 -41.88,-127.72 -8.19,-43.89 -10.44,-89.19 -6.18,-135.98l0.24 -2.65 398.31 -53.57 2.47 0.66 27.54 20.99 413.41 -57.12 1.57 0.16 22.39 7.9 706.7 -116.41 0.35 3.55zm6.71 138.08l-13 -133.9 -700.54 115.4 -1.65 -0.14 -22.43 -7.92 -415.35 57.39 -28.66 -21.84 -391.68 52.67c-3.88,45.22 -1.6,89.03 6.33,131.53 7.93,42.47 21.52,83.68 40.24,123.7l378.34 -75.67 19.7 -23.64 1.98 -1.16 412.33 -73.49 22.43 -23.75 1.87 -1 690.07 -118.19z"/>
  <path class="fil3" d="M2462.36 909.71c-6.41,-29.79 -10.05,-60.21 -10.75,-91.31l407.8 -52.57 8.87 67.58 -405.92 76.3z"/>
  <polygon class="fil3" points="4033.83,623.73 4024.1,607.93 3310.6,723.41 3317.18,750.33 "/>
  <ellipse class="fil6" transform="matrix(1.57257 -0.109927 0.110193 0.996156 4032.23 636.299)" rx="8.1" ry="70.16"/>
  <path class="fil8" d="M4024.26 563.08c5.3,-0.37 10.54,8.15 14.71,22.23 3.75,12.66 7.16,30.25 9.32,49.74 0.58,5.29 1.05,10.42 1.39,15.33 1.11,15.79 1.03,29.74 -0.08,39.84 -1.28,11.57 -4.38,18.76 -9.19,19.28l-0.19 0.02c-5.32,0.37 -10.56,-8.15 -14.73,-22.23 -3.75,-12.66 -7.16,-30.25 -9.32,-49.74 -0.58,-5.29 -1.05,-10.42 -1.39,-15.33 -1.11,-15.79 -1.03,-29.74 0.08,-39.84 1.28,-11.58 4.38,-18.76 9.19,-19.28l0.2 -0.02zm8.31 24.11c-3.2,-10.81 -6.06,-17.46 -7.81,-17.44l-0.07 0.01c-1.19,0.31 -2.3,5.28 -3.19,13.36 -1.07,9.71 -1.13,23.24 -0.05,38.67 0.34,4.89 0.8,9.93 1.36,15.05 2.12,19.11 5.44,36.28 9.08,48.59 3.2,10.81 6.06,17.46 7.81,17.44l0.07 -0.01c1.19,-0.31 2.3,-5.28 3.19,-13.36 1.07,-9.71 1.13,-23.24 0.05,-38.67 -0.34,-4.89 -0.8,-9.93 -1.36,-15.05 -2.12,-19.11 -5.44,-36.28 -9.08,-48.59z"/>
  <polygon class="fil3" points="3313.39,757.91 3310.6,723.41 2864.91,780.51 2868.28,833.41 "/>
  <path class="fil11" d="M3337.14 827.74l-14.45 15.3c-18.62,-55.4 -29.13,-112.1 -33.07,-169.83l3.07 -0.42 19.89 7.02c4.01,48.9 11.17,98.1 24.55,147.93z"/>
  <path class="fil12" d="M3339.57 830.03l-18.26 19.34 -1.77 -5.27c-9.36,-27.86 -16.68,-56.03 -22.15,-84.47 -5.47,-28.45 -9.11,-57.2 -11.08,-86.19l-0.21 -3.1 6.15 -0.85 1.57 0.16 21.94 7.75 0.17 2.16c2,24.44 4.79,48.9 8.72,73.35 3.94,24.49 9.05,49.14 15.72,73.98l0.49 1.8 -1.28 1.35zm-15.47 6.66l9.33 -9.88c-6.47,-24.37 -11.48,-48.66 -15.38,-72.86 -3.87,-24.09 -6.63,-47.98 -8.62,-71.71l-16.23 -5.73c2.01,27.54 5.53,54.85 10.73,81.87 5.07,26.38 11.74,52.5 20.17,78.32z"/>
  <path class="fil11" d="M2903.84 922.47l-13.34 16.01c-27.73,-74.54 -40.65,-151.43 -42.42,-230.07l1.18 -0.16 22.09 16.84c3.99,65.11 12.49,130.67 32.48,197.38z"/>
  <path class="fil12" d="M2906.4 924.61l-17.02 20.43 -2 -5.38c-13.94,-37.46 -24.16,-75.51 -31.1,-114.07 -6.94,-38.55 -10.64,-77.61 -11.52,-117.1l-0.06 -2.97 4.14 -0.56 2.47 0.66 23.31 17.76 0.09 1.52c1.99,32.5 5.11,65.09 10.2,97.78 5.09,32.67 12.19,65.6 22.15,98.84l0.51 1.71 -1.15 1.38zm-14.77 7.32l8.5 -10.2c-9.76,-32.88 -16.76,-65.54 -21.82,-98.03 -5.07,-32.52 -8.19,-64.79 -10.19,-96.87l-16.55 -12.61c1.1,37.15 4.73,73.91 11.27,110.2 6.55,36.32 16.02,72.19 28.8,107.52z"/>
  <path class="fil6" d="M3710.99 1036.5l-23.83 0.42c0,-158.89 -123.19,-145.33 -150.38,-273.9 -5.34,-25.26 -29.02,-153.55 15.03,-151.08 33.75,1.89 35.48,-3.31 47.98,-10.8 24.37,-14.6 26.85,-36.47 40.33,-43.41 5.63,-2.9 18.47,-3.1 27.4,0.3 58.21,22.25 66.95,-57.91 108.39,-68.26 26.92,-6.73 34.37,19.22 59.45,28.56 36.7,13.67 55.45,23.04 71.13,71.93 -33.05,5.94 -77.86,2.51 -79.79,25.39 -6.76,79.98 9.11,47.16 11.13,108.16 0.66,19.81 13.93,21.86 23.01,18.09 18.69,-7.76 20.19,-41.21 55.38,-45.84 38.16,-5.02 112.31,36.53 10.15,70.74 -10.36,3.47 -18.99,66.45 -47.2,91.64 -58.21,51.97 45.57,127.45 -8.56,138.28 -10.56,2.12 -153.46,33.83 -159.61,39.77z"/>
  <path class="fil7" d="M3710.77 1046.5l-23.45 0.41c-5.52,0.08 -10.06,-4.32 -10.15,-9.84l0 -0.16c-0.04,-83.63 -36.2,-117.26 -72.9,-151.38 -32.05,-29.8 -64.49,-59.96 -77.28,-120.48 -3.27,-15.46 -13.27,-68.8 -11.03,-108.8 0.71,-12.65 2.65,-24.17 6.39,-33.14 4.53,-10.88 11.65,-18.36 22.17,-20.6 2.46,-0.53 5.08,-0.72 7.84,-0.57 25.55,1.43 29.97,-1.45 37.06,-6.09 1.37,-0.89 2.84,-1.86 5.24,-3.29 11.69,-7.01 17.79,-16.47 22.93,-24.44 5.21,-8.1 9.68,-15.02 17.95,-19.28 4.31,-2.22 10.84,-3.38 17.55,-3.31 6.05,0.06 12.57,1.07 18,3.14 27.67,10.58 42.53,-9.6 57.25,-29.63 12.52,-17.01 24.98,-33.95 45.13,-38.99 21.42,-5.36 32.46,4.27 44.87,15.09 5.97,5.21 12.39,10.8 20.49,13.82 19.39,7.22 34.12,13.38 46.66,24.72 12.58,11.38 22.09,27.26 30.5,53.52 1.69,5.26 -1.21,10.89 -6.47,12.58 -0.59,0.19 -1.19,0.32 -1.79,0.4 -8.77,1.55 -18.04,2.46 -27.14,3.35 -22.11,2.16 -43.19,4.24 -43.93,12.94 -3.65,43.3 -0.56,51.26 3.06,60.61 3.38,8.72 7.15,18.42 8.07,46.41 0.09,2.93 0.55,5.19 1.25,6.88 0.55,1.32 1.21,2.12 1.89,2.52 0.71,0.42 1.64,0.58 2.62,0.55 1.11,-0.03 2.3,-0.33 3.42,-0.79 4.57,-1.9 8.47,-7.73 12.71,-14.09 9.09,-13.61 19.37,-29.02 45.22,-32.42 17.96,-2.36 42.84,4.23 57.81,15.54 6.3,4.75 11.16,10.49 13.62,17.01 2.76,7.32 2.5,15.16 -1.95,23.18 -6.51,11.7 -23.09,23.77 -54.87,34.41 -0.43,0.14 -2.79,9.11 -6.96,21.07 -7.76,22.26 -18.09,51.87 -36.75,68.54 -25.98,23.19 -11.78,54.46 -0.45,79.42 4.69,10.32 8.96,19.73 10.66,28.23 3.33,16.64 -1.29,28.58 -23.47,33.02 -6.86,1.37 -68.98,15.1 -113.31,26.15 -22.95,5.72 -40.59,10.29 -41.32,11 -2,1.92 -4.59,2.85 -7.16,2.79zm-13.75 -19.75l12.04 -0.21c8.36,-3.51 25.37,-8.27 45.42,-13.26 45.15,-11.25 107.38,-25.02 114.17,-26.38 7.09,-1.42 8.65,-4.8 7.73,-9.44 -1.27,-6.36 -5.08,-14.74 -9.25,-23.93 -14.01,-30.86 -31.57,-69.54 5.39,-102.53 14.78,-13.2 24.15,-40.05 31.18,-60.23 5.99,-17.18 10.64,-30.49 19.5,-33.45 26.45,-8.86 39.47,-17.49 43.74,-25.17 1.3,-2.34 1.42,-4.5 0.7,-6.41 -1.03,-2.72 -3.54,-5.48 -6.97,-8.07 -11.24,-8.49 -29.82,-13.45 -43.16,-11.7 -16.83,2.21 -24.46,13.64 -31.19,23.72 -6.01,9 -11.51,17.24 -21.64,21.45 -3.19,1.32 -6.8,2.16 -10.47,2.29 -4.57,0.15 -9.24,-0.81 -13.44,-3.29 -4.23,-2.5 -7.84,-6.42 -10.19,-12.09 -1.57,-3.77 -2.56,-8.38 -2.74,-13.93 -0.81,-24.56 -3.93,-32.6 -6.74,-39.83 -4.55,-11.72 -8.42,-21.72 -4.39,-69.46 2.14,-25.33 31.37,-28.2 62.03,-31.2 4.79,-0.47 9.62,-0.94 14.31,-1.5 -6.15,-16 -12.81,-26.27 -20.94,-33.63 -9.93,-8.98 -22.94,-14.36 -40.24,-20.8 -11.54,-4.3 -19.38,-11.13 -26.68,-17.5 -8.21,-7.16 -15.53,-13.54 -26.85,-10.71 -13.18,3.29 -23.49,17.31 -33.85,31.39 -19.24,26.16 -38.65,52.53 -80.53,36.52 -3.25,-1.24 -7.26,-1.85 -11.02,-1.88 -3.66,-0.04 -6.75,0.35 -8.22,1.11 -3.5,1.8 -6.63,6.65 -10.27,12.31 -6.29,9.77 -13.76,21.36 -29.51,30.79 -1.21,0.72 -2.93,1.85 -4.54,2.9 -10.47,6.85 -16.98,11.11 -49.13,9.31 -0.95,-0.05 -1.82,0.01 -2.59,0.17l-0.04 0c-3.23,0.68 -5.78,3.87 -7.79,8.7 -2.81,6.74 -4.31,16.04 -4.89,26.56 -2.11,37.67 7.5,88.79 10.63,103.63 11.47,54.24 41.57,82.24 71.32,109.9 38.44,35.74 76.33,70.99 79.12,155.87z"/>
  <path class="fil7" d="M3823.63 560.24c-0.32,-2.75 1.64,-5.24 4.39,-5.57 2.75,-0.32 5.24,1.64 5.57,4.39 1.18,9.84 1.48,19.46 0.44,28.71 -1.05,9.42 -3.5,18.44 -7.81,26.91 -1.25,2.46 -4.27,3.45 -6.74,2.19 -2.46,-1.25 -3.45,-4.27 -2.19,-6.74 3.74,-7.34 5.87,-15.21 6.79,-23.47 0.94,-8.42 0.65,-17.29 -0.44,-26.44z"/>
  <path class="fil7" d="M3862.65 575.09c0.24,-2.76 2.67,-4.8 5.43,-4.56 2.76,0.24 4.8,2.67 4.56,5.43 -1.04,11.79 -3.97,20.99 -8.38,28.11 -4.55,7.34 -10.61,12.41 -17.76,15.79 -2.5,1.18 -5.49,0.11 -6.66,-2.39 -1.18,-2.5 -0.11,-5.49 2.39,-6.66 5.47,-2.59 10.09,-6.44 13.53,-11.99 3.58,-5.78 5.99,-13.53 6.89,-23.72z"/>
  <path class="fil10 str2" d="M3233.17 667.26c26.89,28.75 79.42,8.76 106.77,-18.87"/>
  <path class="fil7" d="M3242.8 841.47c1.88,-5.19 7.62,-7.88 12.81,-6 5.19,1.88 7.88,7.62 6,12.81 -4.11,11.36 -6.07,26.32 -4.68,41.94 1.33,14.94 5.75,30.39 14.34,43.69 8.39,13 20.9,23.97 38.57,30.35 14.21,5.14 31.82,7.38 53.35,5.47 5.49,-0.47 10.34,3.6 10.81,9.09 -39.21,7.26 -95.3,3.48 -119.58,-34.1 -10.43,-16.16 -15.8,-34.8 -17.39,-52.78 -1.65,-18.6 0.76,-36.62 5.77,-50.48z"/>
  <path class="fil11" d="M3379.71 867.05l54.28 -55.56c-40.74,-27.92 -64.65,-48.78 -92.87,-90.94 -47.39,64.23 -12.54,120.41 38.59,146.49z"/>
  <path class="fil10 str3" d="M3433.99 811.5c-19.95,-13.67 -35.86,-25.65 -50.21,-39.26 -12,-11.37 -23.15,-23.73 -34.19,-39.49 -6.6,-9.42 -12.81,-5.84 -15.97,-0.99 -5.97,9.17 -9.59,18.51 -12.02,27.34 -12.98,47.15 16.87,85.84 57.4,106.52"/>
  <path class="fil7" d="M3447.27 819.2c3.51,2.44 4.58,6.58 2.38,9.23 -21.74,-8.42 -34.15,-21.31 -38.5,-27.79 -7.04,-10.49 -11.84,-22.07 -14.51,-34.63 -0.77,-3.61 1.91,-6.55 5.98,-6.56 4.07,-0.01 8,2.9 8.77,6.51 2.32,10.91 6.41,20.85 12.37,29.73 5.9,8.79 13.7,16.65 23.51,23.5z"/>
  <path class="fil7" d="M3404.43 864.87c5.43,1.02 9.01,6.25 7.99,11.68 -39.17,3.66 -65.21,-15.01 -89.68,-53.95 -2.94,-4.67 -5.56,-10.33 -3.69,-12.22 4.67,-2.94 10.85,-1.54 13.8,3.14 8.89,14.14 19.25,25.61 31.16,34.19 11.79,8.51 25.24,14.29 40.43,17.17z"/>
  <path class="fil2" d="M630.77 3267.57c0,-24.76 7.98,-44.4 20.63,-58.98 11.76,-13.54 27.44,-22.47 44.42,-26.92 16.6,-4.35 34.54,-4.41 51.23,-0.3 21.45,5.28 41.03,17.46 53.51,36.28l1.3 2c0.93,-1.79 1.8,-3.57 2.61,-5.35 9.84,-21.6 10.76,-42.36 5.43,-60.51 -5.37,-18.29 -17.06,-34.14 -32.34,-45.77 -5.97,-4.55 -12.54,-8.47 -19.52,-11.65 -4.43,-2.02 -9.28,-3.87 -14.45,-5.48 -20.58,-6.42 -44.26,-8.08 -65.83,-1.07 -21.14,6.88 -40.54,22.37 -53.29,50.38 -2.29,5.03 -4.42,10.62 -6.34,16.81l-25.5 -7.94c2.18,-6.99 4.73,-13.64 7.6,-19.94 16.27,-35.73 41.54,-55.67 69.27,-64.69 18.16,-5.91 37.27,-7.02 55.48,-4.78 -18.87,-16.55 -42.06,-29.03 -67.2,-37.16 -29.19,-9.44 -60.89,-13.01 -91.5,-10.28 -30.3,2.7 -59.51,11.59 -84.04,27.08 -22.58,14.25 -41.22,34.21 -53.04,60.17 25.49,5.91 42.2,23.97 50.33,46.01 3.72,10.08 5.55,21.09 5.53,32.11 -0.03,11.05 -1.92,22.07 -5.63,32.2 -10.11,27.51 -33.21,49.11 -68.88,49.11l-176.17 0c1.5,10.25 0.4,20.69 -2.92,30.46 -5.92,17.45 -19.03,32.96 -36.89,41.54l-11.49 -24.03c11.16,-5.36 19.37,-15.1 23.09,-26.07 2.29,-6.76 2.84,-13.94 1.27,-20.75 -1.55,-6.74 -5.22,-13.23 -11.36,-18.74 -11.44,-10.25 -31.24,-17.29 -61.71,-17.29l-128.47 0c0.81,-8.92 1.75,-17.83 2.73,-26.75l125.75 0c37.7,0 63.47,9.85 79.47,24.19 3.74,3.35 6.95,6.93 9.66,10.69l187.04 0c22.6,0 37.31,-13.88 43.8,-31.56 2.68,-7.31 4.05,-15.19 4.07,-23 0.02,-7.82 -1.3,-15.68 -3.97,-22.91 -6.33,-17.16 -20.87,-30.52 -43.91,-30.52l-105.18 0 0 -26.75 95.78 0c13.7,-35.4 37.48,-62.12 66.89,-80.68 28.17,-17.78 61.5,-27.97 95.95,-31.04 2.71,-0.24 5.44,-0.44 8.17,-0.59 -0.67,-18.11 -4.73,-33.28 -14.79,-43.96 -11.86,-12.59 -32.86,-20.19 -67.5,-20.87l0 0.05 -152.18 0c5.57,16.03 7.49,33.36 7.87,49.97 14.92,7.13 25.48,17.13 32.92,28.98 13.37,21.26 15.61,47.4 15.24,73.1l-26.64 -0.31c0.31,-21.48 -1.32,-42.91 -11.15,-58.6l0 -0.05c-9.32,-14.86 -27.13,-25.55 -59.89,-27.76l-249.13 0c2.25,-8.92 4.61,-17.84 7.02,-26.75l242.17 0 0.84 0.05c7.79,0.49 14.98,1.4 21.6,2.69 -1.03,-15.66 -3.98,-31.23 -11.08,-44.02 -9.44,-17.01 -27.18,-29.78 -59.54,-32l-172.4 0c2.84,-8.92 5.75,-17.84 8.75,-26.75l163.72 0 0.84 0.05c36.85,2.31 60.1,15.74 74.67,34.65l166.4 0 0.21 0.05c42.82,0.81 69.99,11.46 86.72,29.23 15.31,16.25 21.24,37.52 22.01,62.14 22.84,1.08 45.6,5.17 67.12,12.13 43.63,14.11 82.36,40.06 106.79,76.74 7.38,3.64 14.4,8 20.93,12.96 19.72,15 34.83,35.59 41.84,59.46 7.05,24 5.95,51.16 -6.79,79.11 -3.63,7.97 -8.23,16.01 -13.88,24.07 1.18,4.77 1.93,9.5 2.3,14.18 1.5,19.08 -3.43,37.1 -12.45,52.76 -8.8,15.29 -21.5,28.3 -35.8,37.77 -14.76,9.79 -31.4,15.98 -47.43,17.24l-1.05 0.05 -720.15 0c-0.12,-8.92 -0.26,-17.83 -0.21,-26.75l719.94 0c11.35,-1.02 23.32,-5.6 34.17,-12.8 11.05,-7.32 20.79,-17.24 27.43,-28.79 6.43,-11.17 9.96,-23.95 8.9,-37.4 -0.85,-10.69 -4.62,-21.95 -12.18,-33.34 -8.55,-12.89 -22.35,-21.34 -37.64,-25.1 -12.47,-3.07 -25.84,-3.04 -38.17,0.19 -11.96,3.14 -22.9,9.3 -30.94,18.56 -8.62,9.92 -14.05,23.7 -14.05,41.53l-26.75 0zm-595.73 -231.4c-1.94,8.91 -3.83,17.83 -5.61,26.75l134.29 0 0 -0.05c32.62,0.64 52.34,6.97 63.37,17.95 10.49,10.44 13.79,26.45 13.5,46.56l26.64 0.31c0.39,-27.06 -4.84,-49.37 -21.33,-65.78 -15.93,-15.85 -41.59,-24.93 -81.97,-25.69l-0.21 -0.05 -128.67 0z"/>
  <path class="fil13" d="M478.12 3371.47l0 330.45 125.53 101.04 0 300.43 -20.06 0 0 -290.89 -125.53 -101.04 0 -339.99 20.06 0zm-435.25 355.06c6.22,31.21 12.83,62.04 20.06,92.29l0 -176.9 84.36 -66.88 0 -203.57 -20.06 0 0 193.92 -84.36 66.88 0 94.26zm72.92 278.73c6.39,19.24 13.25,38.02 20.06,56.85l0 -386.24 84.36 -70.67 0 -233.74 -20.06 0 0 224.41 -84.36 70.67 0 338.71zm169.98 -638.85l0 736.97 -20.06 0 0 -736.97 20.06 0zm48.18 0l0 736.97 -20.06 0 0 -736.97 20.06 0zm50.79 5.05l0 368.35 125.53 101.04 0 262.52 -20.06 0 0 -252.98 -125.53 -101.04 0 -377.9 20.06 0z"/>
  <path class="fil4" d="M5710.8 4272.46c-7.08,-1.65 -10.82,-1.4 -19.6,-1.4 1.16,3.5 -3.02,1.61 14.04,2.15 4.39,0.14 -1.13,0.65 2.91,0.2 2.8,-0.31 1.02,0.06 2.65,-0.95z"/>
  <path class="fil4" d="M5680.01 4272.46c5.59,0 4.12,2.32 8.4,-1.4l-8.4 1.4z"/>
  <path class="fil4" d="M5666.01 4271.06c1.44,1.44 5.06,-2.02 1.62,-0.75 -0.03,0.01 -3.97,-1.6 -1.62,0.75z"/>
  <path class="fil4" d="M3214.79 4307.45c0.14,0.14 0.42,-0.61 0.42,-0.42 -0.03,0.03 -0.56,0.28 -0.42,0.42z"/>
  <path class="fil4" d="M3097.22 4325.65c0.14,0.14 0.41,-0.61 0.41,-0.42 -0.03,0.03 -0.56,0.28 -0.41,0.42z"/>
  <path class="fil4" d="M3290.37 4300.46l0.41 -0.42c-0.03,0.03 -0.56,0.28 -0.41,0.42z"/>
  <path class="fil4" d="M3224.58 4307.45l0.42 -0.42c-0.03,0.03 -0.56,0.28 -0.42,0.42z"/>
 </g>
</svg>
