<?xml version="1.0" standalone="no"?>
<!DOCTYPE svg PUBLIC "-//W3C//DTD SVG 20010904//EN"
 "http://www.w3.org/TR/2001/REC-SVG-20010904/DTD/svg10.dtd">
<svg version="1.0" xmlns="http://www.w3.org/2000/svg"
 width="345.000000pt" height="597.000000pt" viewBox="0 0 345.000000 597.000000"
 preserveAspectRatio="xMidYMid meet">

<g transform="translate(0.000000,597.000000) scale(0.100000,-0.100000)"
fill="#000000" stroke="none">
<path d="M1765 5769 c-4 -6 -5 -12 -2 -15 2 -3 7 2 10 11 7 17 1 20 -8 4z"/>
<path d="M160 5760 c0 -5 16 -10 35 -10 19 0 35 5 35 10 0 6 -16 10 -35 10
-19 0 -35 -4 -35 -10z"/>
<path d="M270 5760 c0 -5 16 -10 35 -10 19 0 35 5 35 10 0 6 -16 10 -35 10
-19 0 -35 -4 -35 -10z"/>
<path d="M408 5743 c12 -2 30 -2 40 0 9 3 -1 5 -23 4 -22 0 -30 -2 -17 -4z"/>
<path d="M500 5731 c0 -5 16 -11 35 -13 27 -3 32 -1 23 9 -12 15 -58 18 -58 4z"/>
<path d="M620 5710 c8 -5 26 -9 40 -9 l25 1 -25 8 c-14 4 -32 8 -40 9 -13 1
-13 0 0 -9z"/>
<path d="M1716 5696 c-13 -20 -13 -24 -2 -20 8 3 17 13 20 21 10 26 0 25 -18
-1z"/>
<path d="M730 5691 c0 -10 60 -24 68 -16 3 3 -2 5 -11 5 -9 0 -17 5 -17 10 0
6 -9 10 -20 10 -11 0 -20 -4 -20 -9z"/>
<path d="M840 5660 c0 -5 4 -10 9 -10 5 0 18 -3 28 -7 17 -6 17 -6 1 10 -18
19 -38 22 -38 7z"/>
<path d="M960 5620 c8 -5 24 -10 34 -10 26 0 18 6 -19 14 -22 5 -26 4 -15 -4z"/>
<path d="M1653 5603 c-16 -6 -17 -33 -3 -33 11 0 26 28 19 34 -2 2 -10 1 -16
-1z"/>
<path d="M1050 5591 c0 -11 59 -26 67 -17 4 3 -3 6 -15 6 -12 0 -22 5 -22 10
0 6 -7 10 -15 10 -8 0 -15 -4 -15 -9z"/>
<path d="M1175 5540 c11 -5 27 -9 35 -9 9 0 8 4 -5 9 -11 5 -27 9 -35 9 -9 0
-8 -4 5 -9z"/>
<path d="M1600 5516 c0 -8 -7 -22 -16 -30 -14 -15 -14 -16 0 -16 9 0 16 7 16
15 0 8 5 15 10 15 6 0 10 7 10 15 0 8 -4 15 -10 15 -5 0 -10 -6 -10 -14z"/>
<path d="M1280 5490 c26 -23 40 -26 40 -8 0 6 -3 9 -6 5 -4 -3 -13 0 -21 8 -8
8 -19 15 -25 15 -6 0 -1 -9 12 -20z"/>
<path d="M1382 5448 c3 -7 13 -15 23 -17 17 -3 17 -2 3 13 -20 19 -31 21 -26
4z"/>
<path d="M1543 5415 c-7 -8 -13 -19 -13 -25 0 -5 -7 -10 -15 -10 -8 0 -15 5
-15 10 0 6 -7 10 -15 10 -25 0 -17 -15 13 -26 24 -9 31 -8 45 10 10 11 17 26
17 33 0 16 -2 16 -17 -2z"/>
<path d="M1580 5329 c23 -23 50 -31 43 -13 -3 7 -9 14 -13 14 -5 0 -17 3 -27
7 -16 6 -16 5 -3 -8z"/>
<path d="M1660 5279 c0 -6 9 -13 20 -16 11 -3 20 -10 20 -16 0 -6 3 -8 6 -5 8
9 -19 48 -33 48 -7 0 -13 -5 -13 -11z"/>
<path d="M1760 5209 c0 -6 9 -13 20 -16 11 -3 20 -10 20 -16 0 -6 3 -8 6 -5 8
9 -19 48 -33 48 -7 0 -13 -5 -13 -11z"/>
<path d="M1872 5120 c13 -20 28 -27 28 -12 0 4 -9 13 -20 20 -19 12 -20 11 -8
-8z"/>
<path d="M1940 5068 c0 -2 9 -11 20 -21 11 -9 20 -13 20 -7 0 5 -9 14 -20 20
-11 6 -20 9 -20 8z"/>
<path d="M2030 4981 c0 -12 29 -35 36 -28 4 3 -1 13 -9 22 -17 17 -27 19 -27
6z"/>
<path d="M2100 4912 c0 -5 11 -18 25 -30 15 -14 25 -17 25 -9 0 7 -9 20 -20
30 -22 19 -30 21 -30 9z"/>
<path d="M2198 4812 c9 -10 19 -17 21 -16 6 5 -20 34 -30 34 -5 0 -1 -8 9 -18z"/>
<path d="M90 4658 l0 -105 46 -7 c26 -3 73 -6 105 -6 33 0 59 -4 59 -9 0 -4
36 -12 80 -15 44 -4 80 -11 80 -16 0 -4 32 -14 70 -20 39 -6 70 -15 70 -20 0
-4 16 -11 35 -14 19 -4 35 -10 35 -15 0 -4 22 -13 50 -20 27 -7 50 -16 50 -21
0 -4 11 -11 25 -14 14 -4 25 -10 25 -15 0 -5 14 -12 30 -16 17 -4 30 -10 30
-13 0 -4 15 -14 33 -22 17 -7 37 -18 42 -22 6 -5 21 -17 34 -28 13 -11 30 -20
37 -20 7 0 18 -9 24 -20 6 -11 15 -20 20 -20 11 0 46 -27 69 -54 9 -10 55 -58
104 -106 48 -48 87 -91 87 -96 0 -5 14 -20 30 -34 16 -14 30 -30 30 -36 0 -6
9 -22 20 -35 11 -13 23 -28 28 -34 4 -5 15 -25 22 -42 8 -18 18 -33 22 -33 3
0 9 -13 13 -30 4 -16 11 -30 16 -30 5 0 11 -11 15 -25 3 -14 10 -25 14 -25 5
0 14 -22 21 -50 7 -27 16 -50 20 -50 4 0 11 -15 14 -32 4 -18 11 -35 16 -38 4
-3 14 -39 20 -80 7 -41 16 -78 21 -81 5 -3 11 -35 15 -72 3 -37 10 -67 14 -67
5 0 9 -26 9 -57 0 -32 3 -82 6 -110 l7 -53 105 0 105 0 -6 157 c-3 86 -10 159
-15 162 -5 3 -14 45 -21 94 -7 48 -17 87 -21 87 -4 0 -11 20 -14 45 -4 25 -11
45 -15 45 -4 0 -13 25 -20 55 -7 30 -16 55 -21 55 -4 0 -11 16 -14 35 -4 19
-11 35 -16 35 -4 0 -11 14 -15 30 -4 17 -10 30 -15 30 -5 0 -11 14 -15 31 -4
17 -13 33 -20 36 -8 2 -17 18 -20 34 -4 16 -10 29 -15 29 -4 0 -13 15 -21 33
-7 17 -19 36 -26 40 -7 4 -13 12 -13 17 0 6 -9 19 -20 30 -11 11 -20 27 -20
35 0 8 -3 15 -8 15 -4 0 -22 14 -40 30 -18 17 -28 30 -23 30 16 0 -206 218
-229 225 -11 4 -20 11 -20 16 0 5 -8 13 -17 16 -10 4 -29 19 -43 33 -14 14
-33 29 -43 33 -9 3 -17 11 -17 16 0 5 -14 12 -31 16 -17 4 -33 13 -36 21 -3 8
-11 14 -18 14 -6 0 -22 9 -34 19 -13 11 -36 23 -52 26 -16 4 -29 10 -29 15 0
5 -13 11 -30 15 -16 4 -30 10 -30 15 0 4 -16 11 -35 14 -19 4 -35 11 -35 16 0
5 -25 14 -55 21 -30 7 -55 16 -55 20 0 4 -19 10 -42 14 -24 4 -45 11 -48 16
-3 4 -46 13 -95 20 -50 7 -93 16 -96 21 -3 5 -72 12 -152 15 l-147 6 0 -105z"/>
<path d="M2250 4745 c0 -8 52 -56 57 -52 2 3 -8 17 -22 31 -25 25 -35 31 -35
21z"/>
<path d="M2326 4652 c6 -4 14 -16 18 -27 6 -13 10 -16 13 -7 6 15 -14 42 -31
42 -8 0 -8 -3 0 -8z"/>
<path d="M2396 4552 c6 -4 13 -15 17 -24 7 -20 27 -24 27 -7 0 13 -30 38 -45
39 -6 0 -6 -3 1 -8z"/>
<path d="M3018 4513 c-9 -2 -19 -10 -21 -17 -4 -9 1 -12 13 -9 10 3 21 11 24
19 3 8 4 13 3 13 -1 -1 -9 -3 -19 -6z"/>
<path d="M2460 4459 c0 -6 7 -17 15 -25 16 -16 19 -7 9 20 -7 18 -24 22 -24 5z"/>
<path d="M2930 4461 c0 -5 -9 -11 -20 -14 -11 -3 -20 -11 -20 -19 0 -8 3 -9 8
-2 4 6 15 13 25 17 15 6 25 27 12 27 -3 0 -5 -4 -5 -9z"/>
<path d="M2808 4403 c-22 -5 -24 -23 -3 -23 8 0 15 4 15 9 0 5 8 12 18 14 11
3 12 5 2 5 -8 0 -23 -2 -32 -5z"/>
<path d="M2526 4355 c2 -11 4 -23 4 -26 0 -4 6 -9 14 -12 10 -4 12 0 9 14 -3
10 -9 19 -13 19 -5 0 -10 6 -13 13 -2 6 -3 3 -1 -8z"/>
<path d="M2708 4343 c-22 -5 -24 -23 -3 -23 8 0 15 4 15 9 0 5 8 12 18 14 11
3 12 5 2 5 -8 0 -23 -2 -32 -5z"/>
<path d="M2610 4290 c0 -5 -7 -10 -15 -10 -8 0 -15 -6 -15 -12 0 -21 18 -43
27 -34 4 5 2 11 -4 13 -19 7 -16 21 7 28 21 7 28 25 10 25 -5 0 -10 -4 -10
-10z"/>
<path d="M2630 4155 c0 -8 5 -15 10 -15 6 0 10 -7 10 -17 0 -9 2 -14 5 -11 9
8 -6 58 -16 58 -5 0 -9 -7 -9 -15z"/>
<path d="M2681 4060 c0 -8 4 -24 9 -35 5 -13 9 -14 9 -5 0 8 -4 24 -9 35 -5
13 -9 14 -9 5z"/>
<path d="M2723 3947 c4 -10 7 -25 7 -33 0 -8 5 -14 10 -14 16 0 12 30 -7 48
-16 16 -16 16 -10 -1z"/>
<path d="M2761 3850 c-1 -24 10 -60 20 -60 5 0 9 7 9 15 0 8 -4 15 -9 15 -5 0
-12 10 -14 23 -2 12 -5 15 -6 7z"/>
<path d="M2793 3737 c4 -10 7 -25 7 -33 0 -8 5 -14 10 -14 16 0 12 30 -7 48
-16 16 -16 16 -10 -1z"/>
<path d="M2830 3605 c0 -14 5 -25 10 -25 6 0 10 11 10 25 0 14 -4 25 -10 25
-5 0 -10 -11 -10 -25z"/>
<path d="M2862 3485 c0 -16 2 -22 5 -12 2 9 2 23 0 30 -3 6 -5 -1 -5 -18z"/>
<path d="M2870 3391 c0 -17 5 -33 10 -36 6 -4 10 8 10 29 0 20 -4 36 -10 36
-5 0 -10 -13 -10 -29z"/>
<path d="M2890 3281 c0 -17 4 -32 8 -35 4 -2 6 11 4 30 -5 42 -12 45 -12 5z"/>
<path d="M2900 3155 c0 -19 5 -35 10 -35 6 0 10 16 10 35 0 19 -4 35 -10 35
-5 0 -10 -16 -10 -35z"/>
<path d="M2922 3040 c0 -19 2 -27 5 -17 2 9 2 25 0 35 -3 9 -5 1 -5 -18z"/>
<path d="M2921 2921 c1 -16 3 -19 6 -9 2 9 14 18 26 20 20 3 19 4 -5 9 -25 6
-28 4 -27 -20z"/>
<path d="M3053 2933 c9 -2 23 -2 30 0 6 3 -1 5 -18 5 -16 0 -22 -2 -12 -5z"/>
<path d="M3173 2933 c9 -2 23 -2 30 0 6 3 -1 5 -18 5 -16 0 -22 -2 -12 -5z"/>
<path d="M3283 2933 c9 -2 25 -2 35 0 9 3 1 5 -18 5 -19 0 -27 -2 -17 -5z"/>
<path d="M3393 2933 c9 -2 25 -2 35 0 9 3 1 5 -18 5 -19 0 -27 -2 -17 -5z"/>
<path d="M2922 2810 c0 -19 2 -27 5 -17 2 9 2 25 0 35 -3 9 -5 1 -5 -18z"/>
<path d="M2900 2700 c0 -16 5 -30 10 -30 6 0 10 14 10 30 0 17 -4 30 -10 30
-5 0 -10 -13 -10 -30z"/>
<path d="M2894 2596 c-3 -8 -4 -23 -2 -33 3 -11 6 -6 9 15 6 34 2 42 -7 18z"/>
<path d="M2870 2475 c0 -14 5 -25 10 -25 6 0 10 11 10 25 0 14 -4 25 -10 25
-5 0 -10 -11 -10 -25z"/>
<path d="M2861 2378 c0 -9 -4 -25 -7 -35 -5 -17 -5 -17 6 0 6 10 9 25 7 35 -4
15 -5 15 -6 0z"/>
<path d="M2830 2250 c0 -16 5 -30 10 -30 6 0 10 14 10 30 0 17 -4 30 -10 30
-5 0 -10 -13 -10 -30z"/>
<path d="M2798 2136 c-4 -17 -1 -23 9 -19 14 6 18 43 4 43 -5 0 -11 -11 -13
-24z"/>
<path d="M2766 2044 c-3 -9 -6 -25 -5 -37 0 -21 1 -21 8 -2 5 11 7 23 4 28 -2
4 1 7 6 7 6 0 11 5 11 10 0 16 -17 12 -24 -6z"/>
<path d="M2730 1936 c0 -8 -3 -23 -7 -33 -6 -17 -6 -17 10 -1 19 18 23 48 7
48 -5 0 -10 -6 -10 -14z"/>
<path d="M2686 1814 c-4 -14 -5 -28 -3 -31 3 -2 8 8 11 23 4 14 5 28 3 31 -3
2 -8 -8 -11 -23z"/>
<path d="M2650 1727 c0 -9 -4 -17 -10 -17 -5 0 -10 -7 -10 -15 0 -8 4 -15 9
-15 10 0 25 50 16 58 -3 3 -5 -2 -5 -11z"/>
<path d="M2603 1632 c-6 -4 -15 -20 -18 -35 -6 -20 -4 -27 8 -27 8 0 17 -6 20
-12 2 -7 8 -9 13 -5 8 7 -4 19 -31 31 -6 3 -6 7 1 13 9 7 27 43 21 43 -1 0 -7
-4 -14 -8z"/>
<path d="M2544 1532 c-6 -4 -15 -18 -19 -32 -7 -21 -6 -22 7 -10 12 13 31 50
25 50 -1 0 -7 -4 -13 -8z"/>
<path d="M2690 1521 c0 -10 50 -25 58 -16 3 3 -2 5 -11 5 -9 0 -17 5 -17 10 0
6 -7 10 -15 10 -8 0 -15 -4 -15 -9z"/>
<path d="M2790 1469 c0 -5 7 -9 15 -9 8 0 15 -4 15 -10 0 -5 7 -10 15 -10 25
0 17 15 -15 27 -16 6 -30 7 -30 2z"/>
<path d="M2477 1420 c-20 -23 -21 -30 -7 -30 6 0 14 8 17 18 4 9 11 20 17 24
7 5 7 8 1 8 -6 0 -18 -9 -28 -20z"/>
<path d="M2894 1419 c1 -7 12 -16 25 -20 14 -6 20 -5 16 1 -3 6 -12 10 -20 10
-7 0 -16 5 -18 10 -3 6 -4 5 -3 -1z"/>
<path d="M2996 1356 c8 -20 44 -28 44 -9 0 10 -6 13 -16 9 -8 -3 -12 -2 -9 4
3 6 -1 10 -9 10 -9 0 -13 -6 -10 -14z"/>
<path d="M2413 1320 c-3 -11 -10 -20 -16 -20 -6 0 -8 -3 -5 -6 9 -8 48 19 48
33 0 21 -21 15 -27 -7z"/>
<path d="M3096 1295 c4 -8 8 -15 10 -15 2 0 4 7 4 15 0 8 -4 15 -10 15 -5 0
-7 -7 -4 -15z"/>
<path d="M2347 1233 c-4 -3 -7 -13 -7 -22 1 -13 3 -13 11 2 11 19 8 33 -4 20z"/>
<path d="M2280 1145 c0 -7 -8 -18 -17 -24 -10 -5 -15 -12 -11 -16 5 -6 58 40
58 50 0 3 -7 5 -15 5 -8 0 -15 -7 -15 -15z"/>
<path d="M2203 1054 c-3 -10 -11 -22 -17 -26 -8 -5 -7 -8 1 -8 14 0 38 39 29
47 -3 3 -9 -3 -13 -13z"/>
<path d="M2120 968 c-11 -12 -20 -26 -20 -30 0 -5 11 3 25 18 14 15 25 29 25
30 0 9 -11 2 -30 -18z"/>
<path d="M2042 888 c-7 -7 -12 -17 -12 -22 0 -6 5 -3 11 7 6 9 14 15 20 12 5
-4 9 -1 9 4 0 14 -13 14 -28 -1z"/>
<path d="M1958 813 c-10 -2 -18 -11 -18 -18 0 -18 26 -9 34 11 3 8 4 13 3 13
-1 -1 -10 -3 -19 -6z"/>
<path d="M1865 734 c-9 -9 -13 -19 -10 -22 3 -3 14 4 25 16 24 25 10 30 -15 6z"/>
<path d="M1775 659 c-20 -20 -20 -20 5 -11 13 5 26 14 28 20 6 18 -11 13 -33
-9z"/>
<path d="M1680 590 c-24 -19 -24 -19 -2 -13 12 3 25 10 28 15 11 18 -1 17 -26
-2z"/>
<path d="M1610 543 c-8 -4 -21 -13 -30 -22 -13 -13 -13 -14 3 -8 10 4 22 7 27
7 4 0 10 7 14 15 3 8 4 15 3 14 -1 0 -9 -3 -17 -6z"/>
<path d="M1498 478 c-30 -10 -38 -28 -13 -28 8 0 15 5 15 10 0 6 7 10 15 10 8
0 15 -4 15 -9 0 -5 6 -11 14 -14 9 -4 12 0 9 13 -6 24 -22 29 -55 18z"/>
<path d="M1395 415 c-25 -12 -26 -14 -5 -9 14 4 29 10 35 15 12 12 5 11 -30
-6z"/>
<path d="M1280 360 c-13 -11 -19 -20 -13 -20 5 0 20 9 33 20 13 11 19 20 13
20 -5 0 -20 -9 -33 -20z"/>
<path d="M1597 359 c6 -22 23 -26 23 -5 0 8 -6 16 -14 19 -10 4 -12 0 -9 -14z"/>
<path d="M1170 313 c-13 -15 -12 -16 4 -10 10 4 24 7 32 7 8 0 14 5 14 10 0
16 -34 11 -50 -7z"/>
<path d="M1640 285 c0 -8 5 -15 10 -15 6 0 10 -7 10 -15 0 -8 7 -15 16 -15 14
0 14 1 0 16 -9 8 -16 22 -16 30 0 8 -4 14 -10 14 -5 0 -10 -7 -10 -15z"/>
<path d="M1068 273 c-22 -5 -24 -23 -3 -23 8 0 15 4 15 9 0 5 8 12 18 14 11 3
12 5 2 5 -8 0 -23 -2 -32 -5z"/>
<path d="M970 240 c-21 -7 -21 -8 -5 -9 11 0 27 4 35 9 18 11 5 11 -30 0z"/>
<path d="M865 200 c-3 -6 1 -7 9 -4 18 7 21 14 7 14 -6 0 -13 -4 -16 -10z"/>
<path d="M1700 193 c0 -5 9 -20 20 -33 11 -13 20 -19 20 -13 0 5 -9 20 -20 33
-11 13 -20 19 -20 13z"/>
<path d="M740 170 c-11 -7 -5 -8 20 -4 43 8 51 14 19 14 -13 0 -31 -5 -39 -10z"/>
<path d="M630 150 c0 -5 11 -10 25 -10 14 0 25 5 25 10 0 6 -11 10 -25 10 -14
0 -25 -4 -25 -10z"/>
<path d="M523 133 c-28 -5 -30 -23 -3 -23 11 0 20 4 20 9 0 5 8 12 18 14 22 6
-5 6 -35 0z"/>
<path d="M403 103 c9 -2 23 -2 30 0 6 3 -1 5 -18 5 -16 0 -22 -2 -12 -5z"/>
<path d="M178 93 c12 -2 30 -2 40 0 9 3 -1 5 -23 4 -22 0 -30 -2 -17 -4z"/>
<path d="M278 93 c7 -3 16 -2 19 1 4 3 -2 6 -13 5 -11 0 -14 -3 -6 -6z"/>
<path d="M1770 79 c0 -6 7 -17 15 -25 16 -16 19 -7 9 20 -7 18 -24 22 -24 5z"/>
</g>
</svg>
