<?xml version="1.0"?>
<svg width="2000" height="857" xmlns="http://www.w3.org/2000/svg" xmlns:svg="http://www.w3.org/2000/svg" stroke-linejoin="round" stroke-width=".2" version="1.2">
 <g class="layer"> 
  <path d="m1088,228l0.4,1.2l1.4,-0.6l1.2,1.7l1.3,0.7l0.6,2.3l-0.5,2.2l1,2.7l2.3,1.5l0.1,1.7l-1.7,0.9l-0.1,2.1l-2.2,3.1l-0.9,-0.4l-0.2,-1.4l-3.1,-2.2l-0.7,-3l0.1,-4.4l0.5,-1.9l-0.9,-1l-0.5,-2.1l1.9,-3.1z" id="AL"/>
  <path d="m1296.2,336.7l1.3,5.1l-2.8,0l0,4.2l1.1,0.9l-2.4,1.3l0.2,2.6l-1.3,2.6l0,2.6l-1,1.4l-16.9,-3.2l-2.7,-6.6l-0.3,-1.4l0.9,-0.4l0.4,1.8l4.2,-1l4.6,0.2l3.4,0.2l3.3,-4.4l3.7,-4.1l3,-4l1.3,2.2z" id="AE"/>
  <path d="m1230.8,253l-1.8,0.2l-2.8,-3.7l-0.2,-1l-2.3,0l-1.9,-1.7l-1,0.1l-2.4,-1.8l-4.2,-1.6l-0.1,-3.1l-1.3,-2.2l7,-1l1.4,1.6l2.2,1.1l-0.7,1.6l3.2,2.2l-1.1,2.1l2.6,1.7l2.5,1l0.9,4.5z" id="AM"/>
  <path d="m1070.6,190.8l-0.3,0.8l0.7,2.1l-0.2,2.6l-2.8,0l1.1,1.4l-1.3,4l-0.9,1.1l-4.4,0.1l-2.4,1.5l-4.2,-0.5l-7.3,-1.7l-1.3,-2.1l-4.9,1.1l-0.5,1.2l-3.1,-0.9l-2.6,-0.2l-2.3,-1.2l0.7,-1.5l-0.2,-1.1l1.4,-0.3l2.7,1.7l0.6,-1.7l4.4,0.3l3.5,-1.1l2.4,0.2l1.7,1.3l0.4,-1.1l-1,-4.1l1.7,-0.8l1.6,-2.9l3.8,2.1l2.6,-2.6l1.7,-0.5l4,1.9l2.3,-0.3l2.4,1.2z" id="AT"/>
  <path class="Azerbaijan" d="m1229,253.2l-3.8,-0.9l-3.2,-2.9l-1.2,-2.5l1,-0.1l1.9,1.7l2.3,0l0.2,1l2.8,3.7z" id="svg_5"/>
  <path class="Azerbaijan" d="m1235.3,236.2l2.5,-2.6l3.5,3.3l3.6,4.6l2.5,0.3l1.9,1.7l-4.2,0.5l0.1,5l-0.4,2.2l-1.7,1.5l0.8,3.1l-1.3,0.4l-3.9,-3.4l1.2,-3.1l-1.9,-1.9l-1.9,0.5l-5.3,4.7l-0.9,-4.5l-2.5,-1l-2.6,-1.7l1.1,-2.1l-3.2,-2.2l0.7,-1.6l-2.2,-1.1l-1.4,-1.6l1.1,-1.1l4.2,1.9l2.9,0.3l0.6,-0.7l-3.3,-3.5l1.2,-0.8l1.5,0.2l4.3,3.8l2.4,0.5l0.6,-1.6z" id="svg_6"/>
  <path d="m1016.5,177.1l-0.4,4.2l-1.3,0.2l-0.4,3.5l-4.4,-2.9l-2.5,0.5l-3.5,-2.9l-2.4,-2.5l-2.2,-0.1l-0.8,-2.2l3.9,-1.2l3.6,0.5l4.5,-1.3l3.1,2.7l2.8,1.5z" id="BE"/>
  <path d="m988.5,406l-0.5,3.1l0.8,2.9l3.1,4.2l0.2,3.1l6.5,1.5l-0.1,4.4l-1.2,1.9l-2.8,0.6l-1.1,2.8l-2,0.7l-4.9,-0.1l-2.6,-0.5l-1.8,1l-2.5,-0.5l-9.8,0.3l-0.2,3.7l0.8,4.8l-3.9,-1.6l-2.6,0.2l-2,1.6l-2.5,-1.3l-1,-2.2l-2.5,-1.4l-0.4,-3.7l1.6,-2.7l-0.2,-2.2l4.5,-5.3l0.9,-4.4l1.5,-1.6l2.7,0.9l2.4,-1.3l0.8,-1.7l4.3,-2.8l1.1,-2l5.3,-2.7l3.1,-0.9l1.4,1.2l3.6,0z" id="BF"/>
  <path d="m1132.6,221.6l-2.3,2.6l-1.3,4.5l2.1,3.6l-4.6,-0.8l-5,2l0.3,3.2l-4.6,0.6l-3.9,-2.3l-4,1.8l-3.8,-0.2l-0.8,-4.2l-2.8,-2.1l0.7,-0.8l-0.6,-0.8l0.6,-2l1.8,-2l-2.8,-2.7l-0.7,-2.4l1.1,-1.4l1.8,2.6l1.9,-0.4l4,0.9l7.6,0.4l2.3,-1.6l5.9,-1.5l4,2.3l3.1,0.7z" id="BG"/>
  <path d="m1083,214.3l1.9,-0.1l-1.1,2.8l2.7,2.5l-0.5,2.9l-1.1,0.3l-0.9,0.6l-1.6,1.5l-0.4,3.5l-4.8,-2.4l-2.1,-2.7l-2.1,-1.4l-2.5,-2.4l-1.3,-1.9l-2.7,-3l0.8,-2.6l2,1.5l1,-1.4l2.3,-0.1l4.5,1.1l3.5,-0.1l2.4,1.4z" id="BA"/>
  <path d="m1141.6,162.7l-3.9,-0.2l-0.8,0.6l1.5,2l2,4l-4.1,0.3l-1.3,1.4l0.3,3.1l-2.1,-0.6l-4.3,0.3l-1.5,-1.5l-1.7,1.1l-1.9,-0.9l-3.9,-0.1l-5.7,-1.5l-4.9,-0.5l-3.8,0.2l-2.4,1.6l-2.3,0.3l-0.5,-2.8l-1.9,-2.8l2.8,-1.3l-0.4,-2.4l-1.7,-2.3l-0.6,-2.7l4.7,0l4.8,-2.3l0.5,-3.4l3.6,-2l-1,-2.7l2.7,-1l4.6,-2.3l5.3,1.5l0.9,1.5l2.4,-0.7l4.8,1.4l1.1,2.9l-0.7,1.6l3.8,4l2.1,1.1l0,1.1l3.4,1.1l1.7,1.6l-1.6,1.3z" id="BY"/>
  <path d="m1034.4,197.5l0.2,1.1l-0.7,1.5l2.3,1.2l2.6,0.2l-0.3,2.5l-2.1,1.1l-3.8,-0.8l-1,2.5l-2.4,0.2l-0.9,-1l-2.7,2.2l-2.5,0.3l-2.2,-1.4l-1.8,-2.7l-2.4,1l0,-2.9l3.6,-3.5l-0.2,-1.6l2.3,0.6l1.3,-1.1l4.2,0l1,-1.3l5.5,1.9z" id="CH"/>
  <path d="m1059.7,175.2l2.5,2l3.7,0.5l-0.2,1.7l2.8,1.3l0.6,-1.6l3.4,0.7l0.7,2l3.7,0.3l2.6,3.1l-1.5,0l-0.7,1.1l-1.1,0.3l-0.2,1.4l-0.9,0.3l-0.1,0.6l-1.6,0.6l-2.2,-0.1l-0.6,1.4l-2.4,-1.2l-2.3,0.3l-4,-1.9l-1.7,0.5l-2.6,2.6l-3.8,-2.1l-3,-2.6l-2.6,-1.5l-0.7,-2.7l-1,-1.8l3.4,-1.3l1.7,-1.6l3.5,-1.2l1.1,-1.2l1.3,0.7l2.2,-0.6z" id="CZ"/>
  <path d="m1053.9,158.9l1.4,3.1l-1.2,1.7l1.9,2.1l1.5,3.3l-0.2,2.2l2.4,3.9l-2.2,0.6l-1.3,-0.7l-1.1,1.2l-3.5,1.2l-1.7,1.6l-3.4,1.3l1,1.8l0.7,2.7l2.6,1.5l3,2.6l-1.6,2.9l-1.7,0.8l1,4.1l-0.4,1.1l-1.7,-1.3l-2.4,-0.2l-3.5,1.1l-4.4,-0.3l-0.6,1.7l-2.7,-1.7l-1.4,0.3l-5.5,-1.9l-1,1.3l-4.2,0l0.4,-4.5l2.4,-4.2l-7.2,-1.2l-2.4,-1.6l0.2,-2.7l-1,-1.4l0.4,-4.2l-1.1,-6.5l2.9,0l1.2,-2.3l0.9,-5.6l-0.9,-2.1l0.8,-1.3l4,-0.3l1,1.3l3.1,-3l-1.3,-2.3l-0.4,-3.4l3.7,0.8l2.9,-0.9l0.3,2.3l4.9,1.4l0.1,2.2l4.7,-1.2l2.6,-1.6l5.6,2.4l2.4,1.9z" id="DE"/>
  <path class="Denmark" d="m1046.1,147.7l-2.4,4.9l-5.2,-3.5l-0.9,-2.5l6.8,-2l1.7,3.1z" id="svg_9"/>
  <path class="Denmark" d="m1033.3,151.5l-2.9,0.9l-3.7,-0.8l-2.1,-3.4l-0.4,-6.1l0.6,-1.7l1.3,-1.8l4,-0.3l1.6,-1.7l3.6,-1.7l0,3.1l-1.2,2l0.7,1.6l2.6,0.9l-1,2.3l-1.4,-0.6l-3.1,4.3l1.4,3z" id="svg_10"/>
  <path d="m1031,264.6l-1,3.3l1,6.1l-1.1,5.3l-3.2,3.6l0.6,4.8l4.5,3.9l0.1,1.5l3.4,2.6l2.6,11.5l1.9,5.7l0.4,3l-0.8,5.2l0.4,3l-0.6,3.5l0.6,4l-2.2,2.7l3.4,4.7l0.2,2.7l2.1,3.6l2.5,-1.2l4.5,3l2.5,4l-18.8,12.3l-16,12.6l-7.8,2.8l-6.2,0.7l-0.1,-4.1l-2.6,-1.1l-3.5,-1.8l-1.3,-3l-18.7,-14l-18.6,-14l-20.5,-15.6l0.1,-1.2l0.1,-0.4l0.1,-7.6l8.9,-4.8l5.4,-1l4.5,-1.7l2.1,-3.2l6.4,-2.5l0.3,-4.8l3.1,-0.6l2.5,-2.3l7.1,-1.1l1,-2.5l-1.4,-1.4l-1.9,-6.8l-0.3,-3.9l-1.9,-4.1l5.1,-3.5l5.8,-1.1l3.3,-2.6l5.1,-2l9,-1.1l8.8,-0.5l2.7,0.9l4.9,-2.5l5.7,-0.1l2.2,1.5l3.6,-0.4z" id="DZ"/>
  <path d="m1172.1,301.4l3.9,9.4l0.7,1.6l-1.3,2.6l-0.7,4.8l-1.2,3.4l-1.2,1.1l-2,-2.1l-2.7,-2.8l-4.7,-9.2l-0.5,0.6l2.8,6.7l3.9,6.5l4.9,10l2.3,3.5l2,3.6l5.4,7.1l-1,1.1l0.4,4.2l6.8,5.8l1.1,1.3l-22.1,0l-21.5,0l-22.3,0l-1,-23.7l-1.3,-22.8l-2,-5.2l1.1,-3.9l-1,-2.8l1.7,-3.1l7.2,-0.1l5.4,1.7l5.5,1.9l2.6,1l4,-2l2.1,-1.8l4.7,-0.6l3.9,0.8l1.8,3.2l1.1,-2.1l4.4,1.5l4.3,0.4l2.5,-1.6z" id="EG"/>
  <path d="m1113.7,124.6l0.9,1l-2.6,3.4l2.4,5.6l-1.6,1.9l-3.8,-0.1l-4.4,-2.2l-2.1,-0.7l-3.8,1l-0.1,-3.5l-1.5,0.8l-3.3,-2.1l-1,-3.4l5.5,-1.7l5.6,-0.8l5.1,0.9l4.7,-0.1z" id="EE"/>
  <path d="m1104.1,70.1l0.4,3.8l7.3,3.7l-2.9,4.2l6.5,6.3l-1.7,4.8l4.9,4.2l-0.9,3.8l7.4,3.9l-0.9,2.9l-3.4,3.4l-8,7.4l-8,0.5l-7.6,2.1l-7.1,1.3l-3.2,-3.2l-4.7,-1.9l0.1,-5.8l-3,-5.2l1.6,-3.4l3.3,-3.5l8.8,-6.2l2.6,-1.2l-0.9,-2.4l-6.5,-2.6l-1.8,-2.2l-1.8,-8.5l-7.2,-3.7l-6,-2.7l2.2,-1.4l5.1,2.8l5.3,-0.2l4.7,1.3l3.4,-2.4l1.1,-4l5.9,-1.8l5.8,2.1l-0.8,3.8z" id="FI"/>
  <path class="United Kingdom" d="m956.7,158.2l-3.5,-1.2l-3,0.1l1.2,-3.3l-0.9,-3.2l4,-0.3l4.9,3.8l-2.7,4.1z" id="svg_11"/>
  <path class="United Kingdom" d="m972.6,129.5l-5.1,6.5l4.7,-0.8l5.1,0l-1.3,4.9l-4.3,5.4l4.9,0.3l0.3,0.7l4.2,7.1l3.2,1l2.9,7l1.4,2.4l5.9,1.1l-0.6,4l-2.4,1.8l1.9,3.2l-4.4,3.2l-6.5,-0.1l-8.4,1.8l-2.2,-1.3l-3.3,2.9l-4.5,-0.7l-3.6,2.4l-2.5,-1.2l7.3,-6.5l4.4,-1.4l-7.6,-1l-1.3,-2.5l5.1,-1.9l-2.5,-3.3l1,-4l7.1,0.6l0.8,-3.6l-3.1,-3.7l-0.1,-0.1l-5.7,-1.1l-1.1,-1.6l1.8,-2.7l-1.5,-1.7l-2.6,2.9l-0.1,-5.9l-2.2,-3l1.9,-6.2l3.8,-4.8l3.6,0.4l5.6,-0.5z" id="svg_12"/>
  <path d="m1215.7,227.9l5.1,1.3l2.1,2.6l3.6,1.5l-1.2,0.8l3.3,3.5l-0.6,0.7l-2.9,-0.3l-4.2,-1.9l-1.1,1.1l-7,1l-5.6,-3.2l-5.5,0.3l0.3,-2.7l-2.1,-4.3l-3.4,-2.4l-3,-0.7l-2.2,-1.9l0.4,-0.8l4.6,1.1l7.7,1l7.6,3.1l1.2,1.2l2.9,-1z" id="GE"/>
  <path class="Greece" d="m1112.7,272.6l3.1,2.2l4.1,-0.4l4,0.4l0,1.2l2.8,-0.8l-0.5,1.9l-7.6,0.5l-0.1,-1l-6.6,-1.3l0.8,-2.7z" id="svg_13"/>
  <path class="Greece" d="m1121.9,239.9l-3.2,-0.2l-2.7,-0.6l-6.2,1.6l4,3.6l-2.5,1.1l-2.9,0l-3.1,-3.3l-0.9,1.4l1.6,3.8l2.9,3l-1.9,1.4l3.2,2.9l2.8,1.9l0.4,3.6l-5,-1.7l1.8,3.3l-3.3,0.6l2.5,5.7l-3.5,0.1l-4.6,-2.8l-2.4,-5.1l-1.3,-4.3l-2.3,-2.9l-3,-3.7l-0.5,-1.8l2.2,-3.1l0.1,-2.1l1.7,-0.9l-0.1,-1.7l3.4,-0.5l1.8,-1.4l2.8,0.1l0.8,-1.1l1,-0.2l3.8,0.2l4,-1.8l3.9,2.3l4.6,-0.6l-0.3,-3.2l2.7,1.7l-1.1,4l-1.2,0.7z" id="svg_14"/>
  <path d="m1081.5,207.6l1.5,2.5l1.7,1.8l-1.7,2.4l-2.4,-1.4l-3.5,0.1l-4.5,-1.1l-2.3,0.1l-1,1.4l-2,-1.5l-0.8,2.6l2.7,3l1.3,1.9l2.5,2.4l2.1,1.4l2.1,2.7l4.8,2.4l-0.5,1l-5,-2.3l-3.2,-2.3l-4.8,-1.9l-4.7,-4.6l1,-0.5l-2.5,-2.7l-0.3,-2.1l-3.3,-1l-1.4,2.7l-1.6,-2.1l0,-2.2l0.1,-0.1l3.6,0.2l0.8,-1l1.8,1l2,0.1l-0.1,-1.7l1.7,-0.7l0.3,-2.5l3.9,-1.7l1.6,0.8l4,2.7l4.3,1.2l1.8,-1z" id="HR"/>
  <path d="m1096.2,191.9l3,1.7l0.5,1.7l-2.9,1.3l-1.9,4.2l-2.6,4.3l-3.9,1.2l-3.2,-0.3l-3.7,1.6l-1.8,1l-4.3,-1.2l-4,-2.7l-1.6,-0.8l-1.2,-2.1l-0.8,-0.1l1.3,-4l-1.1,-1.4l2.8,0l0.2,-2.6l2.7,1.7l1.9,0.6l4.1,-0.7l0.3,-1.3l1.9,-0.2l2.3,-0.9l0.6,0.4l2.3,-0.8l1,-1.5l1.6,-0.4l5.5,1.9l1,-0.6z" id="HU"/>
  <path d="m956.7,158.2l0.7,4.4l-3.9,5.5l-8.8,3.6l-6.8,-0.9l4.3,-6.4l-2.1,-6.2l6.7,-4.8l3.7,-2.8l0.9,3.2l-1.2,3.3l3,-0.1l3.5,1.2z" id="IE"/>
  <path d="m1223.5,263.2l4.7,7.6l3.8,2l0.9,3.7l-2.3,2.2l-0.5,5l4.6,6.1l7.1,3.6l3.5,4.8l-0.2,4.7l1.7,0l0.5,3.4l3.5,3.4l-3.3,-0.3l-3.7,-0.6l-3.3,6.2l-10.2,-0.5l-16.8,-12.9l-8.6,-4.5l-6.8,-1.8l-3.1,-7.8l11,-6.7l1,-7.7l-1.2,-4.7l2.7,-1.6l2.1,-4l2.1,-1l6.3,0.9l2.1,1.6l2.4,-1.1z" id="IQ"/>
  <path d="m924.8,84.5l-1.4,3.6l4.4,3.8l-6.1,4.3l-13.1,3.9l-3.9,1.1l-5.6,-0.9l-11.9,-1.8l4.8,-2.5l-9,-2.7l7.9,-1.1l0.1,-1.7l-8.8,-1.3l3.6,-3.7l6.6,-0.8l6,3.8l7,-3l5.1,1.5l7.3,-2.9l7,0.4z" id="IS"/>
  <path d="m1179.1,288.2l0.4,2.6l-0.6,1l0.1,0l-0.7,2l-2.1,-0.8l-0.7,4.2l1.5,0.7l-1.3,0.9l-0.1,1.7l2.5,-0.8l0.4,2.5l-1.8,10.2l-0.7,-1.6l-3.9,-9.4l1.4,-2.1l-0.4,-0.4l1.1,-3l0.6,-4.8l0.6,-1.7l0.1,0l1.8,0l0.4,-1.1l1.4,-0.1z" id="IL"/>
  <path class="Italy" d="m1068.2,256.4l-1.7,5.1l0.9,1.9l-0.9,3.3l-4.2,-2.4l-2.7,-0.7l-7.5,-3.2l0.5,-3.3l6.2,0.6l5.4,-0.7l4,-0.6z" id="svg_28"/>
  <path class="Italy" d="m1034.2,237.4l3.3,4.5l-0.4,8.5l-2.4,-0.4l-2.1,2.1l-2,-1.7l-0.5,-7.7l-1.3,-3.6l2.9,0.3l2.5,-2z" id="svg_29"/>
  <path class="Italy" d="m1055.9,203.9l-0.4,3.1l1.4,2.7l-4.1,-1l-3.9,2.3l0.4,3.1l-0.5,1.8l1.9,3.2l5,3.2l2.9,5.3l6.1,5.1l4,-0.1l1.4,1.4l-1.4,1.3l4.8,2.3l4,1.9l4.7,3.4l0.6,1.1l-0.8,2.3l-3.1,-3l-4.6,-1l-1.9,4.1l3.9,2.4l-0.4,3.3l-2.1,0.4l-2.5,5.5l-2.2,0.5l-0.1,-2l0.9,-3.4l1.1,-1.4l-2.3,-3.7l-1.8,-3.2l-2.2,-0.8l-1.8,-2.7l-3.4,-1.2l-2.4,-2.6l-3.8,-0.4l-4.3,-2.8l-4.9,-4.2l-3.7,-3.6l-1.9,-6.3l-2.6,-0.7l-4.2,-2.1l-2.3,0.8l-2.9,3l-2.1,0.4l0.5,-2.7l-2.8,-0.8l-1.5,-4.9l1.7,-1.9l-1.5,-2.4l0.1,-1.8l2.2,1.4l2.5,-0.3l2.7,-2.2l0.9,1l2.4,-0.2l1,-2.5l3.8,0.8l2.1,-1.1l0.3,-2.5l3.1,0.9l0.5,-1.2l4.9,-1.1l1.3,2.1l7.3,1.7z" id="svg_30"/>
  <path d="m1198.1,295.3l-0.9,1l-10.4,3.2l6,6.5l-1.6,1l-0.7,2.2l-4.1,0.9l-1.1,2.3l-2.1,2l-6.2,-1.1l-0.3,-0.9l1.8,-10.2l-0.4,-2.5l0.6,-1.9l-0.4,-4l0.7,-2l6.3,2.6l9.7,-6.9l3.1,7.8z" id="JO"/>
  <path d="m1247.5,309.4l1.5,2.8l-0.3,1.5l2.4,4.8l-3.9,0.2l-1.7,-3.1l-5,-0.6l3.3,-6.2l3.7,0.6z" id="KW"/>
  <path d="m1179.1,288.2l-1.4,0.1l-0.4,1.1l-1.8,0l1.3,-5.3l2.2,-4.5l0,-0.2l2.5,0.3l1.2,2.5l-2.7,2.5l-0.9,3.5z" id="LB"/>
  <path d="m1122.6,299.1l-1.7,3.1l1,2.8l-1.1,3.9l2,5.2l1.3,22.8l1,23.7l0.5,12.8l-6.4,0l0,2.7l-22.6,-12.3l-22.5,-12.3l-5.5,3.5l-3.8,2.4l-3.2,-3.5l-8.8,-2.8l-2.5,-4l-4.5,-3l-2.5,1.2l-2.1,-3.6l-0.2,-2.7l-3.4,-4.7l2.2,-2.7l-0.6,-4l0.6,-3.5l-0.4,-3l0.8,-5.2l-0.4,-3l-1.9,-5.7l2.6,-1.4l0.4,-2.8l-0.6,-2.6l3.6,-2.5l1.6,-2.1l2.6,-1.8l0.1,-4.9l6.4,2.2l2.3,-0.6l4.5,1.1l7.3,2.9l2.8,5.7l4.9,1.2l7.8,2.7l6,3.2l2.5,-1.7l2.5,-2.9l-1.6,-4.9l1.5,-3.2l3.7,-3l3.7,-0.8l7.4,1.3l2,2.8l2,0.1l1.8,1.1l5.4,0.7l1.5,2.1z" id="LY"/>
  <path d="m1111.1,147.6l1,2.7l-3.6,2l-0.5,3.4l-4.8,2.3l-4.7,0l-1.4,-1.9l-2.5,-0.7l-0.6,-1.5l0.2,-1.7l-2.2,-0.9l-5.1,-1.1l-1.7,-5.1l5.1,-1.8l7.9,0.4l4.5,-0.6l0.9,1.2l2.5,0.4l5,2.9z" id="LT"/>
  <path d="m1016.9,185.4l-1.4,0.1l-1.1,-0.5l0.4,-3.5l1.3,-0.2l1,1.4l-0.2,2.7z" id="LU"/>
  <path d="m1112.8,136.5l2.5,1.3l1,2.9l2.1,3.6l-4.6,2.3l-2.7,1l-5,-2.9l-2.5,-0.4l-0.9,-1.2l-4.5,0.6l-7.9,-0.4l-5.1,1.8l-0.5,-4.5l1.7,-3.8l4.1,-2l4.4,4.5l3.7,-0.2l0.1,-4.6l3.8,-1l2.1,0.7l4.4,2.2l3.8,0.1z" id="LV"/>
  <path d="m974.8,276l1.9,4.1l0.3,3.9l1.9,6.8l1.4,1.4l-1,2.5l-7.1,1.1l-2.5,2.3l-3.1,0.6l-0.3,4.8l-6.4,2.5l-2.1,3.2l-4.5,1.7l-5.4,1l-8.9,4.8l-0.1,7.6l-0.9,0l0.1,3.4l-3.4,0.2l-1.8,1.5l-2.5,0l-2,-0.9l-4.6,0.7l-1.9,5l-1.8,0.5l-2.7,8.1l-7.9,6.9l-2,8.9l-2.4,2.9l-0.7,2.3l-12.5,0.5l-0.1,0l0.3,-3l2.2,-1.7l1.9,-3.4l-0.3,-2.2l2,-4.5l3.2,-4.1l1.9,-1l1.6,-3.7l0.2,-3.5l2.1,-3.9l3.8,-2.4l3.6,-6.5l0.1,-0.1l2.9,-2.5l5.1,-0.7l4.4,-4.4l2.8,-1.7l4.7,-5.4l-1.2,-7.9l2.2,-5.6l0.9,-3.4l3.6,-4.3l5.4,-2.9l4.1,-2.7l3.7,-6.6l1.8,-4l3.9,0.1l3.1,2.7l5.1,-0.4l5.5,1.4l2.4,0z" id="MA"/>
  <path d="m1129.4,210.3l-1.3,-2.9l0.2,-2.7l-0.6,-2.7l-3.4,-3.8l-2,-2.6l-1.8,-1.8l-1.6,-0.7l1.1,-0.9l3.2,-0.6l4,1.9l2,0.3l2.6,1.7l-0.1,2.1l2,1l1.1,2.6l2,1.6l-0.2,1l1,0.6l-1.3,0.5l-3,-0.2l-0.6,-0.9l-1,0.5l0.6,1.1l-1.1,2.1l-0.6,2.1l-1.2,0.7z" id="MD"/>
  <path d="m1105.5,236.6l-1,0.2l-0.8,1.1l-2.8,-0.1l-1.8,1.4l-3.4,0.5l-2.3,-1.5l-1,-2.7l0.5,-2.2l0.7,0.1l0.1,-1.3l2.9,-1l1.2,-0.3l1.7,-0.3l2.4,-0.2l2.8,2.1l0.8,4.2z" id="MK"/>
  <path d="m1010.2,378.8l0.1,14.8l-3.1,4.3l-0.4,4l-5,1l-7.7,0.5l-2,2.3l-3.6,0.3l-3.6,0l-1.4,-1.2l-3.1,0.9l-5.3,2.7l-1.1,2l-4.3,2.8l-0.8,1.7l-2.4,1.3l-2.7,-0.9l-1.5,1.6l-0.9,4.4l-4.5,5.3l0.2,2.2l-1.6,2.7l0.4,3.7l-2.4,1l-1.3,0.8l-0.9,-2.7l-1.6,0.7l-1,-0.1l-1,1.8l-4.4,0l-1.5,-1l-0.8,0.6l-1.7,-1.9l0.3,-1.9l-0.7,-0.7l-1.2,0.6l0.3,-2.1l1.1,-1.6l-2.3,-2.7l-0.6,-1.8l-1.3,-1.4l-1.1,-0.2l-1.3,0.9l-1.9,0.9l-1.5,1.4l-2.4,-0.5l-1.6,-1.7l-0.9,-0.2l-1.5,0.9l-0.9,0l-0.3,-2.4l0.3,-2l-0.5,-2.4l-2,-1.8l-1.1,-3.7l-0.2,-4l1.9,-1.2l1,-3.8l1.8,-0.1l3.9,1.8l3.2,-1.3l2.1,0.4l0.9,-1.4l22.5,-0.1l1.3,-4.5l-1,-0.8l-2.5,-27.7l-2.4,-27.7l8.5,-0.1l18.6,14l18.7,14l1.3,3l3.5,1.8l2.6,1.1l0.1,4.1l6.2,-0.7z" id="ML"/>
  <path d="m1090.6,227.2l-0.8,1.4l-1.4,0.6l-0.4,-1.2l-1.9,3.1l0.5,2.1l-1.1,-0.5l-1.7,-2.1l-2.3,-1.3l0.5,-1l0.4,-3.5l1.6,-1.5l0.9,-0.6l1.4,1.1l0.9,0.9l1.7,0.7l2.1,1.3l-0.4,0.5z" id="ME"/>
  <path d="m959.2,341.5l-8.5,0.1l2.4,27.7l2.5,27.7l1,0.8l-1.3,4.5l-22.5,0.1l-0.9,1.4l-2.1,-0.4l-3.2,1.3l-3.9,-1.8l-1.8,0.1l-1,3.8l-1.9,1.2l-3.6,-4.4l-3.4,-4.8l-3.6,-1.7l-2.7,-1.8l-3.1,0l-2.8,1.4l-2.7,-0.5l-2,2l-0.4,-3.4l1.6,-3.2l0.8,-6l-0.4,-6.4l-0.6,-3.2l0.6,-3.2l-1.4,-3l-2.8,-2.8l1.3,-2.1l21.7,0l-0.9,-9.3l1.5,-3.3l5.2,-0.5l0.2,-16.5l18,0.4l0.2,-9.8l20.5,15.6z" id="MR"/>
  <path d="m1068.6,355l1.6,10l2.2,1.7l0.1,2l2.4,2.2l-1.2,2.8l-1.8,13l-0.2,8.4l-7,6l-2.3,8.5l2.4,2.4l0,4.1l3.7,0.1l-0.6,3.1l-1.5,0.3l-0.2,2.1l-1,0.1l-3.9,-7l-1.4,-0.3l-4.3,3.6l-4.4,-1.9l-3,-0.3l-1.6,0.9l-3.3,-0.2l-3.3,2.7l-2.9,0.2l-6.8,-3.3l-2.7,1.5l-2.9,-0.1l-2.1,-2.4l-5.6,-2.4l-6.1,0.8l-1.4,1.3l-0.8,3.7l-1.6,2.6l-0.4,5.8l-4.3,-3.7l-2,0l-1.9,1.9l0.1,-4.4l-6.5,-1.5l-0.2,-3.1l-3.1,-4.2l-0.8,-2.9l0.5,-3.1l3.6,-0.3l2,-2.3l7.7,-0.5l5,-1l0.4,-4l3.1,-4.3l-0.1,-14.8l7.8,-2.8l16,-12.6l18.8,-12.3l8.8,2.8l3.2,3.5l3.8,-2.4z" id="NE"/>
  <path class="Norway" d="m1113.7,67.5l-6.4,2.1l-3.2,0.5l0.8,-3.8l-5.8,-2.1l-5.9,1.8l-1.1,4l-3.4,2.4l-4.7,-1.3l-5.3,0.2l-5.1,-2.8l-2.2,1.4l-2.6,0.2l0.1,3.6l-8,-0.9l-0.6,3.1l-4,0l-2.3,3.9l-3.4,6.1l-5.7,7.9l1.8,2l-1.3,2.2l-4.3,-0.1l-2.4,5.4l1,7.7l3.1,2.9l-0.8,6.9l-3.4,4l-1.8,3.4l-3.3,-3.6l-8.6,6.8l-6.1,1.4l-6.5,-3l-1.8,-6.3l-2,-13.5l4,-3.7l11.3,-4.9l8.1,-5.9l7.2,-7.8l8.9,-10.7l6.4,-4.1l10.3,-6.8l8.5,-2.4l6.7,0.3l5.2,-4.4l7.4,0.2l7,-1l13.7,3.9l-4.9,1.4l5.4,3.4z" id="svg_36"/>
  <path class="Oman" d="m1296.2,336.7l-1.3,-2.2l1.4,-2.1l0.7,0.5l-0.2,2.7l-0.6,1.1z" id="svg_41"/>
  <path d="m1079.9,154.8l5.9,0.7l8.8,-0.1l2.5,0.7l1.4,1.9l0.6,2.7l1.7,2.3l0.4,2.4l-2.8,1.3l1.9,2.8l0.5,2.8l3.2,5.4l-0.3,1.7l-2.3,0.7l-3.8,5.2l1.6,2.8l-1.1,-0.4l-5,-2.4l-3.5,0.9l-2.4,-0.6l-2.8,1.3l-2.7,-2.2l-1.9,0.9l-0.3,-0.4l-2.6,-3.1l-3.7,-0.3l-0.7,-2l-3.4,-0.7l-0.6,1.6l-2.8,-1.3l0.2,-1.7l-3.7,-0.5l-2.5,-2l-2.4,-3.9l0.2,-2.2l-1.5,-3.3l-1.9,-2.1l1.2,-1.7l-1.4,-3.1l3.1,-1.8l7.1,-2.8l5.8,-2l4.8,1l0.6,1.5l4.6,0z" id="PL"/>
  <path d="m1178.3,293.8l0.4,4l-0.6,1.9l-2.5,0.8l0.1,-1.7l1.3,-0.9l-1.5,-0.7l0.7,-4.2l2.1,0.8z" id="PS"/>
  <path d="m1270.1,343.7l-1.5,0.5l-1.8,-1.3l-0.8,-4.7l1.1,-3.3l1.5,-0.7l1.8,2l0.5,3.7l-0.8,3.8z" id="QA"/>
  <path d="m1118.9,193.1l1.6,0.7l1.8,1.8l2,2.6l3.4,3.8l0.6,2.7l-0.2,2.7l1.3,2.9l2.4,1.2l2.3,-1.1l2.4,1.1l0.4,1.7l-2.3,1.3l-1.6,-0.6l-0.4,7.7l-3.1,-0.7l-4,-2.3l-5.9,1.5l-2.3,1.6l-7.6,-0.4l-4,-0.9l-1.9,0.4l-1.8,-2.6l-1,-1.1l1,-1.1l-1.3,-0.7l-1.5,1.4l-3.1,-1.9l-0.7,-2.6l-3.2,-1.4l-0.8,-2.1l-3,-2.4l3.9,-1.2l2.6,-4.3l1.9,-4.2l2.9,-1.3l2,-1.4l3.2,0.7l3.2,0l2.5,1.6l1.6,-1l3.6,-0.6l1,-1.5l2.1,0z" id="RO"/>
  <path d="m938.9,324.3l-0.1,0.4l-0.1,1.2l-0.2,9.8l-18,-0.4l-0.2,16.5l-5.2,0.5l-1.5,3.3l0.9,9.3l-21.7,0l-1.3,2.1l0.3,-2.7l0.1,0l12.5,-0.5l0.7,-2.3l2.4,-2.9l2,-8.9l7.9,-6.9l2.7,-8.1l1.8,-0.5l1.9,-5l4.6,-0.7l2,0.9l2.5,0l1.8,-1.5l3.4,-0.2l-0.1,-3.4l0.9,0z" id="EH"/>
  <path d="m1240.5,315l5,0.6l1.7,3.1l3.9,-0.2l2.7,5.6l2.9,1.4l1.2,2.3l4,2.7l0.7,2.6l-0.4,2.2l0.9,2.1l1.8,1.8l0.9,2.1l1,1.6l1.8,1.3l1.5,-0.5l1.3,2.5l0.3,1.4l2.7,6.6l16.9,3.2l1,-1.4l3,4.6l-2.6,12.8l-16.3,6.4l-15.9,2.5l-5,2.9l-3.5,6.7l-2.6,1.1l-1.5,-2.1l-2.1,0.3l-5.5,-0.7l-1.1,-0.6l-6.4,0.1l-1.5,0.6l-2.4,-1.6l-1.3,3.1l0.8,2.7l-2.4,2.1l-0.9,-2.8l-1.8,-1.9l-0.5,-2.6l-3.1,-2.3l-3.3,-5.4l-1.9,-5.2l-4.1,-4.4l-2.5,-1.1l-4.1,-6.1l-0.9,-4.4l0,-3.8l-3.6,-7.2l-2.8,-2.5l-3,-1.3l-2.1,-3.7l0.2,-1.4l-1.8,-3.4l-1.7,-1.4l-2.5,-4.8l-3.8,-5.1l-3.1,-4.4l-2.7,0l0.5,-3.5l0.1,-2.3l0.4,-2.6l6.2,1.1l2.1,-2l1.1,-2.3l4.1,-0.9l0.7,-2.2l1.6,-1l-6,-6.5l10.4,-3.2l0.9,-1l6.8,1.8l8.6,4.5l16.8,12.9l10.2,0.5z" id="SA"/>
  <path d="m1191,409.2l-0.7,5.5l-2,6.4l-3.3,3.1l-2.3,5l-0.5,2.6l-2.6,1.8l-1.5,6.7l0,0.8l-0.8,-0.2l0.1,-3.2l-0.8,-2.2l-2.9,-2.5l-0.9,-4.6l0.6,-4.8l-2.6,-0.4l-0.4,1.4l-3.4,0.4l1.5,1.8l0.5,3.9l-3,3.5l-2.7,4.6l-2.9,0.7l-4.8,-3.7l-2.1,1.3l-0.5,1.8l-2.9,1.3l-0.2,1.3l-5.6,0l-0.8,-1.3l-4.1,-0.3l-2,1.1l-1.6,-0.5l-2.9,-3.8l-1,-1.7l-4.1,0.9l-1.5,2.9l-1.3,5.8l-2,1.2l-1.7,0.7l-0.5,-0.3l-1.9,-1.9l-0.4,-2l0.8,-2.6l0,-2.7l-3.3,-4l-0.7,-2.7l0,-1.6l-2.1,-1.9l-0.1,-3.7l-1.3,-2.5l-1.9,0.4l0.5,-2.4l1.4,-2.6l-0.7,-2.7l1.8,-2l-1.2,-1.5l1.3,-3.9l2.5,-4.8l4.8,0.5l-1.1,-25.5l0,-2.7l6.4,0l-0.5,-12.8l22.3,0l21.5,0l22.1,0l2.1,6.3l-1.2,1.1l1.2,6.7l2.5,7.6l2.2,1.6l3.2,2.4l-2.7,3.6l-4,1.1l-1.7,2l-0.3,4.2l-2,9.5l0.7,2.5z" id="SD"/>
  <path d="m1102,218.2l-1.1,1.4l0.7,2.4l2.8,2.7l-1.8,2l-0.6,2l0.6,0.8l-0.7,0.8l-2.4,0.2l-1.7,0.3l-0.3,-0.5l0.6,-0.7l0.4,-1.6l-0.7,0.1l-1.1,-1.2l-0.9,-0.3l-0.8,-1l-1,-0.4l-0.8,-0.9l-0.9,0.4l-0.5,2.1l-1.2,0.4l0.4,-0.5l-2.1,-1.3l-1.7,-0.7l-0.9,-0.9l-1.4,-1.1l1.1,-0.3l0.5,-2.9l-2.7,-2.5l1.1,-2.8l-1.9,0.1l1.7,-2.4l-1.7,-1.8l-1.5,-2.5l3.7,-1.6l3.2,0.3l3,2.4l0.8,2.1l3.2,1.4l0.7,2.6l3.1,1.9l1.5,-1.4l1.3,0.7l-1,1.1l1,1.1z" id="RS"/>
  <path d="m1098.1,187.7l-1.2,1.7l-0.7,2.5l-1,0.6l-5.5,-1.9l-1.6,0.4l-1,1.5l-2.3,0.8l-0.6,-0.4l-2.3,0.9l-1.9,0.2l-0.3,1.3l-4.1,0.7l-1.9,-0.6l-2.7,-1.7l-0.7,-2.1l0.3,-0.8l0.6,-1.4l2.2,0.1l1.6,-0.6l0.1,-0.6l0.9,-0.3l0.2,-1.4l1.1,-0.3l0.7,-1.1l1.5,0l0.3,0.4l1.9,-0.9l2.7,2.2l2.8,-1.3l2.4,0.6l3.5,-0.9l5,2.4z" id="SK"/>
  <path d="m1069.8,203.9l-3.9,1.7l-0.3,2.5l-1.7,0.7l0.1,1.7l-2,-0.1l-1.8,-1l-0.8,1l-3.6,-0.2l1.1,-0.5l-1.4,-2.7l0.4,-3.1l4.2,0.5l2.4,-1.5l4.4,-0.1l0.9,-1.1l0.8,0.1l1.2,2.1z" id="SI"/>
  <path d="m1088.2,87l-7,1.6l-3.5,3.9l1.3,3.5l-6.2,4.5l-7.8,5l-2.1,8.1l3.7,4.1l4.8,3.3l-3.3,6.6l-4.6,1.4l-0.6,10l-2.1,5.7l-5.7,-0.6l-2.2,4.8l-5.5,0.3l-1.9,-5.7l-4.5,-6.9l-4.2,-8.4l1.8,-3.4l3.4,-4l0.8,-6.9l-3.1,-2.9l-1,-7.7l2.4,-5.4l4.3,0.1l1.3,-2.2l-1.8,-2l5.7,-7.9l3.4,-6.1l2.3,-3.9l4,0l0.6,-3.1l8,0.9l-0.1,-3.6l2.6,-0.2l6,2.7l7.2,3.7l1.8,8.5l1.8,2.2z" id="SE"/>
  <path d="m1195,287.5l-9.7,6.9l-6.3,-2.6l-0.1,0l0.6,-1l-0.4,-2.6l0.9,-3.5l2.7,-2.5l-1.2,-2.5l-2.5,-0.3l-1.1,-4.9l1,-2.7l1.3,-1.4l1.2,-1.4l-0.2,-3.5l1.9,1.2l5.6,-1.8l3,1.2l4.4,0l5.7,-2.4l2.9,0.1l5.9,-1l-2.1,4l-2.7,1.6l1.2,4.7l-1,7.7l-11,6.7z" id="SY"/>
  <path d="m1119.2,376.1l1.1,25.5l-4.8,-0.5l-2.5,4.8l-1.3,3.9l1.2,1.5l-1.8,2l0.7,2.7l-1.4,2.6l-0.5,2.4l1.9,-0.4l1.3,2.5l0.1,3.7l2.1,1.9l0,1.6l-3.6,1.1l-2.8,2.6l-4,7l-5.2,3l-5.5,-0.4l-1.6,0.6l0.6,2.2l-2.9,2.3l-2.4,2.5l-7.1,2.4l-1.4,-1.4l-1,-0.2l-1,1.7l-4.6,0.5l0.8,-1.8l-1.8,-4.4l-0.8,-2.6l-2.5,-1.1l-3.4,-3.8l1.2,-3l2.6,0.6l1.6,-0.4l3.2,0l-3.2,-5.8l0.2,-4.3l-0.5,-4.2l-2.3,-4.1l0.6,-3.1l-3.7,-0.1l0,-4.1l-2.4,-2.4l2.3,-8.5l7,-6l0.2,-8.4l1.8,-13l1.2,-2.8l-2.4,-2.2l-0.1,-2l-2.2,-1.7l-1.6,-10l5.5,-3.5l22.5,12.3l22.6,12.3z" id="TD"/>
  <path d="m1048.2,289.1l-0.1,4.9l-2.6,1.8l-1.6,2.1l-3.6,2.5l0.6,2.6l-0.4,2.8l-2.6,1.4l-2.6,-11.5l-3.4,-2.6l-0.1,-1.5l-4.5,-3.9l-0.6,-4.8l3.2,-3.6l1.1,-5.3l-1,-6.1l1,-3.3l5.7,-2.5l3.7,0.7l0,3.3l4.4,-2.4l0.4,1.2l-2.5,3.2l0.1,2.9l1.9,1.6l-0.5,5.6l-3.5,3.2l1.2,3.5l2.8,0.1l1.4,3.1l2.1,1z" id="TN"/>
  <path class="Turkey" d="m1201.7,235.3l5.5,-0.3l5.6,3.2l1.3,2.2l0.1,3.1l4.2,1.6l2.4,1.8l-3.3,1.9l2.9,7.3l-0.7,2l3.8,5.1l-2.4,1.1l-2.1,-1.6l-6.3,-0.9l-2.1,1l-5.9,1l-2.9,-0.1l-5.7,2.4l-4.4,0l-3,-1.2l-5.6,1.8l-1.9,-1.2l0.2,3.5l-1.2,1.4l-1.3,1.4l-2.3,-2.9l1.7,-2.4l-3.2,0.6l-4.6,-1.5l-3.2,3.7l-8,0.7l-4.7,-3.4l-5.7,-0.2l-1,2.6l-3.6,0.8l-5.4,-3.4l-5.8,0.1l-3.8,-6.4l-4.2,-3.5l2,-5l-3.6,-3.1l5.1,-6.1l8,-0.2l1.6,-4.9l10,0.9l5.6,-4.1l5.8,-1.8l8.5,-0.2l9.8,4.5l7.9,2.5l5.8,-1l4.6,0.6l5.5,-3.4z" id="svg_53"/>
  <path class="Turkey" d="m1121.9,239.9l1.2,-0.7l1.1,-4l-2.7,-1.7l5,-2l4.6,0.8l0.9,2.5l4.8,2l-0.7,1.6l-6.2,0.3l-2,2l-3.9,3.4l-2,-2.9l-0.1,-1.3z" id="svg_54"/>
  <path d="m1157.2,174.6l2.3,2.7l0.1,1.2l6.7,2.2l3.6,-1l3.6,2.9l2.9,-0.1l7.7,2l0.4,1.9l-1.3,3.2l1.8,3.5l-0.3,2.1l-4.8,0.4l-2.2,1.8l0.4,2.7l-3.9,0.5l-3,2.1l-4.6,0.3l-4,2.4l1,3.9l2.8,1.5l5.1,-0.4l-0.6,2.3l-5.4,1.1l-6.3,3.6l-3.1,-1.3l0.7,-2.9l-5.9,-1.9l0.7,-1.2l4.6,-2.1l-1.7,-1.4l-8.1,-1.6l-0.8,-2.4l-4.5,0.8l-1.3,3.5l-3.3,4.6l-2.4,-1.1l-2.3,1.1l-2.4,-1.2l1.2,-0.7l0.6,-2.1l1.1,-2.1l-0.6,-1.1l1,-0.5l0.6,0.9l3,0.2l1.3,-0.5l-1,-0.6l0.2,-1l-2,-1.6l-1.1,-2.6l-2,-1l0.1,-2.1l-2.6,-1.7l-2,-0.3l-4,-1.9l-3.2,0.6l-1.1,0.9l-2.1,0l-1,1.5l-3.6,0.6l-1.6,1l-2.5,-1.6l-3.2,0l-3.2,-0.7l-2,1.4l-0.5,-1.7l-3,-1.7l0.7,-2.5l1.2,-1.7l1.1,0.4l-1.6,-2.8l3.8,-5.2l2.3,-0.7l0.3,-1.7l-3.2,-5.4l2.3,-0.3l2.4,-1.6l3.8,-0.2l4.9,0.5l5.7,1.5l3.9,0.1l1.9,0.9l1.7,-1.1l1.5,1.5l4.3,-0.3l2.1,0.6l-0.3,-3.1l1.3,-1.4l4.1,-0.3l1.8,0.2l1,-1.4l1.5,0.3l4.9,-0.6l3.8,3.5l-0.9,1.3l0.8,1.9l3.9,0.3z" id="UA"/>
  <path d="m1097.8,230.8l-1.2,0.3l-2.9,1l-0.1,1.3l-0.7,-0.1l-0.6,-2.3l-1.3,-0.7l-1.2,-1.7l0.8,-1.4l1.2,-0.4l0.5,-2.1l0.9,-0.4l0.8,0.9l1,0.4l0.8,1l0.9,0.3l1.1,1.2l0.7,-0.1l-0.4,1.6l-0.6,0.7l0.3,0.5z" id="XK"/>
  <path d="m1016.5,177.1l-2.8,-1.5l-3.1,-2.7l-4.5,1.3l-3.6,-0.5l2.5,-1.7l4,-9l6.5,-2.6l4,0.2l0.9,2.1l-0.9,5.6l-1.2,2.3l-2.9,0l1.1,6.5z" id="NL"/>
  <path d="m946.9,263.7l-2.2,1.6l-2.8,-0.9l-2.7,0.7l0.9,-5l-0.3,-3.9l-2.4,-0.6l-1.1,-2.4l0.5,-4.2l2.2,-2.3l0.5,-2.6l1.2,-3.8l0,-2.7l-0.9,-2.3l-0.2,-2.2l1.9,-1.6l2.2,-0.9l1.2,3.1l3,0l0.9,-0.8l3.1,0.2l1.3,3.2l-2.4,1.7l-0.3,5l-0.8,0.9l-0.3,3.1l-2.3,0.5l2,3.8l-1.6,4.2l1.8,1.9l-0.8,1.7l-2,2.4l0.4,2.2z" id="PT"/>
  <path class="Russian Federation" d="m1094.6,155.4l-8.8,0.1l-5.9,-0.7l0.7,-2.6l6.3,-2l5.1,1.1l2.2,0.9l-0.2,1.7l0.6,1.5z" id="svg_60"/>
  <path d="m976.6,223.4l2,2.4l9.5,2.9l1.9,-1.4l5.8,2.9l5.9,-0.8l0.4,3.7l-4.9,4.2l-6.6,1.4l-0.5,2.1l-3.2,3.5l-2,5.2l2,3.7l-3,2.8l-1.2,4.2l-4,1.3l-3.7,4.9l-6.8,0.1l-5,-0.1l-3.4,2.2l-2.1,2.4l-2.6,-0.5l-1.9,-2.2l-1.4,-3.6l-4.9,-1l-0.4,-2.2l2,-2.4l0.8,-1.7l-1.8,-1.9l1.6,-4.2l-2,-3.8l2.3,-0.5l0.3,-3.1l0.8,-0.9l0.3,-5l2.4,-1.7l-1.3,-3.2l-3.1,-0.2l-0.9,0.8l-3,0l-1.2,-3.1l-2.2,0.9l-1.9,1.6l0.5,-4.5l-2,-2.7l7.4,-4.6l6.2,1.1l6.9,0l5.4,1.1l4.3,-0.4l8.3,0.3z" id="ES"/>
  <path class="France" d="m1035.7,231.4l-1.5,4.9l-2.4,-1.3l-1.3,-4.2l0.9,-2.4l3.2,-2.4l1.1,5.4z" id="svg_69"/>
  <path class="France" d="m1014.4,185l1.1,0.5l1.4,-0.1l2.4,1.6l7.2,1.2l-2.4,4.2l-0.4,4.5l-1.3,1.1l-2.3,-0.6l0.2,1.6l-3.6,3.5l0,2.9l2.4,-1l1.8,2.7l-0.1,1.8l1.5,2.4l-1.7,1.9l1.5,4.9l2.8,0.8l-0.5,2.7l-4.5,3.6l-10.2,-1.7l-7.4,2.1l-0.6,3.8l-5.9,0.8l-5.8,-2.9l-1.9,1.4l-9.5,-2.9l-2,-2.4l2.7,-3.8l1,-12.6l-5.1,-6.6l-3.7,-3.2l-7.6,-2.4l-0.4,-4.6l6.5,-1.3l8.3,1.6l-1.5,-7.1l4.7,2.7l11.4,-4.8l1.5,-5.1l4.2,-1.3l0.8,2.2l2.2,0.1l2.4,2.5l3.5,2.9l2.5,-0.5l4.4,2.9z" id="svg_70"/>
  <path d="m1264.1,333.3l0.3,0.1l0.2,-0.1l0.4,0.7l-0.1,0.2l0.1,0.9l0,0.7l-0.2,0.4l-0.1,-0.4l-0.6,-0.8l0.1,-0.4l-0.2,-0.7l0,-0.4l0.1,-0.2z" id="BH"/>
  <path class="Cyprus" d="m1168.2,276.7l0.1,0.2l0.3,0.4l-0.4,-0.1l-0.3,0l-0.4,0.2l-0.3,-0.3l0,-0.3l0.3,-0.1l0.2,0.1l0.5,-0.1z" id="svg_118"/>
  <path class="Cyprus" d="m1166.5,277.2l0,0.1l-0.2,0.2l-0.1,0.6l-0.1,0.2l-0.3,0l-0.2,0.2l-0.5,0.2l-0.2,0.1l-0.6,0.3l-0.4,-0.1l-0.5,0.1l-0.3,0.4l-0.2,-0.3l-0.3,0.1l-0.2,0l-0.3,-0.3l-0.4,0.3l-0.5,0l-0.5,-0.2l-0.5,-0.1l-0.4,-0.3l-0.3,-0.6l-0.3,-0.3l-0.2,-0.7l-0.2,-0.3l0.1,-0.3l0.5,0.3l0.4,-0.1l0.2,-0.3l0.1,-0.3l0.3,-0.1l0.2,0.1l0.2,-0.2l0.2,0l0.1,0.4l0.5,0.2l0.1,0.2l0.6,0l0.6,-0.5l0.4,0.1l0.3,-0.2l0.3,0.1l0.4,0.2l0.2,-0.3l0.3,0l0.3,0.4l0,0.6l0.3,-0.2l0.3,0.2l0.1,-0.1l0.7,0.2z" id="svg_119"/>
  <path class="Faeroe Islands" d="m955.6,112l0.4,0.2l0.3,0l0.1,0.2l0,0.4l0.2,0.3l-0.1,0.2l-0.6,-0.4l-0.2,-0.4l-0.2,-0.2l-0.2,-0.3l0.3,0z" id="svg_131"/>
  <path class="Faeroe Islands" d="m955.9,110.4l0.8,0.2l0.2,0.2l-0.1,0.4l-0.1,0.1l-0.4,-0.5l-0.5,-0.1l-0.2,-0.4l0.3,0.1z" id="svg_132"/>
  <path class="Faeroe Islands" d="m954.62,109.04l0.08,0.16l0.3,0l0,0.3l-0.4,0l-0.2,0.2l-0.6,-0.2l-0.2,-0.1l-0.2,-0.3l0.5,-0.1l0.1,-0.1l0.56,0.09l-0.26,-0.19l0.2,-0.8l0.5,0.1l0.3,0.5l0,0.1l0.6,0.2l0.3,0.5l0.3,0.2l-0.1,0.6l-0.5,-0.4l-0.2,-0.2l-0.2,-0.1l-0.1,-0.2l-0.2,-0.2l-0.5,0l-0.08,-0.06z" id="svg_133"/>
  <path class="Faeroe Islands" d="m958.3,108.4l-0.2,-0.2l0.3,-0.2l-0.1,0.4z" id="svg_134"/>
  <path class="Faeroe Islands" d="m955.9,108.9l-0.4,-0.2l-0.3,-0.3l-0.1,-0.3l0.1,-0.1l0.4,-0.1l0.3,0l0.6,0.4l-0.1,0.2l0.1,0.2l0.6,0.2l0,0.2l-0.4,0.3l-0.8,-0.5z" id="svg_135"/>
  <path class="Faeroe Islands" d="m958.1,108.3l-0.3,0.4l-0.3,-0.2l-0.3,0l0.2,-0.3l-0.1,-0.4l0.1,-0.1l0.2,0.4l0.5,0.2z" id="svg_136"/>
  <path class="Faeroe Islands" d="m957.2,108.3l-0.2,0l-0.2,-0.4l0.1,-0.3l0.2,0.4l0.1,0.3z" id="svg_137"/>
  <path class="Malta" d="m1063.9,271.7l-0.2,0.3l-0.5,-0.2l-0.5,-0.3l0,-0.5l-0.1,-0.1l0.6,0l0.4,0.3l0.2,0.2l0.1,0.3z" id="svg_143"/>
  <path class="Malta" d="m1062.3,270.6l-0.5,-0.1l0,-0.2l0.4,-0.1l0.4,0.3l-0.3,0.1z" id="svg_144"/>
  <path class="Northern Mariana Islands" d="m1800.7,385.9l-0.1,-0.2l0,-0.5l0.3,-0.1l0.2,0.3l-0.4,0.5z" id="svg_149"/>
  <path class="Northern Mariana Islands" d="m1799.5,381.6l-0.4,-0.1l0,-0.3l0.2,-0.1l0.2,0.2l0,0.3z" id="svg_150"/>
  <path class="Canary Islands (Spain)" d="m888.4,323.4l-0.3,0.5l-0.4,0.5l-0.3,-0.4l-0.4,0l-0.2,-0.2l0.2,-0.3l0.4,0.1l0.4,-0.4l0.3,-0.2l0.2,0.1l0.1,0.3z" id="svg_250"/>
  <path class="Canary Islands (Spain)" d="m902,321.1l0,0.5l0.2,0.4l-0.2,0.7l0.1,0.3l-0.4,0.4l-0.5,0.2l-0.2,0.2l-0.6,-0.2l-0.5,-0.5l-0.2,-0.4l0,-0.6l0.6,-0.4l0.1,-0.5l0,-0.2l0.6,0.1l0.4,0l0.3,0.1l0.3,-0.1z" id="svg_251"/>
  <path class="Canary Islands (Spain)" d="m892.1,321.9l-0.2,0l-0.3,-0.2l-0.2,-0.3l0.1,-0.4l0.1,-0.3l0.3,0l0.3,0l0.5,0.4l0.1,0.3l-0.5,0.5l-0.2,0z" id="svg_252"/>
  <path class="Canary Islands (Spain)" d="m898.2,318.4l0,0.2l-0.6,0.3l-0.4,0.5l-0.3,0.2l0,0.4l-0.4,0.7l-0.1,0.4l-0.5,0.6l-0.1,0.2l-0.2,0l-0.6,0.2l-0.1,-0.1l-0.1,-0.4l-0.3,-0.4l-0.1,-0.2l-0.2,-0.3l0,-0.3l-0.4,-0.6l0.5,-0.3l0.3,0.2l0.6,-0.2l0.4,0l0.5,-0.2l0.5,-0.4l0,-0.2l0.6,-0.3l0.6,0l0.3,-0.1l0.1,0.1z" id="svg_253"/>
  <path class="Canary Islands (Spain)" d="m908.4,321.2l-0.3,0.4l-0.4,0.1l-0.3,-0.1l-0.4,0l0,-0.2l0.3,0l0.6,-0.2l0.4,-0.3l0.3,-0.3l0.1,-0.5l0.1,-0.3l0.2,-0.5l0.3,-0.4l0.3,-0.6l0.2,-0.8l0.2,-0.2l0.4,-0.1l0.3,0.3l0.1,0.5l-0.1,0.5l-0.1,0.5l0,0.5l-0.1,0.1l-0.3,0.7l-0.3,0.3l-0.6,0.1l-0.7,0.3l-0.2,0.2z" id="svg_254"/>
  <path class="Canary Islands (Spain)" d="m888.8,316.7l0.3,-0.1l0.2,0.3l0.2,0.5l-0.2,0.3l0.1,0.4l-0.6,1l-0.1,-0.1l-0.1,-0.4l-0.4,-0.9l-0.1,-0.3l-0.1,-0.2l0.2,-0.4l0.3,-0.2l0.3,0.1z" id="svg_255"/>
  <path class="Canary Islands (Spain)" d="m912.9,314.7l0,0.4l-0.2,0.5l-0.7,0.5l-0.5,0.1l-0.4,0.5l-0.5,-0.2l0,-0.1l0.2,-0.4l0,-0.4l0.2,-0.3l0.3,-0.2l0.3,0l0.3,-0.3l0.5,0l0.1,-0.1l0.2,-0.5l0.2,-0.1l0.2,0.2l-0.2,0.4z" id="svg_256"/>
  <circle cx="997.9" cy="189.1" id="0"/>
 </g>
</svg>