<svg width="45" height="49" viewBox="0 0 45 49" fill="none" xmlns="http://www.w3.org/2000/svg">
<path d="M22.8602 48.8C20.9402 47.19 19.3002 45.55 17.4102 44.32C15.9102 43.35 14.0202 43 12.4302 42.15C4.97018 38.14 1.07018 31.91 0.580178 23.38C0.190178 16.61 2.8902 11.11 7.5402 6.69999C11.5502 2.88999 16.4302 0.709998 22.3202 0.649998C28.8602 0.589998 34.1702 3.04999 38.4502 7.51999C42.3202 11.57 44.6102 16.47 44.6502 22.44C44.6902 29.19 42.0802 34.59 37.3702 38.95C35.0902 41.06 32.0902 42.56 29.1802 43.8C26.7002 44.86 24.5902 46.07 23.2502 48.44C23.1302 48.65 22.8902 48.78 22.8602 48.8ZM24.0802 27.79C24.0802 27.79 24.1502 27.79 24.1902 27.79C24.1902 25.65 23.9402 23.46 24.3002 21.38C24.4602 20.46 25.9602 19.82 26.7002 18.93C28.2902 17.03 28.3302 13.73 26.9002 11.69C25.7102 9.99998 22.6802 9.24998 20.3602 10.13C18.5602 10.81 17.4602 12.09 17.3002 14.04C17.1202 16.16 17.2002 18.24 19.2702 19.54C20.5002 20.31 21.0902 21.28 21.0502 22.8C20.9602 26.21 20.9202 29.62 21.1102 33.02C21.1602 33.94 22.0902 34.8199 22.6202 35.7199C23.1002 34.8399 23.8902 34.01 24.0002 33.08C24.2202 31.34 24.0602 29.55 24.0602 27.79H24.0802Z" fill="#B0D311"/>
</svg>
