<?xml version="1.0" encoding="utf-8"?>
<svg xmlns="http://www.w3.org/2000/svg" baseprofile="tiny" fill="#ececec" height="857" stroke="black" stroke-linecap="round" stroke-linejoin="round" stroke-width=".2" version="1.2" viewbox="0 0 2000 857" width="2000">
 
 
 
 <path d="M1088 228l0.4 1.2 1.4-0.6 1.2 1.7 1.3 0.7 0.6 2.3-0.5 2.2 1 2.7 2.3 1.5 0.1 1.7-1.7 0.9-0.1 2.1-2.2 3.1-0.9-0.4-0.2-1.4-3.1-2.2-0.7-3 0.1-4.4 0.5-1.9-0.9-1-0.5-2.1 1.9-3.1z" id="AL" name="Albania">
 </path>
 <path d="M1296.2 336.7l1.3 5.1-2.8 0 0 4.2 1.1 0.9-2.4 1.3 0.2 2.6-1.3 2.6 0 2.6-1 1.4-16.9-3.2-2.7-6.6-0.3-1.4 0.9-0.4 0.4 1.8 4.2-1 4.6 0.2 3.4 0.2 3.3-4.4 3.7-4.1 3-4 1.3 2.2z" id="AE" name="United Arab Emirates">
 </path>
 
 
 <path d="M1230.8 253l-1.8 0.2-2.8-3.7-0.2-1-2.3 0-1.9-1.7-1 0.1-2.4-1.8-4.2-1.6-0.1-3.1-1.3-2.2 7-1 1.4 1.6 2.2 1.1-0.7 1.6 3.2 2.2-1.1 2.1 2.6 1.7 2.5 1 0.9 4.5z" id="AM" name="Armenia">
 </path>
 <path d="M1070.6 190.8l-0.3 0.8 0.7 2.1-0.2 2.6-2.8 0 1.1 1.4-1.3 4-0.9 1.1-4.4 0.1-2.4 1.5-4.2-0.5-7.3-1.7-1.3-2.1-4.9 1.1-0.5 1.2-3.1-0.9-2.6-0.2-2.3-1.2 0.7-1.5-0.2-1.1 1.4-0.3 2.7 1.7 0.6-1.7 4.4 0.3 3.5-1.1 2.4 0.2 1.7 1.3 0.4-1.1-1-4.1 1.7-0.8 1.6-2.9 3.8 2.1 2.6-2.6 1.7-0.5 4 1.9 2.3-0.3 2.4 1.2z" id="AT" name="Austria">
 </path>
 <path class="Azerbaijan" d="M 1229 253.2 1225.2 252.3 1222 249.4 1220.8 246.9 1221.8 246.8 1223.7 248.5 1226 248.5 1226.2 249.5 1229 253.2 Z">
 </path>
 <path class="Azerbaijan" d="M 1235.3 236.2 1237.8 233.6 1241.3 236.9 1244.9 241.5 1247.4 241.8 1249.3 243.5 1245.1 244 1245.2 249 1244.8 251.2 1243.1 252.7 1243.9 255.8 1242.6 256.2 1238.7 252.8 1239.9 249.7 1238 247.8 1236.1 248.3 1230.8 253 1229.9 248.5 1227.4 247.5 1224.8 245.8 1225.9 243.7 1222.7 241.5 1223.4 239.9 1221.2 238.8 1219.8 237.2 1220.9 236.1 1225.1 238 1228 238.3 1228.6 237.6 1225.3 234.1 1226.5 233.3 1228 233.5 1232.3 237.3 1234.7 237.8 1235.3 236.2 Z">
 </path>
 
 <path d="M1016.5 177.1l-0.4 4.2-1.3 0.2-0.4 3.5-4.4-2.9-2.5 0.5-3.5-2.9-2.4-2.5-2.2-0.1-0.8-2.2 3.9-1.2 3.6 0.5 4.5-1.3 3.1 2.7 2.8 1.5z" id="BE" name="Belgium">
 </path>
 <path d="M1006.7 427l-0.2 2.1 1.3 3.8-1.1 2.6 0.6 1.7-2.8 4-1.7 2-1.1 4 0.2 4.1-0.3 10.3-4.7 0.8-1.4-4.4 0.3-14.8-1.2-1.3-0.2-3.2-2-2.2-1.7-1.9 0.7-3.4 2-0.7 1.1-2.8 2.8-0.6 1.2-1.9 1.9-1.9 2 0 4.3 3.7z" id="BJ" name="Benin">
 </path>
 <path d="M988.5 406l-0.5 3.1 0.8 2.9 3.1 4.2 0.2 3.1 6.5 1.5-0.1 4.4-1.2 1.9-2.8 0.6-1.1 2.8-2 0.7-4.9-0.1-2.6-0.5-1.8 1-2.5-0.5-9.8 0.3-0.2 3.7 0.8 4.8-3.9-1.6-2.6 0.2-2 1.6-2.5-1.3-1-2.2-2.5-1.4-0.4-3.7 1.6-2.7-0.2-2.2 4.5-5.3 0.9-4.4 1.5-1.6 2.7 0.9 2.4-1.3 0.8-1.7 4.3-2.8 1.1-2 5.3-2.7 3.1-0.9 1.4 1.2 3.6 0z" id="BF" name="Burkina Faso">
 </path>
 
 <path d="M1132.6 221.6l-2.3 2.6-1.3 4.5 2.1 3.6-4.6-0.8-5 2 0.3 3.2-4.6 0.6-3.9-2.3-4 1.8-3.8-0.2-0.8-4.2-2.8-2.1 0.7-0.8-0.6-0.8 0.6-2 1.8-2-2.8-2.7-0.7-2.4 1.1-1.4 1.8 2.6 1.9-0.4 4 0.9 7.6 0.4 2.3-1.6 5.9-1.5 4 2.3 3.1 0.7z" id="BG" name="Bulgaria">
 </path>
 <path d="M1083 214.3l1.9-0.1-1.1 2.8 2.7 2.5-0.5 2.9-1.1 0.3-0.9 0.6-1.6 1.5-0.4 3.5-4.8-2.4-2.1-2.7-2.1-1.4-2.5-2.4-1.3-1.9-2.7-3 0.8-2.6 2 1.5 1-1.4 2.3-0.1 4.5 1.1 3.5-0.1 2.4 1.4z" id="BA" name="Bosnia and Herzegovina">
 </path>
 <path d="M1141.6 162.7l-3.9-0.2-0.8 0.6 1.5 2 2 4-4.1 0.3-1.3 1.4 0.3 3.1-2.1-0.6-4.3 0.3-1.5-1.5-1.7 1.1-1.9-0.9-3.9-0.1-5.7-1.5-4.9-0.5-3.8 0.2-2.4 1.6-2.3 0.3-0.5-2.8-1.9-2.8 2.8-1.3-0.4-2.4-1.7-2.3-0.6-2.7 4.7 0 4.8-2.3 0.5-3.4 3.6-2-1-2.7 2.7-1 4.6-2.3 5.3 1.5 0.9 1.5 2.4-0.7 4.8 1.4 1.1 2.9-0.7 1.6 3.8 4 2.1 1.1 0 1.1 3.4 1.1 1.7 1.6-1.6 1.3z" id="BY" name="Belarus">
 </path>
 
 
 

 <path d="M1633.1 472.8l2.2-2.4 4.6-3.6-0.1 3.2-0.1 4.1-2.7-0.2-1.1 2.2-2.8-3.3z" id="BN" name="Brunei Darussalam">
 </path>
 <path d="M1488.8 323.5l2.6 2.1 0.5 3.9-4.5 0.2-4.7-0.4-3.2 1-5.5-2.5-0.4-1.2 2.6-4.8 2.6-1.6 4.3 1.4 2.9 0.2 2.8 1.7z" id="BT" name="Bhutan">
 </path>
 <path d="M1127.6 615.7l1.9 5.1 1.1 1.2 1.6 3.7 6.1 7 2.3 0.7-0.1 2.3 1.5 4.1 4.3 1 3.4 2.9-8.1 4.7-5.2 4.8-2 4.3-1.8 2.4-3 0.5-1.2 3.1-0.6 2-3.6 1.4-4.5-0.3-2.5-1.8-2.3-0.7-2.8 1.4-1.5 3.1-2.7 1.9-2.8 2.9-4 0.7-1.1-2.3 0.6-3.9-3-6.1-1.4-1 0.6-18.7 5.5-0.2 0.8-22.9 4.2-0.2 8.7-2.3 2 2.7 3.7-2.5 1.7 0 3.2-1.5 1 0.5z" id="BW" name="Botswana">
 </path>
 <path d="M1121.3 446.5l3.9 2.5 3.1 2.6 0.1 2.1 3.9 3.3 2.4 2.8 1.4 3.8 4.3 2.6 0.9 2-1.8 0.7-3.7-0.1-4.2-0.7-2.1 0.5-0.9 1.6-1.8 0.2-2.2-1.4-6.3 3.2-2.6-0.6-0.8 0.5-1.6 3.9-4.3-1.3-4.1-0.6-3.6-2.4-4.7-2.2-3 2.1-2.2 3.2-0.5 4.5-3.6-0.3-3.9-1.1-3.3 3.4-3 6-0.6-1.9-0.3-2.9-2.6-2.1-2.1-3.3-0.5-2.3-2.7-3.4 0.5-1.9-0.6-2.7 0.4-5 1.4-1.1 2.8-6.5 4.6-0.5 1-1.7 1 0.2 1.4 1.4 7.1-2.4 2.4-2.5 2.9-2.3-0.6-2.2 1.6-0.6 5.5 0.4 5.2-3 4-7 2.8-2.6 3.6-1.1 0.7 2.7 3.3 4 0 2.7-0.8 2.6 0.4 2 1.9 1.9 0.5 0.3z" id="CF" name="Central African Republic">
 </path>
 
 <path d="M1034.4 197.5l0.2 1.1-0.7 1.5 2.3 1.2 2.6 0.2-0.3 2.5-2.1 1.1-3.8-0.8-1 2.5-2.4 0.2-0.9-1-2.7 2.2-2.5 0.3-2.2-1.4-1.8-2.7-2.4 1 0-2.9 3.6-3.5-0.2-1.6 2.3 0.6 1.3-1.1 4.2 0 1-1.3 5.5 1.9z" id="CH" name="Switzerland">
 </path>
 <path class="China" d="M 1602.2 381.9 1597.9 385 1593 383 1592 377.5 1594.2 374.6 1600 372.8 1603.3 372.9 1604.9 375.4 1602.9 378.2 1602.2 381.9 Z">
 </path>
 <path class="China" d="M 1625.6 185.5 1634.6 190 1640.6 195.8 1648.2 195.8 1650.8 193.4 1657.7 191.5 1659 197.2 1658.7 199.5 1661.5 206.3 1662.1 212.5 1655.2 211.4 1652.3 213.6 1657 219 1660.9 226.5 1658.4 226.6 1660.3 229.9 1654.8 226.1 1654.8 229.7 1648.4 232.4 1651.2 235.8 1646.6 235.5 1643 233.5 1641.9 238.1 1638 241.5 1635.9 245.6 1629.6 247.4 1627.2 250.4 1622.4 252.2 1623.7 249.2 1621.4 246.7 1623.4 242.4 1618.9 239.1 1615.5 241.3 1611.9 245.8 1610.6 249.9 1605.6 250.2 1604.3 253.2 1609.1 257.5 1613.9 258.6 1615.3 261.4 1620.4 263.3 1624.2 258.7 1630.1 261.2 1633.6 261.4 1635.9 264.7 1629.2 266.5 1628.2 270 1624.4 273.2 1623.5 277.7 1630.6 281.2 1635.2 287.5 1640.7 293.4 1646.2 298.3 1647.8 303.1 1645 304.9 1647.4 308.3 1651.3 310.3 1652.1 315.5 1652.2 320.6 1649.4 321.2 1647.3 328.1 1645 336.6 1641.6 344.2 1635.2 350.1 1628.6 355.6 1622.5 356.3 1619.6 359.1 1617.3 357.1 1614.8 360.2 1607.6 363.5 1601.8 364.4 1601.1 371.2 1598 371.6 1595.8 366.9 1596.7 364.5 1588.9 362.4 1586.5 363.5 1580.6 361.8 1577.5 359.2 1577.8 355.5 1572.5 354.3 1569.4 351.9 1565.3 355.3 1560 356.1 1555.6 356 1552.9 357.6 1550.2 358.5 1552.2 365.9 1549.2 365.7 1548.4 364.2 1547.9 361.5 1544.1 363.4 1541.5 362.2 1537 359.8 1537.8 354.5 1534.1 353.2 1531.7 347.3 1526.1 348.4 1525.4 340.8 1529.6 335.4 1528.7 330.1 1527.4 325.2 1524.7 323.7 1522 319.9 1518.9 320.4 1512.8 319.4 1514 316.7 1510.4 312.7 1507.2 315.4 1502.3 313.9 1496.9 317.9 1493 322.7 1488.8 323.5 1486 321.8 1483.1 321.6 1478.8 320.2 1476.2 321.8 1473.6 326.6 1472.1 321.5 1469 322.9 1462.5 322.2 1456 320.8 1451 317.9 1446.5 316.7 1444 313.6 1440.7 312.7 1434.3 308.5 1429.5 306.5 1427.6 308 1419 303.5 1412.8 299.5 1409.6 292.4 1413.7 293.3 1413.1 290 1410.1 286.7 1409.3 281.5 1401.6 273.9 1392.1 271.4 1389.2 266.4 1384.5 263.4 1383 261.6 1381.2 258 1380.7 255.5 1377 254 1375.5 254.7 1372.4 248.7 1373.5 247.3 1372.3 245.8 1376.4 242.8 1379.6 241.5 1385.4 242.4 1386 238.3 1392.4 237.6 1393.4 235 1400.3 231.6 1400.5 230.2 1398.8 226.5 1401.7 224.9 1392.9 213.9 1402 211.4 1404 210 1403 198.7 1413.8 200.8 1415.4 197.9 1412.9 191.7 1416.7 191.1 1418.6 186.9 1420.3 186.4 1423.6 190.8 1429.3 194.1 1437.5 196.4 1443.3 201.5 1444.7 208.8 1447.7 211.6 1454.2 212.7 1461.4 213.5 1469.4 217.5 1472.8 218.2 1477.8 224 1482.5 227.8 1488.1 227.6 1499.4 229.1 1505.8 228.2 1511.4 229.1 1520.8 233 1527 233 1530.3 234.9 1534.7 231.5 1541.9 229.3 1549.5 229.1 1554.4 226.9 1556.4 223.5 1558.8 221.3 1556.9 219.2 1554 216.8 1554.5 212.7 1557.7 213.3 1563.6 214.6 1566.8 211.2 1573.2 208.8 1574.5 204.6 1577 202.8 1583.8 202 1588.2 202.7 1587.4 200.5 1580.2 196.1 1575 194.1 1572.5 196.4 1567 195.4 1564.7 196.2 1561.9 193.7 1561.6 187.4 1561 182.7 1568.4 185.1 1572.8 181.2 1570.9 178.4 1570.7 171.9 1572 169.9 1569.5 166.5 1565.8 165.1 1567.5 162 1572.6 160.9 1578.8 160.7 1587.4 162.6 1593.4 164.8 1601.1 171 1604.9 173.7 1609.4 177.5 1615.6 183.5 1625.6 185.5 Z">
 </path>
 <path d="M955.9 435.2l2.5 1.4 1 2.2 2.5 1.3 2-1.6 2.6-0.2 3.9 1.6 1.5 9.2-2.4 5.3-1.5 7.3 2.4 5.5-0.2 2.6-2.6 0-3.9-1.2-3.7 0-6.7 1.2-3.9 1.8-5.6 2.4-1.1-0.2 0.4-5.3 0.6-0.8-0.2-2.5-2.4-2.7-1.8-0.4-1.6-1.8 1.2-2.9-0.5-3.1 0.2-1.8 0.9 0 0.4-2.8-0.4-1.3 0.5-0.9 2.1-0.7-1.4-5.2-1.3-2.6 0.5-2.2 1.1-0.5 0.8-0.6 1.5 1 4.4 0 1-1.8 1 0.1 1.6-0.7 0.9 2.7 1.3-0.8 2.4-1z" id="CI" name="Côte d'Ivoire">
 </path>
 <path d="M1072.8 454.2l-2.8 6.5-1.4 1.1-0.4 5 0.6 2.7-0.5 1.9 2.7 3.4 0.5 2.3 2.1 3.3 2.6 2.1 0.3 2.9 0.6 1.9-0.4 3.4-4.5-1.5-4.6-1.7-7.1-0.2-0.7-0.4-3.4 0.8-3.4-0.8-2.7 0.4-9.3-0.1 0.9-5.1-2.3-4.3-2.6-1-1.1-2.9-1.5-0.9 0.1-1.8 1.4-4.6 2.7-6.2 1.6 0 3.4-3.8 2.1-0.1 3.2 2.7 3.9-2.2 0.5-2.7 1.3-2.6 0.8-3.2 3-2.6 1.1-4.5 1.2-1.5 0.8-3.3 1.4-4.1 4.7-5 0.3-2.1 0.6-1.2-2.3-2.5 0.2-2.1 1.5-0.3 2.3 4.1 0.5 4.2-0.2 4.3 3.2 5.8-3.2 0-1.6 0.4-2.6-0.6-1.2 3 3.4 3.8 2.5 1.1 0.8 2.6 1.8 4.4-0.8 1.8z" id="CM" name="Cameroon">
 </path>
 <path d="M1141.3 468.2l3.5 5.3 2.6 0.8 1.5-1.1 2.6 0.4 3.1-1.3 1.4 2.7 5.1 4.3-0.3 7.5 2.3 0.9-1.9 2.2-2.1 1.8-2.2 3.3-1.2 3-0.3 5.1-1.3 2.5-0.1 4.8-1.6 1.8-0.2 3.8-0.8 0.5-0.6 3.6 1.4 2.9 0.1 1-1.2 10.3 1.5 3.6-1 2.7 1.8 4.6 3.4 3.5 0.7 3.5 1.6 1.7-0.3 1.1-0.9-0.3-7.7 1.1-1.5 0.8-1.7 4.1 1.2 2.8-1.1 7.6-0.9 6.4 1.5 1.2 3.9 2.5 1.6-1.2 0.2 6.9-4.3 0-2.2-3.5-2-2.8-4.3-0.9-1.2-3.3-3.5 2-4.4-0.9-1.9-2.9-3.5-0.6-2.7 0.1-0.3-2-1.9-0.1-2.6-0.4-3.5 1-2.4-0.2-1.4 0.6 0.4-7.6-1.8-2.4-0.4-4 0.9-3.9-1.1-2.4-0.1-4.1-6.8 0.1 0.5-2.3-2.9 0-0.3 1.1-3.5 0.3-1.5 3.7-0.9 1.6-3.1-0.9-1.8 0.9-3.8 0.5-2.1-3.3-1.3-2.1-1.6-3.9-1.3-4.7-16.7-0.1-2 0.7-1.7-0.1-2.3 0.9-0.8-2 1.4-0.7 0.2-2.8 1-1.6 2-1.4 1.5 0.7 2-2.5 3.1 0.1 0.3 1.8 2.1 1.1 3.4-4 3.3-3.1 1.4-2.1-0.1-5.3 2.5-6.2 2.6-3.3 3.7-3.1 0.7-2 0.1-2.4 0.9-2.2-0.3-3.7 0.7-5.7 1.1-4 1.7-3.4 0.3-3.9 0.5-4.5 2.2-3.2 3-2.1 4.7 2.2 3.6 2.4 4.1 0.6 4.3 1.3 1.6-3.9 0.8-0.5 2.6 0.6 6.3-3.2 2.2 1.4 1.8-0.2 0.9-1.6 2.1-0.5 4.2 0.7 3.7 0.1 1.8-0.7z" id="CD" name="Democratic Republic of the Congo">
 </path>
 <path d="M1090.9 479.3l-0.3 3.9-1.7 3.4-1.1 4-0.7 5.7 0.3 3.7-0.9 2.2-0.1 2.4-0.7 2-3.7 3.1-2.6 3.3-2.5 6.2 0.1 5.3-1.4 2.1-3.3 3.1-3.4 4-2.1-1.1-0.3-1.8-3.1-0.1-2 2.5-1.5-0.7-2.1-2.2-1.7 1.1-2.3 2.8-4.6-6.8 4.3-3.6-2.1-4.2 2-1.6 3.8-0.8 0.4-2.9 3.1 3.1 5 0.3 1.7-3 0.7-4.3-0.6-5-2.7-3.8 2.5-7.5-1.4-1.2-4.2 0.5-1.6-3.3 0.4-2.8 7.1 0.2 4.6 1.7 4.5 1.5 0.4-3.4 3-6 3.3-3.4 3.9 1.1 3.6 0.3z" id="CG" name="Republic of Congo">
 </path>
 
 
 
 <path d="M1059.7 175.2l2.5 2 3.7 0.5-0.2 1.7 2.8 1.3 0.6-1.6 3.4 0.7 0.7 2 3.7 0.3 2.6 3.1-1.5 0-0.7 1.1-1.1 0.3-0.2 1.4-0.9 0.3-0.1 0.6-1.6 0.6-2.2-0.1-0.6 1.4-2.4-1.2-2.3 0.3-4-1.9-1.7 0.5-2.6 2.6-3.8-2.1-3-2.6-2.6-1.5-0.7-2.7-1-1.8 3.4-1.3 1.7-1.6 3.5-1.2 1.1-1.2 1.3 0.7 2.2-0.6z" id="CZ" name="Czech Republic">
 </path>
 <path d="M1053.9 158.9l1.4 3.1-1.2 1.7 1.9 2.1 1.5 3.3-0.2 2.2 2.4 3.9-2.2 0.6-1.3-0.7-1.1 1.2-3.5 1.2-1.7 1.6-3.4 1.3 1 1.8 0.7 2.7 2.6 1.5 3 2.6-1.6 2.9-1.7 0.8 1 4.1-0.4 1.1-1.7-1.3-2.4-0.2-3.5 1.1-4.4-0.3-0.6 1.7-2.7-1.7-1.4 0.3-5.5-1.9-1 1.3-4.2 0 0.4-4.5 2.4-4.2-7.2-1.2-2.4-1.6 0.2-2.7-1-1.4 0.4-4.2-1.1-6.5 2.9 0 1.2-2.3 0.9-5.6-0.9-2.1 0.8-1.3 4-0.3 1 1.3 3.1-3-1.3-2.3-0.4-3.4 3.7 0.8 2.9-0.9 0.3 2.3 4.9 1.4 0.1 2.2 4.7-1.2 2.6-1.6 5.6 2.4 2.4 1.9z" id="DE" name="Germany">
 </path>
 <path d="M1229.5 428.2l-1.9 3.5-1.3-1.2-1.3 0.5-3.2-0.1-0.2-2-0.5-1.8 1.8-3 1.9-2.8 2.4 0.6 1.7-1.6 1.4 2-0.1 2.6-3.1 1.6 2.4 1.7z" id="DJ" name="Djibouti">
 </path>
 <path class="Denmark" d="M 1046.1 147.7 1043.7 152.6 1038.5 149.1 1037.6 146.6 1044.4 144.6 1046.1 147.7 Z">
 </path>
 <path class="Denmark" d="M 1033.3 151.5 1030.4 152.4 1026.7 151.6 1024.6 148.2 1024.2 142.1 1024.8 140.4 1026.1 138.6 1030.1 138.3 1031.7 136.6 1035.3 134.9 1035.3 138 1034.1 140 1034.8 141.6 1037.4 142.5 1036.4 144.8 1035 144.2 1031.9 148.5 1033.3 151.5 Z">
 </path>
 <path d="M585.7 386l0.3-1.8-1.3-1.9 1.5-1.1 0.7-2.5-0.1-3.4 0.8-1.1 4.3 0 3.2 1.6 1.5-0.1 0.7 2.3 3.1-0.2-0.4 1.9 2.5 0.3 2.5 2.3-2.3 2.6-2.6-1.4-2.6 0.3-1.8-0.3-1.1 1.2-2.2 0.4-0.7-1.6-1.9 0.9-2.7 4.4-1.3-1-0.1-1.8z" id="DO" name="Dominican Republic">
 </path>
 <path d="M1031 264.6l-1 3.3 1 6.1-1.1 5.3-3.2 3.6 0.6 4.8 4.5 3.9 0.1 1.5 3.4 2.6 2.6 11.5 1.9 5.7 0.4 3-0.8 5.2 0.4 3-0.6 3.5 0.6 4-2.2 2.7 3.4 4.7 0.2 2.7 2.1 3.6 2.5-1.2 4.5 3 2.5 4-18.8 12.3-16 12.6-7.8 2.8-6.2 0.7-0.1-4.1-2.6-1.1-3.5-1.8-1.3-3-18.7-14-18.6-14-20.5-15.6 0.1-1.2 0.1-0.4 0.1-7.6 8.9-4.8 5.4-1 4.5-1.7 2.1-3.2 6.4-2.5 0.3-4.8 3.1-0.6 2.5-2.3 7.1-1.1 1-2.5-1.4-1.4-1.9-6.8-0.3-3.9-1.9-4.1 5.1-3.5 5.8-1.1 3.3-2.6 5.1-2 9-1.1 8.8-0.5 2.7 0.9 4.9-2.5 5.7-0.1 2.2 1.5 3.6-0.4z" id="DZ" name="Algeria">
 </path>
 <path d="M559 502.8l0.8 4.9-1.7 4.1-6.1 6.8-6.7 2.5-3.4 5.6-0.9 4.3-3.1 2.7-2.5-3.3-2.3-0.7-2.3 0.5-0.3-2.3 1.6-1.5-0.7-2.7 2.9-4.8-1.3-2.8-2.1 3-3.5-2.9 1.1-1.8-1-5.8 2-1 1-4 2.1-4.1-0.3-2.6 3.1-1.4 3.9-2.5 5.6 3.6 1.1-0.1 1.4 2.8 4.8 0.9 1.6-1 2.8 2.1 2.4 1.5z" id="EC" name="Ecuador">
 </path>
 <path d="M1172.1 301.4l3.9 9.4 0.7 1.6-1.3 2.6-0.7 4.8-1.2 3.4-1.2 1.1-2-2.1-2.7-2.8-4.7-9.2-0.5 0.6 2.8 6.7 3.9 6.5 4.9 10 2.3 3.5 2 3.6 5.4 7.1-1 1.1 0.4 4.2 6.8 5.8 1.1 1.3-22.1 0-21.5 0-22.3 0-1-23.7-1.3-22.8-2-5.2 1.1-3.9-1-2.8 1.7-3.1 7.2-0.1 5.4 1.7 5.5 1.9 2.6 1 4-2 2.1-1.8 4.7-0.6 3.9 0.8 1.8 3.2 1.1-2.1 4.4 1.5 4.3 0.4 2.5-1.6z" id="EG" name="Egypt">
 </path>
 <path d="M1228.9 420.3l-1.7 1.6-2.4-0.6-2-2.1-2.5-3.7-2.6-2.1-1.5-2.2-5-2.6-3.9-0.1-1.4-1.3-3.2 1.5-3.6-2.9-1.5 4.8-6.6-1.4-0.7-2.5 2-9.5 0.3-4.2 1.7-2 4-1.1 2.7-3.6 3.6 7.4 1.9 5.9 3.2 3.1 8 6.1 3.3 3.6 3.2 3.8 1.8 2.2 2.9 1.9z" id="ER" name="Eritrea">
 </path>
 <path d="M1113.7 124.6l0.9 1-2.6 3.4 2.4 5.6-1.6 1.9-3.8-0.1-4.4-2.2-2.1-0.7-3.8 1-0.1-3.5-1.5 0.8-3.3-2.1-1-3.4 5.5-1.7 5.6-0.8 5.1 0.9 4.7-0.1z" id="EE" name="Estonia">
 </path>
 <path d="M1207.3 408.5l3.9 0.1 5 2.6 1.5 2.2 2.6 2.1 2.5 3.7 2 2.1-1.9 2.8-1.8 3 0.5 1.8 0.2 2 3.2 0.1 1.3-0.5 1.3 1.2-1.2 2.2 2.2 3.6 2.2 3.1 2.2 2.3 18.7 7.6 4.8-0.1-15.6 19.3-7.3 0.3-5 4.5-3.6 0.1-1.5 2.1-3.9 0-2.3-2.2-5.2 2.7-1.6 2.7-3.8-0.6-1.3-0.7-1.3 0.2-1.8-0.1-7.2-5.4-4 0-1.9-2.1-0.1-3.6-2.9-1.1-3.5-7-2.6-1.5-1-2.6-3-3.1-3.5-0.5 1.9-3.6 3-0.2 0.8-1.9-0.2-5 0-0.8 1.5-6.7 2.6-1.8 0.5-2.6 2.3-5 3.3-3.1 2-6.4 0.7-5.5 6.6 1.4 1.5-4.8 3.6 2.9 3.2-1.5 1.4 1.3z" id="ET" name="Ethiopia">
 </path>
 <path d="M1104.1 70.1l0.4 3.8 7.3 3.7-2.9 4.2 6.5 6.3-1.7 4.8 4.9 4.2-0.9 3.8 7.4 3.9-0.9 2.9-3.4 3.4-8 7.4-8 0.5-7.6 2.1-7.1 1.3-3.2-3.2-4.7-1.9 0.1-5.8-3-5.2 1.6-3.4 3.3-3.5 8.8-6.2 2.6-1.2-0.9-2.4-6.5-2.6-1.8-2.2-1.8-8.5-7.2-3.7-6-2.7 2.2-1.4 5.1 2.8 5.3-0.2 4.7 1.3 3.4-2.4 1.1-4 5.9-1.8 5.8 2.1-0.8 3.8z" id="FI" name="Finland">
 </path>
 <path d="M1060.5 487.3l-0.4 2.8 1.6 3.3 4.2-0.5 1.4 1.2-2.5 7.5 2.7 3.8 0.6 5-0.7 4.3-1.7 3-5-0.3-3.1-3.1-0.4 2.9-3.8 0.8-2 1.6 2.1 4.2-4.3 3.6-5.8-6.5-3.7-5.3-3.5-6.6 0.2-2.2 1.3-2 1.3-4.7 1.2-4.8 1.9-0.3 8.2 0 0-7.7 2.7-0.4 3.4 0.8 3.4-0.8 0.7 0.4z" id="GA" name="Gabon">
 </path>
 <path class="United Kingdom" d="M 956.7 158.2 953.2 157 950.2 157.1 951.4 153.8 950.5 150.6 954.5 150.3 959.4 154.1 956.7 158.2 Z">
 </path>
 <path class="United Kingdom" d="M 972.6 129.5 967.5 136 972.2 135.2 977.3 135.2 976 140.1 971.7 145.5 976.6 145.8 976.9 146.5 981.1 153.6 984.3 154.6 987.2 161.6 988.6 164 994.5 165.1 993.9 169.1 991.5 170.9 993.4 174.1 989 177.3 982.5 177.2 974.1 179 971.9 177.7 968.6 180.6 964.1 179.9 960.5 182.3 958 181.1 965.3 174.6 969.7 173.2 962.1 172.2 960.8 169.7 965.9 167.8 963.4 164.5 964.4 160.5 971.5 161.1 972.3 157.5 969.2 153.8 969.1 153.7 963.4 152.6 962.3 151 964.1 148.3 962.6 146.6 960 149.5 959.9 143.6 957.7 140.6 959.6 134.4 963.4 129.6 967 130 972.6 129.5 Z">
 </path>
 <path d="M1215.7 227.9l5.1 1.3 2.1 2.6 3.6 1.5-1.2 0.8 3.3 3.5-0.6 0.7-2.9-0.3-4.2-1.9-1.1 1.1-7 1-5.6-3.2-5.5 0.3 0.3-2.7-2.1-4.3-3.4-2.4-3-0.7-2.2-1.9 0.4-0.8 4.6 1.1 7.7 1 7.6 3.1 1.2 1.2 2.9-1z" id="GE" name="Georgia">
 </path>
 <path d="M986.5 431.1l-0.4 2 2.3 3.3 0 4.7 0.6 5 1.4 2.4-1.3 5.7 0.5 3.2 1.5 4.1 1.3 2.3-8.9 3.7-3.2 2.2-5.1 1.9-5-1.8 0.2-2.6-2.4-5.5 1.5-7.3 2.4-5.3-1.5-9.2-0.8-4.8 0.2-3.7 9.8-0.3 2.5 0.5 1.8-1 2.6 0.5z" id="GH" name="Ghana">
 </path>
 <path d="M921.5 421.9l0.3 2.4 0.9 0 1.5-0.9 0.9 0.2 1.6 1.7 2.4 0.5 1.5-1.4 1.9-0.9 1.3-0.9 1.1 0.2 1.3 1.4 0.6 1.8 2.3 2.7-1.1 1.6-0.3 2.1 1.2-0.6 0.7 0.7-0.3 1.9 1.7 1.9-1.1 0.5-0.5 2.2 1.3 2.6 1.4 5.2-2.1 0.7-0.5 0.9 0.4 1.3-0.4 2.8-0.9 0-1.6-0.2-1.1 2.6-1.6 0-1.1-1.4 0.4-2.6-2.4-3.9-1.4 0.7-1.3 0.2-1.5 0.3 0.1-2.3-0.9-1.7 0.2-1.9-1.2-2.7-1.6-2.3-4.5 0-1.3 1.2-1.6 0.2-1 1.4-0.6 1.7-3.1 2.9-2.4-3.8-2.2-2.5-1.4-0.9-1.4-1.3-0.6-2.8-0.8-1.4-1.7-1.1 2.6-3.1 1.7 0.1 1.5-1 1.2-0.1 0.9-0.8-0.4-2.1 0.6-0.7 0.1-2.2 2.7 0.1 4.1 1.5 1.2-0.1 0.4-0.7 3.1 0.5 0.8-0.4z" id="GN" name="Guinea">
 </path>
 <path d="M891.6 417.4l0.8-2.9 6.1-0.1 1.3-1.6 1.8-0.1 2.2 1.6 1.7 0 1.9-1 1.1 1.8-2.5 1.5-2.4-0.2-2.4-1.3-2.1 1.5-1 0-1.4 0.9-5.1-0.1z" id="GM" name="The Gambia">
 </path>
 <path d="M909.2 421l-0.1 2.2-0.6 0.7 0.4 2.1-0.9 0.8-1.2 0.1-1.5 1-1.7-0.1-2.6 3.1-2.9-2.6-2.4-0.5-1.3-1.8 0.1-1-1.7-1.3-0.4-1.4 3-1 1.9 0.2 1.5-0.8 10.4 0.3z" id="GW" name="Guinea-Bissau">
 </path>
 <path d="M1050.3 487.3l0 7.7-8.2 0-1.9 0.3-1.1-0.9 1.9-7.2 9.3 0.1z" id="GQ" name="Equatorial Guinea">
 </path>
 <path class="Greece" d="M 1112.7 272.6 1115.8 274.8 1119.9 274.4 1123.9 274.8 1123.9 276 1126.7 275.2 1126.2 277.1 1118.6 277.6 1118.5 276.6 1111.9 275.3 1112.7 272.6 Z">
 </path>
 <path class="Greece" d="M 1121.9 239.9 1118.7 239.7 1116 239.1 1109.8 240.7 1113.8 244.3 1111.3 245.4 1108.4 245.4 1105.3 242.1 1104.4 243.5 1106 247.3 1108.9 250.3 1107 251.7 1110.2 254.6 1113 256.5 1113.4 260.1 1108.4 258.4 1110.2 261.7 1106.9 262.3 1109.4 268 1105.9 268.1 1101.3 265.3 1098.9 260.2 1097.6 255.9 1095.3 253 1092.3 249.3 1091.8 247.5 1094 244.4 1094.1 242.3 1095.8 241.4 1095.7 239.7 1099.1 239.2 1100.9 237.8 1103.7 237.9 1104.5 236.8 1105.5 236.6 1109.3 236.8 1113.3 235 1117.2 237.3 1121.8 236.7 1121.5 233.5 1124.2 235.2 1123.1 239.2 1121.9 239.9 Z">
 </path>
 <path d="M896.3 1.4l19.9 3-6.7 1.4-13 0.2-18.5 0.4 1.4 0.7 12.3-0.5 9.7 1.4 7-1.2 2.4 1.4-4.5 2.4 9.2-1.6 17.1-1.5 10 0.8 1.7 1.7-14.8 2.9-2.2 1-11.4 0.8 8.1 0.2-4.9 3.2-3.6 2.9-1.2 5.2 3.7 3.2-5.9 0.1-6.5 1.6 6.3 2.6-0.1 4.2-4.2 0.5 4.1 4.3-8.7 0.4 4 2-1.6 1.8-5.7 0.8-5.5 0.1 4.2 3.4-0.5 2.4-7.3-2.2-2.4 1.4 5 1.3 4.6 3.2 0.6 4.3-7.4 1-2.7-2.1-4.2-3 0.5 3.6-5.4 2.8 10.7 0.2 5.5 0.3-11.9 4.7-12.2 4.3-12.7 1.8-4.6 0.1-4.9 2.1-7.5 5.8-10.2 3.9-3 0.3-6.1 1.3-6.6 1.4-4.8 3.4-1.4 4-3.4 3.8-8.6 4.6 0.3 4.5-3.6 4.8-4.1 5.7-6.5 0.4-5-4.8-9-0.1-3.2-3.2-0.8-5.6-4.8-7.2-0.7-3.7 1.5-5.1-3.7-5.1 3.3-4.1-1.9-2 7-6.4 7.2-2.1 2.6-2.2 2.8-4.2-5.5 1.9-2.6 0.8-4.1 0.7-4.2-1.7 1.5-3.7 3-2.8 3.8-0.1 7.6 1.5-5.3-3.4-2.7-1.8-4.4 0.7-2.6-1.3 7-4.8-1.3-2-1.1-3.5-1.4-5.4-3.6-1.9 1.4-2.1-8.1-2.9-7.7-0.4-10.1 0.2-9.5 0.4-3.1-1.6-3.8-3.1 11-1.5 7.6-0.2-14.6-1.3-6.5-1.9 2.2-1.8 15.7-2.2 15-2.2 2.8-1.6-8.1-1.6 4.6-1.7 14.7-2.9 5.4-0.4 0.2-1.8 9-1.1 11-0.6 10.4 0 2.8 1.2 10.6-2.2 7.1 1.5 4.6 0.3 6.2 1.3-6.7-2.1 1.6-1.7 12.7-2.2 11.6 0.2 5.1-1.4 11.9-0.3 26.3 0.4z" id="GL" name="Greenland">
 </path>
 <path d="M488.1 387.5l-0.7 5.1-1.3 7.2 1.7 0 1.7 1.2 0.6-1 1.5 0.8-2.8 2.5-2.9 1.8-0.5 1.2 0.3 1.3-1.3 1.6-1.4 0.4 0.3 0.8-1.2 0.7-2 1.6-0.3 0.9-2.8-1.1-3.5-0.1-2.4-1.3-2.8-2.6 0.4-1.9 0.8-1.5-0.7-1.2 3.3-5.2 7.2 0 0.4-2.2-0.8-0.4-0.5-1.4-1.9-1.5-1.8-2.1 2.5-0.1 0.5-3.6 5.2 0 5.2 0.1z" id="GT" name="Guatemala">
 </path>
 <path d="M662.9 463.5l-1 5.8-3.5 1.6 0.3 1.5-1.1 3.4 2.4 4.6 1.8 0 0.7 3.6 3.3 5.6-1.3 0.3-3.2-0.6-1.8 1.7-2.6 1.1-1.8 0.3-0.6 1.3-2.8-0.3-3.5-3-0.3-3-1.4-3.3 1-5.4 1.6-2.3-1.2-3-2-0.9 0.8-2.9-1.2-1.4-3 0.2-3.7-4.8 1.6-1.8 0-3 3.5-1 1.4-1.2-1.8-2.4 0.5-2.3 4.7-3.8 3.6 2.4 3.3 4.1 0.1 3.4 2.1 0.1 3 3.1 2.1 2.3z" id="GY" name="Guyana">
 </path>
 <path d="M519.6 405.5l-1.9-0.1-0.9 0.9-2 0.8-1.4 0-1.3 0.8-1.1-0.2-0.9-1-0.6 0.2-0.9 1.5-0.5-0.1-0.2 1.4-2.1 1.7-1.2 0.8-0.6 0.8-1.5-1.3-1.4 1.7-1.2 0-1.3 0.1-0.2 3.2-0.8 0-0.8 1.5-1.8 0.3-0.8-2-1.7-0.6 0.7-2.6-0.7-0.7-1.2-0.4-2.5 0.7-0.1-0.8-1.6-1.1-1.1-1.2-1.6-0.6 1.3-1.6-0.3-1.3 0.5-1.2 2.9-1.8 2.8-2.5 0.6 0.3 1.3-1.1 1.6-0.1 0.5 0.5 0.9-0.3 2.6 0.6 2.6-0.2 1.8-0.7 0.8-0.7 1.7 0.3 1.3 0.4 1.5-0.1 1.2-0.6 2.5 0.9 0.8 0.2 1.6 1.2 1.5 1.4 1.9 1 1.3 1.7z" id="HN" name="Honduras">
 </path>
 <path d="M1081.5 207.6l1.5 2.5 1.7 1.8-1.7 2.4-2.4-1.4-3.5 0.1-4.5-1.1-2.3 0.1-1 1.4-2-1.5-0.8 2.6 2.7 3 1.3 1.9 2.5 2.4 2.1 1.4 2.1 2.7 4.8 2.4-0.5 1-5-2.3-3.2-2.3-4.8-1.9-4.7-4.6 1-0.5-2.5-2.7-0.3-2.1-3.3-1-1.4 2.7-1.6-2.1 0-2.2 0.1-0.1 3.6 0.2 0.8-1 1.8 1 2 0.1-0.1-1.7 1.7-0.7 0.3-2.5 3.9-1.7 1.6 0.8 4 2.7 4.3 1.2 1.8-1z" id="HR" name="Croatia">
 </path>
 <path d="M586.8 375.3l0.1 3.4-0.7 2.5-1.5 1.1 1.3 1.9-0.3 1.8-3.6-1.1-2.7 0.4-3.4-0.4-2.7 1.2-2.8-2 0.7-2.1 5.1 0.9 4.1 0.5 2.2-1.4-2.3-2.8 0.4-2.5-3.5-1 1.5-1.7 3.4 0.2 4.7 1.1z" id="HT" name="Haiti">
 </path>
 <path d="M1096.2 191.9l3 1.7 0.5 1.7-2.9 1.3-1.9 4.2-2.6 4.3-3.9 1.2-3.2-0.3-3.7 1.6-1.8 1-4.3-1.2-4-2.7-1.6-0.8-1.2-2.1-0.8-0.1 1.3-4-1.1-1.4 2.8 0 0.2-2.6 2.7 1.7 1.9 0.6 4.1-0.7 0.3-1.3 1.9-0.2 2.3-0.9 0.6 0.4 2.3-0.8 1-1.5 1.6-0.4 5.5 1.9 1-0.6z" id="HU" name="Hungary">
 </path>
 <path class="Indonesia" d="M 1667.5 567.6 1665.1 567.7 1658 563.2 1663.4 561.9 1666.2 563.9 1668 565.8 1667.5 567.6 Z">
 </path>
 <path class="Indonesia" d="M 1692.3 558.9 1692.8 560.2 1692.7 562.1 1688.6 566.9 1683.6 568.3 1683 567.6 1683.7 565.4 1686.5 561.5 1692.3 558.9 Z">
 </path>
 <path class="Indonesia" d="M 1652.7 553.8 1654.6 555.5 1658.2 555 1659.4 557.7 1652.7 559 1648.8 559.9 1645.7 559.8 1647.9 556.1 1651.1 556.1 1652.7 553.8 Z">
 </path>
 <path class="Indonesia" d="M 1681 553.8 1679.9 557.4 1671.3 559.2 1663.8 558.4 1664 556 1668.6 554.7 1672 556.6 1675.8 556.1 1681 553.8 Z">
 </path>
 <path class="Indonesia" d="M 1600.8 545.3 1611.6 546 1613 543.3 1623.3 546.4 1625.1 550.6 1633.5 551.8 1640.2 555.6 1633.6 558 1627.5 555.4 1622.4 555.6 1616.6 555.1 1611.4 554 1605 551.5 1600.9 550.9 1598.5 551.7 1588.3 549 1587.5 546.3 1582.4 545.8 1586.6 539.7 1593.4 540.1 1597.8 542.6 1600.2 543.1 1600.8 545.3 Z">
 </path>
 <path class="Indonesia" d="M 1748.7 541.7 1745.5 546.1 1745.3 541.3 1746.4 539 1747.7 536.8 1748.9 538.7 1748.7 541.7 Z">
 </path>
 <path class="Indonesia" d="M 1707.3 524 1705.1 526.2 1701.3 525 1700.3 522.2 1706 521.9 1707.3 524 Z">
 </path>
 <path class="Indonesia" d="M 1725.7 521.7 1727.5 526.6 1722.9 523.9 1718.2 523.4 1714.9 523.8 1711 523.6 1712.5 520.1 1719.5 519.8 1725.7 521.7 Z">
 </path>
 <path class="Indonesia" d="M 1785.5 518.5 1784.5 539.4 1782.9 560.4 1778.3 555.1 1772.7 553.8 1771.2 555.6 1764 555.8 1766.8 550.6 1770.5 548.8 1769.5 541.8 1767.2 536.5 1756.5 531 1751.9 530.5 1743.6 524.5 1741.8 527.7 1739.6 528.2 1738.5 525.9 1738.6 523.1 1734.4 519.9 1740.6 517.6 1744.6 517.7 1744.2 516 1735.9 516 1733.7 512.2 1728.7 511 1726.4 507.8 1734 506.3 1736.9 504.2 1746 506.8 1746.9 509.2 1748.2 519.6 1753.9 523.4 1758.9 516.6 1765.5 512.8 1770.5 512.8 1775.3 515 1779.4 517.3 1785.5 518.5 Z">
 </path>
 <path class="Indonesia" d="M 1696.4 492.7 1691.9 499.1 1687.6 500.3 1682.2 499.1 1672.7 499.4 1667.8 500.3 1667 505.2 1672 510.9 1675.1 508 1685.7 505.8 1685.2 508.7 1682.7 507.8 1680.2 511.6 1675.1 514.1 1680.2 522.3 1679.1 524.5 1683.9 531.9 1683.6 536.1 1680.5 538 1678.4 535.7 1681.4 530.5 1675.7 533 1674.4 531.2 1675.2 528.7 1671.3 524.9 1672 518.7 1668.1 520.6 1668.3 528.1 1668.1 537.3 1664.4 538.2 1662.1 536.4 1664 530.5 1663.4 524.3 1661 524.2 1659.4 519.8 1661.9 515.6 1662.8 510.5 1665.8 500.8 1666.9 498.2 1671.7 493.4 1676.2 495.3 1683.3 496.2 1689.8 495.9 1695.4 491.3 1696.4 492.7 Z">
 </path>
 <path class="Indonesia" d="M 1716 494.6 1715.7 500.2 1712.8 499.5 1711.9 503.4 1714.2 506.8 1712.6 507.6 1710.4 503.5 1708.7 495.3 1709.7 490.2 1711.5 487.9 1712 491.4 1715.4 491.9 1716 494.6 Z">
 </path>
 <path class="Indonesia" d="M 1608 488.9 1609 493.2 1612.9 496.9 1616.6 495.6 1620.2 496 1623.5 492.8 1626.2 492.2 1631.6 494 1636.2 492.6 1638.8 483.7 1640.9 481.5 1642.6 474.2 1649.1 474.2 1654.1 475.3 1651.1 481.1 1655.5 487.1 1654.6 490.1 1661 496 1654.3 496.8 1652.5 501.2 1652.7 507 1647.2 511.4 1646.8 517.8 1644.3 527.6 1643.6 525.3 1637 528.2 1634.9 524.3 1630.9 523.9 1628.1 521.8 1621.3 524.2 1619.4 521 1615.6 521.4 1611 520.7 1610.4 512.1 1607.6 510.3 1604.9 504.8 1604.1 499.2 1604.7 493.2 1608 488.9 Z">
 </path>
 <path class="Indonesia" d="M 1585.2 539.4 1579 539.5 1574.5 534.2 1567.4 528.9 1565.1 525 1561 519.8 1558.3 515 1554.1 506 1549.2 500.6 1547.5 495.1 1545.3 490.1 1540.1 486.1 1537 480.6 1532.6 477 1526.4 469.9 1525.8 466.6 1529.4 466.9 1538.3 468.1 1543.5 474.4 1548.1 478.8 1551.3 481.4 1556.8 488.3 1562.6 488.4 1567.4 492.8 1570.8 498.2 1575.1 501.2 1572.8 506.4 1576.1 508.6 1578.1 508.8 1579 513.3 1580.9 516.8 1585 517.4 1587.6 521.5 1585.9 529.5 1585.2 539.4 Z">
 </path>
 <path d="M1427.6 308l-2.8 3-0.9 6 5.8 2.4 5.8 3.1 7.8 3.6 7.7 0.9 3.8 3.2 4.3 0.6 6.9 1.5 4.6-0.1 0.1-2.5-1.5-4.1-0.2-2.7 3.1-1.4 1.5 5.1 0.4 1.2 5.5 2.5 3.2-1 4.7 0.4 4.5-0.2-0.5-3.9-2.6-2.1 4.2-0.8 3.9-4.8 5.4-4 4.9 1.5 3.2-2.7 3.6 4-1.2 2.7 6.1 1 1 2.4-1.7 1.2 1.4 3.9-4.2-1.1-6.2 4.4 0.9 3.7-2 5.4 0.3 3.1-1.6 5.3-4.6-1.5 0.9 6.7-1 2.2 1 2.7-2.5 1.5-4.4-10.2-1.5 0-0.3 4.2-3.6-3.4 1.2-3.6 2.4-0.4 1.6-5.4-3.4-1.1-5.1 0.1-5.4-0.9-1.2-4.5-2.7-0.3-4.9-2.8-1.2 4.4 4.6 3.4-3 2.4-0.9 2.3 3.7 1.7-0.3 3.9 2.6 4.8 1.6 5.3-0.5 2.4-3.8-0.1-6.6 1.3 0.9 4.8-2.4 3.8-7.5 4.4-5.3 7.5-3.8 4.1-5 4.2 0.3 2.9-2.6 1.6-4.8 2.3-2.6 0.3-1.2 4.9 1.9 8.4 0.7 5.3-1.9 6.1 0.7 10.9-2.9 0.3-2.3 4.9 1.9 2.2-5.1 1.8-1.7 4.3-2.2 1.9-5.6-6-3.1-9-2.5-6.5-2.2-3-3.4-6.2-2-8-1.4-4-5.9-8.8-3.5-12.5-2.6-8.2-0.8-7.8-1.7-6-7.7 3.9-4-0.8-8.1-7.8 2.4-2.3-1.9-2.5-7.1-5.5 3.2-4.3 12.1 0-1.8-5.5-3.5-3.2-1.4-5-4-2.8 4.9-6.8 6.5 0.5 4.5-6.7 2.2-6.5 3.9-6.5-1-4.6 3.8-3.7-5.1-3.1-2.9-4.4-3.3-5.6 2-2.8 8.5 1.6 5.7-1 3.8-5.4 7.7 7.6 0.8 5.2 3 3.3 0.6 3.3-4.1-0.9 3.2 7.1 6.2 4 8.6 4.5z" id="IN" name="India">
 </path>
 <path d="M956.7 158.2l0.7 4.4-3.9 5.5-8.8 3.6-6.8-0.9 4.3-6.4-2.1-6.2 6.7-4.8 3.7-2.8 0.9 3.2-1.2 3.3 3-0.1 3.5 1.2z" id="IE" name="Ireland">
 </path>
 <path d="M1229 253.2l1.8-0.2 5.3-4.7 1.9-0.5 1.9 1.9-1.2 3.1 3.9 3.4 1.3-0.4 2.5 4.8 5.3 1.3 4.3 3.2 7.7 1.1 8-1.7 0.2-1.5 4.4-1.2 3-3.7 3.6 0.2 2-1.2 3.9 0.6 6.6 3.3 4.3 0.7 7.3 5.6 4 0.3 1.7 5.3-0.6 8-0.5 4.7 2.5 1-1.6 3.5 2.7 5.1 1.2 4.1 4.3 1.1 1.1 4.1-3.9 5.8 3.2 3.4 2.8 3.9 5.7 2.8 1 5.6 2.7 1.1 0.9 2.9-7.5 3.4-1.1 7.4-10.6-1.9-6.2-1.5-6.3-0.8-3.3-7.9-2.8-1.1-4.1 1.1-5.1 3.1-7-2.1-6.1-5-5.5-1.8-4.4-6.1-5.2-8.5-2.8 1-3.7-2.1-1.7 2.5-3.5-3.4-0.5-3.4-1.7 0 0.2-4.7-3.5-4.8-7.1-3.6-4.6-6.1 0.5-5 2.3-2.2-0.9-3.7-3.8-2-4.7-7.6-3.8-5.1 0.7-2-2.9-7.3 3.3-1.9 1.2 2.5 3.2 2.9 3.8 0.9z" id="IR" name="Iran">
 </path>
 <path d="M1223.5 263.2l4.7 7.6 3.8 2 0.9 3.7-2.3 2.2-0.5 5 4.6 6.1 7.1 3.6 3.5 4.8-0.2 4.7 1.7 0 0.5 3.4 3.5 3.4-3.3-0.3-3.7-0.6-3.3 6.2-10.2-0.5-16.8-12.9-8.6-4.5-6.8-1.8-3.1-7.8 11-6.7 1-7.7-1.2-4.7 2.7-1.6 2.1-4 2.1-1 6.3 0.9 2.1 1.6 2.4-1.1z" id="IQ" name="Iraq">
 </path>
 <path d="M924.8 84.5l-1.4 3.6 4.4 3.8-6.1 4.3-13.1 3.9-3.9 1.1-5.6-0.9-11.9-1.8 4.8-2.5-9-2.7 7.9-1.1 0.1-1.7-8.8-1.3 3.6-3.7 6.6-0.8 6 3.8 7-3 5.1 1.5 7.3-2.9 7 0.4z" id="IS" name="Iceland">
 </path>
 <path d="M1179.1 288.2l0.4 2.6-0.6 1 0.1 0-0.7 2-2.1-0.8-0.7 4.2 1.5 0.7-1.3 0.9-0.1 1.7 2.5-0.8 0.4 2.5-1.8 10.2-0.7-1.6-3.9-9.4 1.4-2.1-0.4-0.4 1.1-3 0.6-4.8 0.6-1.7 0.1 0 1.8 0 0.4-1.1 1.4-0.1z" id="IL" name="Israel">
 </path>
 <path class="Italy" d="M 1068.2 256.4 1066.5 261.5 1067.4 263.4 1066.5 266.7 1062.3 264.3 1059.6 263.6 1052.1 260.4 1052.6 257.1 1058.8 257.7 1064.2 257 1068.2 256.4 Z">
 </path>
 <path class="Italy" d="M 1034.2 237.4 1037.5 241.9 1037.1 250.4 1034.7 250 1032.6 252.1 1030.6 250.4 1030.1 242.7 1028.8 239.1 1031.7 239.4 1034.2 237.4 Z">
 </path>
 <path class="Italy" d="M 1055.9 203.9 1055.5 207 1056.9 209.7 1052.8 208.7 1048.9 211 1049.3 214.1 1048.8 215.9 1050.7 219.1 1055.7 222.3 1058.6 227.6 1064.7 232.7 1068.7 232.6 1070.1 234 1068.7 235.3 1073.5 237.6 1077.5 239.5 1082.2 242.9 1082.8 244 1082 246.3 1078.9 243.3 1074.3 242.3 1072.4 246.4 1076.3 248.8 1075.9 252.1 1073.8 252.5 1071.3 258 1069.1 258.5 1069 256.5 1069.9 253.1 1071 251.7 1068.7 248 1066.9 244.8 1064.7 244 1062.9 241.3 1059.5 240.1 1057.1 237.5 1053.3 237.1 1049 234.3 1044.1 230.1 1040.4 226.5 1038.5 220.2 1035.9 219.5 1031.7 217.4 1029.4 218.2 1026.5 221.2 1024.4 221.6 1024.9 218.9 1022.1 218.1 1020.6 213.2 1022.3 211.3 1020.8 208.9 1020.9 207.1 1023.1 208.5 1025.6 208.2 1028.3 206 1029.2 207 1031.6 206.8 1032.6 204.3 1036.4 205.1 1038.5 204 1038.8 201.5 1041.9 202.4 1042.4 201.2 1047.3 200.1 1048.6 202.2 1055.9 203.9 Z">
 </path>
 <path d="M556.5 387.1l-1.8 1.1-3-1.1-2.9-2.3 0.8-1.5 2.4-0.4 1.3 0.2 3.7 0.6 2.7 1.5 0.8 1.8-4 0.1z" id="JM" name="Jamaica">
 </path>
 <path d="M1198.1 295.3l-0.9 1-10.4 3.2 6 6.5-1.6 1-0.7 2.2-4.1 0.9-1.1 2.3-2.1 2-6.2-1.1-0.3-0.9 1.8-10.2-0.4-2.5 0.6-1.9-0.4-4 0.7-2 6.3 2.6 9.7-6.9 3.1 7.8z" id="JO" name="Jordan">
 </path>
 <path class="Japan" d="M 1708.5 282.6 1710.1 284.8 1708.8 288.7 1705.7 286.6 1703.6 288.1 1703.7 291.8 1699.4 290 1698.2 287 1699.5 283.1 1702.9 283.9 1703.9 281.2 1708.5 282.6 Z">
 </path>
 <path class="Japan" d="M 1733.1 263.4 1733.7 268.5 1736.2 271.7 1735.6 276.2 1730.2 279.2 1721 279.6 1716.6 287 1711.9 284.5 1709.5 279.7 1700.9 281.1 1695.8 284.1 1689.6 284.3 1697 289 1697.8 299.9 1695.3 302.6 1691.7 300.1 1690.8 294.3 1686.7 292.5 1682.7 288.1 1687 286.1 1688.1 282 1692 278.7 1694 274.3 1703.7 272.4 1710 273.7 1710 262.3 1715.1 265.4 1719.6 259 1721.3 256.5 1720.3 248.7 1715.2 241.5 1715 237.5 1719.8 236.3 1728 245.2 1730.8 250.3 1729.5 256.8 1733.1 263.4 Z">
 </path>
 <path class="Japan" d="M 1721.2 218.6 1725.7 219.9 1727.5 217.3 1733.5 224.4 1727.1 226.1 1726.7 232.4 1715.8 228.1 1717.4 235 1711.7 235.1 1707 228.8 1706.4 223.9 1711.6 223.6 1707.2 214.8 1705.4 209.9 1715.9 216.5 1721.2 218.6 Z">
 </path>
 <path d="M1338.3 160.5l4.4-0.3 9.2-5.8-0.8 2 8.4 4.7 18.3 15.6 1.1-3.2 8.4 3.5 6.2-1.6 3.3 1.1 4.1 3.6 4 1.2 3.3 2.7 6-0.9 4.4 3.8-1.9 4.2-3.8 0.6 2.5 6.2-1.6 2.9-10.8-2.1 1 11.3-2 1.4-9.1 2.5 8.8 11-2.9 1.6 1.7 3.7-3.5-1-3.4-2.3-7.9-0.6-8.6-0.2-1.6 0.7-8.2-2.7-2.5 1.4 0.5 3.7-9.2-2.2-3.1 0.9-0.3 2.8-2.6 1.2-5.4 4.4-0.9 4.6-2 0-2.3-3-6.7-0.2-2.5-5.2-2.6-0.1-1.5-6.4-7.6-4.6-8.6 0.5-5.7 0.9-6.6-5.7-4.8-2.4-9.2-4.5-1.1-0.5-12 3.7 6.2 23.4-2.6 0.3-4.8-5-3.9-1.8-5.6 1.3-1.8 2.2-0.6-1.6 0.6-2.6-1.5-2.2-6.5-2.2-3.7-5.7-3.2-1.6-0.6-2.1 5.1 0.6-1-4.6 4.1-1 4.7 0.9-0.7-6.1-1.9-3.9-5 0.3-4.7-1.5-5.1 2.7-4.4 1.4-2.8-1.1-0.2-3.2-4.3-4.2-3.6 0.2-5.3-4.2 1.7-4.8-1.8-1.2 2.2-6.9 6 3.6-0.6-4.5 8.1-6.7 7.6-0.2 12 4.3 6.6 2.5 4.4-2.6 7.7-0.1 7.3 3.2 0.8-1.9 7 0.3 0.2-2.9-9.4-4.3 3.5-3-1.5-1.6 4-1.6-5.1-4.2 1.4-2.1 17-2.1 1.7-1.5 10.9-2.3 3.1-2.5 9.1 1.3 4.4 6.3 4.3-1.5 7.1 2.1 1.1 3.3z" id="KZ" name="Kazakhstan">
 </path>
 <path d="M1223.5 476.7l-4.9 7.2 0.2 23.4 3.3 5.3-4 2.6-1.4 2.7-2.2 0.4-0.8 4.6-1.9 2.6-1.1 4.2-2.3 2.1-8.1-6.4-0.3-3.7-20.5-13.1 0.4-4.7-1.4-2.5 0-0.3 1.6-2.6 2.8-4.2 2.1-4.7-2.6-7.4-0.7-3.2-2.7-4.5 3.4-3.8 3.8-4.2 2.9 1.1 0.1 3.6 1.9 2.1 4 0 7.2 5.4 1.8 0.1 1.3-0.2 1.3 0.7 3.8 0.6 1.6-2.7 5.2-2.7 2.3 2.2 3.9 0z" id="KE" name="Kenya">
 </path>
 <path d="M1400.5 230.2l-0.2 1.4-6.9 3.4-1 2.6-6.4 0.7-0.6 4.1-5.8-0.9-3.2 1.3-4.1 3 1.2 1.5-1.1 1.4-9.6 1-7.1-2.1-5.5 0.5-0.6-3.6 6 1 1.4-1.9 4.1 0.6 5.3-4.6-7.2-3.4-3.2 1.6-4.6-2.4 3-4.1-1.7-0.6 0.3-2.8 3.1-0.9 9.2 2.2-0.5-3.7 2.5-1.4 8.2 2.7 1.6-0.7 8.6 0.2 7.9 0.6 3.4 2.3 3.5 1z" id="KG" name="Kyrgyzstan">
 </path>
 <path d="M1589.8 410.6l1.8 4.3 0.1 7.7-9 5 2.8 3.8-5.9 0.5-4.6 2.6-4.8-0.9-2.6-3.4-3.5-6.6-2.1-7.8 3.1-5.3 7.1-1.2 5.3 0.9 5 2.5 2-4.4 5.3 2.3z" id="KH" name="Cambodia">
 </path>
 <path d="M1652.9 259.5l0-0.6 2.5 0.2 0.6-2.8 3.6-0.4 2-0.4 0-1.5 8.3 7.5 3.3 4.2 3.4 7.4-0.5 3.5-4.3 1.2-3.1 2.7-4.6 0.5-2.1-3.5-1.1-4.8-5.3-6.6 3.4-1.1-6.1-5.5z" id="KR" name="Republic of Korea">
 </path>
 <path d="M1247.5 309.4l1.5 2.8-0.3 1.5 2.4 4.8-3.9 0.2-1.7-3.1-5-0.6 3.3-6.2 3.7 0.6z" id="KW" name="Kuwait">
 </path>
 <path d="M1589.8 410.6l-5.3-2.3-2 4.4-5-2.5 1.5-2.9-0.4-5.4-5.3-5.6-1.3-6.4-5-5.2-4.3-0.4-0.8 2.2-3.2 0.2-1.9-1.1-5.3 3.8-1-5.8 0.4-6.7-3.8-0.3-0.9-3.9-2.7-2 0.8-2.3 4.1-4.2 0.8 1.5 3 0.2-2-7.4 2.7-0.9 4 5.1 3.5 5.8 6.8 0 3 5.6-3.3 1.7-1.2 2.3 7.3 3.9 5.7 7.6 4.4 5.6 4.9 4.5 2 4.5-0.2 6.4z" id="LA" name="Lao PDR">
 </path>
 <path d="M1179.1 288.2l-1.4 0.1-0.4 1.1-1.8 0 1.3-5.3 2.2-4.5 0-0.2 2.5 0.3 1.2 2.5-2.7 2.5-0.9 3.5z" id="LB" name="Lebanon">
 </path>
 <path d="M938.6 452.5l-0.2 1.8 0.5 3.1-1.2 2.9 1.6 1.8 1.8 0.4 2.4 2.7 0.2 2.5-0.6 0.8-0.4 5.3-1.5 0.1-5.8-3.1-5.2-4.9-4.8-3.5-3.8-4.1 1.4-2.1 0.3-1.9 2.6-3.4 2.6-3 1.3-0.2 1.4-0.7 2.4 3.9-0.4 2.6 1.1 1.4 1.6 0 1.1-2.6 1.6 0.2z" id="LR" name="Liberia">
 </path>
 <path d="M1122.6 299.1l-1.7 3.1 1 2.8-1.1 3.9 2 5.2 1.3 22.8 1 23.7 0.5 12.8-6.4 0 0 2.7-22.6-12.3-22.5-12.3-5.5 3.5-3.8 2.4-3.2-3.5-8.8-2.8-2.5-4-4.5-3-2.5 1.2-2.1-3.6-0.2-2.7-3.4-4.7 2.2-2.7-0.6-4 0.6-3.5-0.4-3 0.8-5.2-0.4-3-1.9-5.7 2.6-1.4 0.4-2.8-0.6-2.6 3.6-2.5 1.6-2.1 2.6-1.8 0.1-4.9 6.4 2.2 2.3-0.6 4.5 1.1 7.3 2.9 2.8 5.7 4.9 1.2 7.8 2.7 6 3.2 2.5-1.7 2.5-2.9-1.6-4.9 1.5-3.2 3.7-3 3.7-0.8 7.4 1.3 2 2.8 2 0.1 1.8 1.1 5.4 0.7 1.5 2.1z" id="LY" name="Libya">
 </path>
 <path d="M1445.9 462l-4.8 1.5-2.9-5.1-1.4-9.2 2-10.4 4.1 3.5 2.8 4.5 3.1 6.7-0.6 6.7-2.3 1.8z" id="LK" name="Sri Lanka">
 </path>
 <path d="M1139.1 697.9l-2 0.7-3.7-5 3.2-4 3.1-2.5 2.7-1.4 2.2 2 1.7 2-1.9 3.1-1.1 2.1-3.1 1-1.1 2z" id="LS" name="Lesotho">
 </path>
 <path d="M1111.1 147.6l1 2.7-3.6 2-0.5 3.4-4.8 2.3-4.7 0-1.4-1.9-2.5-0.7-0.6-1.5 0.2-1.7-2.2-0.9-5.1-1.1-1.7-5.1 5.1-1.8 7.9 0.4 4.5-0.6 0.9 1.2 2.5 0.4 5 2.9z" id="LT" name="Lithuania">
 </path>
 <path d="M1016.9 185.4l-1.4 0.1-1.1-0.5 0.4-3.5 1.3-0.2 1 1.4-0.2 2.7z" id="LU" name="Luxembourg">
 </path>
 <path d="M1112.8 136.5l2.5 1.3 1 2.9 2.1 3.6-4.6 2.3-2.7 1-5-2.9-2.5-0.4-0.9-1.2-4.5 0.6-7.9-0.4-5.1 1.8-0.5-4.5 1.7-3.8 4.1-2 4.4 4.5 3.7-0.2 0.1-4.6 3.8-1 2.1 0.7 4.4 2.2 3.8 0.1z" id="LV" name="Latvia">
 </path>
 <path d="M974.8 276l1.9 4.1 0.3 3.9 1.9 6.8 1.4 1.4-1 2.5-7.1 1.1-2.5 2.3-3.1 0.6-0.3 4.8-6.4 2.5-2.1 3.2-4.5 1.7-5.4 1-8.9 4.8-0.1 7.6-0.9 0 0.1 3.4-3.4 0.2-1.8 1.5-2.5 0-2-0.9-4.6 0.7-1.9 5-1.8 0.5-2.7 8.1-7.9 6.9-2 8.9-2.4 2.9-0.7 2.3-12.5 0.5-0.1 0 0.3-3 2.2-1.7 1.9-3.4-0.3-2.2 2-4.5 3.2-4.1 1.9-1 1.6-3.7 0.2-3.5 2.1-3.9 3.8-2.4 3.6-6.5 0.1-0.1 2.9-2.5 5.1-0.7 4.4-4.4 2.8-1.7 4.7-5.4-1.2-7.9 2.2-5.6 0.9-3.4 3.6-4.3 5.4-2.9 4.1-2.7 3.7-6.6 1.8-4 3.9 0.1 3.1 2.7 5.1-0.4 5.5 1.4 2.4 0z" id="MA" name="Morocco">
 </path>
 <path d="M1129.4 210.3l-1.3-2.9 0.2-2.7-0.6-2.7-3.4-3.8-2-2.6-1.8-1.8-1.6-0.7 1.1-0.9 3.2-0.6 4 1.9 2 0.3 2.6 1.7-0.1 2.1 2 1 1.1 2.6 2 1.6-0.2 1 1 0.6-1.3 0.5-3-0.2-0.6-0.9-1 0.5 0.6 1.1-1.1 2.1-0.6 2.1-1.2 0.7z" id="MD" name="Moldova">
 </path>
 <path d="M1267.9 588.9l0.4 7.7 1.3 3-0.7 3.1-1.2 1.8-1.6-3.7-1.2 1.9 0.8 4.7-0.7 2.8-1.7 1.4-0.7 5.5-2.7 7.5-3.4 8.8-4.3 12.2-2.9 8.9-3.1 7.5-4.6 1.5-5.1 2.7-3-1.6-4.2-2.3-1.2-3.4 0-5.7-1.5-5.1-0.2-4.7 1.3-4.6 2.6-1.1 0.2-2.1 2.9-4.9 0.8-4.1-1.1-3-0.8-4.1-0.1-5.9 2.2-3.6 1-4.1 2.8-0.2 3.2-1.3 2.2-1.2 2.4-0.1 3.4-3.6 4.9-4 1.8-3.2-0.6-2.8 2.4 0.8 3.3-4.4 0.3-3.9 2-2.9 1.8 2.8 1.4 2.7 1.2 4.3z" id="MG" name="Madagascar">
 </path>
 
 <path d="M1105.5 236.6l-1 0.2-0.8 1.1-2.8-0.1-1.8 1.4-3.4 0.5-2.3-1.5-1-2.7 0.5-2.2 0.7 0.1 0.1-1.3 2.9-1 1.2-0.3 1.7-0.3 2.4-0.2 2.8 2.1 0.8 4.2z" id="MK" name="Macedonia">
 </path>
 <path d="M1010.2 378.8l0.1 14.8-3.1 4.3-0.4 4-5 1-7.7 0.5-2 2.3-3.6 0.3-3.6 0-1.4-1.2-3.1 0.9-5.3 2.7-1.1 2-4.3 2.8-0.8 1.7-2.4 1.3-2.7-0.9-1.5 1.6-0.9 4.4-4.5 5.3 0.2 2.2-1.6 2.7 0.4 3.7-2.4 1-1.3 0.8-0.9-2.7-1.6 0.7-1-0.1-1 1.8-4.4 0-1.5-1-0.8 0.6-1.7-1.9 0.3-1.9-0.7-0.7-1.2 0.6 0.3-2.1 1.1-1.6-2.3-2.7-0.6-1.8-1.3-1.4-1.1-0.2-1.3 0.9-1.9 0.9-1.5 1.4-2.4-0.5-1.6-1.7-0.9-0.2-1.5 0.9-0.9 0-0.3-2.4 0.3-2-0.5-2.4-2-1.8-1.1-3.7-0.2-4 1.9-1.2 1-3.8 1.8-0.1 3.9 1.8 3.2-1.3 2.1 0.4 0.9-1.4 22.5-0.1 1.3-4.5-1-0.8-2.5-27.7-2.4-27.7 8.5-0.1 18.6 14 18.7 14 1.3 3 3.5 1.8 2.6 1.1 0.1 4.1 6.2-0.7z" id="ML" name="Mali">
 </path>
 <path d="M1548.4 364.2l-4.1 4.2-0.8 2.3-3 1.5-2.8 2.8-3.9 0.3-1.5 6.9-2.2 1.2 3.5 5.6 4.1 4.7 2.9 4.3-1.4 5.5-1.8 1.2 1.8 3.2 4.3 5.1 1 3.6 0.2 3 2.7 5.9-2.6 6-2.2 6.6-0.9-4.8 1.3-4.9-2.2-3.8-0.2-7-2.6-3.4-2.7-7.6-2-8.1-3.1-5.4-3.2 3.3-5.8 4.5-3.3-0.5-3.6-1.5 0.9-8-2-6-5.3-7.4 0.3-2.3-3.4-0.9-4.6-5.2-1.1-5.2 2.1 1-0.6-4.6 2.5-1.5-1-2.7 1-2.2-0.9-6.7 4.6 1.5 1.6-5.3-0.3-3.1 2-5.4-0.9-3.7 6.2-4.4 4.2 1.1-1.4-3.9 1.7-1.2-1-2.4 3.1-0.5 2.7 3.8 2.7 1.5 1.3 4.9 0.9 5.3-4.2 5.4 0.7 7.6 5.6-1.1 2.4 5.9 3.7 1.3-0.8 5.3 4.5 2.4 2.6 1.2 3.8-1.9 0.5 2.7z" id="MM" name="Myanmar">
 </path>
 <path d="M1090.6 227.2l-0.8 1.4-1.4 0.6-0.4-1.2-1.9 3.1 0.5 2.1-1.1-0.5-1.7-2.1-2.3-1.3 0.5-1 0.4-3.5 1.6-1.5 0.9-0.6 1.4 1.1 0.9 0.9 1.7 0.7 2.1 1.3-0.4 0.5z" id="ME" name="Montenegro">
 </path>
 <path d="M1496.2 181.5l4-1.2 5.7-0.8 5.4 0.9 6.6 2.9 4.9 3.2 4.6 0 6.8 1 3.6-1.6 5.9-1 4.4-4.4 3.4 0.7 3.9 2.1 5.6-0.6 0.6 4.7 0.3 6.3 2.8 2.5 2.3-0.8 5.5 1 2.5-2.3 5.2 2 7.2 4.4 0.8 2.2-4.4-0.7-6.8 0.8-2.5 1.8-1.3 4.2-6.4 2.4-3.2 3.4-5.9-1.3-3.2-0.6-0.5 4.1 2.9 2.4 1.9 2.1-2.4 2.2-2 3.4-4.9 2.2-7.6 0.2-7.2 2.2-4.4 3.4-3.3-1.9-6.2 0-9.4-3.9-5.6-0.9-6.4 0.9-11.3-1.5-5.6 0.2-4.7-3.8-5-5.8-3.4-0.7-8-4-7.2-0.8-6.5-1.1-3-2.8-1.4-7.3-5.8-5.1-8.2-2.3-5.7-3.3-3.3-4.4 4.7-1.1 6.7-5.3 5.9-2.9 5.3 1.9 5.2 0.1 4.8 2.9 5 0.2 8 1.6 2.4-4.4-4-3.6 1.3-6.4 7 2.5 4.8 0.8 6.7 1.6 3.6 4.6 8.5 2.6z" id="MN" name="Mongolia">
 </path>
 <path d="M1166.7 673.5l-4.1 0-0.3-2.9-0.6-2.9-0.4-2.3 1.4-7.1-1.1-4.6-2.2-9 6.2-7.3 1.7-4.6 0.8-0.6 0.9-3.8-0.8-1.9 0.4-4.8 1.3-4.4 0.4-8.2-2.8-2-2.7-0.5-1.1-1.6-2.6-1.3-4.7 0.1-0.2-2.4-0.4-4.6 17.2-5.3 3.2 3.1 1.5-0.6 2.2 1.6 0.2 2.6-1.3 3 0.2 4.5 3.5 4 1.9-4.5 2.5-1.3-0.1-8.3-2.2-4.6-1.9-2.1-0.4 0-0.6-7.3 1.5-6.1 2.2-0.2 6.7 1.8 1.5-0.8 3.9-0.2 2.1-1.9 3.4 0.1 6.2-2.5 4.6-3.7 0.9 2.8-0.5 6.4 0.5 5.7-0.2 10 0.8 3.1-1.9 4.6-2.4 4.5-3.7 4-5.3 2.4-6.5 3.1-6.6 6.9-2.2 1.2-4.2 4.6-2.3 1.4-0.8 4.6 2.4 4.9 0.9 3.7 0 2 1-0.4-0.5 6.3-1.1 3 1.2 1.1-1 2.7-2.4 2.3-4.7 2.1-6.9 3.5-2.5 2.4 0.3 2.7 1.3 0.4-0.7 3.4z" id="MZ" name="Mozambique">
 </path>
 <path d="M959.2 341.5l-8.5 0.1 2.4 27.7 2.5 27.7 1 0.8-1.3 4.5-22.5 0.1-0.9 1.4-2.1-0.4-3.2 1.3-3.9-1.8-1.8 0.1-1 3.8-1.9 1.2-3.6-4.4-3.4-4.8-3.6-1.7-2.7-1.8-3.1 0-2.8 1.4-2.7-0.5-2 2-0.4-3.4 1.6-3.2 0.8-6-0.4-6.4-0.6-3.2 0.6-3.2-1.4-3-2.8-2.8 1.3-2.1 21.7 0-0.9-9.3 1.5-3.3 5.2-0.5 0.2-16.5 18 0.4 0.2-9.8 20.5 15.6z" id="MR" name="Mauritania">
 </path>
 <path d="M1182.3 588.9l0.4 0 1.9 2.1 2.2 4.6 0.1 8.3-2.5 1.3-1.9 4.5-3.5-4-0.2-4.5 1.3-3-0.2-2.6-2.2-1.6-1.5 0.6-3.2-3.1-2.9-1.6 2-6 1.8-2.2-0.9-5.4 1.3-5.2 1-1.7-1.3-5.4-2.6-2.9 5.5 1.2 1 1.7-0.1 0.8 1.8 4.1 0.2 7.7-1.8 3.6 1.6 4.7-0.2 2.8 1.2 1.9-0.1 2.4 0.9 1.4 1-1.6 1.9 2.5 0.2-0.8-1-3.4-1.1-0.3-0.1-0.9z" id="MW" name="Malawi">
 </path>
 <path class="Malaysia" d="M 1564.3 461.9 1565.7 462.5 1569.2 466.4 1571.7 470.7 1572.3 475 1571.8 477.9 1572.4 480.1 1572.9 483.9 1575 485.7 1577.3 491.4 1577.3 493.5 1573.3 494 1567.8 489.2 1561 484.1 1560.2 480.8 1556.8 476.5 1555.8 471.2 1553.6 467.7 1554 463 1552.6 460.3 1553.5 459.2 1558.3 462 1558.9 465.3 1562.6 464.5 1564.3 461.9 Z">
 </path>
 <path class="Malaysia" d="M 1654.1 475.3 1649.1 474.2 1642.6 474.2 1640.9 481.5 1638.8 483.7 1636.2 492.6 1631.6 494 1626.2 492.2 1623.5 492.8 1620.2 496 1616.6 495.6 1612.9 496.9 1609 493.2 1608 488.9 1612.2 491.1 1616.5 489.9 1617.5 484.5 1619.9 483.3 1626.7 481.9 1630.5 476.8 1633.1 472.8 1635.9 476.1 1637 473.9 1639.7 474.1 1639.8 470 1639.9 466.8 1644 462.4 1646.6 457.4 1648.9 457.3 1652 460.6 1652.4 463.4 1656.2 465.2 1661 467.1 1660.8 469.6 1657 469.9 1658.1 473.1 1654.1 475.3 Z">
 </path>
 <path d="M1116.2 614.3l4.6-1.4 3.6 0.3 2.2 1.5 0 0.5-3.2 1.5-1.7 0-3.7 2.5-2-2.7-8.7 2.3-4.2 0.2-0.8 22.9-5.5 0.2-0.6 18.7-1.1 23.7-5 3.3-2.9 0.5-3.4-1.2-2.5-0.5-0.8-2.7-2-1.8-2.8 3.2-3.9-4.9-2-4.6-1-6.3-1.2-4.6-1.6-9.9 0.1-7.7-0.6-3.5-2.1-2.7-2.8-5.3-2.8-7.7-1.1-4-4.4-6.3-0.3-4.9 2.7-1.2 3.4-1.1 3.6 0.2 3.3 2.9 0.8-0.5 22.7-0.2 3.8 3 13.5 0.9 10.4-2.6z" id="NA" name="Namibia">
 </path>
 <path d="M1068.6 355l1.6 10 2.2 1.7 0.1 2 2.4 2.2-1.2 2.8-1.8 13-0.2 8.4-7 6-2.3 8.5 2.4 2.4 0 4.1 3.7 0.1-0.6 3.1-1.5 0.3-0.2 2.1-1 0.1-3.9-7-1.4-0.3-4.3 3.6-4.4-1.9-3-0.3-1.6 0.9-3.3-0.2-3.3 2.7-2.9 0.2-6.8-3.3-2.7 1.5-2.9-0.1-2.1-2.4-5.6-2.4-6.1 0.8-1.4 1.3-0.8 3.7-1.6 2.6-0.4 5.8-4.3-3.7-2 0-1.9 1.9 0.1-4.4-6.5-1.5-0.2-3.1-3.1-4.2-0.8-2.9 0.5-3.1 3.6-0.3 2-2.3 7.7-0.5 5-1 0.4-4 3.1-4.3-0.1-14.8 7.8-2.8 16-12.6 18.8-12.3 8.8 2.8 3.2 3.5 3.8-2.4z" id="NE" name="Niger">
 </path>
 <path d="M1066.2 421.7l2.3 2.5-0.6 1.2-0.3 2.1-4.7 5-1.4 4.1-0.8 3.3-1.2 1.5-1.1 4.5-3 2.6-0.8 3.2-1.3 2.6-0.5 2.7-3.9 2.2-3.2-2.7-2.1 0.1-3.4 3.8-1.6 0-2.7 6.2-1.4 4.6-5.9 2.3-2.1-0.3-2.2 1.4-4.5-0.1-3.1-4.1-1.9-4.6-4-4.2-4.2 0-5 0 0.3-10.3-0.2-4.1 1.1-4 1.7-2 2.8-4-0.6-1.7 1.1-2.6-1.3-3.8 0.2-2.1 0.4-5.8 1.6-2.6 0.8-3.7 1.4-1.3 6.1-0.8 5.6 2.4 2.1 2.4 2.9 0.1 2.7-1.5 6.8 3.3 2.9-0.2 3.3-2.7 3.3 0.2 1.6-0.9 3 0.3 4.4 1.9 4.3-3.6 1.4 0.3 3.9 7 1-0.1z" id="NG" name="Nigeria">
 </path>
 <path d="M519.6 405.5l-0.5 0.7-0.5 1.4 0.4 2.3-1.5 2.2-0.8 2.6-0.5 2.8 0.2 1.7-0.1 2.9-0.9 0.6-0.7 2.8 0.2 1.7-1.2 1.6 0.1 1.7 0.8 1.1-1.4 1.4-1.7-0.5-0.8-1.3-1.8-0.5-1.3 0.8-3.6-1.7-0.9 0.8-1.8-2-2.5-2.6-1.1-2.1-2.2-2.1-2.5-2.9 0.7-1 0.8 1 0.5-0.4 1.8-0.3 0.8-1.5 0.8 0 0.2-3.2 1.3-0.1 1.2 0 1.4-1.7 1.5 1.3 0.6-0.8 1.2-0.8 2.1-1.7 0.2-1.4 0.5 0.1 0.9-1.5 0.6-0.2 0.9 1 1.1 0.2 1.3-0.8 1.4 0 2-0.8 0.9-0.9 1.9 0.1z" id="NI" name="Nicaragua">
 </path>
 <path class="Norway" d="M 1113.7 67.5 1107.3 69.6 1104.1 70.1 1104.9 66.3 1099.1 64.2 1093.2 66 1092.1 70 1088.7 72.4 1084 71.1 1078.7 71.3 1073.6 68.5 1071.4 69.9 1068.8 70.1 1068.9 73.7 1060.9 72.8 1060.3 75.9 1056.3 75.9 1054 79.8 1050.6 85.9 1044.9 93.8 1046.7 95.8 1045.4 98 1041.1 97.9 1038.7 103.3 1039.7 111 1042.8 113.9 1042 120.8 1038.6 124.8 1036.8 128.2 1033.5 124.6 1024.9 131.4 1018.8 132.8 1012.3 129.8 1010.5 123.5 1008.5 110 1012.5 106.3 1023.8 101.4 1031.9 95.5 1039.1 87.7 1048 77 1054.4 72.9 1064.7 66.1 1073.2 63.7 1079.9 64 1085.1 59.6 1092.5 59.8 1099.5 58.8 1113.2 62.7 1108.3 64.1 1113.7 67.5 Z">
 </path>
 <path class="Norway" d="M 1076.6 25.2 1069 27.1 1062.2 26 1064.4 24.8 1061.8 23.3 1069.1 22.4 1071 24.1 1076.6 25.2 Z">
 </path>
 <path class="Norway" d="M 1051 16.7 1063.6 20.1 1055 21.9 1053.8 25.3 1050.8 26.2 1049.9 30.2 1045.5 30.4 1037 27.5 1040 25.8 1034.3 24.4 1026.6 20.5 1023.4 17 1032.7 15.4 1035 16.9 1040 16.9 1041 15.4 1046.2 15.2 1051 16.7 Z">
 </path>
 <path class="Norway" d="M 1075.4 13.7 1082.8 15.2 1078.4 17.6 1068.3 18.1 1057.6 17.3 1056.6 16.1 1051.5 16.1 1047.2 14.1 1057.7 12.9 1063.1 13.9 1066.2 12.6 1075.4 13.7 Z">
 </path>
 <path d="M1469 322.9l0.2 2.7 1.5 4.1-0.1 2.5-4.6 0.1-6.9-1.5-4.3-0.6-3.8-3.2-7.7-0.9-7.8-3.6-5.8-3.1-5.8-2.4 0.9-6 2.8-3 1.9-1.5 4.8 2 6.4 4.2 3.3 0.9 2.5 3.1 4.5 1.2 5 2.9 6.5 1.4 6.5 0.7z" id="NP" name="Nepal">
 </path>
 <path class="Oman" d="M 1283.8 394.9 1281.6 390.4 1276.4 379.8 1292.7 373.4 1295.3 360.6 1292.3 356 1292.3 353.4 1293.6 350.8 1293.4 348.2 1295.8 346.9 1294.7 346 1294.7 341.8 1297.5 341.8 1300.5 346.2 1303.8 348.5 1307.9 349.4 1311.3 350.5 1314.2 354.2 1315.9 356.3 1317.9 357.2 1318.1 358.6 1316.4 362.4 1315.7 364.2 1313.5 366.3 1311.8 370.7 1309.3 370.3 1308.3 371.9 1307.6 375.1 1308.7 379.4 1308.2 380.2 1305.7 380.2 1302.4 382.6 1302.1 385.7 1300.9 387.1 1297.4 387 1295.4 388.6 1295.6 391.2 1293 393 1289.9 392.4 1286.3 394.6 1283.8 394.9 Z">
 </path>
 <path class="Oman" d="M 1296.2 336.7 1294.9 334.5 1296.3 332.4 1297 332.9 1296.8 335.6 1296.2 336.7 Z">
 </path>
 <path d="M1401.6 273.9l-3.8 5.4-5.7 1-8.5-1.6-2 2.8 3.3 5.6 2.9 4.4 5.1 3.1-3.8 3.7 1 4.6-3.9 6.5-2.2 6.5-4.5 6.7-6.5-0.5-4.9 6.8 4 2.8 1.4 5 3.5 3.2 1.8 5.5-12.1 0-3.2 4.3-4.2-1.6-2.2-4.6-4.9-4.9-10 1.2-9 0.1-7.6 0.9 1.1-7.4 7.5-3.4-0.9-2.9-2.7-1.1-1-5.6-5.7-2.8-2.8-3.9-3.2-3.4 9.6 3.3 5.3-1 3.4 0.8 0.9-1.4 3.9 0.6 6.6-2.7-0.8-5.4 2.3-3.7 4.1 0 0.2-1.7 4-0.9 2.1 0.6 1.8-1.8-1.1-3.9 1.4-3.8 3.1-1.7-3.1-4.2 5.2 0.2 0.9-2.3-0.8-2.5 2-2.7-1.4-3.2-1.9-2.7 2.4-2.8 5.3-1.3 5.9-0.8 2.4-1.1 2.9-0.8 4.7 3 2.9 5 9.5 2.5z" id="PK" name="Pakistan">
 </path>
 <path d="M549.3 446.2l-0.7 0.9 1.1 3.8-1.1 1.9-1.8-0.5-0.9 3.1-1.8-1.8-1-3.5 1.4-1.7-1.4-0.4-0.9-2.1-2.8-1.8-2.4 0.4-1.3 2.2-2.4 1.6-1.2 0.2-0.6 1.4 2.5 3.5-1.6 0.8-0.8 0.9-2.7 0.4-0.8-3.9-0.8 1.1-1.8-0.4-1-2.5-2.3-0.5-1.5-0.7-2.4 0-0.2 1.4-0.6-1 0.3-1.3 0.6-1.3-0.2-1.1 0.9-0.8-1.1-0.9 0.1-2.6 2.2-0.6 1.9 2.3-0.2 1.4 2.2 0.3 0.6-0.6 1.5 1.6 2.8-0.5 2.5-1.6 3.5-1.3 2-1.9 3.1 0.4-0.2 0.6 3.1 0.2 2.4 1.2 1.8 1.9 2 1.8z" id="PA" name="Panama">
 </path>
 <path d="M590.5 529.4l-5.1-0.3-0.8 1-4.6 1.2-6.3 4.4-0.3 3-1.4 2.2 0.7 3.5-3.4 1.8 0.2 2.8-1.5 1.1 2.6 5.8 3.3 3.9-1 2.8 3.8 0.3 2.3 3.5 5 0.1 4.4-3.7 0.1 9.7 2.6 0.7 3.2-1.1 5.5 10.4-1.1 2.1 0 4.6 0.3 5.4-1.9 3.2 1.2 2.4-1.1 2.2 2.9 5.4-2.9 6.9-1.1 3.3-2.8 1.6-5.9-3.7-0.8-2.6-11.7-6.4-10.7-7.1-4.7-3.9-2.8-5.3 0.8-1.9-5.4-8.4-6.4-11.8-6-12.8-2.4-3-2-4.7-4.6-4.2-4.1-2.6 1.7-2.8-3-6.2 1.7-4.5 4.4-4 0.7 2.7-1.6 1.5 0.3 2.3 2.3-0.5 2.3 0.7 2.5 3.3 3.1-2.7 0.9-4.3 3.4-5.6 6.7-2.5 6.1-6.8 1.7-4.1-0.8-4.9 1.5-0.6 3.8 3 1.8 3.1 2.6 1.6 3.5 6.7 4.2 0.9 3.1-1.7 2.1 1.1 3.4-0.6 4.4 3-3.5 6.6 1.7 0.1 2.9 3.4z" id="PE" name="Peru">
 </path>
 <path class="Philippines" d="M 1700.5 447.8 1701.4 452.1 1702 455.7 1700.4 461.5 1697.9 455 1695.5 458.3 1697.6 463 1696.2 466 1689.3 462.3 1687.4 457.6 1688.9 454.6 1685.1 451.5 1683.5 454.2 1680.9 453.9 1676.9 457.5 1675.9 455.6 1677.7 450.2 1681.1 448.4 1684 446 1686.2 448.9 1690.4 447.2 1691.1 444.3 1695.1 444.1 1694.3 439.2 1699.2 442.2 1699.9 445.4 1700.5 447.8 Z">
 </path>
 <path class="Philippines" d="M 1685.9 435.8 1684.1 437.9 1682.7 442 1681.1 443.9 1677.2 439.5 1678.2 437.7 1679.5 435.9 1679.7 432 1682.8 431.6 1682.3 435.9 1685.9 429.7 1685.9 435.8 Z">
 </path>
 <path class="Philippines" d="M 1655.6 442 1648.5 448.1 1650.9 443.6 1654.7 439.6 1657.7 435.2 1660 428.8 1661.6 434.1 1658.1 437.6 1655.6 442 Z">
 </path>
 <path class="Philippines" d="M 1673.1 425.5 1676.7 427.5 1680.2 427.5 1680.4 430.1 1678.1 432.9 1674.7 434.8 1674.2 431.8 1674.3 428.5 1673.1 425.5 Z">
 </path>
 <path class="Philippines" d="M 1693.2 423.7 1695.6 430.9 1691.1 429.2 1691.4 431.4 1693.2 435.3 1690.6 436.8 1690 432.2 1688.2 431.9 1687 428 1690.3 428.5 1690 426.1 1686 421.2 1691.4 421.3 1693.2 423.7 Z">
 </path>
 <path class="Philippines" d="M 1670.2 417.9 1669.3 423.5 1666.6 420.3 1663.1 415.4 1667.9 415.6 1670.2 417.9 Z">
 </path>
 <path class="Philippines" d="M 1663.7 383 1667.5 384.9 1668.9 383.2 1669.7 384.8 1669.3 387.5 1671.9 392.1 1671.3 397.4 1668.4 399.5 1668.3 404.7 1670.3 409.8 1673.3 410.5 1675.7 409.8 1683.2 413.3 1683.1 416.8 1685.2 418.4 1684.9 421.3 1680.2 418.2 1677.7 414.8 1676.5 417.2 1672.5 413.3 1667.5 414.3 1664.5 412.9 1664.4 410.2 1666 408.6 1664.1 407.1 1663.7 409.4 1660.4 405.7 1659.1 402.9 1658 396.8 1660.6 398.9 1659.5 388.8 1660.3 383 1663.7 383 Z">
 </path>
 <path class="Papua New Guinea" d="M 1868.1 545.6 1866.5 546.3 1864.2 543.8 1862 539.7 1861.2 534.8 1862 534.2 1862.5 536.1 1864.1 537.6 1866.5 541.6 1869 543.8 1868.1 545.6 Z">
 </path>
 <path class="Papua New Guinea" d="M 1846.7 537 1843.7 537.5 1842.7 539.3 1839.5 540.9 1836.5 542.4 1833.4 542.4 1828.9 540.5 1825.8 538.7 1826.4 536.7 1831.4 537.7 1834.6 537.2 1835.6 534.1 1836.5 533.9 1836.8 537.3 1840 536.9 1841.8 534.7 1845.1 532.4 1844.7 528.6 1848.1 528.5 1849.2 529.5 1848.8 533.1 1846.7 537 Z">
 </path>
 <path class="Papua New Guinea" d="M 1782.9 560.4 1784.5 539.4 1785.5 518.5 1795.1 522.9 1805.4 526.6 1809.1 529.9 1812.1 533.1 1812.7 536.9 1821.9 540.9 1823 544.3 1817.8 545 1818.7 549.3 1823.4 553.5 1826.4 560.3 1829.7 560.1 1829.1 562.9 1833.4 564 1831.6 565.2 1837.3 567.9 1836.4 569.8 1832.6 570.2 1831.4 568.6 1826.7 567.8 1821.1 566.9 1817.1 562.8 1814.3 559.2 1811.8 553.6 1804.7 550.8 1799.8 552.6 1796.1 554.8 1796.4 559.5 1791.8 561.7 1788.7 560.6 1782.9 560.4 Z">
 </path>
 <path class="Papua New Guinea" d="M 1853.6 530.7 1851.8 532.4 1850.9 528.6 1849.8 526.2 1847.3 524.1 1844.2 521.3 1840.2 519.4 1841.8 517.9 1844.8 519.7 1846.7 521.1 1849 522.6 1851.1 525.3 1853.2 527.4 1853.6 530.7 Z">
 </path>
 <path d="M1079.9 154.8l5.9 0.7 8.8-0.1 2.5 0.7 1.4 1.9 0.6 2.7 1.7 2.3 0.4 2.4-2.8 1.3 1.9 2.8 0.5 2.8 3.2 5.4-0.3 1.7-2.3 0.7-3.8 5.2 1.6 2.8-1.1-0.4-5-2.4-3.5 0.9-2.4-0.6-2.8 1.3-2.7-2.2-1.9 0.9-0.3-0.4-2.6-3.1-3.7-0.3-0.7-2-3.4-0.7-0.6 1.6-2.8-1.3 0.2-1.7-3.7-0.5-2.5-2-2.4-3.9 0.2-2.2-1.5-3.3-1.9-2.1 1.2-1.7-1.4-3.1 3.1-1.8 7.1-2.8 5.8-2 4.8 1 0.6 1.5 4.6 0z" id="PL" name="Poland">
 </path>
 <path d="M1660.3 229.9l1.4 1.1-2.2-0.4-1 2.2-0.3 2.1 2.8 4.6-1.9 1.4-0.3 1.1-0.9 1.9-2.9 1.1-1.4 1.7 1.3 2.7-0.3 0.7 2.6 1.1 4.4 2.8 0 1.5-2 0.4-3.6 0.4-0.6 2.8-2.5-0.2 0 0.6-3.2-1.2-0.1 1.2-1.3 0.5-0.7-1.2-1.7-0.6-1.9-1 0.1-2.8 0.9-0.8-1-1.1-0.4-3.5-0.9-1-3.4-0.7-3.4-1.7 2.1-4.1 3.9-3.4 1.1-4.6 3.6 2 4.6 0.3-2.8-3.4 6.4-2.7 0-3.6 5.5 3.8z" id="KP" name="Dem. Rep. Korea">
 </path>
 
 <path d="M1178.3 293.8l0.4 4-0.6 1.9-2.5 0.8 0.1-1.7 1.3-0.9-1.5-0.7 0.7-4.2 2.1 0.8z" id="PS" name="Palestine">
 </path>
 <path d="M1270.1 343.7l-1.5 0.5-1.8-1.3-0.8-4.7 1.1-3.3 1.5-0.7 1.8 2 0.5 3.7-0.8 3.8z" id="QA" name="Qatar">
 </path>
 <path d="M1118.9 193.1l1.6 0.7 1.8 1.8 2 2.6 3.4 3.8 0.6 2.7-0.2 2.7 1.3 2.9 2.4 1.2 2.3-1.1 2.4 1.1 0.4 1.7-2.3 1.3-1.6-0.6-0.4 7.7-3.1-0.7-4-2.3-5.9 1.5-2.3 1.6-7.6-0.4-4-0.9-1.9 0.4-1.8-2.6-1-1.1 1-1.1-1.3-0.7-1.5 1.4-3.1-1.9-0.7-2.6-3.2-1.4-0.8-2.1-3-2.4 3.9-1.2 2.6-4.3 1.9-4.2 2.9-1.3 2-1.4 3.2 0.7 3.2 0 2.5 1.6 1.6-1 3.6-0.6 1-1.5 2.1 0z" id="RO" name="Romania">
 </path>
 <path d="M1158.8 509.1l2.2 3.6-0.3 3.8-1.6 0.8-3.1-0.4-1.7 3.7-3.5-0.5 0.6-3.6 0.8-0.5 0.2-3.8 1.6-1.8 1.4 0.7 3.4-2z" id="RW" name="Rwanda">
 </path>
 <path d="M938.9 324.3l-0.1 0.4-0.1 1.2-0.2 9.8-18-0.4-0.2 16.5-5.2 0.5-1.5 3.3 0.9 9.3-21.7 0-1.3 2.1 0.3-2.7 0.1 0 12.5-0.5 0.7-2.3 2.4-2.9 2-8.9 7.9-6.9 2.7-8.1 1.8-0.5 1.9-5 4.6-0.7 2 0.9 2.5 0 1.8-1.5 3.4-0.2-0.1-3.4 0.9 0z" id="EH" name="Western Sahara">
 </path>
 <path d="M1240.5 315l5 0.6 1.7 3.1 3.9-0.2 2.7 5.6 2.9 1.4 1.2 2.3 4 2.7 0.7 2.6-0.4 2.2 0.9 2.1 1.8 1.8 0.9 2.1 1 1.6 1.8 1.3 1.5-0.5 1.3 2.5 0.3 1.4 2.7 6.6 16.9 3.2 1-1.4 3 4.6-2.6 12.8-16.3 6.4-15.9 2.5-5 2.9-3.5 6.7-2.6 1.1-1.5-2.1-2.1 0.3-5.5-0.7-1.1-0.6-6.4 0.1-1.5 0.6-2.4-1.6-1.3 3.1 0.8 2.7-2.4 2.1-0.9-2.8-1.8-1.9-0.5-2.6-3.1-2.3-3.3-5.4-1.9-5.2-4.1-4.4-2.5-1.1-4.1-6.1-0.9-4.4 0-3.8-3.6-7.2-2.8-2.5-3-1.3-2.1-3.7 0.2-1.4-1.8-3.4-1.7-1.4-2.5-4.8-3.8-5.1-3.1-4.4-2.7 0 0.5-3.5 0.1-2.3 0.4-2.6 6.2 1.1 2.1-2 1.1-2.3 4.1-0.9 0.7-2.2 1.6-1-6-6.5 10.4-3.2 0.9-1 6.8 1.8 8.6 4.5 16.8 12.9 10.2 0.5z" id="SA" name="Saudi Arabia">
 </path>
 <path d="M1191 409.2l-0.7 5.5-2 6.4-3.3 3.1-2.3 5-0.5 2.6-2.6 1.8-1.5 6.7 0 0.8-0.8-0.2 0.1-3.2-0.8-2.2-2.9-2.5-0.9-4.6 0.6-4.8-2.6-0.4-0.4 1.4-3.4 0.4 1.5 1.8 0.5 3.9-3 3.5-2.7 4.6-2.9 0.7-4.8-3.7-2.1 1.3-0.5 1.8-2.9 1.3-0.2 1.3-5.6 0-0.8-1.3-4.1-0.3-2 1.1-1.6-0.5-2.9-3.8-1-1.7-4.1 0.9-1.5 2.9-1.3 5.8-2 1.2-1.7 0.7-0.5-0.3-1.9-1.9-0.4-2 0.8-2.6 0-2.7-3.3-4-0.7-2.7 0-1.6-2.1-1.9-0.1-3.7-1.3-2.5-1.9 0.4 0.5-2.4 1.4-2.6-0.7-2.7 1.8-2-1.2-1.5 1.3-3.9 2.5-4.8 4.8 0.5-1.1-25.5 0-2.7 6.4 0-0.5-12.8 22.3 0 21.5 0 22.1 0 2.1 6.3-1.2 1.1 1.2 6.7 2.5 7.6 2.2 1.6 3.2 2.4-2.7 3.6-4 1.1-1.7 2-0.3 4.2-2 9.5 0.7 2.5z" id="SD" name="Sudan">
 </path>
 <path d="M1178.1 441.1l0.2 5-0.8 1.9-3 0.2-1.9 3.6 3.5 0.5 3 3.1 1 2.6 2.6 1.5 3.5 7-3.8 4.2-3.4 3.8-3.5 3-4 0-4.5 1.5-3.6-1.5-2.3 1.8-5.1-4.3-1.4-2.7-3.1 1.3-2.6-0.4-1.5 1.1-2.6-0.8-3.5-5.3-0.9-2-4.3-2.6-1.4-3.8-2.4-2.8-3.9-3.3-0.1-2.1-3.1-2.6-3.9-2.5 1.7-0.7 2-1.2 1.3-5.8 1.5-2.9 4.1-0.9 1 1.7 2.9 3.8 1.6 0.5 2-1.1 4.1 0.3 0.8 1.3 5.6 0 0.2-1.3 2.9-1.3 0.5-1.8 2.1-1.3 4.8 3.7 2.9-0.7 2.7-4.6 3-3.5-0.5-3.9-1.5-1.8 3.4-0.4 0.4-1.4 2.6 0.4-0.6 4.8 0.9 4.6 2.9 2.5 0.8 2.2-0.1 3.2 0.8 0.2z" id="SS" name="South Sudan">
 </path>
 <path d="M918 408l0.2 4 1.1 3.7 2 1.8 0.5 2.4-0.3 2-0.8 0.4-3.1-0.5-0.4 0.7-1.2 0.1-4.1-1.5-2.7-0.1-10.4-0.3-1.5 0.8-1.9-0.2-3 1-0.8-4.9 5.1 0.1 1.4-0.9 1 0 2.1-1.5 2.4 1.3 2.4 0.2 2.5-1.5-1.1-1.8-1.9 1-1.7 0-2.2-1.6-1.8 0.1-1.3 1.6-6.1 0.1-2.3-5-2.7-2.2 2.5-1.3 2.8-4.5 1.4-3.3 2-2 2.7 0.5 2.8-1.4 3.1 0 2.7 1.8 3.6 1.7 3.4 4.8 3.6 4.4z" id="SN" name="Senegal">
 </path>
 <path d="M928.5 447.9l-2.6 3-2.6 3.4-0.3 1.9-1.4 2.1-1.5-0.5-4-2.6-3-3.4-0.9-2.4-0.7-4.7 3.1-2.9 0.6-1.7 1-1.4 1.6-0.2 1.3-1.2 4.5 0 1.6 2.3 1.2 2.7-0.2 1.9 0.9 1.7-0.1 2.3 1.5-0.3z" id="SL" name="Sierra Leone">
 </path>
 <path d="M492.5 415.9l-0.7 1.5-3.3-0.1-2-0.6-2.2-1.3-3-0.4-1.5-1.4 0.3-0.9 2-1.6 1.2-0.7-0.3-0.8 1.4-0.4 1.6 0.6 1.1 1.2 1.6 1.1 0.1 0.8 2.5-0.7 1.2 0.4 0.7 0.7-0.7 2.6z" id="SV" name="El Salvador">
 </path>
 <path d="M1102 218.2l-1.1 1.4 0.7 2.4 2.8 2.7-1.8 2-0.6 2 0.6 0.8-0.7 0.8-2.4 0.2-1.7 0.3-0.3-0.5 0.6-0.7 0.4-1.6-0.7 0.1-1.1-1.2-0.9-0.3-0.8-1-1-0.4-0.8-0.9-0.9 0.4-0.5 2.1-1.2 0.4 0.4-0.5-2.1-1.3-1.7-0.7-0.9-0.9-1.4-1.1 1.1-0.3 0.5-2.9-2.7-2.5 1.1-2.8-1.9 0.1 1.7-2.4-1.7-1.8-1.5-2.5 3.7-1.6 3.2 0.3 3 2.4 0.8 2.1 3.2 1.4 0.7 2.6 3.1 1.9 1.5-1.4 1.3 0.7-1 1.1 1 1.1z" id="RS" name="Serbia">
 </path>
 <path d="M681 464.9l-3.1 5.5 0.3 4.4 2.2 3.8-1.1 2.7-0.5 3-1.5 2.7-3.2-1.4-2.7 0.7-2.3-0.6-0.6 1.9 1 1.2-0.6 1.4-3.1-0.6-3.3-5.6-0.7-3.6-1.8 0-2.4-4.6 1.1-3.4-0.3-1.5 3.5-1.6 1-5.8 6.8 1.3 0.6-1.2 4.6-0.5 6.1 1.8z" id="SR" name="Suriname">
 </path>
 <path d="M1098.1 187.7l-1.2 1.7-0.7 2.5-1 0.6-5.5-1.9-1.6 0.4-1 1.5-2.3 0.8-0.6-0.4-2.3 0.9-1.9 0.2-0.3 1.3-4.1 0.7-1.9-0.6-2.7-1.7-0.7-2.1 0.3-0.8 0.6-1.4 2.2 0.1 1.6-0.6 0.1-0.6 0.9-0.3 0.2-1.4 1.1-0.3 0.7-1.1 1.5 0 0.3 0.4 1.9-0.9 2.7 2.2 2.8-1.3 2.4 0.6 3.5-0.9 5 2.4z" id="SK" name="Slovakia">
 </path>
 <path d="M1069.8 203.9l-3.9 1.7-0.3 2.5-1.7 0.7 0.1 1.7-2-0.1-1.8-1-0.8 1-3.6-0.2 1.1-0.5-1.4-2.7 0.4-3.1 4.2 0.5 2.4-1.5 4.4-0.1 0.9-1.1 0.8 0.1 1.2 2.1z" id="SI" name="Slovenia">
 </path>
 <path d="M1088.2 87l-7 1.6-3.5 3.9 1.3 3.5-6.2 4.5-7.8 5-2.1 8.1 3.7 4.1 4.8 3.3-3.3 6.6-4.6 1.4-0.6 10-2.1 5.7-5.7-0.6-2.2 4.8-5.5 0.3-1.9-5.7-4.5-6.9-4.2-8.4 1.8-3.4 3.4-4 0.8-6.9-3.1-2.9-1-7.7 2.4-5.4 4.3 0.1 1.3-2.2-1.8-2 5.7-7.9 3.4-6.1 2.3-3.9 4 0 0.6-3.1 8 0.9-0.1-3.6 2.6-0.2 6 2.7 7.2 3.7 1.8 8.5 1.8 2.2z" id="SE" name="Sweden">
 </path>
 <path d="M1161.7 667.7l0.6 2.9 0.3 2.9-1.4 2.8-3.2 0.7-3.1-3.5 0.1-2.2 1.7-2.4 0.6-1.9 1.7-0.4 2.7 1.1z" id="SZ" name="Swaziland">
 </path>
 <path d="M1195 287.5l-9.7 6.9-6.3-2.6-0.1 0 0.6-1-0.4-2.6 0.9-3.5 2.7-2.5-1.2-2.5-2.5-0.3-1.1-4.9 1-2.7 1.3-1.4 1.2-1.4-0.2-3.5 1.9 1.2 5.6-1.8 3 1.2 4.4 0 5.7-2.4 2.9 0.1 5.9-1-2.1 4-2.7 1.6 1.2 4.7-1 7.7-11 6.7z" id="SY" name="Syria">
 </path>
 <path d="M1119.2 376.1l1.1 25.5-4.8-0.5-2.5 4.8-1.3 3.9 1.2 1.5-1.8 2 0.7 2.7-1.4 2.6-0.5 2.4 1.9-0.4 1.3 2.5 0.1 3.7 2.1 1.9 0 1.6-3.6 1.1-2.8 2.6-4 7-5.2 3-5.5-0.4-1.6 0.6 0.6 2.2-2.9 2.3-2.4 2.5-7.1 2.4-1.4-1.4-1-0.2-1 1.7-4.6 0.5 0.8-1.8-1.8-4.4-0.8-2.6-2.5-1.1-3.4-3.8 1.2-3 2.6 0.6 1.6-0.4 3.2 0-3.2-5.8 0.2-4.3-0.5-4.2-2.3-4.1 0.6-3.1-3.7-0.1 0-4.1-2.4-2.4 2.3-8.5 7-6 0.2-8.4 1.8-13 1.2-2.8-2.4-2.2-0.1-2-2.2-1.7-1.6-10 5.5-3.5 22.5 12.3 22.6 12.3z" id="TD" name="Chad">
 </path>
 <path d="M991.4 431.2l-0.7 3.4 1.7 1.9 2 2.2 0.2 3.2 1.2 1.3-0.3 14.8 1.4 4.4-4.5 1.4-1.3-2.3-1.5-4.1-0.5-3.2 1.3-5.7-1.4-2.4-0.6-5 0-4.7-2.3-3.3 0.4-2 4.9 0.1z" id="TG" name="Togo">
 </path>
 <path d="M1577.5 410.2l-5.3-0.9-7.1 1.2-3.1 5.3 2.1 7.8-5.3-3-4.8 0.2 0.3-5.1-4.9 0 0.2 7.1-2.2 9.4-1.4 5.7 0.7 4.6 3.7 0.2 2.7 5.9 1.3 5.5 3.4 3.7 3.4 0.7 3.1 3.4-1.7 2.6-3.7 0.8-0.6-3.3-4.8-2.8-0.9 1.1-2.3-2.4-1.2-3.2-3.2-3.6-2.9-3.1-0.7 3.8-1.3-3.6 0.4-4 1.2-6.1 2.2-6.6 2.6-6-2.7-5.9-0.2-3-1-3.6-4.3-5.1-1.8-3.2 1.8-1.2 1.4-5.5-2.9-4.3-4.1-4.7-3.5-5.6 2.2-1.2 1.5-6.9 3.9-0.3 2.8-2.8 3-1.5 2.7 2 0.9 3.9 3.8 0.3-0.4 6.7 1 5.8 5.3-3.8 1.9 1.1 3.2-0.2 0.8-2.2 4.3 0.4 5 5.2 1.3 6.4 5.3 5.6 0.4 5.4-1.5 2.9z" id="TH" name="Thailand">
 </path>
 <path d="M1357 243.6l-1.4 1.9-6-1 0.6 3.6 5.5-0.5 7.1 2.1 9.6-1 3.1 6 1.5-0.7 3.7 1.5 0.5 2.5 1.8 3.6-5.4 0-3.8-0.5-2.5 2.9-2.2 0.6-1.5 1.4-2.7-2.1-0.9-5.4-1.7-0.3 0.1-2-3.3-1.4-1.7 2.2 0.2 2.6-0.6 0.9-3.2-0.1-0.9 2.9-2.1-1.2-3.4 2-1.8-0.7 1.3-6.5-2.4-4.8-4.2-1.5 0.6-2.8 4.4 0.3 1.5-3.5 0.5-4.1 6.5-1.5-0.2 3 1.3 1.7 2.1-0.1z" id="TJ" name="Tajikistan">
 </path>
 <path d="M1338.3 262l-1.6-0.2-2.9-1.7-0.3 2.2-4.2 1.3 0.2 5.1-2.6 2-4 0.9-0.4 2.9-3.9 0.9-5.9-2.5-1.7-5.3-4-0.3-7.3-5.6-4.3-0.7-6.6-3.3-3.9-0.6-2 1.2-3.6-0.2-3 3.7-4.4 1.2-1.9-4.5-0.6-6.7-4.6-2.2 0.4-4.3-3.5-0.4-0.1-5.4 5.3 1.6 4.1-2-4.7-3.9-2.4-3.6-3.8 1.6 0.6 4.7-2.6-4.1 1.8-2.2 5.6-1.3 3.9 1.8 4.8 5 2.6-0.3 5.9-0.1-1.7-3.2 3.8-2.2 3.4-3.7 7.9 3.4 1.9 5 2.3 1.3 5.5-0.3 2.1 1.2 4.3 6.6 7.1 4.4 4.2 3 6.3 3.1 7.7 2.8 0.8 3.9z" id="TM" name="Turkmenistan">
 </path>
 <path d="M1692.7 562.1l0.1-1.9-0.5-1.3 0.8-1.5 4.9-1.4 4-0.3 1.8-0.8 2.1 0.8-2.2 1.8-6.1 2.8-4.9 1.8z" id="TL" name="Timor-Leste">
 </path>
 <path d="M1048.2 289.1l-0.1 4.9-2.6 1.8-1.6 2.1-3.6 2.5 0.6 2.6-0.4 2.8-2.6 1.4-2.6-11.5-3.4-2.6-0.1-1.5-4.5-3.9-0.6-4.8 3.2-3.6 1.1-5.3-1-6.1 1-3.3 5.7-2.5 3.7 0.7 0 3.3 4.4-2.4 0.4 1.2-2.5 3.2 0.1 2.9 1.9 1.6-0.5 5.6-3.5 3.2 1.2 3.5 2.8 0.1 1.4 3.1 2.1 1z" id="TN" name="Tunisia">
 </path>
 <path class="Turkey" d="M 1201.7 235.3 1207.2 235 1212.8 238.2 1214.1 240.4 1214.2 243.5 1218.4 245.1 1220.8 246.9 1217.5 248.8 1220.4 256.1 1219.7 258.1 1223.5 263.2 1221.1 264.3 1219 262.7 1212.7 261.8 1210.6 262.8 1204.7 263.8 1201.8 263.7 1196.1 266.1 1191.7 266.1 1188.7 264.9 1183.1 266.7 1181.2 265.5 1181.4 269 1180.2 270.4 1178.9 271.8 1176.6 268.9 1178.3 266.5 1175.1 267.1 1170.5 265.6 1167.3 269.3 1159.3 270 1154.6 266.6 1148.9 266.4 1147.9 269 1144.3 269.8 1138.9 266.4 1133.1 266.5 1129.3 260.1 1125.1 256.6 1127.1 251.6 1123.5 248.5 1128.6 242.4 1136.6 242.2 1138.2 237.3 1148.2 238.2 1153.8 234.1 1159.6 232.3 1168.1 232.1 1177.9 236.6 1185.8 239.1 1191.6 238.1 1196.2 238.7 1201.7 235.3 Z">
 </path>
 <path class="Turkey" d="M 1121.9 239.9 1123.1 239.2 1124.2 235.2 1121.5 233.5 1126.5 231.5 1131.1 232.3 1132 234.8 1136.8 236.8 1136.1 238.4 1129.9 238.7 1127.9 240.7 1124 244.1 1122 241.2 1121.9 239.9 Z">
 </path>
 <path d="M1657.9 355.5l-1.4 5.3-4-5.5-1.5-4.7 1.9-6.3 3.3-4.9 3 1.9-0.1 3.9-1.2 10.3z" id="TW" name="Taiwan">
 </path>
 <path d="M1167 508.4l-0.2 3.9-1.1 4.5 1.6 2.5 2.5-1.5 3.3-0.4 0.7 0.8 3.3-1.6-2.3-2.2 1.9-2.9 2.8-2.9 20.5 13.1 0.3 3.7 8.1 6.4-2.8 8 0.3 3.6 3.5 2.3 0.2 1.7-1.7 3.9 0.3 1.9-0.4 3.1 1.8 4 2.2 6.4 2 1.4-4.6 3.7-6.2 2.5-3.4-0.1-2.1 1.9-3.9 0.2-1.5 0.8-6.7-1.8-2.2 0.2 0.1-0.1-1.8-2.4-0.3-6.8-2.9-3.4-0.4 1.2-1-1.7-5.5-1.2-3.2-1.9-3.6-1.1-2.2-1.1-0.3-0.2-2.7-6.6-0.4-3.9-4.5-4.4 1.4-2.4-1.1-2.6 0.2-2.7-1-0.9 0.3-2.8 0.6-0.1 2-2.3 2.3-3.4 1.4-1.3 0-2.1-1.2-1.5-0.3-2.5 1.6-0.8 0.3-3.8-2.2-3.6 2-0.8 6.2 0.1z" id="TZ" name="Tanzania">
 </path>
 <path d="M1179 474.5l2.7 4.5 0.7 3.2 2.6 7.4-2.1 4.7-2.8 4.2-1.6 2.6 0 0.3-0.2-0.4-3-1.3-2.4 1.6-3.6 0.9-2.6 3.7 0.3 2.5-6.2-0.1-2 0.8-3.4 2-1.4-0.7 0.1-4.8 1.3-2.5 0.3-5.1 1.2-3 2.2-3.3 2.1-1.8 1.9-2.2-2.3-0.9 0.3-7.5 2.3-1.8 3.6 1.5 4.5-1.5 4 0 3.5-3z" id="UG" name="Uganda">
 </path>
 <path d="M1157.2 174.6l2.3 2.7 0.1 1.2 6.7 2.2 3.6-1 3.6 2.9 2.9-0.1 7.7 2 0.4 1.9-1.3 3.2 1.8 3.5-0.3 2.1-4.8 0.4-2.2 1.8 0.4 2.7-3.9 0.5-3 2.1-4.6 0.3-4 2.4 1 3.9 2.8 1.5 5.1-0.4-0.6 2.3-5.4 1.1-6.3 3.6-3.1-1.3 0.7-2.9-5.9-1.9 0.7-1.2 4.6-2.1-1.7-1.4-8.1-1.6-0.8-2.4-4.5 0.8-1.3 3.5-3.3 4.6-2.4-1.1-2.3 1.1-2.4-1.2 1.2-0.7 0.6-2.1 1.1-2.1-0.6-1.1 1-0.5 0.6 0.9 3 0.2 1.3-0.5-1-0.6 0.2-1-2-1.6-1.1-2.6-2-1 0.1-2.1-2.6-1.7-2-0.3-4-1.9-3.2 0.6-1.1 0.9-2.1 0-1 1.5-3.6 0.6-1.6 1-2.5-1.6-3.2 0-3.2-0.7-2 1.4-0.5-1.7-3-1.7 0.7-2.5 1.2-1.7 1.1 0.4-1.6-2.8 3.8-5.2 2.3-0.7 0.3-1.7-3.2-5.4 2.3-0.3 2.4-1.6 3.8-0.2 4.9 0.5 5.7 1.5 3.9 0.1 1.9 0.9 1.7-1.1 1.5 1.5 4.3-0.3 2.1 0.6-0.3-3.1 1.3-1.4 4.1-0.3 1.8 0.2 1-1.4 1.5 0.3 4.9-0.6 3.8 3.5-0.9 1.3 0.8 1.9 3.9 0.3z" id="UA" name="Ukraine">
 </path>
 
 <path d="M1352.7 230.7l1.7 0.6-3 4.1 4.6 2.4 3.2-1.6 7.2 3.4-5.3 4.6-4.1-0.6-2.1 0.1-1.3-1.7 0.2-3-6.5 1.5-0.5 4.1-1.5 3.5-4.4-0.3-0.6 2.8 4.2 1.5 2.4 4.8-1.3 6.5-4.3-1.4-3 0-0.8-3.9-7.7-2.8-6.3-3.1-4.2-3-7.1-4.4-4.3-6.6-2.1-1.2-5.5 0.3-2.3-1.3-1.9-5-7.9-3.4-3.4 3.7-3.8 2.2 1.7 3.2-5.9 0.1-6.2-23.4 12-3.7 1.1 0.5 9.2 4.5 4.8 2.4 6.6 5.7 5.7-0.9 8.6-0.5 7.6 4.6 1.5 6.4 2.6 0.1 2.5 5.2 6.7 0.2 2.3 3 2 0 0.9-4.6 5.4-4.4 2.6-1.2z" id="UZ" name="Uzbekistan">
 </path>
 
 <path d="M1586.5 363.5l-6.5 5.4-3.7 6.1-0.6 4.5 5.3 6.7 6.5 8.4 5.7 4 4.1 5.1 4 11.9 0.4 11.3-4.3 4.2-6.1 4.2-4.2 5.3-6.6 6-2.3-4.1 1.2-4.4-4.4-3.6 4.6-2.6 5.9-0.5-2.8-3.8 9-5-0.1-7.7-1.8-4.3 0.2-6.4-2-4.5-4.9-4.5-4.4-5.6-5.7-7.6-7.3-3.9 1.2-2.3 3.3-1.7-3-5.6-6.8 0-3.5-5.8-4-5.1 2.7-1.6 4.4 0.1 5.3-0.8 4.1-3.4 3.1 2.4 5.3 1.2-0.3 3.7 3.1 2.6 5.9 1.7z" id="VN" name="Vietnam">
 </path>
 <path d="M1283.8 394.9l-4 1.7-0.9 2.9 0 2.2-5.4 2.7-8.8 3-4.7 4.5-2.5 0.4-1.7-0.4-3.2 2.7-3.5 1.2-4.7 0.3-1.4 0.4-1.1 1.7-1.5 0.5-0.8 1.6-2.8-0.2-1.7 0.9-4-0.3-1.6-3.8 0-3.5-1-1.9-1.3-4.7-1.8-2.6 1.1-0.4-0.7-2.9 0.6-1.2-0.4-2.8 2.4-2.1-0.8-2.7 1.3-3.1 2.4 1.6 1.5-0.6 6.4-0.1 1.1 0.6 5.5 0.7 2.1-0.3 1.5 2.1 2.6-1.1 3.5-6.7 5-2.9 15.9-2.5 5.2 10.6 2.2 4.5z" id="YE" name="Yemen">
 </path>
 <path d="M1162.1 556.8l0.3 0.2 2.2 1.1 3.6 1.1 3.2 1.9 2.6 2.9 1.3 5.4-1 1.7-1.3 5.2 0.9 5.4-1.8 2.2-2 6 2.9 1.6-17.2 5.3 0.4 4.6-4.3 0.9-3.3 2.5-0.8 2.2-2 0.6-5.1 5.2-3.2 4.2-1.9 0.1-1.8-0.7-6.2-0.7-1-0.5 0-0.5-2.2-1.5-3.6-0.3-4.6 1.4-3.6-4-3.6-5.2 0.8-20.5 11.7 0.1-0.4-2.2 0.9-2.4-0.9-3 0.7-3.1-0.6-2 1.9 0.1 0.3 2 2.7-0.1 3.5 0.6 1.9 2.9 4.4 0.9 3.5-2 1.2 3.3 4.3 0.9 2 2.8 2.2 3.5 4.3 0-0.2-6.9-1.6 1.2-3.9-2.5-1.5-1.2 0.9-6.4 1.1-7.6-1.2-2.8 1.7-4.1 1.5-0.8 7.7-1.1 0.9 0.3-0.3 1.4 1.9 0.5 1.2 1.3 1-0.3-0.5-1.1z" id="ZM" name="Zambia">
 </path>
 <path d="M1159.4 644.7l-2.9-0.7-1.9 0.8-2.7-1.1-2.2 0-3.4-2.9-4.3-1-1.5-4.1 0.1-2.3-2.3-0.7-6.1-7-1.6-3.7-1.1-1.2-1.9-5.1 6.2 0.7 1.8 0.7 1.9-0.1 3.2-4.2 5.1-5.2 2-0.6 0.8-2.2 3.3-2.5 4.3-0.9 0.2 2.4 4.7-0.1 2.6 1.3 1.1 1.6 2.7 0.5 2.8 2-0.4 8.2-1.3 4.4-0.4 4.8 0.8 1.9-0.9 3.8-0.8 0.6-1.7 4.6-6.2 7.3z" id="ZW" name="Zimbabwe">
 </path>
 <path d="M1222.1 512.6l-3.3-5.3-0.2-23.4 4.9-7.2 1.5-2.1 3.6-0.1 5-4.5 7.3-0.3 15.6-19.3-4.8 0.1-18.7-7.6-2.2-2.3-2.2-3.1-2.2-3.6 1.2-2.2 1.9-3.5 1.9 1.2 1.2 2.7 2.7 2.7 2.8 0 5.2-1.7 6.1-0.7 4.9-2 2.8-0.4 2-1.2 3.2-0.2 1.8-0.2 2.5-0.9 3-0.7 2.5-2.2 2.2 0 0.2 1.8-0.4 3.7 0.2 3.4-1.1 2.3-1.4 7-2.4 7.1-3.3 8.2-4.6 9.4-4.7 7.2-6.6 8.8-5.6 5.2-8.4 6.4-5.3 4.8-6.2 7.8-1.3 3.4-1.3 1.5z" id="SO" name="Somalia">
 </path>
 <path d="M1097.8 230.8l-1.2 0.3-2.9 1-0.1 1.3-0.7-0.1-0.6-2.3-1.3-0.7-1.2-1.7 0.8-1.4 1.2-0.4 0.5-2.1 0.9-0.4 0.8 0.9 1 0.4 0.8 1 0.9 0.3 1.1 1.2 0.7-0.1-0.4 1.6-0.6 0.7 0.3 0.5z" id="XK" name="Kosovo">
 </path>
 <path d="M1159.4 644.7l2.2 9 1.1 4.6-1.4 7.1 0.4 2.3-2.7-1.1-1.7 0.4-0.6 1.9-1.7 2.4-0.1 2.2 3.1 3.5 3.2-0.7 1.4-2.8 4.1 0-1.7 4.7-1 5.3-1.7 2.9-4 3.3-1.1 0.9-2.6 3.3-1.8 3.3-3.5 4.6-6.7 6.6-4.1 3.8-4.3 3-5.9 2.4-2.7 0.4-0.9 1.8-3.2-1-2.7 1.2-5.7-1.2-3.3 0.8-2.2-0.4-5.8 2.6-4.6 1-3.5 2.4-2.4 0.2-2.1-2.3-1.8-0.1-2.2-2.9-0.3 0.9-0.6-1.7 0.3-3.8-1.5-4.3 1.8-1.2 0.1-4.9-3.3-6-2.4-5.4 0-0.1-3.6-8.3 2.8-3.2 2 1.8 0.8 2.7 2.5 0.5 3.4 1.2 2.9-0.5 5-3.3 1.1-23.7 1.4 1 3 6.1-0.6 3.9 1.1 2.3 4-0.7 2.8-2.9 2.7-1.9 1.5-3.1 2.8-1.4 2.3 0.7 2.5 1.8 4.5 0.3 3.6-1.4 0.6-2 1.2-3.1 3-0.5 1.8-2.4 2-4.3 5.2-4.8 8.1-4.7 2.2 0 2.7 1.1 1.9-0.8 2.9 0.7z m-20.3 53.2l1.1-2 3.1-1 1.1-2.1 1.9-3.1-1.7-2-2.2-2-2.7 1.4-3.1 2.5-3.2 4 3.7 5 2-0.7z" id="ZA" name="South Africa">
 </path>
 
 
 
 
 <path d="M1016.5 177.1l-2.8-1.5-3.1-2.7-4.5 1.3-3.6-0.5 2.5-1.7 4-9 6.5-2.6 4 0.2 0.9 2.1-0.9 5.6-1.2 2.3-2.9 0 1.1 6.5z" id="NL" name="Netherlands">
 </path>
 <path d="M946.9 263.7l-2.2 1.6-2.8-0.9-2.7 0.7 0.9-5-0.3-3.9-2.4-0.6-1.1-2.4 0.5-4.2 2.2-2.3 0.5-2.6 1.2-3.8 0-2.7-0.9-2.3-0.2-2.2 1.9-1.6 2.2-0.9 1.2 3.1 3 0 0.9-0.8 3.1 0.2 1.3 3.2-2.4 1.7-0.3 5-0.8 0.9-0.3 3.1-2.3 0.5 2 3.8-1.6 4.2 1.8 1.9-0.8 1.7-2 2.4 0.4 2.2z" id="PT" name="Portugal">
 </path>
 
 
 
 
 
 
 
 
 
 
 <path d="M976.6 223.4l2 2.4 9.5 2.9 1.9-1.4 5.8 2.9 5.9-0.8 0.4 3.7-4.9 4.2-6.6 1.4-0.5 2.1-3.2 3.5-2 5.2 2 3.7-3 2.8-1.2 4.2-4 1.3-3.7 4.9-6.8 0.1-5-0.1-3.4 2.2-2.1 2.4-2.6-0.5-1.9-2.2-1.4-3.6-4.9-1-0.4-2.2 2-2.4 0.8-1.7-1.8-1.9 1.6-4.2-2-3.8 2.3-0.5 0.3-3.1 0.8-0.9 0.3-5 2.4-1.7-1.3-3.2-3.1-0.2-0.9 0.8-3 0-1.2-3.1-2.2 0.9-1.9 1.6 0.5-4.5-2-2.7 7.4-4.6 6.2 1.1 6.9 0 5.4 1.1 4.3-0.4 8.3 0.3z" id="ES" name="Spain">
 </path>
 <path class="France" d="M 1035.7 231.4 1034.2 236.3 1031.8 235 1030.5 230.8 1031.4 228.4 1034.6 226 1035.7 231.4 Z">
 </path>
 <path class="France" d="M 1014.4 185 1015.5 185.5 1016.9 185.4 1019.3 187 1026.5 188.2 1024.1 192.4 1023.7 196.9 1022.4 198 1020.1 197.4 1020.3 199 1016.7 202.5 1016.7 205.4 1019.1 204.4 1020.9 207.1 1020.8 208.9 1022.3 211.3 1020.6 213.2 1022.1 218.1 1024.9 218.9 1024.4 221.6 1019.9 225.2 1009.7 223.5 1002.3 225.6 1001.7 229.4 995.8 230.2 990 227.3 988.1 228.7 978.6 225.8 976.6 223.4 979.3 219.6 980.3 207 975.2 200.4 971.5 197.2 963.9 194.8 963.5 190.2 970 188.9 978.3 190.5 976.8 183.4 981.5 186.1 992.9 181.3 994.4 176.2 998.6 174.9 999.4 177.1 1001.6 177.2 1004 179.7 1007.5 182.6 1010 182.1 1014.4 185 Z">
 </path>
 
 
 
 
 
 
 
 
 
 
 <path d="M677.3 487l1.5-2.8 0.5-2.9 1-2.7-2.1-3.8-0.3-4.4 3.1-5.5 1.9 0.7 4.1 1.5 5.9 5.4 0.8 2.6-3.4 5.9-1.8 4.7-2.2 2.5-2.7 0.4-0.8-1.8-1.3-0.2-1.7 1.7-2.5-1.3z" id="GF" name="French Guiana">
 </path>
 <path d="M592.9 422l-0.5-0.2-0.5-0.5 0.1-0.6 0.2 0.3 0.4 0.4 0.3 0.5 0 0.1z" id="AW" name="Aruba">
 </path>
 <path d="M634.2 384.9l-0.2 0 0.3-0.4 0.3 0-0.2 0.3-0.2 0.1z" id="AI" name="Anguilla">
 </path>
 
 
 
 
 <path d="M1264.1 333.3l0.3 0.1 0.2-0.1 0.4 0.7-0.1 0.2 0.1 0.9 0 0.7-0.2 0.4-0.1-0.4-0.6-0.8 0.1-0.4-0.2-0.7 0-0.4 0.1-0.2z" id="BH" name="Bahrain">
 </path>
 
 
 
 
 
 
 
 
 
 
 
 
 
 
 
 
 
 
 
 
 
 
 
 
 <path class="Cape Verde" d="M 847.8 406.5 847.6 406.8 847.4 406.6 847.4 406.3 847.7 406.2 847.8 406.5 Z">
 </path>
 <path class="Cape Verde" d="M 849.7 406.6 849.5 406.7 849.1 406.6 848.8 406.3 848.7 406 848.9 405.6 849.4 405.3 849.8 405.3 850 406 849.9 406.4 849.7 406.6 Z">
 </path>
 <path class="Cape Verde" d="M 853.2 403.5 853.4 403.6 853.4 403.8 853.6 404 854 404.5 854.2 404.5 854.4 404.8 854.6 405.3 854.8 405.5 854.5 406 854.2 406.1 853.7 406 853.4 405.9 853.1 405.6 853.1 405.4 852.9 405.3 852.8 404.9 852.9 404.7 852.9 404.4 853.1 404 852.9 403.5 853.2 403.5 Z">
 </path>
 <path class="Cape Verde" d="M 856.3 403.5 856.6 403.6 856.7 404.2 856.6 404.6 856.2 404.8 855.8 404.4 856 404 855.9 403.8 856.3 403.5 Z">
 </path>
 <path class="Cape Verde" d="M 858.3 397.8 858.6 397.6 859.1 397.8 859.2 398 859.2 398.7 858.8 399 858.5 399.2 858.2 399.2 857.7 399 857.7 398.5 857.9 398.3 857.9 397.7 858 397.6 858.3 397.8 Z">
 </path>
 <path class="Cape Verde" d="M 850.3 395 850.7 394.9 851 395.1 851.4 395.1 851.7 395.3 851.8 395.5 851.3 395.5 850.6 395.2 850.4 395.3 850.1 395.9 849.8 395.3 849.7 395.2 849.6 394.8 849.9 394.7 850.3 395 Z">
 </path>
 <path class="Cape Verde" d="M 858.1 394.5 858.2 394.6 858.1 395.2 857.9 395.3 857.9 394.8 857.7 394.5 857.7 394.2 857.6 393.9 858 393.6 858.2 393.8 858.1 394.4 858.1 394.5 Z">
 </path>
 <path class="Cape Verde" d="M 846.8 393.2 847 393.5 847.1 393.8 846.4 394.1 846.1 393.9 845.9 393.7 846.3 393.3 846.8 393.2 Z">
 </path>
 <path class="Cape Verde" d="M 846 391.4 846.3 391.5 846.3 391.7 846.6 392 846.4 392.4 845.8 392.7 845.4 393.1 844.7 393.2 844.7 393.1 844.7 392.6 844.5 392.4 844.5 392.2 844.7 392 844.9 392 845.1 391.8 845.8 391.4 846 391.4 Z">
 </path>
 <path d="M599 424.5l-0.3 0-0.4-0.3-0.3-0.1-0.3-0.3-0.1-0.2-0.3-0.1-0.2-0.4-0.3-0.3 0.1-0.5 0.5 0.3 0.1 0.5 0.4 0.4 0.7 0.2 0.2 0.3 0.3 0.4-0.1 0.1z" id="CW" name="Curaçao">
 </path>
 
 
 
 <path class="Cyprus" d="M 1168.2 276.7 1168.3 276.9 1168.6 277.3 1168.2 277.2 1167.9 277.2 1167.5 277.4 1167.2 277.1 1167.2 276.8 1167.5 276.7 1167.7 276.8 1168.2 276.7 Z">
 </path>
 <path class="Cyprus" d="M 1166.5 277.2 1166.5 277.3 1166.3 277.5 1166.2 278.1 1166.1 278.3 1165.8 278.3 1165.6 278.5 1165.1 278.7 1164.9 278.8 1164.3 279.1 1163.9 279 1163.4 279.1 1163.1 279.5 1162.9 279.2 1162.6 279.3 1162.4 279.3 1162.1 279 1161.7 279.3 1161.2 279.3 1160.7 279.1 1160.2 279 1159.8 278.7 1159.5 278.1 1159.2 277.8 1159 277.1 1158.8 276.8 1158.9 276.5 1159.4 276.8 1159.8 276.7 1160 276.4 1160.1 276.1 1160.4 276 1160.6 276.1 1160.8 275.9 1161 275.9 1161.1 276.3 1161.6 276.5 1161.7 276.7 1162.3 276.7 1162.9 276.2 1163.3 276.3 1163.6 276.1 1163.9 276.2 1164.3 276.4 1164.5 276.1 1164.8 276.1 1165.1 276.5 1165.1 277.1 1165.4 276.9 1165.7 277.1 1165.8 277 1166.5 277.2 Z">
 </path>
 
 
 
 
 
 
 
 
 
 
 
 
 <path class="Faeroe Islands" d="M 955.6 112 956 112.2 956.3 112.2 956.4 112.4 956.4 112.8 956.6 113.1 956.5 113.3 955.9 112.9 955.7 112.5 955.5 112.3 955.3 112 955.6 112 Z">
 </path>
 <path class="Faeroe Islands" d="M 955.9 110.4 956.7 110.6 956.9 110.8 956.8 111.2 956.7 111.3 956.3 110.8 955.8 110.7 955.6 110.3 955.9 110.4 Z">
 </path>
 <path class="Faeroe Islands" d="M 954.62 109.03999999999999 954.7 109.2 955 109.2 955 109.5 954.6 109.5 954.4 109.7 953.8 109.5 953.6 109.4 953.4 109.1 953.9 109 954 108.9 954.5571428571428 108.99285714285715 954.3 108.8 954.5 108 955 108.1 955.3 108.6 955.3 108.7 955.9 108.9 956.2 109.4 956.5 109.6 956.4 110.2 955.9 109.8 955.7 109.6 955.5 109.5 955.4 109.3 955.2 109.1 954.7 109.1 954.62 109.03999999999999 Z">
 </path>
 <path class="Faeroe Islands" d="M 958.3 108.4 958.1 108.2 958.4 108 958.3 108.4 Z">
 </path>
 <path class="Faeroe Islands" d="M 955.9 108.9 955.5 108.7 955.2 108.4 955.1 108.1 955.2 108 955.6 107.9 955.9 107.9 956.5 108.3 956.4 108.5 956.5 108.7 957.1 108.9 957.1 109.1 956.7 109.4 955.9 108.9 Z">
 </path>
 <path class="Faeroe Islands" d="M 958.1 108.3 957.8 108.7 957.5 108.5 957.2 108.5 957.4 108.2 957.3 107.8 957.4 107.7 957.6 108.1 958.1 108.3 Z">
 </path>
 <path class="Faeroe Islands" d="M 957.2 108.3 957 108.3 956.8 107.9 956.9 107.6 957.1 108 957.2 108.3 Z">
 </path> 
 <path class="Malta" d="M 1063.9 271.7 1063.7 272 1063.2 271.8 1062.7 271.5 1062.7 271 1062.6 270.9 1063.2 270.9 1063.6 271.2 1063.8 271.4 1063.9 271.7 Z">
 </path>
 <path class="Malta" d="M 1062.3 270.6 1061.8 270.5 1061.8 270.3 1062.2 270.2 1062.6 270.5 1062.3 270.6 Z">
 </path>
 <path class="Canary Islands (Spain)" d="M 888.4 323.4 888.1 323.9 887.7 324.4 887.4 324 887 324 886.8 323.8 887 323.5 887.4 323.6 887.8 323.2 888.1 323 888.3 323.1 888.4 323.4 Z">
 </path>
 <path class="Canary Islands (Spain)" d="M 902 321.1 902 321.6 902.2 322 902 322.7 902.1 323 901.7 323.4 901.2 323.6 901 323.8 900.4 323.6 899.9 323.1 899.7 322.7 899.7 322.1 900.3 321.7 900.4 321.2 900.4 321 901 321.1 901.4 321.1 901.7 321.2 902 321.1 Z">
 </path>
 <path class="Canary Islands (Spain)" d="M 892.1 321.9 891.9 321.9 891.6 321.7 891.4 321.4 891.5 321 891.6 320.7 891.9 320.7 892.2 320.7 892.7 321.1 892.8 321.4 892.3 321.9 892.1 321.9 Z">
 </path>
 <path class="Canary Islands (Spain)" d="M 898.2 318.4 898.2 318.6 897.6 318.9 897.2 319.4 896.9 319.6 896.9 320 896.5 320.7 896.4 321.1 895.9 321.7 895.8 321.9 895.6 321.9 895 322.1 894.9 322 894.8 321.6 894.5 321.2 894.4 321 894.2 320.7 894.2 320.4 893.8 319.8 894.3 319.5 894.6 319.7 895.2 319.5 895.6 319.5 896.1 319.3 896.6 318.9 896.6 318.7 897.2 318.4 897.8 318.4 898.1 318.3 898.2 318.4 Z">
 </path>
 <path class="Canary Islands (Spain)" d="M 908.4 321.2 908.1 321.6 907.7 321.7 907.4 321.6 907 321.6 907 321.4 907.3 321.4 907.9 321.2 908.3 320.9 908.6 320.6 908.7 320.1 908.8 319.8 909 319.3 909.3 318.9 909.6 318.3 909.8 317.5 910 317.3 910.4 317.2 910.7 317.5 910.8 318 910.7 318.5 910.6 319 910.6 319.5 910.5 319.6 910.2 320.3 909.9 320.6 909.3 320.7 908.6 321 908.4 321.2 Z">
 </path>
 <path class="Canary Islands (Spain)" d="M 888.8 316.7 889.1 316.6 889.3 316.9 889.5 317.4 889.3 317.7 889.4 318.1 888.8 319.1 888.7 319 888.6 318.6 888.2 317.7 888.1 317.4 888 317.2 888.2 316.8 888.5 316.6 888.8 316.7 Z">
 </path>
 <path class="Canary Islands (Spain)" d="M 912.9 314.7 912.9 315.1 912.7 315.6 912 316.1 911.5 316.2 911.1 316.7 910.6 316.5 910.6 316.4 910.8 316 910.8 315.6 911 315.3 911.3 315.1 911.6 315.1 911.9 314.8 912.4 314.8 912.5 314.7 912.7 314.2 912.9 314.1 913.1 314.3 912.9 314.7 Z">
 </path>
 <path d="M1240.2 583.1l0.2 0.3 0.5 0.2 0 0.3-0.2 0.2 0.1 0.2-0.3 0.6 0.1 0.2-0.3 0.1-0.2-0.3 0-0.3 0.2-0.2-0.2-0.7-0.1-0.1-0.1-0.2 0.3-0.3z" id="YT" name="Mayotte">
 </path>
 <path d="M1295 635.8l0.4 0 0.4 0.2 0.3 0.3 0 0.3 0.1 0.5 0.3 0.2 0.2 0.2 0.1 0.2-0.2 0.6-0.1 0.4-0.2 0.2-0.4 0.1-0.9 0-0.2-0.2-0.8-0.4-0.3-0.5 0-0.3-0.3-0.6 0.1-0.4 0.2-0.2 0.2-0.4 0.1 0 0.5-0.2 0.5 0z" id="RE" name="Reunion">
 </path>
 <path class="Guadeloupe" d="M 643 399.9 642.7 399.9 642.5 399.5 642.6 399.3 642.9 399 643.2 399.2 643.3 399.5 643.3 399.7 643 399.9 Z">
 </path>
 <path class="Guadeloupe" d="M 641.2 397.3 641.5 397.3 641.5 397.5 641.5 397.6 641.3 397.7 641.3 398.5 641.3 398.9 641.1 399.1 640.5 399.4 640.5 399.2 640.3 399 640.2 398.5 640.2 398 640.1 397.5 640.1 397.2 640.3 396.9 640.6 396.8 641.1 397.1 641.2 397.3 Z">
 </path>
 <path class="Guadeloupe" d="M 642.6 396.9 643 397 643.5 397.4 642.2 397.7 641.9 397.8 641.5 397.5 641.6 396.9 641.8 396.8 641.7 396.2 641.8 396 642.1 395.8 642.4 396.2 642.4 396.6 642.6 396.9 Z">
 </path>
 <path class="Fiji" d="M 1989.1 624.9 1988.8 625 1988.9 624.6 1989.1 624.9 Z">
 </path>
 <path class="Fiji" d="M 1981.6 623.3 1981.8 623.5 1982.1 623.6 1982.1 623.9 1981.6 624.1 1981.1 623.8 1980.6 624.1 1980.3 624.1 1980.1 624.4 1980.2 624.7 1979.8 624.6 1979.7 624.8 1979.3 624.7 1979.2 624.8 1978.8 624.6 1979.1 624.5 1979.3 624.4 1979.5 624.2 1979.9 624.3 1980.2 624 1980.4 623.7 1980.9 623.6 1981.4 623.3 1981.6 623.3 Z">
 </path>
 <path class="Fiji" d="M 1982.5 623.2 1982.3 623.3 1982.1 623.2 1982.3 623 1982.5 623.2 Z">
 </path>
 <path class="Fiji" d="M 1988.4 617.1 1988.5 617.6 1988.3 618.2 1988.2 618 1988.1 617.6 1987.9 617.6 1988 617.1 1988.2 617 1988.4 617.1 Z">
 </path>
 <path class="Fiji" d="M 1985.8 615.7 1985.7 615.7 1985.6 615.3 1985.8 615.1 1986.2 615 1986.2 615.4 1986 615.6 1985.8 615.7 Z">
 </path>
 <path class="Fiji" d="M 1983.6 613.2 1983.5 613.6 1983.8 613.8 1983.9 614.1 1984.2 614.5 1984.5 614.6 1984.6 614.9 1984.8 614.9 1984.9 615.3 1984.6 615.8 1984.7 616 1984.8 616.5 1984.5 616.7 1984.5 617.2 1984.7 617.2 1984.8 617.7 1984.5 618 1983.9 618.2 1983.8 618 1983.5 618.1 1983.4 618.3 1983.1 618 1982.3 618.3 1981.5 619 1981.2 618.9 1980.8 619.1 1980.5 619 1979.9 619.1 1979.6 618.9 1978.7 618.6 1978.4 618.5 1977.8 618.4 1977.6 618.3 1977.1 618.1 1976.9 617.1 1977.2 616.4 1977.5 616.4 1977.8 616.3 1977.9 615.8 1978.2 615.7 1978.3 615.3 1978.1 615.1 1978.7 614.7 1979.1 614.2 1979.2 614.3 1979.8 613.8 1980 613.8 1980.9 613.4 1981.5 613.6 1981.8 613.5 1982.3 613.3 1982.9 613.2 1983.2 612.9 1983.6 613.2 Z">
 </path>
 <path class="Fiji" d="M 1989.9 613.4 1989.7 613.5 1989.9 612.6 1990.3 612.6 1990.2 613 1989.9 613.4 Z">
 </path>
 <path class="Fiji" d="M 1978.5 611.4 1978.3 611.7 1977.8 612 1977.8 611.7 1978.2 611.3 1978.5 611.4 Z">
 </path>
 <path class="Fiji" d="M 1993.4 611 1993.2 610.8 1993.3 610.6 1993.8 610.1 1994.1 609.6 1993.8 610.7 1993.4 611 Z">
 </path>
 <path class="Fiji" d="M 1994.4 606 1994 606.4 1993.2 607.5 1992.9 607.6 1992.2 608 1992 608.6 1991.6 608.8 1991.4 609.1 1991.3 609.3 1991.6 609.4 1992.2 609.1 1992.3 609 1992.6 608.7 1992.8 608.4 1993.4 608.1 1993.7 607.8 1994.3 607.5 1994.3 607.8 1993.8 608.5 1993.6 608.6 1993.7 609.2 1993.4 609.5 1993.1 609.2 1992.7 609.2 1992.2 609.3 1991.8 609.6 1991.1 609.7 1990.1 609.7 1990.6 609.2 1990.2 609 1989.6 609.2 1989.2 609.4 1989.2 609.6 1988.9 609.7 1988.7 609.8 1988.6 610.2 1988.4 610.5 1988.1 610.4 1988.1 610.2 1987.7 610.1 1987.3 610.3 1987.1 610.8 1986.8 611 1986.5 611 1986.5 610.7 1986.5 610.3 1986.3 609.9 1986.4 609.7 1986.3 609.6 1985.7 609.8 1985.7 609.4 1986.1 609.1 1986.2 609.1 1986.1 608.6 1986.4 608.5 1986.9 608.8 1987.5 608.4 1987.7 608.4 1988 608.1 1988.2 608.1 1988.5 607.8 1988.5 607.6 1989.3 607.5 1990.2 607.2 1990.5 607.1 1990.9 607.2 1991.4 607 1991.6 606.6 1991.8 606.6 1992 606.2 1992.4 606.3 1992.5 606.1 1992.7 606.2 1993.7 605.7 1993.8 606 1994 605.9 1994.2 606 1994.5 605.7 1995 605.5 1995.1 605.6 1994.6 606 1994.4 606 Z">
 </path>
 <circle cx="997.9" cy="189.1" id="0">
 </circle>
 <circle cx="673.5" cy="724.1" id="1">
 </circle>
 <circle cx="1798.2" cy="719.3" id="2">
 </circle>
</svg>